<?xml version="1.0" encoding="utf-8"?>
<!-- Generator: Adobe Illustrator 25.2.1, SVG Export Plug-In . SVG Version: 6.00 Build 0)  -->
<svg version="1.1" id="Layer_2_1_" xmlns="http://www.w3.org/2000/svg" xmlns:xlink="http://www.w3.org/1999/xlink" x="0px" y="0px"
	 viewBox="0 0 200 388.3" style="enable-background:new 0 0 200 388.3;" xml:space="preserve">
<style type="text/css">
	.st0{fill-opacity:0.12;}
</style>
<path class="st0" d="M115.2,139.7c-0.4,5.1-1.6,10.3-4.3,14.7c7.3,1.8,8.2-10.6,9-15.8C119.9,137.9,115.3,138.4,115.2,139.7z"/>
<path class="st0" d="M143.6,131.1c2.8-1.4,0.3-4-2.2-2.8c-40.2,20.9-57.3-24.2-48.6-57.2c16.3,6.2-3.7,29.4,11.9,36.8
	c1.8,1,5.9-1.4,3.5-2.7c-14.2-8.1,6.7-34.5-14.6-37.7c2.4-8.1,6.3-15.7,11.6-21.9c1.9-2.3-2.5-3.2-3.9-1.4
	c-5.6,6.6-9.6,14.4-12.3,22.9c-4.2-0.9-6.5,4.2-1,3.5C77.6,107.7,101.1,153.2,143.6,131.1z"/>
<path class="st0" d="M174.8,163.7c-4.8,5.8-4.4,13.3-12.9,15.8c-2.9,1.1-9.7,5.6-12,5.6c-3.2-0.5-6.6-2.9-10-0.9
	c-6.8,0.1-11.9-5.4-13.7-11.8c25.9,5.8,56.6-33.2,41-24.7c-5.2,9.5-14.6,18.2-24.9,21.4c-10.8,3.2-38.5,0.3-33.2-17.2
	c0.4-1.3-4.2-0.6-4.7,0.8c-3.5,11.5,6.6,17.2,17.3,19.2c-7.2,4.8-19.6,3.7-20.6-5.7c-0.4-4.3,1.5-7.7-1.9-11.1
	c-0.9-0.9-5.2,0.9-4.4,1.6c4.7,4.8-0.8,11.3,3.7,16.2c6.1,6.1,16.1,4.8,23.2,1.3c2.2,8,10.4,15.1,18.9,11.6c3.3-0.1,6.1,1.9,9.4,1.8
	c2.8-0.1,4-1,6.5-2.4c5.4-3.8,11.9-3.8,16.6-8.5c2.9-3.8,2.7-9.2,6.1-13.2C180,162.3,175.5,163,174.8,163.7z"/>
<path class="st0" d="M109.7,142.5c-31.5,4.7-42.1,5.1-56.7,26.7c-1.6,2.4,2.7,3.2,3.9,1.4c13.4-20,30.1-19.9,51.1-24.8
	C110.4,145.2,112.9,142,109.7,142.5z"/>
<path class="st0" d="M122.8,178.7c-10.6-1.9-8.5,13.8,0.9,6.8c0.9-1.3-1.8-1.1-2.5-0.9c-0.8-0.5-1.1-1.6-1-2.5
	c0.3,1.9,5.2,0.5,4.8-0.9C124.8,180,123.9,179,122.8,178.7z M119.3,185.6c0.1-0.1,0.4-0.3,0.6-0.5
	C119.9,185.2,119.6,185.4,119.3,185.6z"/>
<path class="st0" d="M88.5,351.9c1.6,9.4,1,19.7-3.4,28.3c-1.1,2.3,3.4,4,4.3,2.2c4.7-9.1,5.6-20.1,3.8-30.1
	C92.9,350,88,349.5,88.5,351.9z"/>
<path class="st0" d="M100.7,211.5c-1.5-1-5.6-0.4-2.9,1.4c6.3,4.3,8.5,14.6,9.1,23.8c-5.8-0.9-11.9,1.1-12.9,7.6
	c-0.8,4.4,1.1,9.2,2.7,13.3c1,2.7,5.8,13.7-1.3,13.8c-3.3,0-2.3,3.5,0.4,3.5c6.6-0.1,9.1-6.2,7.5-11.8c-1.3-4.4-3.3-8.5-4.2-13
	c-1-5.8,2.4-11.5,8-10.3c0.1,3.2,0.1,6.1,0.1,8.5c0,7,1.4,19-2.3,25.4c-0.8,1.4,3.9,2.9,4.8,1.3c1.3-2.3,1.3-5.8,1.5-8.4
	c0.8-8.1,1.1-16.6,0.8-24.7c1.9,0.3,4-1.1,1.9-2.7c-0.6-0.5-1.4-0.9-2.2-1.3c0-0.1,0-0.1,0-0.3C110.9,229.3,108.6,217,100.7,211.5z"
	/>
<path class="st0" d="M84.6,278.2c2.2-1-2.3-3.2-3.8-2.4c-3.2,1.6-6.2,3.9-8.6,6.5c-3.8,4.2-4.3,8.9-3.9,14.2
	c0.1,1.8,4.9,2.7,4.8,0.5c-0.4-5.3,0.3-9.5,4.2-13.4C79.4,281.4,81.9,279.6,84.6,278.2z"/>
<path class="st0" d="M101.3,287.8c1,1.1,1.4,2.9,1.5,4.4c0.1,1.3,4.8,2.3,4.7,0.8c-0.1-1.5-0.6-3-1.4-4.3c-0.6-1-3.2-2.3-3.3-3.4
	c-0.1-0.8-1.6-1.1-2.2-1.3c-1-0.3-1.6-1.5-1.8-2.5c0-0.8-1.3-1.4-2.4-1.6c0.3-2-4.2-3.2-4.8-1c-0.6,2-1.8,4.3-3.5,5.6
	c-0.3,0.1-0.4,0.4-0.5,0.5c-1.3-0.4-2.5-0.4-2.8,0.3c-1.1,2.8-4.7,3.4-6.7,5.3c-1.4,1.4-2.4,3.5-2.4,5.6c0,1.5,4.8,2.3,4.8,1.3
	c0-2.3,1.1-4.6,2.9-5.8s4.3-2.3,5.6-4.2c0.9,0.4,1.9,0.4,2.7-0.1c1.5-1,2.7-2.4,3.5-4c0.8,0.9,1.9,1.6,3,2.2
	C99,286.2,100.7,287.1,101.3,287.8z"/>
<path class="st0" d="M107,335.4c3.9-2.7,5.1-9.7,7.1-13.7c3.5-7.1,2.5-14.8,1.4-22.5c-1.3-8.9-3.8-17.7-11.1-23.3
	c-1.8-1.4-5.7,0-3.2,2c-0.3-0.1,5.4,6.2,5.3,6.2c2.9,4.2,3.2,14.4,4.2,19.2c1.6,8.6,0.3,12.4-3,19.7c-1,2.3-1.4,5.7-2.8,8
	c-1-0.6-2.9-1.3-3.7,0c-1.6,2.4-4,5.8-4.3,8.9c-0.1,2.2,4.6,3.3,4.8,1.3c0.1-1.3,1.4-3.8,2.5-5.8C105.1,335.8,106.1,335.9,107,335.4
	z"/>
<path class="st0" d="M39.8,300.5c0.5-2.2,0-3.7-0.6-5.7c-1-3.2-0.4-5.4,0.3-8.5c0.5-2.7,0.4-5.4,0-8.1c-0.3-2.3-5.2-2.8-4.8-0.3
	c0.4,2.9,0.4,5.6-0.4,8.4c-0.5,2-0.9,4.2-0.5,6.2c0.4,2.3,1.9,4.3,1.3,6.6C34.5,301.5,39.3,302.8,39.8,300.5z"/>
<path class="st0" d="M49.3,284.6c0.8,1.3,0.9,5.4,2,8.9c0.5,1.4,5.2,2,4.7,0.8c-1.3-3.9-0.5-7.1-2.4-10.3c-0.6-1.1-2.7-2.2-3.5-3.3
	c-6.6-8.9-5.7-18.4-10.5-27.5c-0.5-1-2.3-1.5-3.3-1.5h-0.6c-0.9-3.9,1-9.6,0-13.7c-0.4-1.4-5.1-2.2-4.7-0.8
	c1.3,4.8-1.9,10.8,0.6,15.2c0.6,1,2.2,1.5,3.3,1.5h0.8c4.2,9.1,3.8,18.9,10.3,27.5C46.2,282.2,48.9,284.1,49.3,284.6z"/>
<path class="st0" d="M46.4,310.2c-0.3-1.8-1-3.4-2.2-4.8c-0.6-0.8-2.3-1.1-3.2-1.1c-0.6,0-1.9,0.1-1.1,1c1.3,1.5,1.9,3.4,1.8,5.3
	c-0.3,2-0.5,3.7,0.1,5.7c0.4,1.3,5.1,1.9,4.7,0.8C45.6,314.7,46.6,312.5,46.4,310.2z"/>
<path class="st0" d="M54.2,322.1c-0.1,0.1-0.3,0.4-0.3,0.5c-0.1-0.8-0.1-1.6-0.4-2.4c-0.5-1.8-1.5-3.4-2.9-4.6
	c-1.6-1.3-5.6-0.3-3,1.8c-0.8-0.5,0,0,0.1,0.1c0.3,0.4,0.5,0.6,0.6,1c0.6,1.3,0.6,2.5,0.9,3.9c0.3,2,1.1,3.5,2.3,5.2
	c0.5,0.8,1.4,1.3,2.3,1.4c0.1,0.4,0.3,0.6,0.5,1c0.9,1.5,5.6,1.9,4.4-0.3c-0.9-1.6-1.1-4,0-5.7C59.9,322.4,55.2,320.6,54.2,322.1z"
	/>
<path class="st0" d="M79.6,336.6c-0.1-0.4-0.3-0.6-0.4-1c0-0.1,0-0.1-0.1-0.3c-0.3-1.1-1.5-1.8-2.7-1.9c-0.8-0.1-2.4,0.3-2.2,1.5
	c0.5,2.2,1.6,4.2,3.3,5.6c0.9,0.8,2.2,1.3,3.4,0.9c1-0.4,1.4-1.4,0.6-2.2C80.8,338.5,80.2,337.6,79.6,336.6z"/>
<path class="st0" d="M73.7,335.2c-1.9-1.8-3.2-4.4-2.4-7c0.4-1-4.4-2.4-4.8-1.3c-0.9,2.9,0.8,5.9,2.8,8c0.8,0.8,2.2,1.1,3.2,1.1
	C72.9,336.1,74.5,335.9,73.7,335.2z"/>
<path class="st0" d="M8,258.6c0.1,0.5,0.1,0.9,0.3,1.4c1.1,4.2,4,7.3,6.3,10.9c1.4,2.2,2.7,4.9,4.6,7c-0.1,7.7-1.5,15.1-1.9,22.7
	c-0.1,1.6-0.3,2.3,0,3.7c2.3,10.8,15.6,18.4,24.4,22.7c1.1,0.5,5.6,0.8,2.8-0.6c-8.1-3.9-21.4-11.8-22.7-22.1
	c-0.1-1.4,0.6-4.8,0.9-6.5c0.8-5.6,1.1-11.1,1.3-16.8c2.8,1.1,6.1,1.5,8.7,1c1.3-0.3-2.8-2-3.9-1.9c-4.8,0.9-7.8-6.2-10-9.2
	c-1.8-2.7-4-5.2-5.2-8.4c-1.4-3.8-0.9-20.1,7.6-14c0.9,0.6,5.6,1.3,3.7-0.1c-2.8-1.9-6.7-3.4-10.1-2.9c-2.2,0.3-3.8,1.4-4.8,2.9
	c-2.5-14.6-0.6-30.5,8.5-41.9c19.5-24.2,58-21,80.9-3.7c1,0.8,5.8,1,3.8-0.5c-21-15.8-51.9-21.4-75.4-8.5
	C4.1,206.3-0.2,234.8,8,258.6C8,258.5,8,258.5,8,258.6z"/>
<path class="st0" d="M30,341.5c-6.8-10-14.8-20-15.4-32.7c-0.1-1.8-4.9-2.7-4.8-0.5c0.6,10.6,6.3,20.1,12.3,28.5
	c9.4,13.2,16.5,26.5,21.1,42c0.5,1.8,5.3,2.4,4.8,0.5C44,365.7,38.1,353.3,30,341.5z"/>
<path class="st0" d="M157.7,355c-8.2-13.9-21.1-26.1-35.3-33.8c-1.6-0.9-5.8,0-3,1.5c13.7,7.5,25.9,19,33.9,32.4
	C154.2,356.6,159,356.9,157.7,355z"/>
<path class="st0" d="M118,337c-0.8-1.4-5.3-1.8-4.8-0.6c0.8,1.5,2.8,4.3,2.5,5.6c-0.3,1.6-4.2,4.3-5.3,5.6c-0.3,0.3-0.1,0.6,0,0.9
	c1.9,2.3,4.8,5.1,4.7,7.1c-0.1,2-2.9,5.4-3.9,7.2c-2.2,3.5-4.7,7-7.5,10.1c-1,1.1,3.5,2.9,4.4,1.8c4.9-5.7,9-12.1,12.3-18.9
	c0-0.3,0-0.4-0.1-0.6c-1-1.3-5.2-5.4-5.2-6.2c0-0.8,4.6-4.6,5.6-5.6c0.1-0.1,0.3-0.4,0.1-0.5C119.9,340.7,118.9,338.8,118,337z"/>
<path class="st0" d="M74,350.1c0-1.3,1.3-3.5,1.6-4.8c0.4-0.9-4.4-2.4-4.8-1.3c-1.1,3.4-2,4.3-0.5,7.5c3.4,6.8,5.8,14.2,6.8,21.8
	c0.1,1.4,4.8,1.8,4.8,1.3c-0.9-7-3-13.8-5.9-20.1C75.5,353.3,74.1,351.3,74,350.1z"/>
<path class="st0" d="M53.8,341.3c-2-0.9-4.9,0.4-1.8,1.8c13.8,5.8,11.6,25.2,7.8,37c-0.5,1.4,4.3,2.8,4.8,1.3
	C69.3,367.1,69.6,348,53.8,341.3z"/>
<path class="st0" d="M46.1,330c-5.2,3.5-9.2,9-11.5,14.7c-0.6,1.6,4,3,4.8,1.3c2.2-5.2,5.8-10.4,10.5-13.5
	C51.8,331.1,47.5,329.1,46.1,330z"/>
<path class="st0" d="M199.8,68.7v-5.1c-1.9-1.6-4.1-3-6.6-4.2C181.9-17.5,56.2,21.9,79.6,90.3c0.9,2.3,5.4,1,4.7-1.3
	c-20.9-53.9,71.6-96.7,98.1-45.7c10.6,19.4,8.4,41.9-2.2,61.3c-1.3,2.4,3.4,2.5,4.6,0.6c7.1-13.2,10.6-27.7,9-41.8
	C196.2,64.9,198.2,66.6,199.8,68.7z"/>
<path class="st0" d="M199.8,103.6c-6.1,11.5-17.4,19.6-30.6,14.8c-29.4-10.5-44.5-45.9-49.4-74.3c-13.8-6.7,9.5,46.3,13.9,49.5
	c24.7,37.3,51.9,32.6,66,16.3V103.6z"/>
<path class="st0" d="M199.8,158.5c-16.2-8.3-34-15.6-31.9-35.4c0-0.5-4.6-0.1-4.7,1.3c-2.4,22,19.3,28.7,36.6,38V158.5z"/>
<path class="st0" d="M7.5,300.8c-2.7,1.7-5.2,3.9-7.6,6.2v6c4-3.5,7.9-7.4,12.2-10.3C13.1,301.8,8.9,299.9,7.5,300.8z"/>
<path class="st0" d="M25.4,375.4c-5.4-3.3-10.6-6.8-15.3-11.1c-2.4-2.2-4.4-5.1-7-7.1c-0.3-0.3-0.6-0.6-0.9-1
	c2.4-0.9,4.8-1.5,7.2-2.2c0.9-0.3,1.3-1,0.5-1.6c-3.6-3.1-7.1-6.3-10-10.1v5.2c1.6,1.6,3.2,3.1,4.8,4.5c-1.6,0.4-3.2,0.9-4.8,1.4
	v5.7c6.1,7.3,14.6,12.9,22.4,17.7C23.8,377.8,28,377.1,25.4,375.4z"/>
</svg>
