<?xml version="1.0" encoding="UTF-8"?>
<svg width="410px" height="200px" viewBox="0 0 410 200" version="1.1" xmlns="http://www.w3.org/2000/svg" xmlns:xlink="http://www.w3.org/1999/xlink">
    <!-- Generator: Sketch 52.5 (67469) - http://www.bohemiancoding.com/sketch -->
    <title>bullhorn</title>
    <desc>Created with Sketch.</desc>
    <g id="Page-1" stroke="none" stroke-width="1" fill="none" fill-rule="evenodd">
        <g id="Home-layout" transform="translate(-100.000000, -108.000000)">
            <g id="מה-חדש-בפרויקט" transform="translate(46.000000, 108.000000)">
                <g id="bullhorn" transform="translate(54.000000, 0.000000)">
                    <rect id="Rectangle-Copy-9" fill="#D9CDD5" x="0" y="0" width="410" height="200" rx="3"></rect>
                    <path d="M129.914931,55.5695158 C129.349172,59.0033446 128.372961,62.1412125 127.164644,64.4022856 C126.06726,66.4595123 125.099583,67.1623129 124.69681,67.1247847 C123.489346,66.827118 122.11463,66.6036547 120.609353,66.4424541 C120.569247,66.4356308 120.52914,66.4322191 120.489034,66.4296604 C118.214906,66.1925505 115.639552,66.1012888 112.864518,66.1328466 C114.540461,63.2201478 116.052564,58.4745384 116.920402,53.2060932 C117.740453,48.2242268 117.871013,43.4709412 117.318908,40.1727256 C121.606898,41.6747058 125.517715,42.6837022 128.677601,42.951517 C129.070986,43.0581312 129.761332,44.0210702 130.142771,46.3205244 C130.561756,48.8502651 130.48069,52.1348341 129.914931,55.5695158 M113.317637,89.0966833 C111.588788,89.8915984 104.588058,89.1785629 102.163744,87.3320057 C101.854838,87.0966017 101.661132,86.8543743 101.682465,86.7272902 C101.822411,85.8769357 102.879689,84.4329535 103.99926,82.9028271 C106.447467,79.5577013 109.746446,75.0509076 110.323298,68.7905243 C113.552303,68.6668519 116.546643,68.6958509 119.156983,68.9065205 C119.408716,77.7554956 115.125846,88.263387 113.317637,89.0966833 M55.8107877,65.9844397 C54.7082836,59.7837602 54.8567633,51.7808751 56.2280667,43.4462067 C57.6010767,35.1132441 60.0270976,27.4830821 63.0598371,21.9647333 C65.6258043,17.2950331 68.4494775,14.5938568 70.7184855,14.5938568 C70.8686718,14.5938568 71.0171514,14.6057976 71.1613644,14.6296792 C71.62643,14.7055885 72.0778422,14.9102877 72.5096279,15.2292772 C72.723814,15.4288589 72.9508002,15.634411 73.1905863,15.8442277 C74.6233295,17.3871478 75.7932467,20.2921704 76.4835917,24.1720728 C77.1423635,27.8720105 77.3505763,32.2176036 77.1235902,36.8890095 L60.8053358,37.1269723 L60.8053358,37.1278252 C58.904967,36.9359198 57.0191048,39.6191849 56.3850796,43.4717941 C56.094947,45.2305012 56.1273736,46.944004 56.4763861,48.2967244 C56.8561185,49.7697056 57.5865701,50.6831757 58.5371812,50.8981099 L58.5371812,50.8989628 L73.9184779,56.3516373 C72.6359209,60.8490489 71.044458,64.8986811 69.2345423,68.1926321 C67.4092667,71.5130234 65.4568447,73.8329475 63.6631423,74.8990891 C63.2501299,75.0747892 62.8610109,75.2504893 62.4974917,75.4253366 C62.0230395,75.5626556 61.5665073,75.5993309 61.133015,75.5268332 C58.7957405,75.1430223 56.805772,71.576139 55.8107877,65.9844397 M63.1835701,44.5908163 C63.4737027,42.8321091 63.4412761,41.1194593 63.0922636,39.7667389 C62.9548773,39.234521 62.7697044,38.7782124 62.5469849,38.3978131 L77.0502037,38.1862906 C76.8701508,40.9463179 76.5441783,43.8078419 76.0663127,46.7103058 C75.5875939,49.6136225 74.980022,52.4265304 74.2649304,55.0987077 L60.5945629,50.2533074 C61.7713068,49.2323703 62.7586111,47.1725847 63.1835701,44.5908163 M61.83616,40.089993 C62.1407992,41.2721308 62.1646925,42.7954339 61.9035731,44.3801467 C61.3309878,47.8600328 59.744645,49.7944401 58.8588871,49.6485919 C58.4049148,49.5743885 57.9833691,48.9474972 57.7324897,47.9734703 C57.4278505,46.7904796 57.4031039,45.2671765 57.6650766,43.6824637 C58.2171819,40.3253971 59.713925,38.4071951 60.6133362,38.4071951 C60.6457628,38.4071951 60.6781894,38.4097539 60.7089093,38.4148714 C61.1637349,38.4890748 61.5852806,39.1151131 61.83616,40.089993 M115.900671,39.6626835 C116.591016,42.7869047 116.506536,47.7363604 115.640405,52.9945707 C114.731607,58.5112137 113.062491,63.5468136 111.327669,66.1618456 C110.627084,66.1797568 109.915405,66.20705 109.195194,66.2394607 C109.178981,66.2386078 109.163621,66.2334903 109.146554,66.2326374 C109.056954,66.2317845 108.969061,66.2394607 108.883728,66.2548132 C95.7748525,66.8868219 79.6153176,69.7619925 69.3267021,72.8947429 C70.0691004,71.8797761 70.7986986,70.7317549 71.5086703,69.4412971 C74.6796494,63.670486 77.2063634,55.7477747 78.6263066,47.130792 C80.0445433,38.5155151 80.1904629,30.2004637 79.0376123,23.7183229 C78.7696663,22.2120781 78.4343071,20.8371819 78.037508,19.6021635 C87.297006,26.1747131 103.058888,34.9383969 115.900671,39.6626835 M132.702764,45.8966265 C133.166123,48.6984466 133.08591,52.283241 132.474925,55.990002 C131.86394,59.697616 130.791302,63.1186511 129.453279,65.6236574 C127.459897,69.3568587 125.519422,69.8882237 124.244545,69.6801128 L124.140438,69.65879 C123.412547,69.4771195 122.612975,69.324448 121.757084,69.1982168 C121.893617,78.371299 117.743013,89.9137742 114.403075,91.4515768 C113.596677,91.823447 112.30132,92 110.802017,92 C107.336638,92 102.773876,91.055825 100.591054,89.39435 C99.1386844,88.2872686 98.9910581,87.1042779 99.1224712,86.3059511 C99.3631106,84.8457636 100.484388,83.3122255 101.905185,81.3718478 C104.117873,78.3499761 107.074666,74.2969323 107.694184,68.92102 C92.4332071,69.836196 73.2110662,73.6845406 64.8100196,77.2283952 C64.3654339,77.4800046 63.9208483,77.6847038 63.4771161,77.8348165 C63.3678897,77.8876972 63.2578099,77.9414307 63.1545568,77.9943113 C62.9642639,78.0923963 62.7611711,78.1393066 62.5606382,78.1393066 C62.4693318,78.1393066 62.379732,78.1265129 62.2909856,78.1077488 C62.0546128,78.1384537 61.8190933,78.1572177 61.5844272,78.1572177 C61.2917346,78.1572177 61.0007486,78.1333362 60.7114693,78.085573 C57.1360112,77.4979158 54.4889775,73.3612865 53.2576204,66.4381895 C52.1039165,59.9569016 52.2498361,51.6418502 53.6689261,43.0257205 C55.088016,34.4087378 57.6155834,26.4860265 60.7865625,20.7160682 C64.1734344,14.552917 68.0048919,11.4841351 71.5829101,12.0709394 C72.1085622,12.1570837 72.6145876,12.3225488 73.0984265,12.5596587 C73.3723458,12.5946282 73.6368785,12.7114773 73.8476514,12.920441 C73.9560244,13.0279081 74.0712242,13.1379339 74.1889839,13.2496655 C74.4577832,13.4594822 74.7189026,13.6948863 74.9706353,13.9575836 C84.337653,22.1327572 115.015767,39.2370797 128.963467,40.3740131 L129.068426,40.3859539 C130.344157,40.5957706 132.010713,41.7233219 132.702764,45.8966265 Z M44.6051823,40.3844187 L44.2365432,42.623316 L26,39.6227671 L26.3686391,37.3838698 L44.6051823,40.3844187 Z M31.3872512,22.1451244 L32.4206354,20.1245729 L48.8754228,28.5377093 L47.8420386,30.5574079 L31.3872512,22.1451244 Z M26.1027411,54.906461 L44.2974711,51.661979 L44.6959768,53.8949059 L26.5012468,57.1402409 L26.1027411,54.906461 Z" id="Combined-Shape" fill-opacity="0.5" fill="#907989" transform="translate(79.500000, 52.000000) rotate(10.000000) translate(-79.500000, -52.000000) "></path>
                </g>
            </g>
        </g>
    </g>
</svg>