<?xml version="1.0" encoding="utf-8"?>
<!-- Generator: Adobe Illustrator 26.0.3, SVG Export Plug-In . SVG Version: 6.00 Build 0)  -->
<svg version="1.1" id="Layer_1" xmlns="http://www.w3.org/2000/svg" xmlns:xlink="http://www.w3.org/1999/xlink" x="0px" y="0px"
	 viewBox="0 0 410 726" style="enable-background:new 0 0 410 726;" xml:space="preserve">
<style type="text/css">
	.st0{fill-rule:evenodd;clip-rule:evenodd;fill:#C04D43;fill-opacity:0.3;}
</style>
<path id="Combined-Shape_00000127030363545289472040000013450632104903696813_" class="st0" d="M90.6,51.1c-0.8,2.3-1.9,4.4-3,5.8
	c-1,1.3-1.8,1.7-2,1.6c-0.8-0.4-1.8-0.7-2.7-1h-0.1c-1.5-0.4-3.3-0.8-5.3-1.1c1.5-1.8,3.2-4.9,4.4-8.4c1.2-3.4,1.8-6.6,1.9-9
	c2.8,1.5,5.3,2.7,7.5,3.3c0.3,0.1,0.6,0.8,0.6,2.5C91.8,46.5,91.4,48.8,90.6,51.1 M75,72.3c-1.3,0.4-6.1-1-7.5-2.6
	c-0.2-0.2-0.3-0.4-0.3-0.5c0.2-0.6,1.1-1.5,2-2.4c2.1-2,4.9-4.7,6.1-9c2.3,0.3,4.3,0.7,6.1,1.1C80.6,65.2,76.4,71.9,75,72.3
	 M37.9,49.3c0-4.4,1.1-10,3-15.5c2-5.6,4.6-10.6,7.4-14.1c2.3-3,4.6-4.4,6.2-4.2c0.1,0,0.2,0.1,0.3,0.1c0.3,0.1,0.6,0.3,0.8,0.6
	c0.1,0.1,0.3,0.4,0.4,0.5c0.8,1.3,1.3,3.4,1.3,6.2c0,2.7-0.4,5.7-1.1,8.9L44.9,30l0,0c-1.3-0.4-3,1.3-3.9,3.9
	c-0.4,1.2-0.6,2.4-0.5,3.4c0.1,1.1,0.5,1.8,1.1,2l0,0l10,5.6c-1.4,3-3,5.6-4.7,7.6c-1.7,2.1-3.3,3.4-4.7,3.9
	c-0.3,0.1-0.6,0.1-0.8,0.2c-0.4,0.1-0.6,0-1-0.1C38.9,55.9,38,53.2,37.9,49.3 M45.7,35.3c0.4-1.2,0.6-2.4,0.5-3.4
	c0-0.4-0.1-0.7-0.2-1l10.1,1.6c-0.5,1.9-1.1,3.8-1.7,5.8c-0.7,2-1.5,3.8-2.3,5.6l-8.9-5C44.1,38.4,45.1,37,45.7,35.3 M45.3,32
	c0.1,0.8-0.1,1.9-0.5,3c-0.8,2.3-2.2,3.5-2.7,3.3c-0.3-0.1-0.5-0.6-0.6-1.3c-0.1-0.8,0.1-1.9,0.5-3c0.8-2.3,2-3.4,2.7-3.3h0.1
	C45,30.8,45.3,31.3,45.3,32 M82.8,38.4c0.1,2.3-0.6,5.7-1.8,9.2c-1.3,3.7-3.1,7-4.6,8.6c-0.5-0.1-1-0.1-1.5-0.2l0,0
	c-0.1,0-0.1,0-0.2,0c-9.1-1.2-20.7-1.1-28.2-0.2c0.6-0.6,1.3-1.3,1.9-2.1c2.9-3.6,5.6-8.8,7.7-14.6c2-5.8,3.2-11.5,3.2-16.2
	c0-1.1-0.1-2-0.2-3C64.7,25.5,74.5,33.5,82.8,38.4 M93.7,44.7c0,2-0.5,4.5-1.4,7c-0.8,2.5-2,4.7-3.2,6.3c-1.8,2.3-3.2,2.5-4.1,2.2
	h-0.1c-0.5-0.2-1-0.4-1.6-0.6c-1,6.3-5.3,13.8-7.8,14.4c-0.6,0.2-1.5,0.2-2.5,0c-2.4-0.4-5.4-1.6-6.8-3c-0.8-0.9-0.8-1.8-0.6-2.3
	c0.4-1,1.3-1.9,2.5-3.1c1.9-1.8,4.4-4.3,5.6-8C63,56.4,49.2,56.7,43,58.1c-0.4,0.1-0.7,0.2-1,0.3c-0.1,0-0.1,0.1-0.2,0.1
	c-0.1,0.1-0.3,0.1-0.4,0c-0.1,0-0.1,0-0.2-0.1c-0.1,0-0.4,0-0.5-0.1c-0.2-0.1-0.4-0.1-0.6-0.1c-2.4-0.8-3.7-4-3.7-9
	c0-4.6,1.1-10.3,3.2-16.2c2-5.8,4.8-11,7.7-14.6c3.1-3.9,6.1-5.5,8.5-4.6c0.4,0.1,0.7,0.3,1,0.5c0.2,0.1,0.4,0.1,0.5,0.4
	c0.1,0.1,0.1,0.2,0.2,0.3c0.1,0.2,0.3,0.4,0.4,0.6c5.5,6.8,24.6,22.4,34.2,24.9H92C92.7,40.7,93.7,41.7,93.7,44.7z M33.4,30.1
	l-0.6,1.5l-12.2-4.3l0.6-1.5L33.4,30.1z M26.4,15.8l1-1.3l10.3,7.8l-1,1.3L26.4,15.8z M18.7,37.9h13v1.6h-13V37.9z"/>
</svg>
