<?xml version="1.0" encoding="utf-8"?>
<!-- Generator: Adobe Illustrator 26.0.1, SVG Export Plug-In . SVG Version: 6.00 Build 0)  -->
<svg version="1.1" id="Layer_1" xmlns="http://www.w3.org/2000/svg" xmlns:xlink="http://www.w3.org/1999/xlink" x="0px" y="0px"
	 viewBox="0 0 16 16" style="enable-background:new 0 0 16 16;" xml:space="preserve">
<style type="text/css">
	.st0{fill:#64164A;}
	.st1{fill:#242424;}
	.st2{fill:#020203;}
	.st3{fill:none;stroke:#64164A;stroke-miterlimit:10;}
	.st4{fill:#FFFFFF;}
</style>
<circle class="st0" cx="8" cy="8" r="8"/>
<path class="st4" d="M3.2,8.7C3.1,8.6,3,8.6,2.8,8.5l-0.1,0l0-0.1c0-0.1,0.1-0.2,0.1-0.3l0-0.2c0-0.1,0-0.2,0.1-0.3
	c0-0.2,0-0.2,0-0.3c0-0.1,0-0.1,0-0.2C3,7,3,7,3,7L2.9,6.9c0,0-0.1-0.1-0.1-0.1c0,0-0.1,0-0.1-0.1c0,0-0.1,0-0.1,0
	C2.4,6.6,2.3,6.6,2.2,6.5C2,6.5,1.9,6.4,1.8,6.4c-0.1,0-0.2-0.1-0.2-0.2C1.5,6.1,1.5,6,1.5,5.9c0-0.1,0-0.2,0-0.3
	c0-0.1,0.1-0.2,0.1-0.3c0-0.1,0.1-0.2,0.1-0.3c0,0,0-0.1,0-0.1c0-0.1,0-0.1,0.1-0.2C2,4.5,2,4.5,2.1,4.5h0.2l0,0.1
	c0,0.1,0,0.2,0.1,0.2c0,0.1,0,0.1,0.1,0.1c0,0,0.1,0,0.1,0.1l0.1,0c0,0,0.1,0,0.2,0.1l0.2,0.1c0.1,0,0.1,0,0.2,0.1
	c0.1,0,0.1,0,0.2,0.1l0.1,0c0.1,0,0.2,0.1,0.2,0.1C3.9,5.6,4,5.6,4.1,5.7C4.1,5.8,4.1,5.9,4.1,6c0,0.3-0.1,0.6-0.2,1
	C3.8,7.4,3.7,7.9,3.4,8.6L3.2,8.7L3.2,8.7z"/>
<path class="st4" d="M9.1,11.6l-0.3-0.2c0-0.2,0-0.3,0.1-0.4l0-0.1c0-0.1,0.1-0.2,0.1-0.3c0-0.1,0.1-0.2,0.1-0.2
	c0.1-0.2,0.2-0.3,0.3-0.3C9.5,9.9,9.7,9.9,10,9.9h2.8c0-0.2,0-0.3,0-0.5c0-0.1,0-0.2,0-0.3c0-0.1,0-0.2,0-0.3V8.4c0-0.1,0-0.2,0-0.2
	c0-0.1,0-0.1,0-0.2c0-0.1,0-0.2,0-0.2c0-0.1,0-0.1,0-0.2V7.2c0-0.1,0-0.2,0-0.3c0-0.1-0.1-0.1-0.1-0.2c-0.1-0.1-0.1-0.1-0.2-0.1
	c-0.1,0-0.2,0-0.4,0h-1.8c-0.1,0-0.3,0-0.4,0c0,0,0,0,0,0c-0.1,0-0.2,0-0.4-0.1C9.4,6.4,9.3,6.4,9.2,6.3C9.2,6.2,9.1,6.1,9.1,5.9
	c0-0.1,0-0.1,0-0.2c0,0,0-0.2,0-0.2c0-0.1,0.1-0.2,0.1-0.3c0-0.1,0-0.1,0.1-0.2c0-0.1,0-0.1,0.1-0.2l0,0l0.4,0l0,0.1
	c0,0.1,0.1,0.2,0.1,0.2c0,0,0.1,0.1,0.2,0.1c0.1,0,0.1,0,0.2,0c0.1,0,0.1,0,0.2,0c0.1,0,0.1,0,0.2,0h1.6c0.3,0,0.5,0,0.6,0.1
	c0.1,0,0.3,0.1,0.4,0.3c0.1,0.1,0.2,0.2,0.2,0.4c0.1,0.1,0.1,0.3,0.1,0.5v0.4c0,0.1,0,0.1,0,0.2c0,0.1,0,0.1,0,0.2
	c0,0.1,0,0.1,0,0.2c0,0.1,0,0.1,0,0.2v1c0,0.1,0,0.1,0,0.2c0,0.1,0,0.2,0,0.2c0,0.1,0,0.3,0,0.4c0,0.2,0,0.3,0.1,0.4
	c0,0.1,0.1,0.2,0.1,0.2c0,0.1,0.1,0.1,0.2,0.1c0.1,0,0.2,0,0.3,0h0.1l0,0.1c0,0.1-0.1,0.2-0.1,0.3c0,0.1-0.1,0.2-0.1,0.3
	c-0.1,0.2-0.1,0.4-0.2,0.6l0,0.1l-0.1,0H9.9c-0.1,0-0.2,0-0.3,0c-0.1,0-0.2,0-0.2,0C9.3,11.5,9.2,11.5,9.1,11.6L9.1,11.6L9.1,11.6z"
	/>
<path class="st4" d="M6.7,6.8L6.7,6.8C7,6.1,7.3,5.4,7.3,4.6c0-0.2,0-0.4,0-0.5l0-0.1l1.2-0.8l0.1,0.2c0,1-0.4,2-0.6,2.4L7.8,5.9
	C7.8,6.1,7.7,6.2,7.6,6.3C7.5,6.5,7.2,6.7,7,6.9L7,6.9L6.7,6.8z M4.7,6.7L4.7,6.7c0.5-0.9,0.6-1.5,0.6-2.2c0-0.2,0-0.4,0-0.5l0-0.1
	l1.2-0.7l0.1,0.2c0,0.9-0.4,1.9-0.7,2.4C5.9,6,5.8,6.1,5.7,6.3C5.5,6.5,5.3,6.6,5.1,6.8l0,0L4.7,6.7z"/>
</svg>
