<?xml version="1.0" encoding="utf-8"?>
<!-- Generator: Adobe Illustrator 26.0.1, SVG Export Plug-In . SVG Version: 6.00 Build 0)  -->
<svg version="1.1" id="Layer_1" xmlns="http://www.w3.org/2000/svg" xmlns:xlink="http://www.w3.org/1999/xlink" x="0px" y="0px"
	 viewBox="0 0 16 16" style="enable-background:new 0 0 16 16;" xml:space="preserve">
<style type="text/css">
	.st0{fill:#64164A;}
	.st1{fill:#242424;}
	.st2{fill:#020203;}
	.st3{fill:none;stroke:#64164A;stroke-miterlimit:10;}
	.st4{fill:#FFFFFF;}
</style>
<circle class="st0" cx="8" cy="8" r="8"/>
<path class="st4" d="M2.2,4.6c0,0.1,0.1,0.2,0.1,0.3C2.3,5,2.4,5,2.5,5.1c0.1,0.1,0.2,0.1,0.3,0.1c0.1,0,0.2,0.1,0.4,0.1
	c0.1,0.1,0.3,0.1,0.4,0.1c0.1,0.1,0.2,0.1,0.3,0.1C3.9,5.6,3.9,5.7,4,5.8S4,5.9,4,6C4,6.2,4,6.6,3.8,7S3.5,8,3.3,8.6
	C3.1,8.5,3,8.5,2.9,8.4C2.9,8.3,2.9,8.2,3,8C3,7.9,3,7.8,3,7.7c0-0.1,0.1-0.2,0.1-0.3s0-0.2,0-0.3c0-0.1,0-0.1,0-0.2
	C3.1,6.9,3,6.8,3,6.8C3,6.7,2.9,6.7,2.9,6.7c-0.1,0-0.2-0.1-0.2-0.1C2.5,6.5,2.3,6.5,2.2,6.4C2.1,6.4,2,6.4,1.9,6.3
	C1.8,6.2,1.7,6.2,1.7,6.1C1.6,6,1.6,6,1.6,5.9c0-0.1,0-0.2,0-0.3c0-0.1,0.1-0.2,0.1-0.3c0-0.1,0.1-0.2,0.1-0.3
	C1.9,4.8,1.9,4.7,2,4.7c0,0,0.1,0,0.1,0C2.2,4.6,2.2,4.6,2.2,4.6z"/>
<path class="st4" d="M9.8,4.7C9.8,4.8,9.9,4.9,9.9,5C10,5,10.1,5.1,10.1,5.1c0.1,0,0.2,0.1,0.3,0.1s0.2,0,0.3,0h1.6
	c0.3,0,0.5,0,0.6,0.1c0.2,0.1,0.3,0.1,0.4,0.2c0.1,0.1,0.2,0.2,0.2,0.4c0.1,0.1,0.1,0.3,0.1,0.4c0,0.1,0,0.3,0,0.4s0,0.2,0,0.4
	s0,0.3,0,0.4c0,0.2,0,0.3,0,0.4c0,0.1,0,0.1,0,0.2c0,0.1,0,0.2,0,0.4c0,0.1,0,0.3,0,0.4s0,0.3,0.1,0.4c0,0.2,0.1,0.3,0.1,0.4
	c0,0.1,0.1,0.2,0.1,0.3c0.1,0.1,0.2,0.1,0.2,0.2c0.1,0,0.2,0,0.4,0c0,0,0,0,0,0c-0.1,0.2-0.1,0.4-0.2,0.6c-0.1,0.2-0.1,0.4-0.2,0.6
	c0,0,0,0,0,0h0h-3.8c-0.1,0-0.3,0-0.4,0c-0.1,0-0.2,0-0.3,0c-0.1,0-0.2,0-0.3,0.1s-0.2,0.1-0.3,0.1c-0.1,0-0.1,0-0.1,0
	c-0.1,0-0.1,0-0.1-0.1c0-0.1,0.1-0.3,0.1-0.5c0.1-0.2,0.1-0.3,0.2-0.5c0.1-0.1,0.1-0.2,0.3-0.3C9.6,10,9.7,10,10,10h3
	c0-0.2-0.1-0.4-0.1-0.6c0-0.2,0-0.4,0-0.6c0-0.2,0-0.3,0-0.5c0-0.2,0-0.3,0-0.5s0-0.3,0-0.4s0-0.2,0-0.3c0-0.1,0-0.2,0-0.3
	s-0.1-0.2-0.1-0.2c-0.1-0.1-0.2-0.1-0.3-0.2c-0.1,0-0.3-0.1-0.4-0.1h-1.8c-0.1,0-0.3,0-0.4,0c-0.1,0-0.2,0-0.4-0.1
	C9.4,6.3,9.4,6.3,9.3,6.2C9.2,6.1,9.2,6,9.2,5.9c0,0,0-0.1,0-0.2c0-0.1,0-0.2,0.1-0.3c0-0.1,0.1-0.2,0.1-0.3s0.1-0.3,0.1-0.4
	c0.1,0,0.1,0,0.1-0.1C9.7,4.7,9.7,4.7,9.8,4.7z"/>
<path class="st4" d="M5.9,5.7C5.8,5.9,5.7,6.1,5.6,6.2C5.4,6.4,5.2,6.6,5,6.8L4.9,6.7C5.2,6,5.5,5.3,5.5,4.6c0-0.2,0-0.4-0.1-0.5
	l1-0.7l0.1,0.1C6.6,4.2,6.2,5.1,5.9,5.7z M7.8,5.8C7.7,5.9,7.7,6.1,7.6,6.2C7.4,6.4,7.2,6.6,7,6.8L6.8,6.7C7.2,6,7.4,5.4,7.4,4.6
	c0-0.2,0-0.4-0.1-0.5l1-0.7l0.1,0.1C8.5,4.3,8.2,5.1,7.8,5.8z"/>
</svg>
