<?xml version="1.0" encoding="utf-8"?>
<!-- Generator: Adobe Illustrator 21.0.2, SVG Export Plug-In . SVG Version: 6.00 Build 0)  -->
<svg version="1.1" id="Layer_1" xmlns="http://www.w3.org/2000/svg" xmlns:xlink="http://www.w3.org/1999/xlink" x="0px" y="0px"
	 viewBox="0 0 318.1 51.1" style="enable-background:new 0 0 318.1 51.1;" xml:space="preserve">
<style type="text/css">
	.st0{fill:#2B0D22;}
</style>
<path class="st0" d="M2.5,6.4c0.2,0.4,0.4,0.8,0.7,1.2c0.2,0.3,0.5,0.5,0.9,0.6c0.4,0.2,0.7,0.3,1.1,0.3c0.4,0,0.9,0.1,1.5,0.1h10.7
	c0.9,0,1.8,0.1,2.7,0.2c0.6,0.1,1.2,0.3,1.8,0.7c0.4,0.3,0.7,0.7,0.9,1.1c0.2,0.5,0.3,1.1,0.3,1.6c0,0.7-0.1,1.3-0.3,1.9
	c-0.2,0.7-0.4,1.5-0.6,2.3c0,2.3,0.1,4.6,0.3,6.8c0.2,2,0.4,3.8,0.7,5.3c0.1,0.7,0.2,1.4,0.3,2c0.1,0.5,0.1,0.9,0.1,1.4
	c0,0.3,0,0.5-0.1,0.8c-0.1,0.2-0.2,0.4-0.3,0.6c-0.4,0.5-0.7,1-1,1.5s-0.6,1-0.9,1.5c-0.5,0.1-1,0.1-1.4,0c-0.1-0.3-0.1-0.8-0.2-1.4
	s-0.1-1.3-0.2-2s-0.1-1.4-0.1-2.1s-0.1-1.3-0.1-1.8c0-1.5,0-2.8,0-3.9s0-2,0-2.8s0-1.4,0.1-1.9s0-1,0.1-1.3c0-0.5,0-0.9,0-1.2
	s0-0.8,0-1.2c0-0.3,0-0.7-0.1-1c0-0.3-0.2-0.5-0.3-0.7c-0.2-0.2-0.5-0.3-0.8-0.4c-0.5-0.1-1-0.1-1.5-0.1H4.9c-0.6,0-1.2,0-1.8-0.1
	c-0.5,0-1.1-0.2-1.6-0.4c-0.4-0.2-0.8-0.5-1.1-0.8C0.1,12.7,0,12.2,0,11.7c0-0.2,0-0.5,0.1-0.7c0.1-0.3,0.2-0.7,0.3-1.2
	c0.1-0.4,0.3-0.9,0.4-1.5s0.3-1.1,0.6-1.7c0.2-0.1,0.4-0.2,0.6-0.2C2.1,6.4,2.3,6.4,2.5,6.4z"/>
<path class="st0" d="M5.6,21.3c-0.1,0.4-0.2,0.8-0.3,1.1s-0.2,0.6-0.2,0.9S5,23.9,5,24.2s-0.1,0.6-0.1,1l-0.2,8c0,0.1,0,0.3,0,0.4
	c0,0.1-0.1,0.3-0.2,0.3c-0.3,0.2-0.6,0.4-0.8,0.7S3,35.1,2.8,35.3L2,35.9c-0.2,0.2-0.4,0.4-0.6,0.5c-0.4,0.1-0.8,0.1-1.3,0L1,26.6
	c0.1-0.8,0.2-1.6,0.5-2.4c0.2-0.6,0.6-1.2,1-1.7c0.6-0.6,1.2-1.1,1.9-1.6c0.2,0,0.4,0.1,0.6,0.2C5.3,21.1,5.5,21.2,5.6,21.3
	L5.6,21.3z"/>
<path class="st0" d="M44.4,43.4c0,0.1,0,0.3-0.1,0.4v0.3c0,0.4,0,0.8,0.1,1.2c0,0.3,0.1,0.6,0.2,0.9c0.1,0.2,0.2,0.5,0.3,0.7
	c0.1,0.2,0.2,0.4,0.3,0.5c0.2,0.2,0.3,0.5,0.4,0.7c0.1,0.3,0.2,0.6,0.2,0.9c0,0.5-0.2,1.1-0.5,1.5c-0.4,0.4-1,0.7-1.6,0.6
	c-0.6,0-1.2-0.2-1.6-0.6c-0.4-0.4-0.5-0.9-0.5-1.5c0-0.3,0.1-0.6,0.2-0.9c0.1-0.2,0.3-0.5,0.4-0.7c0.1-0.2,0.2-0.3,0.3-0.5
	c0.1-0.2,0.2-0.4,0.3-0.7c0.1-0.3,0.2-0.6,0.2-0.9c0.1-0.4,0.1-0.8,0.1-1.2v-0.3c0-0.1,0-0.3-0.1-0.4H39l0.2-2.4h9.2l-0.2,2.4H44.4z
	"/>
<path class="st0" d="M48.8,14.1c-1-0.1-1.9,0.2-2.6,0.9c-0.6,0.8-0.8,1.8-0.8,2.8c0,0.9,0,1.8,0.1,2.7s0.1,1.8,0.2,2.8
	c0.1,0.9,0.2,1.8,0.3,2.7c0.1,0.9,0.2,1.7,0.3,2.5c0.1,0.7,0.2,1.4,0.3,2.1c0.1,0.5,0.1,1,0.1,1.5c0,0.5-0.2,0.9-0.5,1.3
	c-0.4,0.5-0.8,1-1.1,1.5s-0.7,1-1.1,1.5c-0.5,0.1-1,0.1-1.4,0c-0.1-1.1-0.2-2.4-0.2-3.8c-0.1-1.4-0.1-2.9-0.1-4.4c0-1.3,0-2.7,0-4.1
	s0.1-2.7,0.1-3.9s0.1-2.3,0.1-3.4s0.1-1.8,0.2-2.5H31.7c-0.6,0-1.2,0-1.8-0.1c-0.5,0-1.1-0.2-1.6-0.4c-0.4-0.2-0.8-0.5-1.1-0.8
	c-0.3-0.4-0.4-0.9-0.4-1.5c0-0.2,0-0.5,0.1-0.7c0.1-0.3,0.2-0.7,0.3-1.2c0.1-0.4,0.3-0.9,0.4-1.5c0.2-0.5,0.3-1.1,0.6-1.7
	c0.2-0.1,0.4-0.2,0.6-0.2c0.2,0,0.4,0,0.6,0c0.2,0.4,0.4,0.8,0.7,1.2c0.2,0.3,0.5,0.5,0.9,0.6c0.4,0.2,0.7,0.3,1.1,0.3
	c0.4,0,0.9,0.1,1.5,0.1h16.6c0.1,0,0.1,0.1,0.1,0.2c-0.3,0.9-0.5,1.8-0.7,2.6S49.2,13,49,13.9C49,14,48.9,14.1,48.8,14.1
	C48.8,14.1,48.8,14.1,48.8,14.1L48.8,14.1z"/>
<path class="st0" d="M53.7,22.5c0-1.1,0.9-2.1,2-2.1c0,0,0.1,0,0.1,0c1.2,0,2.1,1,2.1,2.1s-1,2.1-2.1,2.1l0,0
	C54.7,24.6,53.8,23.7,53.7,22.5C53.7,22.5,53.7,22.5,53.7,22.5L53.7,22.5z"/>
<path class="st0" d="M60.4,36.4c0-0.3-0.1-0.8-0.1-1.5s-0.1-1.3-0.1-2s-0.1-1.4-0.1-2.2s0-1.3,0-1.9c0-1.8,0-3.3,0.1-4.6
	s0.1-2.4,0.2-3.3s0.1-1.8,0.2-2.5s0.1-1.4,0.1-2.1c0-0.2-0.1-0.4-0.2-0.6c-0.1-0.2-0.3-0.3-0.5-0.4c-0.2-0.1-0.5-0.2-0.7-0.3
	c-0.3-0.1-0.5-0.1-0.8-0.2c-0.7-0.2-1.3-0.4-1.8-0.5c-0.5-0.1-1-0.3-1.4-0.6c-0.4-0.2-0.7-0.4-0.9-0.8c-0.2-0.3-0.3-0.7-0.3-1.1
	c0-0.4,0.1-0.7,0.2-1c0.1-0.5,0.3-0.9,0.4-1.5s0.4-1.1,0.6-1.6c0.2-0.5,0.4-0.9,0.7-1.3c0.2-0.1,0.4-0.1,0.6-0.1c0.2,0,0.4,0,0.6,0
	c0.1,0.4,0.2,0.7,0.4,1c0.2,0.3,0.4,0.5,0.7,0.7c0.4,0.2,0.7,0.4,1.1,0.5c0.4,0.1,1,0.3,1.7,0.5c0.6,0.2,1.1,0.3,1.4,0.4
	c0.3,0.1,0.6,0.2,0.9,0.4c0.2,0.1,0.3,0.3,0.4,0.5c0.1,0.2,0.1,0.4,0.1,0.6c0,0.2,0,0.5-0.1,0.7c-0.1,0.3-0.1,0.7-0.2,1
	c-0.1,0.6-0.2,1.3-0.3,2.1c-0.1,1.1-0.1,2.1-0.1,3.2c0,1.8,0.1,3.6,0.2,5.4s0.4,3.5,0.6,5.1c0.1,0.7,0.2,1.4,0.3,2
	c0.1,0.5,0.1,1,0.1,1.5c0,0.3,0,0.5-0.1,0.8c-0.1,0.2-0.2,0.4-0.3,0.6c-0.4,0.5-0.8,1-1.2,1.6s-0.7,1-1,1.5
	C61.3,36.5,60.9,36.5,60.4,36.4L60.4,36.4z"/>
<path class="st0" d="M72.3,6.4c0.2,0.4,0.4,0.8,0.7,1.2c0.2,0.3,0.5,0.5,0.9,0.6c0.4,0.2,0.7,0.3,1.1,0.3c0.4,0,0.9,0.1,1.5,0.1
	h10.7c0.9,0,1.8,0.1,2.7,0.2c0.6,0.1,1.2,0.3,1.8,0.7c0.4,0.3,0.7,0.7,0.9,1.1c0.2,0.5,0.3,1,0.3,1.6c0,0.7-0.1,1.3-0.3,1.9
	c-0.2,0.7-0.4,1.5-0.6,2.3c0,2.3,0.1,4.6,0.3,6.8c0.2,2,0.4,3.8,0.7,5.3c0.1,0.7,0.2,1.4,0.3,2c0.1,0.5,0.1,0.9,0.1,1.4
	c0,0.3,0,0.5-0.1,0.8c-0.1,0.2-0.2,0.4-0.3,0.6c-0.4,0.5-0.7,1-1,1.5s-0.6,1-0.9,1.5c-0.5,0.1-0.9,0.1-1.4,0
	c-0.1-0.3-0.1-0.8-0.2-1.4s-0.1-1.3-0.2-2s-0.1-1.4-0.1-2.1s-0.1-1.3-0.1-1.8c0-1.5,0-2.8,0-3.9s0-2,0-2.8s0-1.4,0.1-1.9
	s0-1,0.1-1.3c0-0.5,0-0.9,0-1.2s0-0.8,0-1.2c0-0.3,0-0.7-0.1-1c0-0.3-0.2-0.5-0.3-0.7c-0.2-0.2-0.5-0.3-0.8-0.4
	c-0.5-0.1-1-0.1-1.4-0.1H74.7c-0.6,0-1.2,0-1.8-0.1c-0.5,0-1.1-0.2-1.6-0.4c-0.4-0.2-0.8-0.5-1.1-0.8c-0.3-0.4-0.4-0.9-0.4-1.5
	c0-0.2,0-0.5,0.1-0.7c0.1-0.3,0.2-0.7,0.3-1.2s0.3-0.9,0.4-1.5s0.3-1.1,0.6-1.7c0.2-0.1,0.4-0.2,0.6-0.2C71.9,6.4,72.1,6.4,72.3,6.4
	L72.3,6.4z"/>
<path class="st0" d="M75.4,21.3c-0.1,0.4-0.2,0.8-0.3,1.1s-0.2,0.6-0.2,0.9c-0.1,0.3-0.1,0.6-0.1,0.9c0,0.3-0.1,0.6-0.1,1l-0.2,8
	c0,0.1,0,0.3,0,0.4c0,0.1-0.1,0.3-0.2,0.3c-0.3,0.2-0.6,0.4-0.9,0.7l-0.8,0.7c-0.3,0.2-0.5,0.4-0.8,0.6c-0.2,0.2-0.4,0.4-0.6,0.5
	c-0.4,0.1-0.8,0.1-1.3,0l0.8-9.8c0.1-0.8,0.2-1.6,0.5-2.4c0.2-0.6,0.6-1.2,1-1.7c0.3-0.3,0.5-0.5,0.8-0.8c0.4-0.3,0.7-0.6,1.1-0.8
	c0.2,0,0.4,0.1,0.6,0.2C75.1,21.1,75.3,21.2,75.4,21.3L75.4,21.3z"/>
<path class="st0" d="M99.9,42.4c0-1.1,0.9-2.1,2-2.1c0,0,0.1,0,0.1,0c1.2,0,2.1,0.9,2.2,2.1c0,1.2-0.9,2.1-2.1,2.2c0,0-0.1,0-0.1,0
	C100.9,44.6,99.9,43.6,99.9,42.4C99.9,42.5,99.9,42.4,99.9,42.4L99.9,42.4z"/>
<path class="st0" d="M99.9,49c0-1.1,0.9-2.1,2-2.1c0,0,0.1,0,0.1,0c1.2,0,2.1,1,2.1,2.1s-1,2.1-2.1,2.1
	C100.9,51.1,99.9,50.2,99.9,49C99.9,49,99.9,49,99.9,49L99.9,49z"/>
<path class="st0" d="M99.6,6c0,0.4,0.2,0.8,0.3,1.1c0.2,0.3,0.4,0.6,0.7,0.8c0.4,0.2,0.7,0.4,1.2,0.6c0.5,0.2,1,0.4,1.7,0.6
	c0.7,0.2,1.3,0.4,1.7,0.6c0.4,0.2,0.9,0.4,1.3,0.6c0.3,0.2,0.6,0.5,0.8,0.8c0.2,0.3,0.3,0.7,0.2,1.1c-0.1,1.5-0.4,3-0.8,4.5
	c-0.7,2.4-1.6,4.8-2.6,7.1c-0.6-0.1-1.2-0.3-1.8-0.6c0.2-0.6,0.3-1.2,0.5-1.9s0.3-1.2,0.4-1.8s0.2-1.1,0.2-1.5
	c0-0.4,0.1-0.8,0.1-1.1c0-0.2,0-0.5-0.1-0.7c-0.1-0.2-0.2-0.4-0.4-0.5c-0.2-0.2-0.4-0.3-0.7-0.4c-0.3-0.2-0.7-0.3-1.1-0.4
	c-0.7-0.2-1.4-0.5-1.9-0.7c-0.5-0.2-1-0.4-1.4-0.6c-0.3-0.2-0.7-0.5-0.9-0.8c-0.2-0.3-0.3-0.7-0.3-1.1c0-0.4,0.1-0.8,0.2-1.1
	c0.1-0.5,0.2-1,0.4-1.4c0.2-0.5,0.3-1,0.5-1.5C98,7,98.2,6.5,98.4,6.2C98.5,6.1,98.7,6,98.9,6C99.2,6,99.4,6,99.6,6L99.6,6z"/>
<path class="st0" d="M111.3,24.4c-0.1-1.3-0.1-2.6,0-4h13.5c0,1.3,0,2.7,0,4H111.3z"/>
<path class="st0" d="M133.4,46.1c-0.5,0.1-0.9,0.1-1.4,0c-0.1-0.8-0.1-1.8-0.2-2.8s-0.1-2.2-0.2-3.3s-0.1-2.4-0.1-3.6
	s-0.1-2.4-0.1-3.6c0-1.6,0-3,0-4.2c0-1.2,0.1-2.2,0.1-3.1c0-0.8,0.1-1.6,0.3-2.4c0.1-0.7,0.3-1.4,0.5-2c0.2-0.7,0.5-1.4,0.8-2.1
	s0.7-1.6,1.1-2.6c0.1-0.1,0.1-0.2,0.1-0.3c0-0.1,0-0.1,0-0.2c0-0.3-0.2-0.5-0.4-0.6c-0.5-0.3-1-0.5-1.6-0.6
	c-0.6-0.2-1.2-0.3-1.7-0.5c-0.4-0.1-0.9-0.3-1.3-0.6c-0.3-0.2-0.6-0.4-0.8-0.7c-0.2-0.3-0.3-0.7-0.3-1c0-0.4,0.1-0.7,0.2-1
	c0.1-0.5,0.3-0.9,0.4-1.5s0.4-1.1,0.6-1.6c0.2-0.5,0.4-0.9,0.7-1.3c0.2-0.1,0.4-0.1,0.6-0.1c0.2,0,0.4,0,0.6,0
	c0.1,0.4,0.2,0.7,0.4,1c0.1,0.3,0.4,0.5,0.6,0.6c0.3,0.2,0.7,0.4,1,0.5c0.4,0.1,1,0.3,1.6,0.5c0.6,0.2,1.2,0.4,1.7,0.6
	c0.4,0.2,0.8,0.4,1.1,0.6c0.2,0.2,0.4,0.4,0.6,0.7c0.1,0.2,0.2,0.5,0.2,0.7c0,0.6-0.1,1.2-0.4,1.7c-0.2,0.7-0.6,1.4-1,2.3
	c-0.4,0.9-0.8,1.8-1.2,2.6c-0.3,0.8-0.6,1.6-0.8,2.4c-0.2,0.8-0.3,1.5-0.4,2.3c-0.1,0.8-0.1,1.7-0.1,2.5c0,0.9,0,1.9,0.1,3
	s0.2,2.4,0.3,3.7s0.3,2.7,0.4,4.2s0.3,2.9,0.5,4.4c0,0.2,0.1,0.4,0.1,0.6c0,0.2,0,0.4,0,0.6c0,0.3,0,0.5-0.1,0.8
	c-0.1,0.2-0.2,0.4-0.4,0.6l-1.2,1.3C134.1,45.2,133.7,45.7,133.4,46.1L133.4,46.1z"/>
<path class="st0" d="M145.4,6.4c0.2,0.4,0.4,0.8,0.7,1.2c0.2,0.3,0.5,0.5,0.9,0.6c0.4,0.2,0.7,0.3,1.1,0.3c0.4,0,0.9,0.1,1.5,0.1
	h7.4c0.9,0,1.9,0.1,2.8,0.4c0.7,0.2,1.2,0.6,1.7,1c0.4,0.4,0.7,1,0.9,1.6c0.2,0.6,0.3,1.3,0.3,1.9c0,0.6,0,1.2-0.1,1.7
	c0,0.5-0.1,1-0.1,1.6s-0.1,1.1-0.1,1.7s-0.1,1.2-0.1,1.9c0,0.2,0,0.5,0,1s0,1,0.1,1.6s0.1,1.2,0.1,1.9s0.1,1.3,0.2,2
	c0.1,0.6,0.2,1.1,0.4,1.7c0.1,0.4,0.3,0.8,0.6,1.2c0.3,0.3,0.6,0.6,1.1,0.7c0.5,0.1,1.1,0.2,1.6,0.2c0.1,0,0.1,0.1,0.1,0.2
	c-0.3,0.9-0.5,1.7-0.8,2.5c-0.2,0.8-0.4,1.6-0.7,2.5c0,0.1,0,0.1-0.1,0.1c0,0-0.1,0-0.2,0h-17c-0.6,0-1.2,0-1.6,0s-0.9,0-1.3,0.1
	c-0.4,0-0.8,0.1-1.2,0.2c-0.4,0.1-0.8,0.3-1.2,0.4c-0.2,0-0.4-0.1-0.6-0.2c-0.2-0.1-0.3-0.2-0.5-0.3c0.1-0.6,0.3-1.3,0.6-2
	s0.5-1.5,0.8-2.3c0.2-0.5,0.6-0.9,1.1-1.2c0.8-0.4,1.6-0.5,2.5-0.5h13.3c-0.1-0.9-0.2-1.8-0.3-2.6s-0.1-1.6-0.1-2.5c0-0.6,0-1.3,0-2
	c0-0.7,0.1-1.4,0.1-2s0.1-1.3,0.1-1.8s0-1.1,0-1.5c0-0.5-0.1-0.9-0.2-1.4c-0.1-0.4-0.3-0.8-0.6-1.1c-0.3-0.3-0.8-0.6-1.2-0.7
	c-0.6-0.2-1.3-0.3-1.9-0.2h-8c-0.6,0-1.2,0-1.8-0.1c-0.5,0-1.1-0.2-1.6-0.4c-0.4-0.2-0.8-0.5-1.1-0.8c-0.3-0.4-0.4-0.9-0.4-1.5
	c0-0.2,0-0.5,0.1-0.7c0.1-0.3,0.2-0.7,0.3-1.2s0.3-0.9,0.4-1.5s0.3-1.1,0.6-1.7c0.2-0.1,0.4-0.2,0.6-0.2
	C145,6.4,145.2,6.4,145.4,6.4L145.4,6.4z"/>
<path class="st0" d="M150.2,22.5c0-0.6,0.2-1.1,0.6-1.5c0.4-0.4,1-0.6,1.5-0.6c1.2,0,2.1,1,2.1,2.1s-1,2.1-2.1,2.1
	c-0.6,0-1.1-0.2-1.5-0.6C150.4,23.6,150.2,23,150.2,22.5L150.2,22.5z"/>
<path class="st0" d="M194.1,16.8c0.1-0.4,0.3-1,0.5-1.7c0.2-0.7,0.4-1.4,0.7-2.1s0.5-1.4,0.7-2.1s0.4-1.2,0.6-1.7
	c0.3-0.4,0.6-0.8,1-1c0.4-0.3,0.8-0.5,1.2-0.7c0.4-0.2,0.8-0.3,1.3-0.4c0.4-0.1,0.8-0.1,1.2-0.1c0.9,0,1.8,0.2,2.7,0.5
	c0.8,0.3,1.5,0.8,2.1,1.3c0.6,0.6,1.2,1.2,1.6,2c0.4,0.8,0.8,1.6,1.1,2.4c0.3,0.8,0.5,1.7,0.6,2.6c0.1,0.9,0.2,1.7,0.2,2.6
	c0,0.9-0.1,1.9-0.2,2.8c-0.1,1-0.3,2-0.6,3c-0.2,1-0.6,2-0.9,3c-0.4,1-0.8,1.9-1.3,2.7c-0.5,0.8-1.1,1.6-1.7,2.3
	c-0.6,0.6-1.3,1.2-2.1,1.6c-0.7,0.3-1.5,0.6-2.2,0.9c-0.8,0.3-1.7,0.5-2.6,0.8s-1.8,0.5-2.8,0.7s-1.9,0.4-2.8,0.6
	c-0.3,0-0.6-0.1-0.9-0.2c-0.3-0.1-0.5-0.2-0.8-0.4c-0.8-1.2-1.4-2.4-1.9-3.7c-0.6-1.4-1.1-2.8-1.5-4.2c-0.4-1.3-0.7-2.7-1-4
	c-0.2-1-0.3-2-0.3-3c0-0.4,0-0.9,0.1-1.3c0.1-0.5,0.2-0.9,0.3-1.4s0.3-0.9,0.4-1.4s0.3-0.8,0.4-1.2c0.1-0.1,0.1-0.3,0.1-0.4
	c0-0.2-0.1-0.4-0.3-0.5c-0.4-0.3-0.8-0.5-1.2-0.7c-0.4-0.2-0.8-0.5-1.2-0.7c-0.3-0.2-0.6-0.4-0.9-0.6c-0.2-0.2-0.4-0.4-0.6-0.7
	c-0.1-0.3-0.2-0.5-0.2-0.8c0-0.4,0.1-0.7,0.2-1c0.2-0.5,0.4-0.9,0.6-1.3c0.3-0.5,0.5-0.9,0.8-1.4c0.3-0.5,0.6-0.9,0.9-1.2
	c0.2,0,0.3-0.1,0.5-0.1c0.1,0,0.2,0,0.3,0c0.1,0,0.2,0,0.2,0.1c0,0.2,0.1,0.5,0.2,0.7c0.1,0.2,0.2,0.4,0.4,0.6
	c0.3,0.2,0.6,0.4,0.9,0.6c0.4,0.2,0.9,0.5,1.6,0.8c0.6,0.3,1.2,0.6,1.7,1.1c0.3,0.2,0.5,0.6,0.6,1c0,0.4-0.1,0.7-0.3,1
	c-0.2,0.4-0.4,0.8-0.6,1.3c-0.2,0.3-0.4,0.8-0.6,1.2s-0.4,1-0.7,1.5c-0.2,0.5-0.4,1.1-0.5,1.6c-0.1,0.5-0.2,1.1-0.2,1.7
	c0,0.6,0.1,1.2,0.2,1.7c0.1,0.7,0.3,1.4,0.5,2.1s0.5,1.5,0.8,2.3s0.6,1.5,0.9,2.2c0.3,0.6,0.6,1.2,0.9,1.8c0.2,0.4,0.5,0.8,0.8,1.2
	c0.7-0.1,1.5-0.3,2.5-0.5s1.9-0.4,2.9-0.7s1.9-0.5,2.7-0.8c0.7-0.2,1.3-0.5,1.9-0.9c1.1-0.9,2-2.1,2.5-3.4c0.6-1.3,0.9-2.8,0.9-4.2
	c0-0.9-0.1-1.9-0.4-2.8c-0.2-0.9-0.6-1.6-1.2-2.3c-1.1-1.4-2.9-2.3-4.7-2.2c-0.4,0-0.8,0.1-1.2,0.2c-0.5,0.1-0.9,0.4-1.3,0.6
	c-0.5,0.4-0.9,0.8-1.3,1.3c-0.5,0.7-0.8,1.4-1.1,2.2c-0.2-0.1-0.5-0.1-0.7-0.2C194.5,17,194.3,16.9,194.1,16.8L194.1,16.8z"/>
<path class="st0" d="M223.4,42.4c0-1.1,0.9-2.1,2-2.1c0,0,0.1,0,0.1,0c1.2,0,2.1,0.9,2.2,2.1c0,1.2-0.9,2.1-2.1,2.2c0,0-0.1,0-0.1,0
	C224.4,44.6,223.4,43.6,223.4,42.4C223.4,42.5,223.4,42.4,223.4,42.4z"/>
<path class="st0" d="M223.4,49c0-1.1,0.9-2.1,2-2.1c0,0,0.1,0,0.1,0c1.2,0,2.1,1,2.1,2.1s-1,2.1-2.1,2.1
	C224.4,51.1,223.4,50.2,223.4,49C223.4,49,223.4,49,223.4,49z"/>
<path class="st0" d="M216.5,6.4c0.2,0.4,0.4,0.8,0.7,1.2c0.2,0.3,0.5,0.5,0.9,0.6c0.4,0.2,0.8,0.3,1.2,0.3c0.4,0,0.9,0.1,1.5,0.1
	h11.1c1,0,2.1,0.2,3,0.6c0.8,0.4,1.5,1,2,1.7c0.5,0.8,0.9,1.6,1.1,2.6c0.2,1,0.3,2.1,0.3,3.1c0,1.5-0.1,2.9-0.4,4.4
	c-0.3,1.4-0.6,2.7-1.1,4c-0.4,1.2-0.9,2.3-1.5,3.4c-0.5,0.9-1,1.7-1.6,2.5c-0.9,1-2,1.9-3.2,2.6c-1.5,0.8-3.3,1.8-5.4,2.8
	c-0.4,0-0.7-0.1-1.1-0.3c0.4-1.9,0.9-3.8,1.5-5.7c1.7-0.6,3.3-1.4,4.9-2.2c0.9-0.5,1.8-1.1,2.6-1.8c0.4-0.4,0.7-0.9,1-1.5
	c0.3-0.6,0.5-1.2,0.7-1.8c0.2-0.6,0.3-1.3,0.4-2c0.1-0.7,0.1-1.3,0.1-2c0-0.6-0.1-1.2-0.2-1.8c-0.1-0.5-0.3-1-0.7-1.5
	c-0.3-0.4-0.7-0.8-1.2-1c-0.5-0.3-1.1-0.4-1.7-0.4h-12.5c-0.6,0-1.2,0-1.8-0.1c-0.5,0-1.1-0.2-1.6-0.4c-0.4-0.2-0.8-0.5-1.1-0.8
	c-0.3-0.4-0.4-0.9-0.4-1.5c0-0.2,0-0.5,0.1-0.7c0.1-0.3,0.1-0.7,0.3-1.2c0.1-0.4,0.3-0.9,0.4-1.5s0.3-1.1,0.6-1.7
	c0.2-0.1,0.4-0.2,0.6-0.2C216.1,6.4,216.3,6.4,216.5,6.4z"/>
<path class="st0" d="M219.6,19.7c-0.2,0.8-0.3,1.7-0.4,2.6c-0.1,0.8-0.1,1.7-0.1,2.6c0,1.9,0.1,4.3,0.2,7c0.1,2.7,0.3,5.7,0.6,9
	c0,0.2,0.1,0.5,0.1,0.7s0,0.4,0,0.7c0,0.2,0,0.5-0.1,0.7c-0.1,0.2-0.2,0.5-0.4,0.6c-0.8,0.9-1.6,1.8-2.3,2.7c-0.5,0.1-0.9,0.1-1.4,0
	c0-0.2,0-0.4,0-0.8s0-0.9,0-1.5s0-1.2,0-1.9v-2.3c0-1.1,0-2.3,0-3.7s0-2.9,0.1-4.4s0.1-3,0.1-4.5s0.1-2.8,0.1-3.9
	c0-0.4,0.1-0.8,0.4-1.1c0.4-0.5,0.7-1,1-1.4c0.3-0.4,0.7-0.8,1.2-1.3C219,19.4,219.3,19.5,219.6,19.7z"/>
<path class="st0" d="M244.7,42.4c0,1.1-0.9,2.1-2,2.1c0,0-0.1,0-0.1,0c-1.2,0-2.1-0.9-2.2-2.1c0-1.2,0.9-2.1,2.1-2.2
	c0,0,0.1,0,0.1,0C243.7,40.3,244.7,41.2,244.7,42.4C244.7,42.4,244.7,42.4,244.7,42.4z"/>
<path class="st0" d="M248.3,48.7c0,1.2-1,2.1-2.2,2.1c-0.6,0-1.1-0.2-1.5-0.6c-0.8-0.8-0.8-2.2,0-3c0.4-0.4,1-0.6,1.5-0.6
	C247.3,46.6,248.3,47.5,248.3,48.7C248.3,48.7,248.3,48.7,248.3,48.7z"/>
<path class="st0" d="M251.9,42.4c0,1.2-1,2.1-2.1,2s-2.1-1-2-2.1c0-1.2,1-2.1,2.1-2c0.5,0,1.1,0.2,1.4,0.6
	C251.7,41.3,251.9,41.8,251.9,42.4z"/>
<path class="st0" d="M244,6c0,0.4,0.2,0.8,0.3,1.1c0.2,0.3,0.4,0.6,0.7,0.8c0.4,0.2,0.7,0.4,1.2,0.6c0.5,0.2,1,0.4,1.7,0.6
	c0.7,0.2,1.2,0.4,1.7,0.6c0.4,0.2,0.9,0.4,1.3,0.6c0.3,0.2,0.6,0.5,0.8,0.8c0.2,0.3,0.3,0.7,0.3,1.1c-0.1,1.5-0.4,3-0.8,4.5
	c-0.7,2.4-1.6,4.8-2.6,7.1c-0.6-0.1-1.2-0.3-1.8-0.6c0.2-0.6,0.3-1.2,0.5-1.9s0.3-1.2,0.4-1.8s0.2-1.1,0.2-1.5
	c0-0.4,0.1-0.8,0.1-1.1c0-0.2,0-0.5-0.1-0.7c-0.1-0.2-0.2-0.4-0.4-0.5c-0.2-0.2-0.4-0.3-0.7-0.4c-0.3-0.2-0.7-0.3-1.1-0.4
	c-0.7-0.2-1.4-0.5-1.9-0.7c-0.5-0.2-1-0.4-1.4-0.6c-0.4-0.2-0.7-0.5-0.9-0.8c-0.2-0.3-0.3-0.7-0.3-1.1c0-0.4,0.1-0.8,0.2-1.1
	c0.1-0.5,0.2-0.9,0.4-1.4s0.3-1,0.6-1.5s0.4-0.9,0.6-1.3c0.2-0.1,0.4-0.1,0.6-0.1C243.6,6,243.8,6,244,6L244,6z"/>
<path class="st0" d="M255.8,2.1c0-1.1,0.9-2.1,2-2.1c0,0,0.1,0,0.1,0c1.2,0,2.1,1,2.1,2.1s-1,2.1-2.1,2.1
	C256.8,4.3,255.8,3.3,255.8,2.1C255.8,2.2,255.8,2.1,255.8,2.1z"/>
<path class="st0" d="M261.4,36.4c0-0.3-0.1-0.8-0.1-1.5s-0.1-1.3-0.1-2s-0.1-1.4-0.1-2.2s0-1.3,0-1.9c0-1.8,0-3.3,0.1-4.6
	s0.1-2.4,0.2-3.3s0.1-1.8,0.2-2.5s0.1-1.4,0.1-2.1c0-0.2-0.1-0.5-0.2-0.6c-0.1-0.2-0.3-0.3-0.5-0.4c-0.2-0.1-0.5-0.2-0.7-0.3
	c-0.3-0.1-0.5-0.1-0.8-0.2c-0.7-0.2-1.3-0.4-1.8-0.5c-0.5-0.1-1-0.3-1.4-0.6c-0.4-0.2-0.7-0.4-0.9-0.8c-0.2-0.3-0.3-0.7-0.3-1.1
	c0-0.4,0.1-0.7,0.2-1c0.1-0.5,0.3-0.9,0.4-1.5s0.4-1.1,0.6-1.6c0.2-0.5,0.4-0.9,0.7-1.3c0.2-0.1,0.4-0.1,0.6-0.1c0.2,0,0.4,0,0.6,0
	c0.1,0.4,0.2,0.7,0.4,1c0.2,0.3,0.4,0.5,0.7,0.7c0.4,0.2,0.7,0.4,1.1,0.5c0.4,0.1,1,0.3,1.7,0.5c0.6,0.2,1.1,0.3,1.4,0.4
	c0.3,0.1,0.6,0.2,0.9,0.4c0.2,0.1,0.3,0.3,0.4,0.5c0.1,0.2,0.1,0.4,0.1,0.6c0,0.2,0,0.5-0.1,0.7c0,0.3-0.1,0.7-0.2,1
	c-0.1,0.6-0.2,1.3-0.3,2.1c-0.1,1.1-0.1,2.1-0.1,3.2c0,1.8,0.1,3.6,0.2,5.4s0.4,3.5,0.6,5.1c0.1,0.7,0.2,1.4,0.3,2
	c0.1,0.5,0.1,1,0.1,1.5c0,0.3,0,0.5-0.1,0.8c-0.1,0.2-0.2,0.4-0.3,0.6c-0.4,0.5-0.8,1-1.2,1.6s-0.7,1-1,1.5
	C262.4,36.5,261.9,36.5,261.4,36.4z"/>
<path class="st0" d="M270.8,6.4c0.2,0.4,0.4,0.8,0.7,1.2c0.2,0.3,0.5,0.5,0.9,0.6c0.4,0.2,0.7,0.3,1.1,0.3c0.4,0,0.9,0.1,1.5,0.1
	h7.7c1,0,2,0.1,3,0.3c0.9,0.2,1.7,0.6,2.4,1.1c0.7,0.5,1.2,1.2,1.5,2c0.4,1,0.6,2,0.5,3.1c0,0.5,0,1-0.1,1.5c0,0.4-0.1,0.8-0.1,1.3
	c0,0.5,0,1.1,0,1.8c0,1.5,0.1,3,0.3,4.5c0.2,1.5,0.4,2.9,0.6,4.3c0.1,0.7,0.2,1.4,0.3,2c0.1,0.5,0.2,1,0.2,1.5c0,0.3,0,0.5-0.1,0.8
	c-0.1,0.2-0.2,0.4-0.4,0.6c-0.4,0.5-0.8,1-1.2,1.5s-0.8,1.1-1.1,1.5c-0.5,0.1-1,0.1-1.4,0c0-0.3-0.1-0.8-0.1-1.4s-0.1-1.3-0.1-2
	s-0.1-1.4-0.1-2.1s0-1.3,0-1.8c0-1.6,0-2.9,0-4c0-1,0-1.9,0.1-2.5s0.1-1.3,0.1-1.8s0.1-1.1,0.1-1.7c0.1-1.3-0.3-2.5-1.1-3.5
	c-1.1-0.9-2.5-1.3-3.9-1.2h-9c-0.6,0-1.2,0-1.8-0.1c-0.5,0-1-0.1-1.5-0.3c-0.4-0.2-0.8-0.4-1.1-0.8c-0.3-0.4-0.4-0.9-0.4-1.4
	c0-0.2,0-0.5,0.1-0.7c0.1-0.3,0.2-0.7,0.3-1.2s0.3-1,0.4-1.5s0.4-1.1,0.6-1.7c0.2-0.1,0.4-0.1,0.6-0.2
	C270.4,6.4,270.6,6.4,270.8,6.4z"/>
<path class="st0" d="M304,42.4c0-1.1,0.9-2.1,2-2.1c0,0,0.1,0,0.1,0c1.2,0,2.1,0.9,2.2,2.1c0,1.2-0.9,2.1-2.1,2.2c0,0-0.1,0-0.1,0
	C305,44.6,304,43.6,304,42.4C304,42.5,304,42.4,304,42.4z"/>
<path class="st0" d="M304,49c0-1.1,0.9-2.1,2-2.1c0,0,0.1,0,0.1,0c1.2,0,2.1,1,2.1,2.1s-1,2.1-2.1,2.1C305,51.1,304,50.2,304,49
	C304,49,304,49,304,49z"/>
<path class="st0" d="M304.5,25.3c-1.3-0.2-2.6-0.5-3.8-0.9c-0.8-0.3-1.6-0.6-2.3-1.1c-0.5-0.3-0.9-0.8-1.1-1.3
	c-0.2-0.5-0.3-1.1-0.3-1.6c0-0.5,0.1-1,0.3-1.5c0.2-0.6,0.4-1.2,0.7-1.7c0.3-0.6,0.6-1.2,1-1.9s0.8-1.3,1.2-2
	c-0.5-0.2-1-0.5-1.4-0.9c-0.3-0.4-0.5-0.8-0.5-1.3c0-0.3,0.1-0.7,0.2-1c0.1-0.4,0.2-0.9,0.4-1.3s0.3-1,0.6-1.5
	c0.2-0.5,0.4-0.9,0.7-1.3c0.2-0.1,0.4-0.1,0.6-0.1c0.2,0,0.4,0,0.6,0c0.1,0.4,0.3,0.7,0.5,1c0.2,0.3,0.5,0.5,0.8,0.7
	c0.4,0.2,0.9,0.4,1.4,0.5c0.6,0.2,1.3,0.3,2.2,0.5c1.1,0.2,2.3,0.4,3.6,0.6s2.7,0.4,4.3,0.6c0.7,0.1,1.4,0.5,1.9,1
	c0.6,0.8,1,1.6,1.3,2.6c0.4,1.3,0.6,2.6,0.7,3.9c0.2,1.5,0.2,3.3,0.2,5.2c0,0.6,0,1.3-0.1,2.1s-0.1,1.6-0.2,2.4s-0.2,1.7-0.3,2.5
	s-0.3,1.6-0.4,2.4s-0.3,1.5-0.5,2.1c-0.2,0.6-0.4,1.1-0.6,1.6c-0.1,0.2-0.2,0.3-0.4,0.3h-14.8c-0.7,0-1.2,0-1.7,0
	c-0.5,0-0.9,0-1.4,0.1c-0.8,0.1-1.6,0.3-2.4,0.7c-0.2,0-0.4-0.1-0.6-0.2c-0.2-0.1-0.3-0.2-0.4-0.3c0.2-0.6,0.5-1.2,0.9-1.9
	s0.7-1.4,1.2-2.2c0.3-0.5,0.8-0.9,1.3-1.2c0.8-0.4,1.7-0.5,2.6-0.5h11.6c0.6,0,1.2-0.2,1.7-0.6c0.5-0.5,0.8-1,1-1.6
	c0.3-0.7,0.4-1.5,0.5-2.3c0.1-0.9,0.1-1.8,0.1-2.7c0.1-1.9-0.2-3.8-0.9-5.6c-0.5-1.2-1.5-2-2.7-2.3c-1-0.2-2-0.3-3.1-0.5
	s-2-0.3-2.8-0.4s-1.6-0.2-2.1-0.3s-0.9-0.1-1.1-0.1c-0.1,0.1-0.2,0.3-0.3,0.4c-0.1,0.2-0.3,0.5-0.4,0.7c-0.1,0.3-0.2,0.6-0.3,0.9
	c-0.1,0.3-0.1,0.6-0.2,0.9c0,0.5,0.1,1,0.3,1.4c0.2,0.4,0.6,0.7,0.9,0.8c0.5,0.2,1,0.4,1.5,0.5l2.1,0.5L304.5,25.3z"/>
<path class="st0" d="M307.8,22.8c0-1.1,1-2.1,2.1-2c1.1,0,2.1,1,2,2.1c0,1.1-1,2.1-2.1,2c-0.5,0-1-0.2-1.4-0.6
	C308,23.9,307.7,23.4,307.8,22.8z"/>
<path class="st0" d="M152,42.4c0,1.1-0.9,2.1-2,2.1c0,0-0.1,0-0.1,0c-1.2,0-2.1-0.9-2.2-2.1c0-1.2,0.9-2.1,2.1-2.2c0,0,0.1,0,0.1,0
	C151,40.3,151.9,41.2,152,42.4C152,42.4,152,42.4,152,42.4z"/>
<path class="st0" d="M155.6,48.7c0,1.2-1,2.1-2.2,2.1c-0.6,0-1.1-0.2-1.5-0.6c-0.8-0.8-0.8-2.2,0-3c0.4-0.4,1-0.6,1.5-0.6
	C154.6,46.6,155.5,47.5,155.6,48.7C155.6,48.7,155.6,48.7,155.6,48.7z"/>
<path class="st0" d="M159.2,42.4c0,1.2-1,2.1-2.1,2s-2.1-1-2-2.1c0-1.2,1-2.1,2.1-2c0.5,0,1.1,0.2,1.4,0.6
	C159,41.3,159.2,41.8,159.2,42.4z"/>
</svg>
