<?xml version="1.0" encoding="utf-8"?>
<!-- Generator: Adobe Illustrator 26.0.1, SVG Export Plug-In . SVG Version: 6.00 Build 0)  -->
<svg version="1.1" id="Layer_1" xmlns="http://www.w3.org/2000/svg" xmlns:xlink="http://www.w3.org/1999/xlink" x="0px" y="0px"
	 viewBox="0 0 280 66" style="enable-background:new 0 0 280 66;" xml:space="preserve">
<style type="text/css">
	.st0{fill:#020203;}
</style>
<g>
	<path class="st0" d="M2.1,7c0.2,0.5,0.4,0.8,0.7,1C3,8.3,3.2,8.5,3.5,8.6c0.3,0.1,0.7,0.2,1,0.2c0.4,0,0.8,0.1,1.3,0.1h9.3
		c0.9,0,1.8,0.1,2.4,0.2c0.7,0.2,1.2,0.3,1.5,0.7c0.4,0.2,0.7,0.7,0.8,1c0.2,0.4,0.2,0.9,0.2,1.4c0,0.5-0.1,1.1-0.2,1.7
		c-0.2,0.7-0.3,1.3-0.5,2c0,2.2,0.1,4.2,0.3,6c0.2,1.8,0.4,3.3,0.6,4.7c0.1,0.7,0.2,1.2,0.2,1.8c0.1,0.6,0.1,0.9,0.1,1.3
		c0,0.3,0,0.5-0.1,0.7c-0.1,0.2-0.2,0.3-0.3,0.6c-0.3,0.5-0.7,0.9-0.9,1.3c-0.3,0.5-0.6,0.9-0.8,1.3c-0.4,0.1-0.9,0.1-1.3,0
		c-0.1-0.3-0.1-0.7-0.2-1.3c-0.1-0.6-0.1-1.1-0.2-1.8c-0.1-0.7-0.1-1.3-0.1-1.9c0-0.7-0.1-1.2-0.1-1.6c0-1.3,0-2.5,0-3.4
		s0-1.8,0-2.5c0-0.7,0-1.3,0.1-1.7c0-0.5,0-0.9,0.1-1.2c0-0.4,0-0.8,0-1.1s0-0.7,0-1.1c0-0.4,0-0.7-0.1-0.9
		c-0.1-0.2-0.2-0.5-0.3-0.6c-0.2-0.2-0.4-0.2-0.7-0.3c-0.3-0.1-0.7-0.1-1.3-0.1H4.2c-0.6,0-1,0-1.6-0.1c-0.5-0.1-0.9-0.2-1.3-0.3
		c-0.4-0.2-0.7-0.4-0.9-0.7c-0.3-0.3-0.4-0.7-0.4-1.3c0-0.2,0-0.3,0.1-0.7s0.2-0.7,0.2-1c0.1-0.4,0.2-0.8,0.4-1.3
		C0.7,8.4,0.9,8,1.1,7.5c0.2-0.1,0.3-0.2,0.5-0.2C1.7,7,1.8,7,2.1,7z M4.8,20.1c-0.1,0.4-0.2,0.7-0.2,1c-0.1,0.3-0.2,0.6-0.2,0.8
		c-0.1,0.2-0.1,0.5-0.1,0.8c0,0.2-0.1,0.6-0.1,0.9l-0.2,7c0,0.2,0,0.2,0,0.4c0,0.2-0.1,0.2-0.2,0.3c-0.2,0.2-0.5,0.4-0.7,0.6
		c-0.2,0.2-0.5,0.4-0.7,0.6S1.9,33,1.8,33.1s-0.4,0.3-0.5,0.5c-0.4,0.1-0.7,0.1-1.1,0L0.9,25c0.1-0.8,0.2-1.5,0.5-2.2
		c0.2-0.7,0.6-1.1,0.9-1.5c0.2-0.2,0.4-0.4,0.7-0.7S3.7,20.2,4,20c0.2,0,0.3,0.1,0.6,0.2C4.8,20.1,4.7,20,4.8,20.1z"/>
	<path class="st0" d="M38.9,39.5c0,0.2-0.1,0.2-0.1,0.4c0,0.1,0,0.2,0,0.3c0,0.4,0,0.7,0.1,1c0.1,0.3,0.1,0.6,0.2,0.8
		s0.2,0.4,0.2,0.6c0.1,0.2,0.2,0.3,0.2,0.5c0.2,0.2,0.2,0.4,0.4,0.7c0.2,0.2,0.2,0.5,0.2,0.8c0,0.5-0.2,0.9-0.5,1.3
		c-0.3,0.4-0.8,0.6-1.3,0.6c-0.6,0-1-0.2-1.3-0.6c-0.3-0.4-0.5-0.8-0.5-1.3c0-0.3,0.1-0.6,0.2-0.8c0.1-0.2,0.2-0.4,0.4-0.7
		c0.1-0.2,0.2-0.3,0.2-0.5c0.1-0.2,0.2-0.4,0.2-0.6c0.1-0.2,0.2-0.5,0.2-0.8c0.1-0.3,0.1-0.7,0.1-1c0-0.1,0-0.2,0-0.3s0-0.2-0.1-0.4
		h-3.6l0.2-2.2h8.2l-0.2,2.2H38.9z"/>
	<path class="st0" d="M42.7,13.8c-1.1,0-1.8,0.2-2.3,0.8c-0.5,0.6-0.7,1.3-0.7,2.5c0,0.8,0,1.6,0.1,2.4c0,0.8,0.1,1.6,0.2,2.4
		s0.2,1.6,0.2,2.4c0.1,0.8,0.2,1.5,0.3,2.2c0.1,0.7,0.2,1.2,0.2,1.8c0.1,0.7,0.2,1,0.2,1.3c0,0.4-0.2,0.8-0.4,1.1
		c-0.3,0.4-0.7,0.9-0.9,1.3c-0.3,0.5-0.7,0.9-0.9,1.3c-0.4,0.1-0.9,0.1-1.3,0c-0.1-0.9-0.2-2.1-0.2-3.3c-0.1-1.2-0.1-2.6-0.1-3.9
		c0-1.2,0-2.4,0-3.6c0-1.2,0.1-2.3,0.1-3.4c0-1,0.1-2.1,0.2-2.9c0.1-0.9,0.1-1.6,0.2-2.2h-9.9c-0.6,0-1,0-1.6-0.1
		c-0.5-0.1-0.9-0.2-1.3-0.3c-0.4-0.2-0.7-0.4-0.9-0.7c-0.2-0.3-0.4-0.7-0.4-1.3c0-0.2,0-0.3,0.1-0.7c0.1-0.3,0.2-0.7,0.2-1
		c0.1-0.4,0.2-0.8,0.4-1.3c0.2-0.5,0.3-0.9,0.5-1.4c0.2-0.1,0.3-0.2,0.5-0.2c0.2,0,0.3,0,0.6,0c0.2,0.5,0.4,0.8,0.7,1
		c0.2,0.2,0.5,0.5,0.8,0.6c0.3,0.1,0.7,0.2,1,0.2s0.8,0.1,1.3,0.1H44c0.1,0,0.2,0.1,0.1,0.2c-0.2,0.8-0.4,1.6-0.6,2.3
		c-0.2,0.7-0.3,1.4-0.5,2.2C42.9,13.8,42.8,13.8,42.7,13.8z"/>
	<path class="st0" d="M47,21.2c0-0.6,0.2-0.9,0.6-1.3c0.4-0.4,0.8-0.6,1.3-0.6c0.6,0,0.9,0.2,1.3,0.6c0.4,0.4,0.6,0.8,0.6,1.3
		c0,0.6-0.2,0.9-0.6,1.3c-0.4,0.4-0.8,0.6-1.3,0.6c-0.6,0-0.9-0.2-1.3-0.6C47.2,22.1,47,21.6,47,21.2z M52.9,33.4
		c0-0.3-0.1-0.7-0.1-1.3c0-0.6-0.1-1.1-0.1-1.8c0-0.7-0.1-1.3-0.1-1.9c0-0.7,0-1.2,0-1.7c0-1.6,0-2.9,0.1-4c0.1-1.1,0.1-2.1,0.2-2.9
		c0.1-0.9,0.1-1.6,0.2-2.2c0.1-0.7,0.1-1.3,0.1-1.8c0-0.2-0.1-0.4-0.2-0.6c-0.1-0.2-0.2-0.2-0.4-0.4c-0.2-0.1-0.4-0.2-0.7-0.2
		c-0.2-0.1-0.5-0.2-0.7-0.2c-0.6-0.2-1.1-0.3-1.6-0.5c-0.5-0.2-0.9-0.3-1.3-0.5c-0.4-0.2-0.7-0.4-0.8-0.7s-0.3-0.6-0.3-0.9
		c0-0.2,0.1-0.6,0.2-0.9c0.1-0.4,0.2-0.8,0.4-1.3s0.3-0.9,0.6-1.3c0.2-0.4,0.4-0.9,0.6-1.2c0.2-0.1,0.3-0.1,0.5-0.2
		c0.2-0.1,0.4,0,0.6,0c0.1,0.4,0.2,0.7,0.4,0.9s0.4,0.4,0.7,0.7c0.2,0.2,0.7,0.3,1,0.4c0.4,0.2,0.9,0.2,1.4,0.4
		c0.5,0.2,0.9,0.2,1.3,0.4c0.3,0.2,0.6,0.2,0.8,0.4c0.2,0.2,0.3,0.2,0.4,0.4c0.1,0.2,0.1,0.3,0.1,0.5c0,0.2,0,0.3-0.1,0.7
		c-0.1,0.3-0.1,0.6-0.2,0.9c-0.1,0.5-0.2,1.1-0.2,1.9c-0.1,0.7-0.2,1.7-0.2,2.8c0,1.6,0.1,3.2,0.2,4.7c0.2,1.5,0.3,3,0.6,4.5
		c0.1,0.7,0.2,1.2,0.2,1.8c0.1,0.7,0.1,0.9,0.1,1.3c0,0.3,0,0.5-0.1,0.7c-0.1,0.2-0.2,0.3-0.3,0.6c-0.3,0.5-0.7,0.9-1,1.3
		c-0.3,0.5-0.7,0.9-0.9,1.3C53.7,33.5,53.4,33.5,52.9,33.4z"/>
	<path class="st0" d="M63.4,7c0.2,0.5,0.4,0.8,0.7,1c0.2,0.2,0.5,0.5,0.8,0.6c0.3,0.2,0.7,0.2,1,0.2s0.8,0.1,1.3,0.1h9.3
		c0.9,0,1.8,0.1,2.4,0.2c0.7,0.2,1.2,0.3,1.5,0.7c0.4,0.2,0.7,0.7,0.8,1c0.2,0.4,0.2,0.9,0.2,1.4c0,0.5-0.1,1.1-0.2,1.7
		c-0.2,0.7-0.3,1.3-0.5,2c0,2.2,0.1,4.2,0.3,6c0.2,1.8,0.4,3.3,0.6,4.7c0.1,0.7,0.2,1.2,0.2,1.8s0.1,0.9,0.1,1.3
		c0,0.3,0,0.5-0.1,0.7c-0.1,0.2-0.2,0.3-0.3,0.6c-0.3,0.5-0.7,0.9-0.9,1.3c-0.3,0.5-0.6,0.9-0.8,1.3c-0.4,0.1-0.9,0.1-1.3,0
		c-0.1-0.3-0.1-0.7-0.2-1.3c-0.1-0.6-0.1-1.1-0.2-1.8c-0.1-0.7-0.1-1.3-0.1-1.9c0-0.7-0.1-1.2-0.1-1.6c0-1.3,0-2.5,0-3.4
		s0-1.8,0-2.5c0-0.7,0-1.3,0.1-1.7c0-0.5,0-0.9,0.1-1.2c0-0.4,0-0.8,0-1.1s0-0.7,0-1.1c0-0.4,0-0.7-0.1-0.9
		c-0.1-0.2-0.2-0.5-0.3-0.6c-0.2-0.2-0.4-0.2-0.7-0.3c-0.3-0.1-0.7-0.1-1.3-0.1H65.5c-0.6,0-1,0-1.6-0.1s-0.9-0.2-1.3-0.3
		c-0.4-0.2-0.7-0.4-0.9-0.7c-0.2-0.3-0.4-0.7-0.4-1.3c0-0.2,0-0.3,0.1-0.7c0.1-0.3,0.2-0.7,0.2-1c0.1-0.4,0.2-0.8,0.4-1.3
		c0.2-0.5,0.3-0.9,0.5-1.4c0.2-0.1,0.3-0.2,0.5-0.2C63,7,63.2,7,63.4,7z M66.1,20.1c-0.1,0.4-0.2,0.7-0.2,1
		c-0.1,0.3-0.2,0.6-0.2,0.8c-0.1,0.2-0.1,0.5-0.1,0.8c0,0.2-0.1,0.6-0.1,0.9l-0.2,7c0,0.2,0,0.2,0,0.4c0,0.2-0.1,0.2-0.2,0.3
		c-0.2,0.2-0.5,0.4-0.7,0.6c-0.2,0.2-0.5,0.4-0.7,0.6c-0.2,0.2-0.5,0.4-0.7,0.6c-0.2,0.2-0.4,0.3-0.5,0.5c-0.4,0.1-0.7,0.1-1.1,0
		l0.7-8.6c0.1-0.8,0.2-1.5,0.5-2.2c0.2-0.7,0.6-1.1,0.9-1.5c0.2-0.2,0.4-0.4,0.7-0.7c0.3-0.2,0.7-0.5,0.9-0.7c0.2,0,0.3,0.1,0.6,0.2
		C65.8,20,66,20,66.1,20.1z"/>
	<path class="st0" d="M87.4,38.6c0-0.6,0.2-0.9,0.6-1.3c0.4-0.4,0.8-0.6,1.3-0.6c0.6,0,0.9,0.2,1.3,0.6c0.4,0.4,0.6,0.8,0.6,1.3
		c0,0.6-0.2,0.9-0.6,1.3c-0.4,0.4-0.8,0.6-1.3,0.6c-0.6,0-0.9-0.2-1.3-0.6C87.5,39.6,87.4,39.2,87.4,38.6z M87.4,44.5
		c0-0.6,0.2-0.9,0.6-1.3c0.4-0.4,0.8-0.6,1.3-0.6c0.6,0,0.9,0.2,1.3,0.6c0.4,0.4,0.6,0.8,0.6,1.3c0,0.6-0.2,0.9-0.6,1.3
		c-0.4,0.4-0.8,0.6-1.3,0.6c-0.6,0-0.9-0.2-1.3-0.6C87.5,45.4,87.4,45,87.4,44.5z"/>
	<path class="st0" d="M87.3,6.7c0.1,0.4,0.2,0.7,0.3,1c0.2,0.2,0.3,0.5,0.7,0.7c0.2,0.2,0.7,0.3,1,0.5c0.4,0.2,0.9,0.3,1.5,0.5
		c0.6,0.2,1.1,0.3,1.5,0.5c0.5,0.2,0.8,0.3,1.1,0.6c0.3,0.2,0.6,0.5,0.7,0.7c0.2,0.2,0.2,0.6,0.2,0.9c0,0.9-0.2,2.2-0.7,3.9
		c-0.5,1.7-1.2,3.8-2.2,6.2c-0.6-0.2-1.1-0.3-1.5-0.6c0.2-0.6,0.3-1.1,0.4-1.7c0.2-0.6,0.2-1,0.3-1.5c0.1-0.5,0.2-0.9,0.2-1.3
		c0.1-0.4,0.1-0.7,0.1-0.9c0-0.2,0-0.5-0.1-0.7c-0.1-0.2-0.2-0.3-0.3-0.5c-0.2-0.2-0.3-0.2-0.7-0.4c-0.3-0.2-0.6-0.2-0.9-0.4
		c-0.7-0.2-1.2-0.4-1.7-0.6c-0.5-0.2-0.9-0.4-1.3-0.6c-0.3-0.2-0.7-0.5-0.8-0.7C85,12.1,85,11.8,85,11.4c0-0.2,0.1-0.6,0.2-0.9
		c0.1-0.4,0.2-0.8,0.3-1.3s0.3-0.9,0.5-1.3c0.2-0.4,0.3-0.8,0.5-1.1c0.2-0.1,0.3-0.1,0.5-0.2C87,6.7,87.1,6.7,87.3,6.7z"/>
	<path class="st0" d="M97.2,14c-0.1,0-0.2-0.1-0.1-0.2c0.2-0.8,0.4-1.6,0.7-2.4c0.2-0.8,0.5-1.6,0.7-2.4c0.1-0.1,0.1-0.2,0.2-0.2
		h11.5c0.1,0,0.2,0.1,0.1,0.2c-0.2,0.8-0.5,1.6-0.7,2.4c-0.2,0.8-0.5,1.6-0.7,2.4c0,0.1-0.1,0.2-0.2,0.2H97.2z"/>
	<path class="st0" d="M117.4,41.9c-0.4,0.1-0.9,0.1-1.3,0c-0.1-0.7-0.1-1.5-0.2-2.5c-0.1-0.9-0.1-1.9-0.2-2.9
		c-0.1-0.9-0.1-2.1-0.1-3.1s-0.1-2.1-0.1-3.1c0-1.4,0-2.7,0-3.7c0-1,0.1-1.9,0.1-2.7s0.2-1.4,0.2-2.1c0.1-0.7,0.2-1.2,0.5-1.8
		c0.2-0.6,0.4-1.2,0.7-1.8c0.2-0.7,0.6-1.4,0.9-2.2c0.1-0.2,0.1-0.2,0.1-0.3s0-0.2,0-0.2c0-0.2-0.1-0.4-0.3-0.6
		c-0.2-0.2-0.7-0.3-1.3-0.5c-0.6-0.2-1-0.3-1.5-0.5c-0.5-0.2-0.8-0.3-1.1-0.5c-0.3-0.2-0.6-0.4-0.7-0.7c-0.2-0.2-0.2-0.6-0.2-0.9
		c0-0.2,0.1-0.6,0.2-0.9c0.1-0.4,0.2-0.8,0.4-1.3c0.2-0.4,0.3-0.9,0.6-1.3c0.2-0.5,0.4-0.9,0.6-1.2c0.2-0.1,0.3-0.1,0.5-0.2
		c0.2,0,0.4,0,0.6,0c0.1,0.4,0.2,0.7,0.3,0.9c0.1,0.2,0.3,0.4,0.6,0.6c0.2,0.2,0.6,0.3,0.9,0.4c0.4,0.2,0.9,0.2,1.4,0.4
		c0.7,0.2,1.1,0.4,1.5,0.6c0.4,0.2,0.7,0.3,0.9,0.6c0.2,0.2,0.4,0.4,0.5,0.6c0.1,0.2,0.2,0.4,0.2,0.7c0,0.5-0.1,0.9-0.3,1.5
		c-0.2,0.6-0.5,1.3-0.9,2.1c-0.4,0.8-0.7,1.6-1,2.3c-0.3,0.7-0.5,1.3-0.7,2.1c-0.2,0.7-0.3,1.3-0.4,2.1c-0.1,0.7-0.2,1.4-0.2,2.2
		s0,1.7,0.1,2.7c0.1,1,0.2,2.1,0.2,3.3c0.1,1.2,0.2,2.4,0.4,3.7c0.2,1.3,0.3,2.6,0.4,3.9c0,0.2,0.1,0.4,0.1,0.6s0,0.4,0,0.5
		c0,0.3,0,0.5-0.1,0.7c-0.1,0.2-0.2,0.3-0.3,0.5c-0.3,0.4-0.7,0.8-1,1.2C117.8,41.2,117.7,41.5,117.4,41.9z"/>
	<path class="st0" d="M133.3,38.6c0,0.6-0.2,0.9-0.6,1.3c-0.4,0.4-0.8,0.6-1.3,0.6c-0.5,0-0.9-0.2-1.3-0.6s-0.6-0.8-0.6-1.3
		c0-0.6,0.2-0.9,0.6-1.3c0.4-0.4,0.8-0.6,1.3-0.6c0.5,0,0.9,0.2,1.3,0.6C133.1,37.7,133.3,38.1,133.3,38.6z M136.5,44.2
		c0,0.6-0.2,0.9-0.6,1.3s-0.8,0.6-1.3,0.6c-0.6,0-0.9-0.2-1.3-0.6s-0.6-0.8-0.6-1.3c0-0.6,0.2-0.9,0.6-1.3s0.8-0.6,1.3-0.6
		c0.6,0,0.9,0.2,1.3,0.6C136.3,43.3,136.5,43.7,136.5,44.2z M139.6,38.6c0,0.6-0.2,0.9-0.6,1.3c-0.4,0.4-0.8,0.6-1.3,0.6
		c-0.6,0-0.9-0.2-1.3-0.6s-0.6-0.8-0.6-1.3c0-0.6,0.2-0.9,0.6-1.3c0.4-0.4,0.8-0.6,1.3-0.6c0.6,0,0.9,0.2,1.3,0.6
		C139.4,37.7,139.6,38.1,139.6,38.6z"/>
	<path class="st0" d="M127.9,7c0.2,0.5,0.4,0.8,0.7,1c0.2,0.2,0.5,0.5,0.8,0.6c0.3,0.1,0.7,0.2,1,0.2c0.4,0,0.8,0.1,1.3,0.1h6.6
		c0.9,0,1.8,0.1,2.4,0.3c0.7,0.2,1.1,0.6,1.5,0.9c0.4,0.4,0.7,0.9,0.8,1.3c0.2,0.5,0.2,1.1,0.2,1.7c0,0.6,0,1-0.1,1.5
		c0,0.5-0.1,0.9-0.1,1.3c0,0.5-0.1,0.9-0.1,1.4c0,0.5-0.1,1-0.1,1.7c0,0.2,0,0.5,0,0.9c0,0.4,0,0.9,0.1,1.4c0.1,0.6,0.1,1.1,0.1,1.7
		c0.1,0.6,0.1,1.2,0.2,1.8c0.1,0.6,0.2,1,0.3,1.5c0.2,0.5,0.3,0.8,0.5,1c0.2,0.3,0.6,0.5,0.9,0.7c0.4,0.1,0.9,0.2,1.4,0.2
		c0.1,0,0.1,0.1,0.1,0.2c-0.2,0.8-0.5,1.5-0.7,2.2c-0.2,0.7-0.4,1.4-0.6,2.2c0,0.1-0.1,0.1-0.1,0.2c-0.1,0-0.1,0-0.2,0h-14.9
		c-0.6,0-1,0-1.4,0s-0.8,0-1.2,0.1c-0.4,0-0.7,0.1-1,0.2c-0.3,0.1-0.7,0.2-1,0.4c-0.2,0-0.3-0.1-0.5-0.2c-0.2-0.1-0.3-0.2-0.4-0.2
		c0.2-0.5,0.3-1.1,0.5-1.8c0.2-0.7,0.5-1.3,0.7-2c0.2-0.4,0.5-0.8,0.9-1c0.5-0.2,1.2-0.4,2.2-0.4h11.5c-0.2-0.8-0.2-1.6-0.2-2.3
		c-0.1-0.7-0.1-1.4-0.1-2.2c0-0.6,0-1.1,0-1.8c0-0.7,0.1-1.2,0.1-1.8c0-0.6,0.1-1.1,0.1-1.6c0-0.5,0-0.9,0-1.3
		c0-0.5-0.1-0.9-0.2-1.2c-0.1-0.4-0.3-0.7-0.6-0.9c-0.2-0.2-0.7-0.5-1-0.7c-0.5-0.2-1-0.2-1.7-0.2h-7c-0.6,0-1,0-1.6-0.1
		c-0.5-0.1-0.9-0.2-1.3-0.3c-0.4-0.2-0.7-0.4-0.9-0.7c-0.2-0.3-0.4-0.7-0.4-1.3c0-0.2,0-0.3,0.1-0.7c0.1-0.3,0.2-0.7,0.2-1
		c0.1-0.4,0.2-0.8,0.4-1.3c0.2-0.4,0.3-0.9,0.5-1.4c0.2-0.1,0.3-0.2,0.5-0.2C127.6,7,127.8,7,127.9,7z M132.2,21.2
		c0-0.6,0.2-0.9,0.6-1.3c0.4-0.4,0.8-0.6,1.3-0.6c0.5,0,0.9,0.2,1.3,0.6c0.4,0.4,0.6,0.8,0.6,1.3c0,0.6-0.2,0.9-0.6,1.3
		c-0.4,0.4-0.8,0.6-1.3,0.6c-0.5,0-0.9-0.2-1.3-0.6C132.3,22.1,132.2,21.6,132.2,21.2z"/>
	<path class="st0" d="M170.7,16.1c0.1-0.4,0.2-0.9,0.4-1.5c0.2-0.6,0.4-1.2,0.6-1.8c0.2-0.7,0.4-1.2,0.7-1.8
		c0.2-0.7,0.4-1.1,0.6-1.5c0.2-0.4,0.6-0.7,0.9-0.9c0.3-0.2,0.7-0.5,1-0.7c0.4-0.2,0.7-0.3,1.1-0.4c0.4-0.1,0.7-0.1,1.1-0.1
		c0.9,0,1.7,0.2,2.4,0.4c0.7,0.2,1.3,0.7,1.8,1.2c0.6,0.5,0.9,1,1.3,1.8c0.4,0.7,0.7,1.3,0.9,2.1c0.2,0.7,0.4,1.5,0.6,2.3
		c0.2,0.8,0.2,1.5,0.2,2.3s-0.1,1.6-0.2,2.5s-0.2,1.8-0.5,2.7c-0.2,0.9-0.5,1.8-0.8,2.7c-0.3,0.9-0.7,1.7-1.2,2.4
		c-0.5,0.7-0.9,1.4-1.5,2c-0.6,0.6-1.2,1-1.9,1.3c-0.6,0.2-1.2,0.6-1.9,0.8c-0.7,0.2-1.4,0.5-2.2,0.7c-0.8,0.2-1.6,0.4-2.5,0.7
		c-0.8,0.2-1.7,0.4-2.5,0.6c-0.3-0.1-0.6-0.1-0.8-0.2c-0.2-0.1-0.4-0.2-0.7-0.3c-0.7-0.9-1.2-2-1.7-3.3c-0.5-1.2-0.9-2.5-1.3-3.8
		s-0.7-2.4-0.9-3.5c-0.2-1.1-0.3-2-0.2-2.7c0-0.3,0.1-0.7,0.2-1.1c0.1-0.4,0.2-0.8,0.3-1.3c0.2-0.5,0.2-0.8,0.4-1.2
		c0.2-0.4,0.2-0.7,0.4-1c0.1-0.2,0.1-0.2,0.1-0.4c0-0.2-0.1-0.3-0.3-0.5c-0.2-0.2-0.6-0.3-1-0.7c-0.4-0.2-0.7-0.4-1-0.6
		c-0.3-0.2-0.6-0.4-0.8-0.6c-0.2-0.2-0.4-0.4-0.6-0.6c-0.2-0.2-0.2-0.5-0.2-0.7s0.1-0.6,0.2-0.9c0.2-0.4,0.3-0.8,0.6-1.2
		c0.2-0.4,0.5-0.8,0.7-1.2c0.2-0.4,0.6-0.8,0.8-1.1c0.2,0,0.2-0.1,0.5-0.1c0.1,0,0.2,0,0.3,0s0.2,0,0.2,0.1c0,0.2,0.1,0.5,0.2,0.7
		c0.1,0.2,0.2,0.3,0.4,0.5c0.2,0.2,0.5,0.3,0.8,0.6c0.3,0.2,0.8,0.4,1.4,0.7c0.7,0.3,1.1,0.7,1.5,0.9c0.3,0.3,0.5,0.7,0.5,0.9
		c0,0.2-0.1,0.6-0.2,0.9s-0.3,0.7-0.6,1.1c-0.2,0.3-0.3,0.7-0.6,1.1c-0.2,0.4-0.4,0.9-0.6,1.3c-0.2,0.5-0.3,0.9-0.5,1.4
		c-0.2,0.5-0.2,0.9-0.2,1.5c0,0.4,0.1,0.9,0.2,1.5c0.2,0.6,0.3,1.2,0.5,1.8c0.2,0.7,0.4,1.3,0.7,2c0.2,0.7,0.6,1.3,0.8,1.9
		c0.2,0.6,0.6,1.1,0.8,1.6c0.2,0.5,0.6,0.8,0.7,1c0.7-0.1,1.3-0.2,2.2-0.4c0.9-0.2,1.7-0.4,2.6-0.7s1.6-0.5,2.4-0.7
		c0.8-0.2,1.3-0.6,1.7-0.8c0.9-0.8,1.7-1.8,2.2-2.9c0.5-1.2,0.8-2.5,0.8-3.8c0-0.9-0.1-1.7-0.3-2.5c-0.2-0.8-0.6-1.4-1-2.1
		c-0.5-0.7-1-1-1.8-1.4c-0.7-0.4-1.5-0.6-2.4-0.6c-0.3,0-0.7,0.1-1,0.2c-0.4,0.1-0.8,0.3-1.2,0.6c-0.4,0.3-0.8,0.7-1.1,1.2
		c-0.4,0.5-0.7,1.1-0.9,1.9c-0.2-0.1-0.4-0.1-0.7-0.2C171,16.4,170.9,16.3,170.7,16.1z"/>
	<path class="st0" d="M196.4,38.6c0-0.6,0.2-0.9,0.6-1.3c0.4-0.4,0.8-0.6,1.3-0.6s0.9,0.2,1.3,0.6c0.4,0.4,0.6,0.8,0.6,1.3
		c0,0.6-0.2,0.9-0.6,1.3c-0.4,0.4-0.8,0.6-1.3,0.6s-0.9-0.2-1.3-0.6C196.6,39.6,196.4,39.2,196.4,38.6z M196.4,44.5
		c0-0.6,0.2-0.9,0.6-1.3c0.4-0.4,0.8-0.6,1.3-0.6s0.9,0.2,1.3,0.6c0.4,0.4,0.6,0.8,0.6,1.3c0,0.6-0.2,0.9-0.6,1.3
		c-0.4,0.4-0.8,0.6-1.3,0.6s-0.9-0.2-1.3-0.6C196.6,45.4,196.4,45,196.4,44.5z"/>
	<path class="st0" d="M190.4,7c0.2,0.5,0.4,0.8,0.7,1c0.2,0.2,0.5,0.5,0.8,0.6c0.3,0.2,0.7,0.2,1,0.2c0.4,0,0.8,0.1,1.3,0.1h9.7
		c1,0,1.9,0.2,2.7,0.6c0.7,0.4,1.3,0.9,1.8,1.5c0.5,0.7,0.8,1.3,0.9,2.2c0.2,0.9,0.3,1.8,0.3,2.7c0,1.3-0.2,2.6-0.4,3.8
		c-0.2,1.3-0.6,2.4-0.9,3.5c-0.4,1.1-0.8,2.1-1.3,2.9c-0.5,0.9-0.9,1.6-1.4,2.2c-0.7,0.8-1.6,1.5-2.9,2.2c-1.3,0.7-2.9,1.5-4.8,2.5
		c-0.3-0.1-0.7-0.2-0.9-0.2c0.3-1.7,0.8-3.3,1.3-5c1.8-0.7,3.3-1.3,4.3-1.9c1-0.6,1.8-1,2.2-1.6c0.3-0.4,0.7-0.8,0.9-1.3
		c0.2-0.5,0.5-1,0.7-1.6c0.2-0.6,0.3-1.1,0.4-1.8s0.2-1.2,0.2-1.8c0-0.6-0.1-1.1-0.2-1.6c-0.1-0.5-0.3-0.9-0.6-1.3
		c-0.2-0.4-0.7-0.7-1-0.9c-0.4-0.2-0.9-0.3-1.5-0.3h-11c-0.6,0-1,0-1.6-0.1c-0.5-0.1-0.9-0.2-1.3-0.3c-0.4-0.2-0.7-0.4-0.9-0.7
		c-0.2-0.3-0.4-0.7-0.4-1.3c0-0.2,0-0.3,0.1-0.7c0.1-0.3,0.2-0.7,0.2-1c0.1-0.4,0.2-0.8,0.4-1.3s0.3-0.9,0.5-1.4
		c0.2-0.1,0.3-0.2,0.5-0.2C190,7,190.2,7,190.4,7z M193.2,18.7c-0.2,0.8-0.2,1.5-0.3,2.2s-0.1,1.5-0.1,2.2c0,1.7,0.1,3.8,0.2,6.2
		c0.1,2.4,0.3,5,0.6,7.9c0,0.2,0.1,0.4,0.1,0.7c0,0.2,0,0.4,0,0.6c0,0.2,0,0.4-0.1,0.7c-0.1,0.2-0.2,0.4-0.3,0.6
		c-0.7,0.8-1.4,1.6-2,2.4c-0.4,0.1-0.8,0.1-1.2,0c0-0.2,0-0.4,0-0.7s0-0.8,0-1.3c0-0.4,0-1,0-1.7c0-0.7,0-1.3,0-2c0-0.9,0-2,0-3.3
		c0-1.3,0-2.6,0.1-3.8s0.1-2.7,0.1-3.9s0.1-2.4,0.1-3.4c0-0.4,0.2-0.7,0.3-0.9c0.3-0.5,0.7-0.9,0.9-1.2c0.3-0.3,0.7-0.7,1-1.1
		C192.6,18.4,192.9,18.5,193.2,18.7z"/>
	<path class="st0" d="M215.2,38.6c0,0.6-0.2,0.9-0.6,1.3s-0.8,0.6-1.3,0.6c-0.6,0-0.9-0.2-1.3-0.6c-0.4-0.4-0.6-0.8-0.6-1.3
		c0-0.6,0.2-0.9,0.6-1.3c0.4-0.4,0.8-0.6,1.3-0.6c0.6,0,0.9,0.2,1.3,0.6C215,37.7,215.2,38.1,215.2,38.6z M218.4,44.2
		c0,0.6-0.2,0.9-0.6,1.3s-0.8,0.6-1.3,0.6c-0.6,0-0.9-0.2-1.3-0.6c-0.4-0.4-0.6-0.8-0.6-1.3c0-0.6,0.2-0.9,0.6-1.3
		c0.4-0.4,0.8-0.6,1.3-0.6c0.6,0,0.9,0.2,1.3,0.6S218.4,43.7,218.4,44.2z M221.5,38.6c0,0.6-0.2,0.9-0.6,1.3s-0.8,0.6-1.3,0.6
		c-0.6,0-0.9-0.2-1.3-0.6c-0.4-0.4-0.6-0.8-0.6-1.3c0-0.6,0.2-0.9,0.6-1.3c0.4-0.4,0.8-0.6,1.3-0.6c0.6,0,0.9,0.2,1.3,0.6
		C221.4,37.7,221.5,38.1,221.5,38.6z"/>
	<path class="st0" d="M214.6,6.7c0.1,0.4,0.2,0.7,0.3,1c0.2,0.2,0.3,0.5,0.7,0.7c0.2,0.2,0.7,0.3,1,0.5c0.4,0.2,0.9,0.3,1.5,0.5
		c0.6,0.2,1.1,0.3,1.5,0.5c0.5,0.2,0.8,0.3,1.1,0.6c0.3,0.2,0.6,0.5,0.7,0.7c0.2,0.2,0.2,0.6,0.2,0.9c0,0.9-0.2,2.2-0.7,3.9
		c-0.5,1.7-1.2,3.8-2.2,6.2c-0.6-0.2-1.1-0.3-1.5-0.6c0.2-0.6,0.3-1.1,0.4-1.7c0.2-0.6,0.2-1,0.3-1.5c0.1-0.5,0.2-0.9,0.2-1.3
		c0.1-0.4,0.1-0.7,0.1-0.9c0-0.2,0-0.5-0.1-0.7c-0.1-0.2-0.2-0.3-0.3-0.5c-0.2-0.2-0.3-0.2-0.7-0.4c-0.2-0.2-0.6-0.2-0.9-0.4
		c-0.7-0.2-1.2-0.4-1.7-0.6c-0.5-0.2-0.9-0.4-1.3-0.6c-0.3-0.2-0.7-0.5-0.8-0.7c-0.2-0.2-0.2-0.6-0.2-0.9c0-0.2,0.1-0.6,0.2-0.9
		c0.1-0.4,0.2-0.8,0.3-1.3s0.3-0.9,0.5-1.3c0.2-0.4,0.3-0.8,0.5-1.1c0.2-0.1,0.3-0.1,0.5-0.2C214.3,6.7,214.4,6.7,214.6,6.7z"/>
	<path class="st0" d="M225,3.3c0-0.6,0.2-0.9,0.6-1.3s0.8-0.6,1.3-0.6c0.6,0,0.9,0.2,1.3,0.6c0.4,0.4,0.6,0.8,0.6,1.3
		s-0.2,0.9-0.6,1.3c-0.4,0.4-0.8,0.6-1.3,0.6c-0.6,0-0.9-0.2-1.3-0.6S225,3.8,225,3.3z"/>
	<path class="st0" d="M229.8,33.4c0-0.3-0.1-0.7-0.1-1.3c0-0.6-0.1-1.1-0.1-1.8c0-0.7-0.1-1.3-0.1-1.9c0-0.7,0-1.2,0-1.7
		c0-1.6,0-2.9,0.1-4c0.1-1.1,0.1-2.1,0.2-2.9c0.1-0.8,0.1-1.6,0.2-2.2c0.1-0.7,0.1-1.3,0.1-1.8c0-0.2-0.1-0.4-0.2-0.6
		c-0.1-0.2-0.2-0.2-0.4-0.4c-0.2-0.1-0.4-0.2-0.7-0.2c-0.2-0.1-0.5-0.2-0.7-0.2c-0.6-0.2-1.1-0.3-1.6-0.5c-0.5-0.2-0.9-0.3-1.3-0.5
		c-0.3-0.2-0.7-0.4-0.8-0.7c-0.2-0.2-0.3-0.6-0.3-0.9c0-0.2,0.1-0.6,0.2-0.9c0.1-0.4,0.2-0.8,0.4-1.3c0.2-0.5,0.3-0.9,0.6-1.3
		c0.2-0.5,0.4-0.9,0.6-1.2c0.2-0.1,0.3-0.1,0.5-0.2c0.2-0.1,0.4,0,0.6,0c0.1,0.4,0.2,0.7,0.4,0.9c0.2,0.2,0.4,0.4,0.7,0.7
		c0.2,0.2,0.7,0.3,1,0.4c0.4,0.2,0.9,0.2,1.4,0.4c0.5,0.2,0.9,0.2,1.3,0.4c0.3,0.2,0.6,0.2,0.8,0.4c0.2,0.2,0.3,0.2,0.4,0.4
		c0.1,0.2,0.1,0.3,0.1,0.5c0,0.2,0,0.3-0.1,0.7c-0.1,0.3-0.1,0.6-0.2,0.9c-0.1,0.5-0.2,1.1-0.2,1.9c-0.1,0.7-0.2,1.7-0.2,2.8
		c0,1.6,0.1,3.2,0.2,4.7c0.2,1.5,0.3,3,0.6,4.5c0.1,0.7,0.2,1.2,0.2,1.8c0.1,0.7,0.1,0.9,0.1,1.3c0,0.3,0,0.5-0.1,0.7
		c-0.1,0.2-0.2,0.3-0.3,0.6c-0.3,0.5-0.7,0.9-1,1.3c-0.3,0.5-0.7,0.9-0.9,1.3C230.7,33.5,230.3,33.5,229.8,33.4z"/>
	<path class="st0" d="M238.1,7c0.2,0.5,0.4,0.8,0.7,1c0.2,0.2,0.5,0.5,0.8,0.6c0.3,0.1,0.7,0.2,1,0.2s0.8,0.1,1.3,0.1h6.7
		c0.9,0,1.8,0.1,2.7,0.3c0.8,0.2,1.5,0.6,2.1,0.9c0.6,0.5,1,1,1.3,1.8c0.3,0.7,0.5,1.6,0.5,2.7c0,0.5,0,0.9-0.1,1.3
		c0,0.3-0.1,0.7-0.1,1.1s0,0.9,0,1.6c0,1.3,0.1,2.7,0.2,3.9s0.3,2.6,0.5,3.8c0.1,0.7,0.2,1.2,0.3,1.8c0.2,0.6,0.2,0.9,0.2,1.3
		c0,0.3,0,0.5-0.1,0.7c-0.1,0.2-0.2,0.3-0.3,0.5c-0.3,0.4-0.7,0.9-1,1.3c-0.3,0.5-0.7,0.9-0.9,1.3c-0.4,0.1-0.9,0.1-1.3,0
		c0-0.3-0.1-0.7-0.1-1.3s-0.1-1.1-0.1-1.8c0-0.7-0.1-1.3-0.1-1.9c0-0.7,0-1.2,0-1.6c0-1.4,0-2.6,0-3.4c0-0.9,0-1.6,0.1-2.2
		c0-0.7,0.1-1.1,0.1-1.6c0-0.5,0.1-0.9,0.1-1.5c0-1.3-0.3-2.3-1-3c-0.7-0.7-1.8-1-3.4-1h-7.9c-0.6,0-1,0-1.6-0.1
		c-0.5,0-0.9-0.2-1.3-0.3c-0.4-0.2-0.7-0.4-0.9-0.7c-0.2-0.3-0.3-0.7-0.3-1.3c0-0.2,0-0.3,0.1-0.7s0.2-0.7,0.2-1
		c0.1-0.4,0.2-0.9,0.4-1.3c0.2-0.5,0.3-0.9,0.5-1.5c0.2-0.1,0.3-0.2,0.5-0.2C237.8,7,238,7,238.1,7z"/>
	<path class="st0" d="M267.3,38.6c0-0.6,0.2-0.9,0.6-1.3c0.4-0.4,0.8-0.6,1.3-0.6c0.6,0,0.9,0.2,1.3,0.6c0.4,0.4,0.6,0.8,0.6,1.3
		c0,0.6-0.2,0.9-0.6,1.3c-0.4,0.4-0.8,0.6-1.3,0.6c-0.6,0-0.9-0.2-1.3-0.6C267.4,39.6,267.3,39.2,267.3,38.6z M267.3,44.5
		c0-0.6,0.2-0.9,0.6-1.3c0.4-0.4,0.8-0.6,1.3-0.6c0.6,0,0.9,0.2,1.3,0.6c0.4,0.4,0.6,0.8,0.6,1.3c0,0.6-0.2,0.9-0.6,1.3
		c-0.4,0.4-0.8,0.6-1.3,0.6c-0.6,0-0.9-0.2-1.3-0.6C267.5,45.4,267.3,45,267.3,44.5z"/>
	<path class="st0" d="M267.7,23.6c-1.3-0.2-2.5-0.6-3.3-0.8c-0.9-0.3-1.5-0.7-2.1-0.9c-0.5-0.3-0.8-0.7-1-1.1
		c-0.2-0.4-0.2-0.9-0.2-1.4c0-0.4,0.1-0.8,0.2-1.3c0.2-0.5,0.3-0.9,0.7-1.5c0.2-0.6,0.6-1,0.9-1.7c0.3-0.6,0.7-1.2,1.1-1.8
		c-0.6-0.2-0.9-0.5-1.3-0.8c-0.3-0.3-0.4-0.7-0.4-1.2c0-0.2,0.1-0.5,0.2-0.9c0.1-0.4,0.2-0.7,0.3-1.2c0.2-0.4,0.3-0.9,0.5-1.3
		c0.2-0.4,0.4-0.8,0.6-1.1c0.2-0.1,0.3-0.1,0.5-0.2c0.2,0,0.4,0,0.6,0c0.2,0.3,0.2,0.7,0.4,0.9c0.2,0.2,0.4,0.5,0.7,0.7
		c0.3,0.2,0.7,0.3,1.2,0.5c0.4,0.2,1.2,0.2,2,0.4c0.9,0.2,2,0.3,3.1,0.5c1.1,0.2,2.4,0.3,3.8,0.5c0.7,0.1,1.2,0.4,1.7,0.9
		s0.8,1.3,1.1,2.2c0.3,1,0.5,2.1,0.7,3.4c0.2,1.3,0.2,2.9,0.2,4.6c0,0.6,0,1.2-0.1,1.8c0,0.7-0.1,1.3-0.2,2.1
		c-0.1,0.7-0.2,1.4-0.3,2.2c-0.1,0.7-0.2,1.4-0.4,2.1c-0.2,0.7-0.3,1.3-0.5,1.8s-0.3,1-0.6,1.4c-0.1,0.2-0.2,0.2-0.4,0.2h-13
		c-0.6,0-1.1,0-1.5,0c-0.5,0-0.9,0-1.2,0.1c-0.4,0.1-0.7,0.1-1,0.2c-0.3,0.2-0.7,0.2-1,0.4c-0.2,0-0.3-0.1-0.5-0.2s-0.3-0.2-0.4-0.3
		c0.2-0.5,0.5-1.1,0.7-1.7c0.3-0.7,0.7-1.3,1-1.9c0.2-0.4,0.7-0.8,1.1-1c0.5-0.2,1.3-0.4,2.3-0.4H274c0.7,0,1.1-0.2,1.5-0.6
		c0.4-0.4,0.7-0.8,0.9-1.4c0.2-0.6,0.3-1.3,0.4-2.1c0.1-0.8,0.1-1.6,0.1-2.4c0-2.1-0.2-3.8-0.8-4.9c-0.6-1.1-1.3-1.8-2.4-2
		c-0.9-0.2-1.8-0.2-2.7-0.4c-0.9-0.2-1.8-0.2-2.5-0.4c-0.7-0.1-1.3-0.2-1.9-0.2c-0.5-0.1-0.8-0.1-0.9-0.1c-0.1,0.1-0.2,0.2-0.2,0.3
		c-0.1,0.2-0.2,0.4-0.3,0.7c-0.1,0.2-0.2,0.5-0.3,0.8c-0.1,0.2-0.2,0.6-0.2,0.8c0,0.5,0.1,0.9,0.3,1.2c0.2,0.3,0.5,0.6,0.8,0.7
		c0.4,0.2,0.8,0.3,1.3,0.5c0.6,0.2,1.1,0.2,1.8,0.4L267.7,23.6z M270.6,21.5c0-0.6,0.2-0.9,0.6-1.3c0.4-0.4,0.8-0.6,1.3-0.6
		c0.6,0,0.9,0.2,1.3,0.6c0.4,0.4,0.6,0.8,0.6,1.3c0,0.6-0.2,0.9-0.6,1.3c-0.4,0.4-0.8,0.6-1.3,0.6c-0.6,0-0.9-0.2-1.3-0.6
		C270.7,22.4,270.6,22,270.6,21.5z"/>
</g>
<path class="st0" d="M2.3,57.7c-0.2,0-0.4,0-0.5,0c-0.2,0-0.3,0-0.4,0c-0.1,0-0.3,0-0.4-0.1c-0.1,0-0.3-0.1-0.5-0.2
	c0.1-0.2,0.1-0.3,0.2-0.5s0.1-0.3,0.2-0.5c0.1,0.2,0.3,0.2,0.4,0.2c0.1,0,0.3,0.1,0.4,0.1c0.1,0,0.3,0,0.4,0c0.1,0,0.3,0,0.5,0h0.2
	c0.3,0,0.5,0,0.8,0.1s0.5,0.2,0.7,0.3c0.3,0.2,0.4,0.5,0.6,0.8C5,58.2,5.1,58.6,5.1,59v3.6h1.2v1H0.1v-1h3.8v-3.4
	c0-0.3,0-0.5-0.1-0.7c0-0.2-0.1-0.3-0.2-0.4c-0.1-0.1-0.2-0.2-0.4-0.2c-0.2,0-0.4-0.1-0.7-0.1L2.3,57.7L2.3,57.7z"/>
<path class="st0" d="M8,59.9c0-0.2,0-0.4,0-0.6c0-0.2,0-0.4,0-0.5c0-0.2,0.1-0.3,0.1-0.5s0.1-0.4,0.2-0.6c-0.1,0-0.3,0-0.4-0.1
	c-0.1,0-0.3-0.1-0.5-0.2c0.1-0.2,0.1-0.3,0.2-0.5c0.1-0.2,0.1-0.3,0.2-0.5c0.1,0.2,0.3,0.2,0.4,0.2s0.3,0.1,0.4,0.1
	c0.1,0,0.3,0,0.4,0c0.1,0,0.3,0,0.5,0h1.6c0.3,0,0.5,0,0.8,0.1s0.5,0.2,0.7,0.3c0.2,0.2,0.4,0.4,0.5,0.7s0.2,0.7,0.2,1.1v4.7h-1.1
	v-4.4c0-0.3,0-0.5-0.1-0.7c0-0.2-0.1-0.3-0.2-0.4c-0.1-0.1-0.2-0.2-0.4-0.2s-0.4-0.1-0.6-0.1H9.3c-0.1,0.2-0.2,0.4-0.2,0.5
	c0,0.2-0.1,0.4-0.1,0.5c0,0.2,0,0.3,0,0.5s0,0.3,0,0.5v3.8H8L8,59.9z"/>
<path class="st0" d="M16.9,57.7c-0.2,0-0.4,0-0.5,0c-0.2,0-0.3,0-0.4,0s-0.3,0-0.4-0.1c-0.1,0-0.3-0.1-0.5-0.2
	c0.1-0.2,0.1-0.3,0.2-0.5s0.1-0.3,0.2-0.5c0.1,0.2,0.2,0.2,0.4,0.2c0.1,0,0.3,0.1,0.4,0.1s0.3,0,0.4,0s0.3,0,0.5,0h0.6
	c0.3,0,0.5,0,0.8,0.1s0.5,0.2,0.7,0.3c0.2,0.2,0.4,0.4,0.5,0.7S20,58.5,20,59v4.6h-1.1v-4.4c0-0.3,0-0.5-0.1-0.7
	c0-0.2-0.1-0.3-0.2-0.4c-0.1-0.1-0.2-0.2-0.4-0.2c-0.2,0-0.4-0.1-0.6-0.1L16.9,57.7L16.9,57.7z"/>
<path class="st0" d="M23.7,57.7c-0.2,0-0.4,0-0.5,0c-0.2,0-0.3,0-0.4,0s-0.3,0-0.4-0.1c-0.1,0-0.3-0.1-0.5-0.2
	c0.1-0.2,0.1-0.3,0.2-0.5s0.1-0.3,0.2-0.5c0.2,0.1,0.3,0.1,0.5,0.1c0.1,0,0.3,0.1,0.4,0.1s0.3,0,0.4,0s0.3,0,0.5,0h1.3
	c0.3,0,0.5,0,0.8,0.1s0.5,0.2,0.7,0.4s0.4,0.4,0.5,0.7s0.2,0.7,0.2,1.2v4.6h-1.1v-4.4c0-0.3,0-0.5-0.1-0.7c0-0.2-0.1-0.3-0.2-0.4
	c-0.1-0.1-0.2-0.2-0.4-0.2c-0.2,0-0.4-0.1-0.7-0.1L23.7,57.7L23.7,57.7z M22,61.5c0-0.2,0-0.4,0-0.5s0-0.3,0-0.4
	c0-0.1,0-0.3,0.1-0.4c0-0.1,0.1-0.3,0.1-0.5c0.2,0,0.4,0.1,0.6,0.1s0.4,0.1,0.6,0.1c0,0.2,0,0.3-0.1,0.4c0,0.1,0,0.2,0,0.4
	c0,0.1,0,0.3,0,0.4s0,0.3,0,0.5v2h-1.1v-2.1H22z"/>
<path class="st0" d="M34.7,57.7c-0.2,0-0.4,0-0.5,0c-0.2,0-0.3,0-0.4,0c-0.1,0-0.3,0-0.4-0.1c-0.1,0-0.3-0.1-0.5-0.2
	c0.1-0.2,0.1-0.3,0.2-0.5c0.1-0.2,0.1-0.3,0.2-0.5c0.2,0.1,0.3,0.1,0.5,0.1c0.1,0,0.3,0.1,0.4,0.1c0.1,0,0.3,0,0.4,0
	c0.1,0,0.3,0,0.5,0h0.6c0.3,0,0.5,0,0.8,0.1s0.5,0.2,0.7,0.3c0.2,0.2,0.4,0.4,0.5,0.7c0.2,0.5,0.2,0.9,0.2,1.4v4.5h-1.1v-4.4
	c0-0.3,0-0.5-0.1-0.7c0-0.2-0.1-0.3-0.2-0.4c-0.1-0.1-0.2-0.2-0.4-0.2s-0.4-0.1-0.6-0.1L34.7,57.7L34.7,57.7z"/>
<path class="st0" d="M41.9,56.7v6.9h-1.1v-5.8h-1.1v-1h2.2V56.7z"/>
<path class="st0" d="M46,57.7c-0.2,0-0.4,0-0.5,0c-0.2,0-0.3,0-0.4,0c-0.1,0-0.3,0-0.4-0.1c-0.1,0-0.3-0.1-0.5-0.2
	c0.1-0.2,0.1-0.3,0.2-0.5c0.1-0.2,0.1-0.3,0.2-0.5c0,0.2,0.2,0.2,0.3,0.2s0.3,0.1,0.4,0.1c0.1,0,0.3,0,0.4,0c0.1,0,0.3,0,0.5,0h0.2
	c0.3,0,0.5,0,0.8,0.1s0.5,0.2,0.7,0.3c0.2,0.2,0.4,0.4,0.5,0.7s0.2,0.7,0.2,1.1v3.7h1.3v1h-6.2v-1h3.9v-3.4c0-0.3,0-0.5-0.1-0.7
	c0-0.2-0.1-0.3-0.2-0.4c-0.1-0.1-0.2-0.2-0.4-0.2s-0.4-0.1-0.7-0.1L46,57.7L46,57.7z"/>
<path class="st0" d="M53.8,56.7v2.1c0,0.2,0,0.4,0,0.6c0,0.2,0,0.3,0,0.4c0,0.1,0,0.3-0.1,0.4c0,0.1-0.1,0.3-0.1,0.4l-1.1-0.2
	c0-0.1,0-0.3,0.1-0.4s0-0.2,0-0.3s0-0.3,0-0.4c0-0.2,0-0.3,0-0.6v-1.1h-1.5v-1L53.8,56.7L53.8,56.7z"/>
<path class="st0" d="M56.9,59.8c-0.3-0.3-0.5-0.6-0.7-0.9s-0.4-0.5-0.5-0.8c-0.1-0.2-0.2-0.5-0.3-0.7s-0.1-0.4-0.2-0.6
	c0.2-0.1,0.3-0.1,0.5-0.2c0.2-0.1,0.4-0.1,0.5-0.2c0,0.1,0,0.1,0,0.2c0,0.1,0,0.1,0,0.2c0,0.1,0.1,0.3,0.1,0.4
	c0.1,0.1,0.1,0.3,0.2,0.5c0.1,0.2,0.2,0.4,0.3,0.6c0.1,0.2,0.3,0.4,0.5,0.7c0.1,0.1,0.1,0.2,0.2,0.2s0.1,0.1,0.2,0.2
	c0.1,0.1,0.2,0.2,0.3,0.3s0.2,0.3,0.4,0.5c0.1-0.1,0.3-0.2,0.4-0.3c0.1-0.1,0.2-0.2,0.3-0.3s0.2-0.2,0.2-0.4
	c0.1-0.1,0.1-0.3,0.2-0.5c0.1-0.2,0.1-0.3,0.2-0.5c0.1-0.2,0.1-0.3,0.1-0.5l-0.9-0.3l0.3-0.9L61,57v0.8c-0.1,0.2-0.1,0.4-0.2,0.7
	c-0.1,0.2-0.2,0.5-0.2,0.7c-0.1,0.2-0.2,0.4-0.3,0.6c-0.1,0.2-0.2,0.3-0.3,0.5c-0.1,0.1-0.2,0.3-0.4,0.4c-0.1,0.1-0.3,0.2-0.4,0.3
	l1.5,1.7c0,0.1,0,0.2,0,0.4c0,0.1-0.1,0.3-0.1,0.5h-5.2v-1h3.8L56.9,59.8z"/>
<path class="st0" d="M64,54.9v1.9h3.8c0,0.1,0.1,0.3,0.1,0.4c0,0.1,0,0.2,0.1,0.3c0,0.1,0,0.2,0,0.2c0,0.1,0,0.1,0,0.2v1.4
	c0,0.5-0.1,1-0.3,1.5c-0.2,0.5-0.5,0.9-0.9,1.4L65.2,64l-0.8-0.7l1.5-1.7c0.1-0.2,0.3-0.3,0.4-0.5s0.2-0.3,0.3-0.5
	c0.1-0.2,0.2-0.4,0.2-0.5c0.1-0.2,0.1-0.4,0.1-0.6V58h-4v-2.9H64V54.9z"/>
<path class="st0" d="M74.3,62.6c-0.1-0.4-0.2-0.8-0.3-1.2c-0.1-0.4-0.1-0.8-0.1-1.2s0.1-0.9,0.2-1.3s0.3-0.8,0.5-1.2
	c-0.1,0-0.2,0-0.3,0s-0.2,0-0.3,0c-0.1,0-0.2,0-0.3-0.1s-0.2-0.1-0.4-0.1c0.1-0.2,0.1-0.3,0.2-0.5s0.1-0.3,0.2-0.5
	c0.1,0.1,0.2,0.1,0.4,0.1c0.1,0,0.3,0.1,0.4,0.1s0.3,0,0.4,0s0.3,0,0.5,0h1.7c0.3,0,0.5,0,0.8,0.1s0.5,0.2,0.7,0.4s0.4,0.4,0.5,0.7
	s0.2,0.7,0.2,1.2v4.5h-1.1v-4.4c0-0.3,0-0.5-0.1-0.7c0-0.2-0.1-0.3-0.2-0.4c-0.1-0.1-0.2-0.2-0.4-0.2s-0.4-0.1-0.6-0.1h-1.3
	c-0.2,0.3-0.4,0.7-0.5,1.1S75,59.7,75,60.2c0,0.4,0,0.7,0.1,1s0.1,0.7,0.2,1l0.2,0.7c0,0.1,0,0.2,0,0.3s0,0.2,0,0.4h-2.6v-1
	L74.3,62.6z"/>
<path class="st0" d="M83.3,56.7v6.9h-1.1v-5.8h-1.1v-1h2.2V56.7z"/>
<path class="st0" d="M87.9,56.7v2.1c0,0.2,0,0.4,0,0.6c0,0.2,0,0.3,0,0.4c0,0.1,0,0.3-0.1,0.4c0,0.1-0.1,0.3-0.1,0.4l-1.1-0.2
	c0-0.1,0-0.3,0.1-0.4s0-0.2,0-0.3s0-0.3,0-0.4c0-0.2,0-0.3,0-0.6v-1.1h-1.5v-1L87.9,56.7L87.9,56.7z"/>
<path class="st0" d="M91.4,57.7c-0.2,0-0.4,0-0.5,0c-0.2,0-0.3,0-0.4,0s-0.3,0-0.4-0.1c-0.1,0-0.3-0.1-0.5-0.2
	c0.1-0.2,0.1-0.3,0.2-0.5s0.1-0.3,0.2-0.5c0.2,0.1,0.3,0.1,0.5,0.1c0.1,0,0.3,0.1,0.4,0.1s0.3,0,0.4,0s0.3,0,0.5,0h0.6
	c0.3,0,0.5,0,0.8,0.1s0.5,0.2,0.7,0.3c0.2,0.2,0.4,0.4,0.5,0.7s0.2,0.7,0.2,1.2v4.7h-1.1v-4.4c0-0.3,0-0.5-0.1-0.7
	c0-0.2-0.1-0.3-0.2-0.4c-0.1-0.1-0.2-0.2-0.4-0.2c-0.2,0-0.4-0.1-0.6-0.1L91.4,57.7L91.4,57.7z"/>
<path class="st0" d="M98.3,57.7c-0.2,0-0.4,0-0.5,0c-0.2,0-0.3,0-0.4,0s-0.3,0-0.4-0.1c-0.1,0-0.3-0.1-0.5-0.2
	c0.1-0.2,0.1-0.3,0.2-0.5s0.1-0.3,0.2-0.5c0.2,0.1,0.3,0.1,0.5,0.1c0.1,0,0.3,0.1,0.4,0.1s0.3,0,0.4,0s0.3,0,0.5,0h0.2
	c0.3,0,0.5,0,0.8,0.1s0.5,0.2,0.7,0.3c0.2,0.2,0.4,0.4,0.5,0.7s0.2,0.7,0.2,1.1v3.8h1.2v1h-6.2v-1h3.9v-3.4c0-0.3,0-0.5-0.1-0.7
	c0-0.2-0.1-0.3-0.2-0.4c-0.1-0.1-0.2-0.2-0.4-0.2c-0.2,0-0.4-0.1-0.7-0.1L98.3,57.7L98.3,57.7z"/>
<path class="st0" d="M107.4,57.5c0-0.2,0.1-0.3,0.1-0.5s0.1-0.3,0.1-0.5l1.9,0.5c0,0.2,0,0.3,0,0.5s0,0.3,0,0.5
	c0,0.4-0.1,0.7-0.2,1.1c-0.1,0.4-0.2,0.7-0.3,1c-0.1,0.3-0.3,0.7-0.5,1s-0.4,0.6-0.7,0.9c-0.3,0.3-0.6,0.6-0.9,0.8s-0.7,0.4-1.1,0.6
	c-0.3,0.1-0.6,0.3-0.9,0.4s-0.7,0.2-1,0.3l-0.3-1c0.3-0.1,0.7-0.2,1.1-0.3s0.7-0.3,1.1-0.4c-0.2-0.6-0.5-1.2-0.7-1.8
	s-0.5-1.2-0.7-1.8c-0.1-0.2-0.1-0.3-0.2-0.4c0-0.1-0.1-0.2-0.2-0.3s-0.2-0.1-0.3-0.2c-0.1-0.1-0.3-0.2-0.5-0.3
	c0.1-0.2,0.2-0.3,0.2-0.5c0.1-0.2,0.2-0.3,0.3-0.5c0.2,0.1,0.4,0.2,0.6,0.3s0.3,0.2,0.4,0.3s0.2,0.2,0.3,0.3
	c0.1,0.1,0.2,0.3,0.2,0.5c0,0.1,0.1,0.2,0.1,0.3s0.1,0.2,0.1,0.4c0.1,0.1,0.1,0.3,0.2,0.5s0.1,0.4,0.2,0.6c0.1,0.2,0.2,0.5,0.3,0.9
	c0.1,0.3,0.3,0.7,0.4,1.1c0.3-0.2,0.5-0.5,0.7-0.7c0.2-0.3,0.4-0.6,0.5-0.9c0.1-0.3,0.3-0.7,0.4-1.1c0.1-0.4,0.2-0.8,0.2-1.2
	L107.4,57.5z"/>
<path class="st0" d="M115.8,62.6c-0.1-0.4-0.2-0.8-0.3-1.2c-0.1-0.4-0.1-0.8-0.1-1.1c0-0.4,0.1-0.9,0.2-1.3s0.3-0.8,0.5-1.2
	c-0.1,0-0.2,0-0.3,0s-0.2,0-0.3,0c-0.1,0-0.2,0-0.3-0.1s-0.2-0.1-0.4-0.1c0.1-0.2,0.1-0.3,0.2-0.5s0.1-0.3,0.2-0.5
	c0.2,0.1,0.3,0.1,0.5,0.1c0.1,0,0.3,0.1,0.4,0.1s0.3,0,0.4,0s0.3,0,0.5,0h1.7c0.3,0,0.5,0,0.8,0.1s0.5,0.2,0.7,0.4s0.4,0.4,0.5,0.7
	s0.2,0.7,0.2,1.2v4.4h-1.1v-4.4c0-0.3,0-0.5-0.1-0.7c0-0.2-0.1-0.3-0.2-0.4c-0.1-0.1-0.2-0.2-0.4-0.2s-0.4-0.1-0.6-0.1h-1.3
	c-0.2,0.3-0.4,0.7-0.5,1.1s-0.1,0.8-0.1,1.3c0,0.4,0,0.7,0.1,1s0.1,0.7,0.2,1l0.2,0.7c0,0.1,0,0.2,0,0.3s0,0.2,0,0.4h-2.6v-1
	C114.5,62.6,115.8,62.6,115.8,62.6z"/>
<path class="st0" d="M124.9,56.7v6.9h-1.1v-5.8h-1.1v-1h2.2V56.7z"/>
<path class="st0" d="M128.6,57.7c-0.2,0-0.4,0-0.5,0c-0.2,0-0.3,0-0.4,0c-0.1,0-0.3,0-0.4-0.1c-0.1,0-0.3-0.1-0.5-0.2
	c0.1-0.2,0.1-0.3,0.2-0.5c0.1-0.2,0.1-0.3,0.2-0.5c0.2,0.1,0.3,0.1,0.5,0.1c0.1,0,0.3,0.1,0.4,0.1c0.1,0,0.3,0,0.4,0
	c0.1,0,0.3,0,0.5,0h0.6c0.3,0,0.5,0,0.8,0.1s0.5,0.2,0.7,0.3c0.2,0.2,0.4,0.4,0.5,0.7s0.2,0.7,0.2,1.2v4.7h-1.1v-4.4
	c0-0.3,0-0.5-0.1-0.7c0-0.2-0.1-0.3-0.2-0.4c-0.1-0.1-0.2-0.2-0.4-0.2s-0.4-0.1-0.6-0.1L128.6,57.7L128.6,57.7z"/>
<path class="st0" d="M136,56.7v2.1c0,0.2,0,0.4,0,0.6c0,0.2,0,0.3,0,0.4c0,0.1,0,0.3-0.1,0.4c0,0.1-0.1,0.3-0.1,0.4l-1.1-0.2
	c0-0.1,0-0.3,0.1-0.4s0-0.2,0-0.3s0-0.3,0-0.4c0-0.2,0-0.3,0-0.6v-1.1h-1.5v-1L136,56.7L136,56.7z"/>
<path class="st0" d="M139.1,59.8c-0.3-0.3-0.5-0.6-0.7-0.9s-0.4-0.5-0.5-0.8c-0.1-0.2-0.2-0.5-0.3-0.7s-0.1-0.4-0.2-0.6
	c0.2-0.1,0.3-0.1,0.5-0.2c0.2-0.1,0.4-0.1,0.5-0.2c0,0.1,0,0.1,0,0.2c0,0.1,0,0.1,0,0.2c0,0.1,0.1,0.3,0.1,0.4
	c0.1,0.1,0.1,0.3,0.2,0.5c0.1,0.2,0.2,0.4,0.3,0.6c0.1,0.2,0.3,0.4,0.5,0.7c0.1,0.1,0.1,0.2,0.2,0.2c0.1,0.1,0.1,0.1,0.2,0.2
	s0.2,0.2,0.3,0.3s0.2,0.3,0.4,0.5c0.1-0.1,0.3-0.2,0.4-0.3c0.1-0.1,0.2-0.2,0.3-0.3s0.2-0.2,0.2-0.4s0.1-0.3,0.2-0.5
	c0.1-0.2,0.1-0.3,0.2-0.5c0-0.2,0.1-0.3,0.1-0.5l-0.9-0.3l0.3-0.9l1.8,0.5v0.8c-0.1,0.2-0.1,0.4-0.2,0.7s-0.2,0.5-0.2,0.7
	c-0.1,0.2-0.2,0.4-0.3,0.6c-0.1,0.2-0.2,0.3-0.3,0.5c-0.1,0.1-0.2,0.3-0.4,0.4c-0.1,0.1-0.3,0.2-0.4,0.3l1.5,1.7c0,0.1,0,0.2,0,0.4
	c0,0.1-0.1,0.3-0.1,0.5h-5.2v-1h3.8L139.1,59.8z"/>
<path class="st0" d="M147.6,56.7v2.1c0,0.2,0,0.4,0,0.6c0,0.2,0,0.3,0,0.4c0,0.1,0,0.3-0.1,0.4c0,0.1-0.1,0.3-0.1,0.4l-1.1-0.2
	c0-0.1,0-0.3,0.1-0.4s0-0.2,0-0.3s0-0.3,0-0.4c0-0.2,0-0.3,0-0.6v-1.1h-1.5v-1L147.6,56.7L147.6,56.7z"/>
<path class="st0" d="M157.9,56.7c0.3,0,0.5,0,0.8,0.1s0.5,0.2,0.7,0.3c0.2,0.2,0.4,0.4,0.5,0.7s0.2,0.7,0.2,1.1v4.7h-1.8v-4.1
	c0-0.3,0-0.5,0-0.7s-0.1-0.3-0.2-0.4s-0.2-0.2-0.4-0.2s-0.4-0.1-0.6-0.1h-1c-0.1,0.3-0.2,0.6-0.3,1c-0.1,0.3-0.1,0.7-0.1,1
	c0,0.2,0,0.4,0,0.5c0,0.2,0,0.3,0,0.5s0.1,0.3,0.1,0.5s0.1,0.3,0.1,0.5l0.1,0.4c0,0.2,0,0.4-0.1,0.5c0,0.2-0.1,0.3-0.1,0.5h-3.2
	v-1.4h1.5c-0.1-0.3-0.2-0.7-0.3-1s-0.1-0.6-0.1-0.9c0-0.2,0-0.5,0-0.7s0.1-0.5,0.2-0.7c0-0.1,0.1-0.2,0.1-0.3s0.1-0.2,0.1-0.3
	c-0.2,0-0.4,0-0.6-0.1c-0.2,0-0.4-0.1-0.6-0.2c0.1-0.2,0.1-0.5,0.2-0.7c0.1-0.2,0.2-0.5,0.2-0.7c0.2,0.1,0.4,0.1,0.6,0.1
	c0.2,0,0.3,0.1,0.5,0.1s0.3,0,0.5,0s0.4,0,0.6,0C155.5,56.7,157.9,56.7,157.9,56.7z"/>
<path class="st0" d="M163.2,56.3c0.4,0.1,0.8,0.2,1.1,0.3s0.6,0.2,0.9,0.2c0.3,0.1,0.5,0.1,0.7,0.2c0.2,0.1,0.4,0.1,0.6,0.2
	c0.2,0.1,0.4,0.2,0.6,0.3c0.2,0.1,0.3,0.3,0.4,0.4c0.1,0.2,0.2,0.3,0.2,0.5s0.1,0.4,0.1,0.6v2.6c0,0.1,0,0.2,0,0.3s0,0.2,0,0.3
	s-0.1,0.3-0.1,0.5s-0.1,0.4-0.2,0.7h-5.9V62h4.5v-2.7c0-0.2,0-0.3,0-0.4c0-0.1,0-0.2-0.1-0.3c0-0.1-0.1-0.1-0.2-0.2
	c-0.1-0.1-0.2-0.1-0.3-0.2c-0.2-0.1-0.4-0.1-0.6-0.2s-0.4-0.1-0.7-0.2l-0.6,1.3l0.9,0.5l-0.8,1.3l-2.1-1.2L163.2,56.3z"/>
<path class="st0" d="M172.4,56.7v2.5c0,0.2,0,0.4,0,0.6c0,0.2,0,0.3,0,0.4c0,0.1,0,0.3-0.1,0.4c0,0.1,0,0.3-0.1,0.4l-1.8-0.3
	c0-0.1,0-0.3,0.1-0.4c0-0.1,0-0.2,0-0.3s0-0.3,0-0.4c0-0.2,0-0.3,0-0.6v-1H169v-1.4L172.4,56.7L172.4,56.7z"/>
<path class="st0" d="M176.2,62.2c0.1,0,0.2,0,0.3,0s0.2,0,0.3,0c0.3,0,0.5,0,0.8-0.1c0.3,0,0.5-0.1,0.8-0.2s0.5-0.3,0.7-0.5
	s0.4-0.5,0.6-0.8c0.2-0.4,0.4-0.9,0.5-1.4s0.1-0.9,0.1-1.4c0-0.2,0-0.4,0-0.6s0-0.4-0.1-0.6c0.2,0,0.4-0.1,0.5-0.1s0.3-0.1,0.4-0.1
	c0.1,0,0.3,0,0.4-0.1s0.3,0,0.5-0.1c0,0.2,0.1,0.4,0.1,0.6c0,0.2,0,0.4,0,0.7c0,0.2,0,0.4,0,0.6c0,0.2,0,0.4-0.1,0.6
	c-0.2,1.6-0.8,2.8-1.8,3.6s-2.3,1.2-3.9,1.2c-0.3,0-0.6,0-0.9,0c-0.3,0-0.6-0.1-1-0.1l-0.3-4c0-0.2,0-0.4,0-0.6c0-0.2,0-0.3,0-0.5
	c0-0.1,0-0.3,0-0.4s0-0.2-0.1-0.3c0-0.1-0.1-0.2-0.1-0.4c0-0.1-0.1-0.3-0.2-0.4c0.3-0.1,0.5-0.2,0.8-0.3s0.5-0.2,0.8-0.3
	c0.1,0.3,0.2,0.5,0.3,0.7s0.1,0.4,0.2,0.6c0,0.2,0.1,0.4,0.1,0.7c0,0.2,0,0.5,0.1,0.8L176.2,62.2z M176.8,59
	c0.1-0.2,0.1-0.3,0.2-0.5c0-0.1,0.1-0.2,0.1-0.3s0.1-0.2,0.1-0.3s0-0.2,0-0.3v-0.1v-0.1c0-0.1,0-0.1,0-0.2c0-0.1,0-0.2,0-0.3
	c0.3-0.1,0.6-0.2,0.9-0.2s0.6-0.1,0.9-0.2c0.1,0.2,0.1,0.4,0.1,0.5s0,0.3,0,0.5c0,0.1,0,0.3,0,0.4c0,0.1,0,0.3-0.1,0.4
	c0,0.1-0.1,0.3-0.1,0.5c-0.1,0.2-0.1,0.4-0.2,0.6l-0.4,1.2c-0.2,0-0.3-0.1-0.5-0.1c-0.1,0-0.2-0.1-0.4-0.1c-0.1,0-0.2-0.1-0.3-0.1
	s-0.3-0.1-0.4-0.2L176.8,59z"/>
<path class="st0" d="M188.1,56.7c0.3,0,0.5,0,0.8,0.1s0.5,0.2,0.7,0.3c0.2,0.2,0.4,0.4,0.5,0.7s0.2,0.7,0.2,1.2v4.6h-1.8v-4.1
	c0-0.3,0-0.5,0-0.7s-0.1-0.3-0.2-0.4s-0.2-0.2-0.4-0.2s-0.4-0.1-0.6-0.1H186c-0.1,0.3-0.1,0.6-0.1,0.8c0,0.3,0,0.5,0,0.8v3.9h-1.8
	v-3.8c0-0.3,0-0.5,0.1-0.8c0-0.3,0.1-0.6,0.2-0.9c-0.2,0-0.3-0.1-0.5-0.1s-0.3-0.1-0.5-0.2c0.1-0.2,0.1-0.5,0.2-0.7
	c0.1-0.2,0.1-0.5,0.2-0.7c0.2,0.1,0.4,0.1,0.6,0.1s0.3,0.1,0.5,0.1c0.1,0,0.3,0,0.5,0s0.4,0,0.6,0h2.1V56.7z"/>
<path class="st0" d="M194.3,56.7v6.9h-1.1v-5.8h-1.1v-1h2.2L194.3,56.7L194.3,56.7z"/>
<path class="st0" d="M210.7,62.2c0.1,0,0.2,0,0.3,0s0.2,0,0.3,0c0.3,0,0.5,0,0.8-0.1c0.3,0,0.5-0.1,0.8-0.2s0.5-0.3,0.7-0.5
	s0.4-0.5,0.6-0.8c0.2-0.4,0.4-0.9,0.5-1.4s0.1-0.9,0.1-1.4c0-0.2,0-0.4,0-0.6s0-0.4-0.1-0.6c0.2,0,0.4-0.1,0.5-0.1s0.3-0.1,0.4-0.1
	c0.1,0,0.3,0,0.4-0.1s0.3,0,0.5-0.1c0,0.2,0.1,0.4,0.1,0.6c0,0.2,0,0.4,0,0.7c0,0.2,0,0.4,0,0.6c0,0.2,0,0.4-0.1,0.6
	c-0.2,1.6-0.8,2.8-1.8,3.6s-2.3,1.2-3.9,1.2c-0.3,0-0.6,0-0.9,0c-0.3,0-0.6-0.1-1-0.1l-0.3-4c0-0.2,0-0.4,0-0.6c0-0.2,0-0.3,0-0.5
	c0-0.1,0-0.3,0-0.4s0-0.2-0.1-0.3c0-0.1-0.1-0.2-0.1-0.4c0-0.1-0.1-0.3-0.2-0.4c0.3-0.1,0.5-0.2,0.8-0.3s0.5-0.2,0.8-0.3
	c0.1,0.3,0.2,0.5,0.3,0.7s0.1,0.4,0.2,0.6c0,0.2,0.1,0.4,0.1,0.7c0,0.2,0,0.5,0.1,0.8L210.7,62.2z M211.4,59
	c0.1-0.2,0.1-0.3,0.2-0.5c0-0.1,0.1-0.2,0.1-0.3s0.1-0.2,0.1-0.3s0-0.2,0-0.3v-0.1v-0.1c0-0.1,0-0.1,0-0.2c0-0.1,0-0.2,0-0.3
	c0.3-0.1,0.6-0.2,0.9-0.2s0.6-0.1,0.9-0.2c0.1,0.2,0.1,0.4,0.1,0.5s0,0.3,0,0.5c0,0.1,0,0.3,0,0.4c0,0.1,0,0.3-0.1,0.4
	c0,0.1-0.1,0.3-0.1,0.5c-0.1,0.2-0.1,0.4-0.2,0.6l-0.4,1.2c-0.2,0-0.3-0.1-0.5-0.1c-0.1,0-0.2-0.1-0.4-0.1c-0.1,0-0.2-0.1-0.3-0.1
	s-0.3-0.1-0.4-0.2L211.4,59z"/>
<path class="st0" d="M222.1,56.7V59c0,0.3,0,0.6,0,0.8s0,0.4,0,0.6c0,0.2,0.1,0.3,0.1,0.5s0.1,0.3,0.2,0.5c0.1,0.2,0.1,0.4,0.2,0.6
	s0.1,0.4,0.2,0.5c0.1,0.2,0.1,0.3,0.1,0.5s0.1,0.3,0.1,0.5h-1.6c0-0.1,0-0.2-0.1-0.3c0-0.1-0.1-0.2-0.1-0.3s-0.1-0.2-0.1-0.3
	s-0.1-0.2-0.1-0.3l-0.1-0.3c-0.1,0.1-0.1,0.1-0.2,0.2c-0.1,0.1-0.1,0.2-0.2,0.2s-0.1,0.2-0.2,0.2c-0.1,0.1-0.1,0.1-0.2,0.2
	c-0.1,0.1-0.2,0.2-0.4,0.3c-0.1,0.1-0.3,0.2-0.5,0.3s-0.4,0.1-0.6,0.2c-0.2,0.1-0.5,0.1-0.7,0.1c-0.1-0.2-0.1-0.4-0.1-0.7
	s-0.1-0.4-0.1-0.7c0.4-0.1,0.7-0.2,1-0.3s0.5-0.3,0.7-0.5l1-1.1V58h-1.5v-1.4L222.1,56.7L222.1,56.7z"/>
<path class="st0" d="M228,56.7v0.9c0,0.1,0,0.2,0,0.3s0,0.2,0,0.4c0,0.1,0,0.3,0.1,0.5c0,0.2,0.1,0.5,0.1,0.8s0.1,0.7,0.1,1.1
	s0.1,0.9,0.1,1.4c0,0.1,0,0.1,0,0.2s0,0.1,0,0.2c0,0.1,0,0.2,0,0.3s0,0.2,0,0.3s0,0.2,0,0.3s0,0.2-0.1,0.3h-4.4v-1.4h2.8
	c0-0.1,0-0.2,0-0.5s0-0.4-0.1-0.7c0-0.3-0.1-0.5-0.1-0.8s-0.1-0.6-0.1-0.8c0-0.3-0.1-0.5-0.1-0.7s0-0.3,0-0.4h-1.7V57h3.4L228,56.7
	L228,56.7z"/>
<path class="st0" d="M232.2,58.2c-0.2,0-0.4,0-0.6,0c-0.2,0-0.3,0-0.5,0s-0.3-0.1-0.5-0.1s-0.4-0.1-0.6-0.2c0.1-0.2,0.1-0.5,0.2-0.7
	c0.1-0.2,0.1-0.5,0.2-0.7c0.2,0.1,0.4,0.1,0.6,0.1s0.3,0.1,0.5,0.1c0.1,0,0.3,0,0.5,0s0.4,0,0.6,0h1.4c0.3,0,0.5,0,0.8,0.1
	s0.5,0.2,0.7,0.3c0.2,0.2,0.4,0.4,0.5,0.7s0.2,0.7,0.2,1.1v4.7h-1.8v-4.1c0-0.3,0-0.5,0-0.7s-0.1-0.3-0.2-0.4
	c-0.1-0.1-0.2-0.2-0.4-0.2s-0.4-0.1-0.6-0.1L232.2,58.2L232.2,58.2z M230.2,61.6c0-0.2,0-0.4,0-0.5c0-0.2,0-0.3,0-0.5
	c0-0.1,0-0.3,0-0.4c0-0.1,0.1-0.3,0.1-0.5c0.3,0,0.6,0.1,0.9,0.1c0.3,0,0.6,0.1,0.9,0.2c-0.1,0.2-0.1,0.5-0.1,0.7s0,0.5,0,0.9v2
	h-1.8L230.2,61.6L230.2,61.6z"/>
<path class="st0" d="M202.8,58.2c-0.2,0-0.4,0-0.6,0c-0.2,0-0.3,0-0.5,0s-0.3-0.1-0.5-0.1s-0.4-0.1-0.6-0.2c0.1-0.2,0.1-0.5,0.2-0.7
	c0.1-0.2,0.1-0.5,0.2-0.7c0.2,0.1,0.4,0.1,0.6,0.1s0.3,0.1,0.5,0.1c0.1,0,0.3,0,0.5,0s0.4,0,0.6,0h1.4c0.3,0,0.5,0,0.8,0.1
	s0.5,0.2,0.7,0.3c0.2,0.2,0.4,0.4,0.5,0.7s0.2,0.7,0.2,1.1v4.7H205v-4.1c0-0.3,0-0.5,0-0.7s-0.1-0.3-0.2-0.4
	c-0.1-0.1-0.2-0.2-0.4-0.2s-0.4-0.1-0.6-0.1L202.8,58.2L202.8,58.2z M200.8,61.6c0-0.2,0-0.4,0-0.5c0-0.2,0-0.3,0-0.5
	c0-0.1,0-0.3,0-0.4c0-0.1,0.1-0.3,0.1-0.5c0.3,0,0.6,0.1,0.9,0.1c0.3,0,0.6,0.1,0.9,0.2c-0.1,0.2-0.1,0.5-0.1,0.7s0,0.5,0,0.9v2
	h-1.8L200.8,61.6L200.8,61.6z"/>
<path class="st0" d="M242.3,62.4c0.2-0.1,0.3-0.2,0.4-0.2s0.2-0.1,0.4-0.1s0.4,0,0.5,0.1s0.2,0.2,0.3,0.3s0.1,0.3,0.1,0.5
	s0,0.3-0.1,0.5c0,0.1-0.1,0.2-0.2,0.4s-0.2,0.3-0.2,0.5c-0.1,0.2-0.2,0.3-0.3,0.5c-0.1,0.2-0.2,0.3-0.2,0.4h-0.8l0.5-1.7L242.3,62.4
	z"/>
<path class="st0" d="M248.2,58.2c-0.2,0-0.4,0-0.6,0c-0.2,0-0.3,0-0.5,0s-0.3-0.1-0.5-0.1s-0.4-0.1-0.6-0.2c0.1-0.2,0.1-0.5,0.2-0.7
	c0.1-0.2,0.2-0.5,0.2-0.7c0.2,0.1,0.4,0.1,0.6,0.1c0.2,0,0.3,0.1,0.5,0.1c0.1,0,0.3,0,0.5,0s0.4,0,0.6,0h0.8c0.3,0,0.5,0,0.8,0.1
	s0.5,0.2,0.7,0.3c0.2,0.2,0.4,0.4,0.5,0.7s0.2,0.7,0.2,1.1v4.7h-1.7v-4.1c0-0.3,0-0.5,0-0.7s-0.1-0.3-0.2-0.4s-0.2-0.2-0.4-0.2
	s-0.4-0.1-0.6-0.1L248.2,58.2L248.2,58.2z"/>
<path class="st0" d="M256.3,56.7v6.9h-1.8v-5.4h-1.1v-1.4L256.3,56.7L256.3,56.7z"/>
<path class="st0" d="M257.9,57.2c0.2-0.2,0.5-0.3,0.7-0.4c0.2-0.1,0.5-0.3,0.7-0.4c0.1,0.1,0.2,0.3,0.3,0.4s0.1,0.2,0.2,0.3
	s0.1,0.2,0.2,0.3c0,0.1,0.1,0.2,0.1,0.3c0.4-0.4,0.8-0.6,1.2-0.8c0.4-0.2,0.8-0.3,1.2-0.3c0.3,0,0.5,0,0.8,0.1s0.5,0.2,0.7,0.4
	s0.4,0.4,0.5,0.6c0.1,0.2,0.2,0.5,0.3,0.8c0,0.2,0.1,0.5,0.1,0.8s0,0.6,0,1c0,0.2,0,0.3,0,0.5s0,0.4,0,0.7s0,0.6,0,0.9
	c0,0.3,0,0.5,0,0.7c0,0.1,0,0.2,0,0.3s0,0.2,0,0.3h-3.4v-1.4h1.8v-0.1c0-0.1,0-0.2,0-0.3s0-0.3,0-0.5s0-0.5,0-0.8c0-0.1,0-0.2,0-0.3
	s0-0.3,0-0.4c0-0.1,0-0.3,0-0.4c0-0.1,0-0.2,0-0.3c0-0.4-0.2-0.6-0.3-0.8c-0.2-0.1-0.4-0.2-0.7-0.2c-0.2,0-0.3,0-0.5,0.1
	s-0.3,0.2-0.5,0.3c-0.1,0.1-0.2,0.1-0.3,0.2c-0.1,0.1-0.2,0.2-0.3,0.3c-0.1,0.5-0.1,0.9-0.2,1.3c-0.1,0.4-0.1,0.7-0.1,0.9
	s-0.1,0.5-0.1,0.7s-0.1,0.4-0.1,0.6c0,0.2-0.1,0.4-0.1,0.6c0,0.2-0.1,0.4-0.1,0.7h-2.1l0.2-1.2c0-0.3,0.1-0.5,0.1-0.8
	s0.1-0.5,0.1-0.8c0-0.2,0.1-0.5,0.1-0.8s0.1-0.5,0.1-0.8c0-0.1,0-0.2,0-0.2c0-0.1,0-0.1,0-0.2c0-0.1,0-0.2,0-0.3s0-0.2-0.1-0.3
	c0-0.1-0.1-0.2-0.1-0.3s-0.1-0.2-0.2-0.3L257.9,57.2z"/>
<path class="st0" d="M269.5,56.7v2.5c0,0.2,0,0.4,0,0.6c0,0.2,0,0.3,0,0.4c0,0.1,0,0.3-0.1,0.4c0,0.1-0.1,0.3-0.1,0.4l-1.8-0.3
	c0-0.1,0-0.3,0.1-0.4c0-0.1,0-0.2,0-0.3s0-0.3,0-0.4c0-0.2,0-0.3,0-0.6v-1h-1.5v-1.4L269.5,56.7L269.5,56.7z"/>
<path class="st0" d="M273.3,62.2c0.1,0,0.2,0,0.3,0c0.1,0,0.2,0,0.3,0c0.3,0,0.5,0,0.8-0.1c0.3,0,0.5-0.1,0.8-0.2s0.5-0.3,0.7-0.5
	s0.4-0.5,0.6-0.8c0.2-0.4,0.4-0.9,0.5-1.4s0.1-0.9,0.1-1.4c0-0.2,0-0.4,0-0.6c0-0.2,0-0.4-0.1-0.6c0.2,0,0.4-0.1,0.5-0.1
	s0.3-0.1,0.4-0.1s0.3,0,0.4-0.1s0.3,0,0.5-0.1c0,0.2,0.1,0.4,0.1,0.6c0,0.2,0,0.4,0,0.7c0,0.2,0,0.4,0,0.6c0,0.2,0,0.4-0.1,0.6
	c-0.2,1.6-0.8,2.8-1.8,3.6s-2.3,1.2-3.9,1.2c-0.3,0-0.6,0-0.9,0s-0.6-0.1-1-0.1l-0.3-4c0-0.2,0-0.4,0-0.6s0-0.3,0-0.5
	c0-0.1,0-0.3,0-0.4s0-0.2-0.1-0.3s-0.1-0.2-0.1-0.4c0-0.1-0.1-0.3-0.2-0.4c0.3-0.1,0.5-0.2,0.8-0.3s0.5-0.2,0.8-0.3
	c0.1,0.3,0.2,0.5,0.3,0.7c0.1,0.2,0.1,0.4,0.2,0.6c0,0.2,0.1,0.4,0.1,0.7c0,0.2,0,0.5,0.1,0.8L273.3,62.2z M273.9,59
	c0.1-0.2,0.1-0.3,0.2-0.5c0-0.1,0.1-0.2,0.1-0.3s0.1-0.2,0.1-0.3s0-0.2,0-0.3v-0.1v-0.1c0-0.1,0-0.1,0-0.2c0-0.1,0-0.2,0-0.3
	c0.3-0.1,0.6-0.2,0.9-0.2c0.3-0.1,0.6-0.1,0.9-0.2c0.1,0.2,0.1,0.4,0.1,0.5s0,0.3,0,0.5c0,0.1,0,0.3,0,0.4c0,0.1,0,0.3-0.1,0.4
	c0,0.1-0.1,0.3-0.1,0.5s-0.1,0.4-0.2,0.6l-0.4,1.2c-0.2,0-0.3-0.1-0.5-0.1c-0.1,0-0.2-0.1-0.4-0.1c-0.1,0-0.2-0.1-0.3-0.1
	c-0.1,0-0.3-0.1-0.4-0.2L273.9,59z"/>
</svg>
