<?xml version="1.0" encoding="utf-8"?>
<!-- Generator: Adobe Illustrator 26.3.1, SVG Export Plug-In . SVG Version: 6.00 Build 0)  -->
<svg version="1.1" id="Layer_2_00000026859572908583261850000017364526341681973155_"
	 xmlns="http://www.w3.org/2000/svg" xmlns:xlink="http://www.w3.org/1999/xlink" x="0px" y="0px" viewBox="0 0 281 48.2"
	 style="enable-background:new 0 0 281 48.2;" xml:space="preserve">
<style type="text/css">
	.st0{fill:#FFFFFF;}
</style>
<g>
	<path class="st0" d="M2.6,6.1c0.2,0.5,0.4,0.8,0.7,1C3.5,7.4,3.7,7.6,4,7.7s0.7,0.2,1,0.2C5.4,7.9,5.8,8,6.3,8h9.3
		c0.9,0,1.8,0.1,2.4,0.2c0.7,0.2,1.2,0.3,1.5,0.7c0.4,0.2,0.7,0.7,0.8,1c0.2,0.4,0.2,0.9,0.2,1.4s-0.1,1.1-0.2,1.7
		c-0.2,0.7-0.3,1.3-0.5,2c0,2.2,0.1,4.2,0.3,6c0.2,1.8,0.4,3.3,0.6,4.7c0.1,0.7,0.2,1.2,0.2,1.8C21,28,21,28.3,21,28.7
		c0,0.3,0,0.5-0.1,0.7s-0.2,0.3-0.3,0.6c-0.3,0.5-0.7,0.9-0.9,1.3c-0.3,0.5-0.6,0.9-0.8,1.3c-0.4,0.1-0.9,0.1-1.3,0
		c-0.1-0.3-0.1-0.7-0.2-1.3c-0.1-0.6-0.1-1.1-0.2-1.8c-0.1-0.7-0.1-1.3-0.1-1.9c0-0.7-0.1-1.2-0.1-1.6c0-1.3,0-2.5,0-3.4
		s0-1.8,0-2.5s0-1.3,0.1-1.7c0-0.5,0-0.9,0.1-1.2c0-0.4,0-0.8,0-1.1c0-0.3,0-0.7,0-1.1s0-0.7-0.1-0.9s-0.2-0.5-0.3-0.6
		c-0.2-0.2-0.4-0.2-0.7-0.3c-0.3-0.1-0.7-0.1-1.3-0.1H4.7c-0.6,0-1,0-1.6-0.1c-0.5-0.1-0.9-0.2-1.3-0.3c-0.4-0.2-0.7-0.4-0.9-0.7
		c-0.3-0.3-0.4-0.7-0.4-1.3c0-0.2,0-0.3,0.1-0.7s0.2-0.7,0.2-1C0.9,8.6,1,8.2,1.2,7.7c0-0.3,0.2-0.7,0.4-1.2
		c0.2-0.1,0.3-0.2,0.5-0.2C2.2,6.1,2.3,6.1,2.6,6.1z M5.3,19.2c-0.1,0.4-0.2,0.7-0.2,1C5,20.5,4.9,20.8,4.9,21
		c-0.1,0.2-0.1,0.5-0.1,0.8c0,0.2-0.1,0.6-0.1,0.9l-0.2,7c0,0.2,0,0.2,0,0.4c0,0.2-0.1,0.2-0.2,0.3c-0.2,0.2-0.5,0.4-0.7,0.6
		s-0.5,0.4-0.7,0.6s-0.5,0.5-0.6,0.6s-0.4,0.3-0.5,0.5c-0.4,0.1-0.7,0.1-1.1,0l0.7-8.6c0.1-0.8,0.2-1.5,0.5-2.2
		c0.2-0.7,0.6-1.1,0.9-1.5C3,20.1,3.2,20,3.5,19.6s0.7-0.4,1-0.6c0.2,0,0.3,0.1,0.6,0.2C5.3,19.2,5.2,19.1,5.3,19.2z"/>
	<path class="st0" d="M39.4,38.6c0,0.2-0.1,0.2-0.1,0.4c0,0.1,0,0.2,0,0.3c0,0.4,0,0.7,0.1,1s0.1,0.6,0.2,0.8s0.2,0.4,0.2,0.6
		c0.1,0.2,0.2,0.3,0.2,0.5c0.2,0.2,0.2,0.4,0.4,0.7c0.2,0.2,0.2,0.5,0.2,0.8c0,0.5-0.2,0.9-0.5,1.3c-0.3,0.4-0.8,0.6-1.3,0.6
		c-0.6,0-1-0.2-1.3-0.6c-0.3-0.4-0.5-0.8-0.5-1.3c0-0.3,0.1-0.6,0.2-0.8c0.1-0.2,0.2-0.4,0.4-0.7c0.1-0.2,0.2-0.3,0.2-0.5
		c0.1-0.2,0.2-0.4,0.2-0.6c0.1-0.2,0.2-0.5,0.2-0.8c0.1-0.3,0.1-0.7,0.1-1c0-0.1,0-0.2,0-0.3s0-0.2-0.1-0.4h-3.6l0.2-2.2H43
		l-0.2,2.2H39.4z"/>
	<path class="st0" d="M43.2,12.9c-1.1,0-1.8,0.2-2.3,0.8s-0.7,1.3-0.7,2.5c0,0.8,0,1.6,0.1,2.4c0,0.8,0.1,1.6,0.2,2.4
		s0.2,1.6,0.2,2.4c0.1,0.8,0.2,1.5,0.3,2.2s0.2,1.2,0.2,1.8c0.1,0.7,0.2,1,0.2,1.3c0,0.4-0.2,0.8-0.4,1.1c-0.3,0.4-0.7,0.9-0.9,1.3
		c-0.3,0.5-0.7,0.9-0.9,1.3c-0.4,0.1-0.9,0.1-1.3,0c-0.1-0.9-0.2-2.1-0.2-3.3c-0.1-1.2-0.1-2.6-0.1-3.9c0-1.2,0-2.4,0-3.6
		s0.1-2.3,0.1-3.4c0-1,0.1-2.1,0.2-2.9c0.1-0.9,0.1-1.6,0.2-2.2h-9.9c-0.6,0-1,0-1.6-0.1c-0.5-0.1-0.9-0.2-1.3-0.3
		c-0.4-0.2-0.7-0.4-0.9-0.7c-0.2-0.3-0.4-0.7-0.4-1.3c0-0.2,0-0.3,0.1-0.7c0.1-0.3,0.2-0.7,0.2-1c0.1-0.4,0.2-0.8,0.4-1.3
		c0.2-0.5,0.3-0.9,0.5-1.4c0.2-0.1,0.3-0.2,0.5-0.2s0.3,0,0.6,0c0.2,0.5,0.4,0.8,0.7,1c0.2,0.2,0.5,0.5,0.8,0.6s0.7,0.2,1,0.2
		S29.6,8,30.1,8h14.4c0.1,0,0.2,0.1,0.1,0.2C44.4,9,44.2,9.8,44,10.5s-0.3,1.4-0.5,2.2C43.4,12.9,43.3,12.9,43.2,12.9z"/>
	<path class="st0" d="M47.5,20.3c0-0.6,0.2-0.9,0.6-1.3c0.4-0.4,0.8-0.6,1.3-0.6c0.6,0,0.9,0.2,1.3,0.6c0.4,0.4,0.6,0.8,0.6,1.3
		c0,0.6-0.2,0.9-0.6,1.3c-0.4,0.4-0.8,0.6-1.3,0.6c-0.6,0-0.9-0.2-1.3-0.6S47.5,20.7,47.5,20.3z M53.4,32.5c0-0.3-0.1-0.7-0.1-1.3
		c0-0.6-0.1-1.1-0.1-1.8c0-0.7-0.1-1.3-0.1-1.9c0-0.7,0-1.2,0-1.7c0-1.6,0-2.9,0.1-4s0.1-2.1,0.2-2.9c0.1-0.9,0.1-1.6,0.2-2.2
		c0.1-0.7,0.1-1.3,0.1-1.8c0-0.2-0.1-0.4-0.2-0.6c-0.1-0.2-0.2-0.2-0.4-0.4c-0.2-0.1-0.4-0.2-0.7-0.2c-0.2-0.1-0.5-0.2-0.7-0.2
		c-0.6-0.2-1.1-0.3-1.6-0.5s-0.9-0.3-1.3-0.5c-0.4-0.2-0.7-0.4-0.8-0.7s-0.3-0.6-0.3-0.9c0-0.2,0.1-0.6,0.2-0.9
		c0.1-0.4,0.2-0.8,0.4-1.3s0.3-0.9,0.6-1.3c0.2-0.4,0.4-0.9,0.6-1.2C49.7,6.1,49.8,6.1,50,6s0.4,0,0.6,0c0.1,0.4,0.2,0.7,0.4,0.9
		s0.4,0.4,0.7,0.7c0.2,0.2,0.7,0.3,1,0.4c0.4,0.2,0.9,0.2,1.4,0.4s0.9,0.2,1.3,0.4C55.7,9,56,9,56.2,9.2s0.3,0.2,0.4,0.4
		c0.1,0.2,0.1,0.3,0.1,0.5s0,0.3-0.1,0.7c-0.1,0.3-0.1,0.6-0.2,0.9c-0.1,0.5-0.2,1.1-0.2,1.9c-0.1,0.7-0.2,1.7-0.2,2.8
		c0,1.6,0.1,3.2,0.2,4.7c0.2,1.5,0.3,3,0.6,4.5c0.1,0.7,0.2,1.2,0.2,1.8c0.1,0.7,0.1,0.9,0.1,1.3c0,0.3,0,0.5-0.1,0.7
		s-0.2,0.3-0.3,0.6c-0.3,0.5-0.7,0.9-1,1.3c-0.3,0.5-0.7,0.9-0.9,1.3C54.2,32.6,53.9,32.6,53.4,32.5z"/>
	<path class="st0" d="M63.9,6.1c0.2,0.5,0.4,0.8,0.7,1c0.2,0.2,0.5,0.5,0.8,0.6c0.3,0.2,0.7,0.2,1,0.2S67.2,8,67.7,8H77
		c0.9,0,1.8,0.1,2.4,0.2c0.7,0.2,1.2,0.3,1.5,0.7c0.4,0.2,0.7,0.7,0.8,1c0.2,0.4,0.2,0.9,0.2,1.4s-0.1,1.1-0.2,1.7
		c-0.2,0.7-0.3,1.3-0.5,2c0,2.2,0.1,4.2,0.3,6c0.2,1.8,0.4,3.3,0.6,4.7c0.1,0.7,0.2,1.2,0.2,1.8s0.1,0.9,0.1,1.3
		c0,0.3,0,0.5-0.1,0.7S82.1,29.7,82,30c-0.3,0.5-0.7,0.9-0.9,1.3c-0.3,0.5-0.6,0.9-0.8,1.3c-0.4,0.1-0.9,0.1-1.3,0
		c-0.1-0.3-0.1-0.7-0.2-1.3c-0.1-0.6-0.1-1.1-0.2-1.8c-0.1-0.7-0.1-1.3-0.1-1.9c0-0.7-0.1-1.2-0.1-1.6c0-1.3,0-2.5,0-3.4
		s0-1.8,0-2.5s0-1.3,0.1-1.7c0-0.5,0-0.9,0.1-1.2c0-0.4,0-0.8,0-1.1c0-0.3,0-0.7,0-1.1s0-0.7-0.1-0.9s-0.2-0.5-0.3-0.6
		c-0.2-0.2-0.4-0.2-0.7-0.3c-0.3-0.1-0.7-0.1-1.3-0.1H66c-0.6,0-1,0-1.6-0.1s-0.9-0.2-1.3-0.3c-0.4-0.2-0.7-0.4-0.9-0.7
		s-0.4-0.7-0.4-1.3c0-0.2,0-0.3,0.1-0.7c0.1-0.3,0.2-0.7,0.2-1c0.1-0.4,0.2-0.8,0.4-1.3s0.3-0.9,0.5-1.4c0.2-0.1,0.3-0.2,0.5-0.2
		C63.5,6.1,63.7,6.1,63.9,6.1z M66.6,19.2c-0.1,0.4-0.2,0.7-0.2,1c-0.1,0.3-0.2,0.6-0.2,0.8c-0.1,0.2-0.1,0.5-0.1,0.8
		c0,0.2-0.1,0.6-0.1,0.9l-0.2,7c0,0.2,0,0.2,0,0.4c0,0.2-0.1,0.2-0.2,0.3c-0.2,0.2-0.5,0.4-0.7,0.6s-0.5,0.4-0.7,0.6
		s-0.5,0.4-0.7,0.6c-0.2,0.2-0.4,0.3-0.5,0.5c-0.4,0.1-0.7,0.1-1.1,0l0.7-8.6c0.1-0.8,0.2-1.5,0.5-2.2c0.2-0.7,0.6-1.1,0.9-1.5
		c0.2-0.2,0.4-0.4,0.7-0.7c0.3-0.2,0.7-0.5,0.9-0.7c0.2,0,0.3,0.1,0.6,0.2C66.3,19.1,66.5,19.1,66.6,19.2z"/>
	<path class="st0" d="M87.9,37.7c0-0.6,0.2-0.9,0.6-1.3c0.4-0.4,0.8-0.6,1.3-0.6c0.6,0,0.9,0.2,1.3,0.6c0.4,0.4,0.6,0.8,0.6,1.3
		c0,0.6-0.2,0.9-0.6,1.3c-0.4,0.4-0.8,0.6-1.3,0.6c-0.6,0-0.9-0.2-1.3-0.6C88,38.7,87.9,38.3,87.9,37.7z M87.9,43.6
		c0-0.6,0.2-0.9,0.6-1.3c0.4-0.4,0.8-0.6,1.3-0.6c0.6,0,0.9,0.2,1.3,0.6c0.4,0.4,0.6,0.8,0.6,1.3c0,0.6-0.2,0.9-0.6,1.3
		c-0.4,0.4-0.8,0.6-1.3,0.6c-0.6,0-0.9-0.2-1.3-0.6C88,44.5,87.9,44.1,87.9,43.6z"/>
	<path class="st0" d="M87.8,5.8c0.1,0.4,0.2,0.7,0.3,1c0.2,0.2,0.3,0.5,0.7,0.7c0.2,0.2,0.7,0.3,1,0.5c0.4,0.2,0.9,0.3,1.5,0.5
		s1.1,0.3,1.5,0.5c0.5,0.2,0.8,0.3,1.1,0.6c0.3,0.2,0.6,0.5,0.7,0.7c0.2,0.2,0.2,0.6,0.2,0.9c0,0.9-0.2,2.2-0.7,3.9
		s-1.2,3.8-2.2,6.2c-0.6-0.2-1.1-0.3-1.5-0.6c0.2-0.6,0.3-1.1,0.4-1.7c0.2-0.6,0.2-1,0.3-1.5c0.1-0.5,0.2-0.9,0.2-1.3
		c0.1-0.4,0.1-0.7,0.1-0.9s0-0.5-0.1-0.7s-0.2-0.3-0.3-0.5c-0.2-0.2-0.3-0.2-0.7-0.4c-0.3-0.2-0.6-0.2-0.9-0.4
		c-0.7-0.2-1.2-0.4-1.7-0.6c-0.5-0.2-0.9-0.4-1.3-0.6c-0.3-0.2-0.7-0.5-0.8-0.7c-0.1-0.2-0.1-0.5-0.1-0.9c0-0.2,0.1-0.6,0.2-0.9
		c0.1-0.4,0.2-0.8,0.3-1.3s0.3-0.9,0.5-1.3s0.3-0.8,0.5-1.1c0.2-0.1,0.3-0.1,0.5-0.2C87.5,5.8,87.6,5.8,87.8,5.8z"/>
	<path class="st0" d="M97.7,13.1c-0.1,0-0.2-0.1-0.1-0.2c0.2-0.8,0.4-1.6,0.7-2.4c0.2-0.8,0.5-1.6,0.7-2.4c0.1-0.1,0.1-0.2,0.2-0.2
		h11.5c0.1,0,0.2,0.1,0.1,0.2c-0.2,0.8-0.5,1.6-0.7,2.4c-0.2,0.8-0.5,1.6-0.7,2.4c0,0.1-0.1,0.2-0.2,0.2
		C109.2,13.1,97.7,13.1,97.7,13.1z"/>
	<path class="st0" d="M117.9,41c-0.4,0.1-0.9,0.1-1.3,0c-0.1-0.7-0.1-1.5-0.2-2.5c-0.1-0.9-0.1-1.9-0.2-2.9
		c-0.1-0.9-0.1-2.1-0.1-3.1s-0.1-2.1-0.1-3.1c0-1.4,0-2.7,0-3.7s0.1-1.9,0.1-2.7s0.2-1.4,0.2-2.1c0.1-0.7,0.2-1.2,0.5-1.8
		c0.2-0.6,0.4-1.2,0.7-1.8c0.2-0.7,0.6-1.4,0.9-2.2c0.1-0.2,0.1-0.2,0.1-0.3s0-0.2,0-0.2c0-0.2-0.1-0.4-0.3-0.6
		c-0.2-0.2-0.7-0.3-1.3-0.5c-0.6-0.2-1-0.3-1.5-0.5s-0.8-0.3-1.1-0.5c-0.3-0.2-0.6-0.4-0.7-0.7c-0.2-0.2-0.2-0.6-0.2-0.9
		c0-0.2,0.1-0.6,0.2-0.9c0.1-0.4,0.2-0.8,0.4-1.3c0.2-0.4,0.3-0.9,0.6-1.3c0.2-0.5,0.4-0.9,0.6-1.2c0.2-0.1,0.3-0.1,0.5-0.2
		c0.2,0,0.4,0,0.6,0c0.1,0.4,0.2,0.7,0.3,0.9c0.1,0.2,0.3,0.4,0.6,0.6c0.2,0.2,0.6,0.3,0.9,0.4c0.4,0.2,0.9,0.2,1.4,0.4
		c0.7,0.2,1.1,0.4,1.5,0.6c0.4,0.2,0.7,0.3,0.9,0.6c0.2,0.2,0.4,0.4,0.5,0.6c0.1,0.2,0.2,0.4,0.2,0.7c0,0.5-0.1,0.9-0.3,1.5
		c-0.2,0.6-0.5,1.3-0.9,2.1s-0.7,1.6-1,2.3c-0.3,0.7-0.5,1.3-0.7,2.1c-0.2,0.7-0.3,1.3-0.4,2.1c-0.1,0.7-0.2,1.4-0.2,2.2
		s0,1.7,0.1,2.7s0.2,2.1,0.2,3.3c0.1,1.2,0.2,2.4,0.4,3.7c0.2,1.3,0.3,2.6,0.4,3.9c0,0.2,0.1,0.4,0.1,0.6s0,0.4,0,0.5
		c0,0.3,0,0.5-0.1,0.7s-0.2,0.3-0.3,0.5c-0.3,0.4-0.7,0.8-1,1.2C118.3,40.3,118.2,40.6,117.9,41z"/>
	<path class="st0" d="M133.8,37.7c0,0.6-0.2,0.9-0.6,1.3c-0.4,0.4-0.8,0.6-1.3,0.6s-0.9-0.2-1.3-0.6s-0.6-0.8-0.6-1.3
		c0-0.6,0.2-0.9,0.6-1.3c0.4-0.4,0.8-0.6,1.3-0.6s0.9,0.2,1.3,0.6S133.8,37.2,133.8,37.7z M137,43.3c0,0.6-0.2,0.9-0.6,1.3
		s-0.8,0.6-1.3,0.6c-0.6,0-0.9-0.2-1.3-0.6s-0.6-0.8-0.6-1.3c0-0.6,0.2-0.9,0.6-1.3s0.8-0.6,1.3-0.6c0.6,0,0.9,0.2,1.3,0.6
		S137,42.8,137,43.3z M140.1,37.7c0,0.6-0.2,0.9-0.6,1.3c-0.4,0.4-0.8,0.6-1.3,0.6c-0.6,0-0.9-0.2-1.3-0.6s-0.6-0.8-0.6-1.3
		c0-0.6,0.2-0.9,0.6-1.3c0.4-0.4,0.8-0.6,1.3-0.6c0.6,0,0.9,0.2,1.3,0.6C139.9,36.8,140.1,37.2,140.1,37.7z"/>
	<path class="st0" d="M128.4,6.1c0.2,0.5,0.4,0.8,0.7,1c0.2,0.2,0.5,0.5,0.8,0.6s0.7,0.2,1,0.2c0.4,0,0.8,0.1,1.3,0.1h6.6
		c0.9,0,1.8,0.1,2.4,0.3c0.7,0.2,1.1,0.6,1.5,0.9c0.4,0.4,0.7,0.9,0.8,1.3c0.2,0.5,0.2,1.1,0.2,1.7c0,0.6,0,1-0.1,1.5
		c0,0.5-0.1,0.9-0.1,1.3c0,0.5-0.1,0.9-0.1,1.4c0,0.5-0.1,1-0.1,1.7c0,0.2,0,0.5,0,0.9s0,0.9,0.1,1.4c0.1,0.6,0.1,1.1,0.1,1.7
		c0.1,0.6,0.1,1.2,0.2,1.8c0.1,0.6,0.2,1,0.3,1.5c0.2,0.5,0.3,0.8,0.5,1c0.2,0.3,0.6,0.5,0.9,0.7c0.4,0.1,0.9,0.2,1.4,0.2
		c0.1,0,0.1,0.1,0.1,0.2c-0.2,0.8-0.5,1.5-0.7,2.2s-0.4,1.4-0.6,2.2c0,0.1-0.1,0.1-0.1,0.2c-0.1,0-0.1,0-0.2,0h-14.9
		c-0.6,0-1,0-1.4,0s-0.8,0-1.2,0.1c-0.4,0-0.7,0.1-1,0.2c-0.3,0.1-0.7,0.2-1,0.4c-0.2,0-0.3-0.1-0.5-0.2c-0.2-0.1-0.3-0.2-0.4-0.2
		c0.2-0.5,0.3-1.1,0.5-1.8s0.5-1.3,0.7-2c0.2-0.4,0.5-0.8,0.9-1c0.5-0.2,1.2-0.4,2.2-0.4h11.5c-0.2-0.8-0.2-1.6-0.2-2.3
		c-0.1-0.7-0.1-1.4-0.1-2.2c0-0.6,0-1.1,0-1.8c0-0.7,0.1-1.2,0.1-1.8c0-0.6,0.1-1.1,0.1-1.6s0-0.9,0-1.3c0-0.5-0.1-0.9-0.2-1.2
		c-0.1-0.4-0.3-0.7-0.6-0.9c-0.2-0.2-0.7-0.5-1-0.7c-0.5-0.2-1-0.2-1.7-0.2h-7c-0.6,0-1,0-1.6-0.1c-0.5-0.1-0.9-0.2-1.3-0.3
		c-0.4-0.2-0.7-0.4-0.9-0.7c-0.2-0.3-0.4-0.7-0.4-1.3c0-0.2,0-0.3,0.1-0.7c0.1-0.3,0.2-0.7,0.2-1c0.1-0.4,0.2-0.8,0.4-1.3
		c0.2-0.4,0.3-0.9,0.5-1.4c0.2-0.1,0.3-0.2,0.5-0.2C128.1,6.1,128.3,6.1,128.4,6.1z M132.7,20.3c0-0.6,0.2-0.9,0.6-1.3
		c0.4-0.4,0.8-0.6,1.3-0.6s0.9,0.2,1.3,0.6c0.4,0.4,0.6,0.8,0.6,1.3c0,0.6-0.2,0.9-0.6,1.3c-0.4,0.4-0.8,0.6-1.3,0.6
		s-0.9-0.2-1.3-0.6C132.8,21.2,132.7,20.7,132.7,20.3z"/>
	<path class="st0" d="M171.2,15.2c0.1-0.4,0.2-0.9,0.4-1.5s0.4-1.2,0.6-1.8c0.2-0.7,0.4-1.2,0.7-1.8c0.2-0.7,0.4-1.1,0.6-1.5
		c0.2-0.4,0.6-0.7,0.9-0.9c0.3-0.2,0.7-0.5,1-0.7c0.4-0.2,0.7-0.3,1.1-0.4c0.4-0.1,0.7-0.1,1.1-0.1c0.9,0,1.7,0.2,2.4,0.4
		s1.3,0.7,1.8,1.2c0.6,0.5,0.9,1,1.3,1.8c0.4,0.7,0.7,1.3,0.9,2.1c0.2,0.7,0.4,1.5,0.6,2.3c0.2,0.8,0.2,1.5,0.2,2.3
		c0,0.8-0.1,1.6-0.2,2.5s-0.2,1.8-0.5,2.7c-0.2,0.9-0.5,1.8-0.8,2.7c-0.3,0.9-0.7,1.7-1.2,2.4c-0.5,0.7-0.9,1.4-1.5,2
		s-1.2,1-1.9,1.3c-0.6,0.2-1.2,0.6-1.9,0.8c-0.7,0.2-1.4,0.5-2.2,0.7s-1.6,0.4-2.5,0.7c-0.8,0.2-1.7,0.4-2.5,0.6
		c-0.3-0.1-0.6-0.1-0.8-0.2c-0.2-0.1-0.4-0.2-0.7-0.3c-0.7-0.9-1.2-2-1.7-3.3c-0.5-1.2-0.9-2.5-1.3-3.8s-0.7-2.4-0.9-3.5
		s-0.3-2-0.2-2.7c0-0.3,0.1-0.7,0.2-1.1c0.1-0.4,0.2-0.8,0.3-1.3c0.2-0.5,0.2-0.8,0.4-1.2c0.2-0.4,0.2-0.7,0.4-1
		c0.1-0.2,0.1-0.2,0.1-0.4s-0.1-0.3-0.3-0.5s-0.6-0.3-1-0.7c-0.4-0.2-0.7-0.4-1-0.6c-0.3-0.2-0.6-0.4-0.8-0.6
		c-0.2-0.2-0.4-0.4-0.6-0.6c-0.2-0.2-0.2-0.5-0.2-0.7s0.1-0.6,0.2-0.9c0.2-0.4,0.3-0.8,0.6-1.2c0.2-0.4,0.5-0.8,0.7-1.2
		c0.2-0.4,0.6-0.8,0.8-1.1c0.2,0,0.2-0.1,0.5-0.1c0.1,0,0.2,0,0.3,0s0.2,0,0.2,0.1c0,0.2,0.1,0.5,0.2,0.7c0.1,0.2,0.2,0.3,0.4,0.5
		s0.5,0.3,0.8,0.6c0.3,0.2,0.8,0.4,1.4,0.7c0.7,0.3,1.1,0.7,1.5,0.9c0.3,0.3,0.5,0.7,0.5,0.9s-0.1,0.6-0.2,0.9s-0.3,0.7-0.6,1.1
		c-0.2,0.3-0.3,0.7-0.6,1.1c-0.2,0.4-0.4,0.9-0.6,1.3c-0.2,0.5-0.3,0.9-0.5,1.4s-0.2,0.9-0.2,1.5c0,0.4,0.1,0.9,0.2,1.5
		c0.2,0.6,0.3,1.2,0.5,1.8c0.2,0.7,0.4,1.3,0.7,2c0.2,0.7,0.6,1.3,0.8,1.9s0.6,1.1,0.8,1.6s0.6,0.8,0.7,1c0.7-0.1,1.3-0.2,2.2-0.4
		c0.9-0.2,1.7-0.4,2.6-0.7s1.6-0.5,2.4-0.7c0.8-0.2,1.3-0.6,1.7-0.8c0.9-0.8,1.7-1.8,2.2-2.9c0.5-1.2,0.8-2.5,0.8-3.8
		c0-0.9-0.1-1.7-0.3-2.5c-0.2-0.8-0.6-1.4-1-2.1c-0.5-0.7-1-1-1.8-1.4c-0.7-0.4-1.5-0.6-2.4-0.6c-0.3,0-0.7,0.1-1,0.2
		c-0.4,0.1-0.8,0.3-1.2,0.6s-0.8,0.7-1.1,1.2c-0.4,0.5-0.7,1.1-0.9,1.9c-0.2-0.1-0.4-0.1-0.7-0.2C171.5,15.5,171.4,15.4,171.2,15.2z
		"/>
	<path class="st0" d="M196.9,37.7c0-0.6,0.2-0.9,0.6-1.3c0.4-0.4,0.8-0.6,1.3-0.6s0.9,0.2,1.3,0.6c0.4,0.4,0.6,0.8,0.6,1.3
		c0,0.6-0.2,0.9-0.6,1.3c-0.4,0.4-0.8,0.6-1.3,0.6s-0.9-0.2-1.3-0.6C197.1,38.7,196.9,38.3,196.9,37.7z M196.9,43.6
		c0-0.6,0.2-0.9,0.6-1.3c0.4-0.4,0.8-0.6,1.3-0.6s0.9,0.2,1.3,0.6c0.4,0.4,0.6,0.8,0.6,1.3c0,0.6-0.2,0.9-0.6,1.3
		c-0.4,0.4-0.8,0.6-1.3,0.6s-0.9-0.2-1.3-0.6C197.1,44.5,196.9,44.1,196.9,43.6z"/>
	<path class="st0" d="M190.9,6.1c0.2,0.5,0.4,0.8,0.7,1c0.2,0.2,0.5,0.5,0.8,0.6c0.3,0.2,0.7,0.2,1,0.2c0.4,0,0.8,0.1,1.3,0.1h9.7
		c1,0,1.9,0.2,2.7,0.6c0.7,0.4,1.3,0.9,1.8,1.5c0.5,0.7,0.8,1.3,0.9,2.2c0.2,0.9,0.3,1.8,0.3,2.7c0,1.3-0.2,2.6-0.4,3.8
		c-0.2,1.3-0.6,2.4-0.9,3.5c-0.4,1.1-0.8,2.1-1.3,2.9c-0.5,0.9-0.9,1.6-1.4,2.2c-0.7,0.8-1.6,1.5-2.9,2.2c-1.3,0.7-2.9,1.5-4.8,2.5
		c-0.3-0.1-0.7-0.2-0.9-0.2c0.3-1.7,0.8-3.3,1.3-5c1.8-0.7,3.3-1.3,4.3-1.9s1.8-1,2.2-1.6c0.3-0.4,0.7-0.8,0.9-1.3s0.5-1,0.7-1.6
		s0.3-1.1,0.4-1.8s0.2-1.2,0.2-1.8c0-0.6-0.1-1.1-0.2-1.6c-0.1-0.5-0.3-0.9-0.6-1.3c-0.2-0.4-0.7-0.7-1-0.9
		c-0.4-0.2-0.9-0.3-1.5-0.3h-11c-0.6,0-1,0-1.6-0.1c-0.5-0.1-0.9-0.2-1.3-0.3c-0.4-0.2-0.7-0.4-0.9-0.7S189,11,189,10.4
		c0-0.2,0-0.3,0.1-0.7c0.1-0.3,0.2-0.7,0.2-1c0.1-0.4,0.2-0.8,0.4-1.3s0.3-0.9,0.5-1.4c0.2-0.1,0.3-0.2,0.5-0.2
		C190.5,6.1,190.7,6.1,190.9,6.1z M193.7,17.8c-0.2,0.8-0.2,1.5-0.3,2.2s-0.1,1.5-0.1,2.2c0,1.7,0.1,3.8,0.2,6.2
		c0.1,2.4,0.3,5,0.6,7.9c0,0.2,0.1,0.4,0.1,0.7c0,0.2,0,0.4,0,0.6c0,0.2,0,0.4-0.1,0.7c-0.1,0.2-0.2,0.4-0.3,0.6
		c-0.7,0.8-1.4,1.6-2,2.4c-0.4,0.1-0.8,0.1-1.2,0c0-0.2,0-0.4,0-0.7s0-0.8,0-1.3c0-0.4,0-1,0-1.7s0-1.3,0-2c0-0.9,0-2,0-3.3
		s0-2.6,0.1-3.8s0.1-2.7,0.1-3.9s0.1-2.4,0.1-3.4c0-0.4,0.2-0.7,0.3-0.9c0.3-0.5,0.7-0.9,0.9-1.2c0.3-0.3,0.7-0.7,1-1.1
		C193.1,17.5,193.4,17.6,193.7,17.8z"/>
	<path class="st0" d="M215.7,37.7c0,0.6-0.2,0.9-0.6,1.3s-0.8,0.6-1.3,0.6c-0.6,0-0.9-0.2-1.3-0.6c-0.4-0.4-0.6-0.8-0.6-1.3
		c0-0.6,0.2-0.9,0.6-1.3c0.4-0.4,0.8-0.6,1.3-0.6c0.6,0,0.9,0.2,1.3,0.6S215.7,37.2,215.7,37.7z M222,37.7c0,0.6-0.2,0.9-0.6,1.3
		s-0.8,0.6-1.3,0.6c-0.6,0-0.9-0.2-1.3-0.6c-0.4-0.4-0.6-0.8-0.6-1.3c0-0.6,0.2-0.9,0.6-1.3c0.4-0.4,0.8-0.6,1.3-0.6
		c0.6,0,0.9,0.2,1.3,0.6C221.9,36.8,222,37.2,222,37.7z"/>
	<path class="st0" d="M215.1,5.8c0.1,0.4,0.2,0.7,0.3,1c0.2,0.2,0.3,0.5,0.7,0.7c0.2,0.2,0.7,0.3,1,0.5c0.4,0.2,0.9,0.3,1.5,0.5
		s1.1,0.3,1.5,0.5c0.5,0.2,0.8,0.3,1.1,0.6c0.3,0.2,0.6,0.5,0.7,0.7c0.2,0.2,0.2,0.6,0.2,0.9c0,0.9-0.2,2.2-0.7,3.9
		s-1.2,3.8-2.2,6.2c-0.6-0.2-1.1-0.3-1.5-0.6c0.2-0.6,0.3-1.1,0.4-1.7c0.2-0.6,0.2-1,0.3-1.5s0.2-0.9,0.2-1.3
		c0.1-0.4,0.1-0.7,0.1-0.9s0-0.5-0.1-0.7s-0.2-0.3-0.3-0.5c-0.2-0.2-0.3-0.2-0.7-0.4c-0.2-0.2-0.6-0.2-0.9-0.4
		c-0.7-0.2-1.2-0.4-1.7-0.6c-0.5-0.2-0.9-0.4-1.3-0.6c-0.3-0.2-0.7-0.5-0.8-0.7c-0.2-0.2-0.2-0.6-0.2-0.9c0-0.2,0.1-0.6,0.2-0.9
		c0.1-0.4,0.2-0.8,0.3-1.3s0.3-0.9,0.5-1.3s0.3-0.8,0.5-1.1c0.2-0.1,0.3-0.1,0.5-0.2C214.8,5.8,214.9,5.8,215.1,5.8z"/>
	<path class="st0" d="M225.5,2.4c0-0.6,0.2-0.9,0.6-1.3s0.8-0.6,1.3-0.6c0.6,0,0.9,0.2,1.3,0.6c0.4,0.4,0.6,0.8,0.6,1.3
		s-0.2,0.9-0.6,1.3c-0.4,0.4-0.8,0.6-1.3,0.6c-0.6,0-0.9-0.2-1.3-0.6S225.5,2.9,225.5,2.4z"/>
	<path class="st0" d="M230.3,32.5c0-0.3-0.1-0.7-0.1-1.3c0-0.6-0.1-1.1-0.1-1.8c0-0.7-0.1-1.3-0.1-1.9c0-0.7,0-1.2,0-1.7
		c0-1.6,0-2.9,0.1-4s0.1-2.1,0.2-2.9c0.1-0.8,0.1-1.6,0.2-2.2c0.1-0.7,0.1-1.3,0.1-1.8c0-0.2-0.1-0.4-0.2-0.6
		c-0.1-0.2-0.2-0.2-0.4-0.4c-0.2-0.1-0.4-0.2-0.7-0.2c-0.2-0.1-0.5-0.2-0.7-0.2c-0.6-0.2-1.1-0.3-1.6-0.5s-0.9-0.3-1.3-0.5
		c-0.3-0.2-0.7-0.4-0.8-0.7c-0.2-0.2-0.3-0.6-0.3-0.9c0-0.2,0.1-0.6,0.2-0.9c0.1-0.4,0.2-0.8,0.4-1.3s0.3-0.9,0.6-1.3
		c0.2-0.5,0.4-0.9,0.6-1.2c0.2-0.1,0.3-0.1,0.5-0.2s0.4,0,0.6,0c0.1,0.4,0.2,0.7,0.4,0.9s0.4,0.4,0.7,0.7c0.2,0.2,0.7,0.3,1,0.4
		c0.4,0.2,0.9,0.2,1.4,0.4s0.9,0.2,1.3,0.4c0.3,0.2,0.6,0.2,0.8,0.4s0.3,0.2,0.4,0.4c0.1,0.2,0.1,0.3,0.1,0.5s0,0.3-0.1,0.7
		c-0.1,0.3-0.1,0.6-0.2,0.9c-0.1,0.5-0.2,1.1-0.2,1.9c-0.1,0.7-0.2,1.7-0.2,2.8c0,1.6,0.1,3.2,0.2,4.7c0.2,1.5,0.3,3,0.6,4.5
		c0.1,0.7,0.2,1.2,0.2,1.8c0.1,0.7,0.1,0.9,0.1,1.3c0,0.3,0,0.5-0.1,0.7s-0.2,0.3-0.3,0.6c-0.3,0.5-0.7,0.9-1,1.3
		c-0.3,0.5-0.7,0.9-0.9,1.3C231.2,32.6,230.8,32.6,230.3,32.5z"/>
	<path class="st0" d="M238.6,6.1c0.2,0.5,0.4,0.8,0.7,1c0.2,0.2,0.5,0.5,0.8,0.6s0.7,0.2,1,0.2s0.8,0.1,1.3,0.1h6.7
		c0.9,0,1.8,0.1,2.7,0.3c0.8,0.2,1.5,0.6,2.1,0.9c0.6,0.5,1,1,1.3,1.8c0.3,0.7,0.5,1.6,0.5,2.7c0,0.5,0,0.9-0.1,1.3
		c0,0.3-0.1,0.7-0.1,1.1s0,0.9,0,1.6c0,1.3,0.1,2.7,0.2,3.9s0.3,2.6,0.5,3.8c0.1,0.7,0.2,1.2,0.3,1.8c0.2,0.6,0.2,0.9,0.2,1.3
		c0,0.3,0,0.5-0.1,0.7s-0.2,0.3-0.3,0.5c-0.3,0.4-0.7,0.9-1,1.3c-0.3,0.5-0.7,0.9-0.9,1.3c-0.4,0.1-0.9,0.1-1.3,0
		c0-0.3-0.1-0.7-0.1-1.3s-0.1-1.1-0.1-1.8c0-0.7-0.1-1.3-0.1-1.9c0-0.7,0-1.2,0-1.6c0-1.4,0-2.6,0-3.4c0-0.9,0-1.6,0.1-2.2
		c0-0.7,0.1-1.1,0.1-1.6s0.1-0.9,0.1-1.5c0-1.3-0.3-2.3-1-3s-1.8-1-3.4-1h-7.9c-0.6,0-1,0-1.6-0.1c-0.5,0-0.9-0.2-1.3-0.3
		c-0.4-0.2-0.7-0.4-0.9-0.7s-0.3-0.7-0.3-1.3c0-0.2,0-0.3,0.1-0.7s0.2-0.7,0.2-1c0.1-0.4,0.2-0.9,0.4-1.3c0.2-0.5,0.3-0.9,0.5-1.5
		c0.2-0.1,0.3-0.2,0.5-0.2C238.3,6.1,238.5,6.1,238.6,6.1z"/>
	<path class="st0" d="M267.8,37.7c0-0.6,0.2-0.9,0.6-1.3c0.4-0.4,0.8-0.6,1.3-0.6c0.6,0,0.9,0.2,1.3,0.6c0.4,0.4,0.6,0.8,0.6,1.3
		c0,0.6-0.2,0.9-0.6,1.3c-0.4,0.4-0.8,0.6-1.3,0.6c-0.6,0-0.9-0.2-1.3-0.6C267.9,38.7,267.8,38.3,267.8,37.7z M267.8,43.6
		c0-0.6,0.2-0.9,0.6-1.3c0.4-0.4,0.8-0.6,1.3-0.6c0.6,0,0.9,0.2,1.3,0.6c0.4,0.4,0.6,0.8,0.6,1.3c0,0.6-0.2,0.9-0.6,1.3
		c-0.4,0.4-0.8,0.6-1.3,0.6c-0.6,0-0.9-0.2-1.3-0.6S267.8,44.1,267.8,43.6z"/>
	<path class="st0" d="M268.2,22.7c-1.3-0.2-2.5-0.6-3.3-0.8c-0.9-0.3-1.5-0.7-2.1-0.9c-0.5-0.3-0.8-0.7-1-1.1s-0.2-0.9-0.2-1.4
		c0-0.4,0.1-0.8,0.2-1.3c0.2-0.5,0.3-0.9,0.7-1.5c0.2-0.6,0.6-1,0.9-1.7c0.3-0.6,0.7-1.2,1.1-1.8c-0.6-0.2-0.9-0.5-1.3-0.8
		c-0.3-0.3-0.4-0.7-0.4-1.2c0-0.2,0.1-0.5,0.2-0.9s0.2-0.7,0.3-1.2c0.2-0.4,0.3-0.9,0.5-1.3s0.4-0.8,0.6-1.1
		c0.2-0.1,0.3-0.1,0.5-0.2c0.2,0,0.4,0,0.6,0c0.2,0.3,0.2,0.7,0.4,0.9c0.2,0.2,0.4,0.5,0.7,0.7c0.3,0.2,0.7,0.3,1.2,0.5
		c0.4,0.2,1.2,0.2,2,0.4c0.9,0.2,2,0.3,3.1,0.5s2.4,0.3,3.8,0.5c0.7,0.1,1.2,0.4,1.7,0.9s0.8,1.3,1.1,2.2c0.3,1,0.5,2.1,0.7,3.4
		s0.2,2.9,0.2,4.6c0,0.6,0,1.2-0.1,1.8c0,0.7-0.1,1.3-0.2,2.1c-0.1,0.7-0.2,1.4-0.3,2.2c-0.1,0.7-0.2,1.4-0.4,2.1
		c-0.2,0.7-0.3,1.3-0.5,1.8s-0.3,1-0.6,1.4c-0.1,0.2-0.2,0.2-0.4,0.2h-13c-0.6,0-1.1,0-1.5,0c-0.5,0-0.9,0-1.2,0.1
		c-0.4,0.1-0.7,0.1-1,0.2c-0.3,0.2-0.7,0.2-1,0.4c-0.2,0-0.3-0.1-0.5-0.2s-0.3-0.2-0.4-0.3c0.2-0.5,0.5-1.1,0.7-1.7
		c0.3-0.7,0.7-1.3,1-1.9c0.2-0.4,0.7-0.8,1.1-1c0.5-0.2,1.3-0.4,2.3-0.4h10.1c0.7,0,1.1-0.2,1.5-0.6s0.7-0.8,0.9-1.4
		c0.2-0.6,0.3-1.3,0.4-2.1c0.1-0.8,0.1-1.6,0.1-2.4c0-2.1-0.2-3.8-0.8-4.9c-0.6-1.1-1.3-1.8-2.4-2c-0.9-0.2-1.8-0.2-2.7-0.4
		c-0.9-0.2-1.8-0.2-2.5-0.4c-0.7-0.1-1.3-0.2-1.9-0.2c-0.5-0.1-0.8-0.1-0.9-0.1c-0.1,0.1-0.2,0.2-0.2,0.3c-0.1,0.2-0.2,0.4-0.3,0.7
		c-0.1,0.2-0.2,0.5-0.3,0.8c-0.1,0.2-0.2,0.6-0.2,0.8c0,0.5,0.1,0.9,0.3,1.2c0.2,0.3,0.5,0.6,0.8,0.7c0.4,0.2,0.8,0.3,1.3,0.5
		c0.6,0.2,1.1,0.2,1.8,0.4L268.2,22.7z M271.1,20.6c0-0.6,0.2-0.9,0.6-1.3s0.8-0.6,1.3-0.6c0.6,0,0.9,0.2,1.3,0.6s0.6,0.8,0.6,1.3
		c0,0.6-0.2,0.9-0.6,1.3s-0.8,0.6-1.3,0.6c-0.6,0-0.9-0.2-1.3-0.6C271.2,21.5,271.1,21.1,271.1,20.6z"/>
</g>
</svg>
