<svg xmlns="http://www.w3.org/2000/svg" width="224" height="306" viewBox="0 0 224 306">
    <g fill="none" fill-rule="evenodd">
        <rect width="223" height="304.46" x=".5" y=".5" fill="#FFF" stroke="#D2CFCF" rx="4"/>
        <text fill="#242424" font-family="Alef-Regular, Alef" font-size="16">
            <tspan x="76.844" y="30">1970-1979</tspan>
        </text>
        <text fill="#242424" font-family="Alef-Regular, Alef" font-size="16">
            <tspan x="96.129" y="92">1970</tspan>
        </text>
        <text fill="#242424" font-family="Alef-Regular, Alef" font-size="16">
            <tspan x="97.34" y="208">1976</tspan>
        </text>
        <text fill="#242424" font-family="Alef-Regular, Alef" font-size="16">
            <tspan x="97.34" y="266">1979</tspan>
        </text>
        <text fill="#242424" font-family="Alef-Regular, Alef" font-size="16">
            <tspan x="97.184" y="150">1973</tspan>
        </text>
        <text fill="#242424" font-family="Alef-Regular, Alef" font-size="16" opacity=".5">
            <tspan x="156.055" y="92">1969</tspan>
        </text>
        <text fill="#242424" font-family="Alef-Regular, Alef" font-size="16">
            <tspan x="156.344" y="266">1978</tspan>
        </text>
        <text fill="#242424" font-family="Alef-Regular, Alef" font-size="16">
            <tspan x="156.277" y="150">1972</tspan>
        </text>
        <text fill="#242424" font-family="Alef-Regular, Alef" font-size="16">
            <tspan x="41.035" y="92">1971</tspan>
        </text>
        <text fill="#242424" font-family="Alef-Regular, Alef" font-size="16">
            <tspan x="40.125" y="208">1977</tspan>
        </text>
        <text fill="#242424" font-family="Alef-Regular, Alef" font-size="16" opacity=".5">
            <tspan x="39.348" y="266">1980</tspan>
        </text>
        <text fill="#242424" font-family="Alef-Regular, Alef" font-size="16">
            <tspan x="40.09" y="150">1974</tspan>
        </text>
        <text fill="#660248" font-family="ben-yehuda" font-size="14">
            <tspan x="9" y="32">1</tspan>
        </text>
        <text fill="#660248" font-family="ben-yehuda" font-size="14">
            <tspan x="201" y="32">2</tspan>
        </text>
        <rect width="55" height="55" x="143" y="175" fill="#660248" rx="4"/>
        <path fill="#FFF" fill-rule="nonzero" d="M159.383 207v-7.875l-.844-.656-3.414 1.32.531 1.39 1.586-.609V207h2.14zm4.414 2.102c.297 0 .61-.015.941-.043.331-.03.664-.082 1-.16.336-.079.67-.19 1-.337.331-.145.642-.337.934-.574.292-.237.558-.524.8-.863.243-.339.445-.742.606-1.21.167-.48.294-.979.383-1.497.088-.518.14-1.077.156-1.676.016-.599-.026-1.12-.125-1.562-.099-.443-.238-.82-.418-1.133-.18-.313-.393-.567-.64-.762-.248-.195-.517-.347-.809-.457-.292-.11-.595-.185-.91-.226-.315-.042-.632-.063-.95-.063-.317 0-.632.024-.945.07-.312.047-.61.127-.894.239-.284.112-.548.257-.793.437s-.459.403-.64.668c-.183.266-.325.578-.427.938-.101.359-.152.77-.152 1.234 0 .552.072 1.04.215 1.46.143.423.342.777.598 1.063.15.157.321.29.511.399.19.11.394.196.61.262.216.065.44.113.672.144.231.031.464.047.699.047.36 0 .707-.029 1.043-.086.336-.057.636-.133.902-.226-.12.468-.289.863-.508 1.183-.219.32-.488.58-.808.781-.32.2-.692.344-1.114.43-.422.086-.893.129-1.414.129-.088 0-.177-.001-.265-.004-.089-.003-.177-.006-.266-.012v1.375c.146.01.302.019.469.024.166.005.346.008.539.008zm1.844-5.07c-.256 0-.498-.033-.727-.098-.23-.066-.409-.19-.539-.371-.12-.167-.203-.373-.25-.618-.047-.244-.07-.528-.07-.851 0-.308.036-.589.11-.844.072-.255.18-.475.323-.66.144-.185.32-.328.532-.43.21-.101.457-.152.738-.152.323 0 .595.065.816.195.222.13.399.307.531.531.133.224.228.482.286.774.057.291.086.601.086.93 0 .166-.008.356-.024.57-.016.213-.044.422-.086.625-.5.265-1.075.398-1.726.398zm9.484 5.038v-.865l.004-.518c.003-.24.01-.466.023-.68.013-.213.03-.418.051-.616.021-.198.047-.404.078-.618.068-.427.17-.847.305-1.261.135-.414.323-.858.562-1.332.235-.474.528-.995.88-1.563.35-.568.777-1.216 1.277-1.945l-.383-1.125c-.193.052-.375.094-.547.125-.172.031-.352.06-.54.086-.192.026-.404.044-.636.054-.232.01-.512.016-.84.016h-4.257v1.602h4.398c-.328.515-.616.985-.863 1.41-.248.424-.463.832-.645 1.222-.234.506-.42.984-.554 1.434-.136.45-.236.909-.301 1.375-.065.466-.107.957-.125 1.473-.019.515-.028 1.09-.028 1.726h2.141zm4.586.102c.276-.005.559-.013.848-.024.289-.01.586-.03.89-.062.305-.031.62-.077.946-.137.325-.06.665-.142 1.02-.246.468-.14.904-.314 1.308-.52.403-.205.752-.455 1.047-.75.294-.294.526-.634.695-1.019.17-.385.254-.825.254-1.32 0-.406-.068-.806-.203-1.2-.136-.393-.347-.733-.633-1.019-.266-.27-.587-.466-.965-.586-.378-.12-.764-.18-1.16-.18-.25 0-.491.02-.723.059-.232.039-.446.095-.644.168l.109-1.906h1.46c.178 0 .37-.006.58-.016.207-.01.418-.03.632-.059.213-.028.423-.07.629-.125.206-.054.4-.128.582-.222l-.594-1.516c-.193.073-.367.13-.523.172-.157.042-.328.076-.516.102-.188.026-.405.043-.652.05-.248.008-.564.012-.95.012h-2.609l-.258 4.367 1.149.828c.297-.12.588-.212.875-.277.286-.065.56-.098.82-.098.208 0 .401.025.578.075.177.05.33.129.461.238.13.11.232.253.305.43.073.177.11.39.11.64 0 .287-.065.545-.192.774-.128.229-.304.433-.528.613-.224.18-.49.339-.797.477-.307.138-.638.256-.992.355-.36.099-.74.174-1.14.227-.401.052-.808.09-1.22.117v1.578z"/>
    </g>
</svg>
