<?xml version="1.0" encoding="UTF-8"?>
<svg width="410px" height="330px" viewBox="0 0 410 330" version="1.1" xmlns="http://www.w3.org/2000/svg" xmlns:xlink="http://www.w3.org/1999/xlink">
    <!-- Generator: Sketch 52.5 (67469) - http://www.bohemiancoding.com/sketch -->
    <title>giving hand</title>
    <desc>Created with Sketch.</desc>
    <defs>
        <rect id="path-1" x="0" y="0" width="410" height="330" rx="3"></rect>
    </defs>
    <g id="Page-1" stroke="none" stroke-width="1" fill="none" fill-rule="evenodd">
        <g id="Home-layout" transform="translate(-100.000000, -2469.000000)">
            <g id="המתנדבים-שלנו" transform="translate(100.000000, 2469.000000)">
                <g id="giving-hand">
                    <mask id="mask-2" fill="white">
                        <use xlink:href="#path-1"></use>
                    </mask>
                    <use id="Rectangle-Copy" fill="#D9CDD5" xlink:href="#path-1"></use>
                    <path d="M87.8585108,46.8794651 C88.8193322,46.368732 90.0702266,45.7885858 90.5444266,45.7206342 C91.0390852,45.6504906 92.6750388,45.9654062 93.79003,47.1651542 C94.7961524,48.2487269 94.9086745,49.846686 94.8231869,50.1820602 C94.5820683,50.4246402 92.8715871,51.5177115 91.8946912,51.9363811 C90.6576793,52.4661115 89.6457116,52.7744512 89.3139908,52.7905257 C89.216082,52.5932468 89.0721415,52.0868976 88.9640034,51.7047611 C88.7272687,50.8718057 88.4591155,49.9270589 88.0528671,49.3308382 C87.5793977,48.6359781 87.0920457,48.2553029 86.7362131,47.9776511 C86.6682614,47.9250434 86.5842352,47.8592837 86.5126303,47.7979081 C86.8472738,47.5363308 87.4055,47.1198531 87.8585108,46.8794651 M82.1841849,65.9300317 C82.6240438,65.6969503 83.0836306,65.441949 83.6162837,65.0539672 C83.8369438,64.8939521 84.0700251,64.6981345 84.3177198,64.4906263 C84.9555882,63.9535893 85.6789442,63.3464086 86.4315267,63.1250179 C86.9517585,62.9715787 87.4624917,63.1907775 87.7861752,63.3873257 C87.2959006,63.9031736 86.744981,64.4606691 86.443948,64.7617021 C86.2810102,64.8647256 85.9288309,65.0744257 85.6877122,65.1526066 C84.7561173,65.452909 84.276072,65.8328535 84.0532199,66.0630123 C84.0459133,66.0608203 84.0393373,66.0586283 84.0320307,66.0564363 C83.5088763,65.9022665 82.8534719,65.877424 82.1841849,65.9300317 M87.9052732,66.3377414 C87.6327361,66.4108077 87.3565456,66.4860659 87.1015444,66.5540175 C87.9067346,65.9395303 88.9581581,65.1701425 89.5931039,64.8340377 C90.6657166,64.2663129 93.0637514,63.3383713 93.9529678,63.0760635 C94.0245727,63.1125966 94.1071376,63.1279405 94.1926251,63.1169806 C94.4205918,63.0892154 95.0380018,63.4406641 95.4544794,63.7738463 C95.531199,63.8344913 95.6232625,63.8644484 95.7145953,63.8644484 C95.836616,63.8644484 95.957906,63.8111101 96.0404709,63.7080866 C96.1836807,63.5283436 96.1544542,63.2667664 95.9747112,63.1228259 C95.8103121,62.9913066 95.4033331,62.680775 94.9554369,62.4769201 C95.3156536,62.0714024 95.9023756,61.3977314 96.5234389,60.6334583 C98.0307959,58.7804979 100.394489,57.0955899 102.285444,55.8359276 C102.34682,55.7942798 102.408196,55.7555547 102.470302,55.7160989 C102.651506,55.700755 102.812983,55.5977315 102.903585,55.4413697 C104.83911,54.249659 106.787787,53.4992685 108.000687,53.4992685 C109.310765,53.4992685 111.128654,54.0940279 111.599201,54.8911808 C112.264104,56.0171319 111.803056,56.8208608 111.689072,56.9896438 C111.087006,57.1123952 110.489324,57.3030981 109.912831,57.561022 C107.935658,58.4480464 106.024245,60.1804475 105.813083,60.3748038 C105.720289,60.4427554 105.549314,60.5450481 105.450675,60.5633147 C105.234399,60.6013092 104.869067,60.816124 103.522456,61.6454261 C103.288644,61.7893666 103.040949,61.9420751 102.785948,62.0977062 C101.672418,62.7786838 98.6167873,64.4314426 98.0410251,64.7427049 C97.9080445,64.718593 97.7451068,64.7025185 97.5003348,64.6776759 C96.6600728,64.5936497 95.2089768,64.5615006 92.2212974,65.2402861 C90.6291835,65.6019641 89.0546056,66.0272098 87.9052732,66.3377414 M89.2029301,64.0982605 C88.795951,64.3138059 88.2464927,64.6820599 87.6941117,65.0773484 C88.2874098,64.4745517 89.2292339,63.5020398 89.5616854,63.0680262 C90.3946408,61.9786082 91.7799771,60.5472401 92.9965304,59.8034256 C93.8090272,59.3073057 94.6375986,58.5328033 95.5976893,57.6377416 C96.1873341,57.086822 96.7974373,56.5169051 97.4601483,55.9608709 C99.0602995,54.6171823 101.204794,54.8378424 101.635885,55.0891904 C101.692877,55.1220702 101.735255,55.1512967 101.771788,55.1768699 C99.8399165,56.4664894 97.4411511,58.1864692 95.8775331,60.1081119 C95.0993774,61.0645493 94.3767521,61.8763154 94.0998309,62.1839244 C93.3867042,62.3015611 90.3858728,63.4720826 89.2029301,64.0982605 M85.2624665,66.5372123 C85.4458629,66.4334582 85.6957495,66.3172829 86.0289316,66.2098754 C86.1319551,66.176265 86.2400931,66.1316945 86.3460392,66.0820095 C85.9953212,66.3523547 85.7184,66.5715534 85.5715368,66.6884595 C85.5284277,66.6680009 85.4838573,66.6468117 85.4370949,66.6226998 C85.3822952,66.5956653 85.3238422,66.5664388 85.2624665,66.5372123 M-11.4400007,79.5620042 C-11.393969,80.0201297 -10.9840672,80.3540425 -10.5281338,80.3072801 C-9.6593759,80.2196005 10.8488626,78.0999483 20.3898551,73.2461565 C21.184816,72.8421001 24.5400188,70.271629 29.9491141,66.1105053 C34.9103133,62.2942545 41.0844125,57.5449474 42.1869824,57.010833 C44.8327117,55.7307121 51.88799,53.0608709 56.9807085,52.3879306 C61.2397409,51.8260511 64.4758456,51.3547737 67.1632228,50.9068775 C67.7053744,50.817006 68.2131849,50.7395558 68.683001,50.6694122 C70.1662461,50.4450987 71.2373975,50.2828916 71.8745353,49.9299816 C72.0389344,49.8386488 72.1865283,49.7458546 72.3385061,49.6486765 L72.362618,49.6340632 C72.955916,49.2563106 73.6924239,48.7872252 75.9604007,48.1288982 C77.7863266,47.5984372 78.8399421,47.5312162 79.5530688,47.5312162 C79.8343739,47.5312162 80.0901059,47.5421761 80.3370698,47.5538667 L80.3933308,47.5567894 C80.5540766,47.564096 80.7111691,47.570672 80.8704535,47.5735946 C80.9837062,47.5816319 81.0954976,47.5553281 81.200713,47.5129496 C83.011295,46.7764417 85.3552607,45.944217 86.5038623,45.816351 C86.8085487,45.7827405 87.1453841,45.7030983 87.5348273,45.6095735 C88.0243713,45.4933981 88.6015947,45.3567642 89.209506,45.3019645 C88.4620382,45.6212641 87.6868051,46.0275125 87.4676063,46.1436879 C86.6982186,46.5528589 85.724976,47.3602411 85.6840589,47.3945823 C85.5664222,47.4924911 85.5123532,47.6466609 85.5423103,47.7964467 C85.6146459,48.1595861 85.8966817,48.3795155 86.2232879,48.6337861 C86.5535474,48.89171 86.9641798,49.2124709 87.3645829,49.7999236 C87.6948424,50.284353 87.9542276,51.1984119 88.1624665,51.9327278 C88.4474249,52.9351969 88.5869815,53.3852851 88.910665,53.5474922 C88.9640034,53.5737961 89.0538749,53.6190972 89.2599217,53.6190972 C89.6515569,53.6190972 90.4596698,53.4576207 92.2227587,52.7021156 C92.8496672,52.4332317 94.0406473,51.7559075 94.8173416,51.2210624 C94.697513,52.6093214 93.8017206,53.8032241 93.2771048,54.2986134 C92.1021993,55.4077593 89.7947668,56.5570916 88.5548323,57.1745015 L88.3531694,57.2760636 C88.1975383,57.3527832 87.9776088,57.4667665 87.7094557,57.6055924 C86.1575283,58.4093213 82.5670521,60.2695883 81.2277476,60.3484999 C79.8694457,60.4281421 77.1426128,60.8533878 76.338884,60.9812537 C76.2563191,60.9944057 76.1766769,61.0207095 76.1014186,61.0572426 L75.8413027,61.1865699 C75.0368432,61.589165 74.3858228,62.080901 73.6325096,62.6493565 C73.3475512,62.864902 73.0377502,63.098714 72.6892242,63.3515233 C72.663651,63.3697898 72.6446537,63.3946324 72.6212725,63.4158216 C72.5248251,63.3303341 72.3911138,63.289417 72.2552106,63.3193741 C72.0308971,63.3690592 71.8891486,63.5919113 71.9388336,63.8162247 C71.940295,63.8213393 72.0696223,64.4467865 71.9052232,65.2388248 C71.8292343,65.2921632 71.7693199,65.3703441 71.7430161,65.4667916 C71.4858228,66.410077 70.5089269,67.9269326 70.4994283,67.9422765 C70.374485,68.1351715 70.4292847,68.3930954 70.6229103,68.5180387 C70.6930539,68.5633398 70.7712348,68.584529 70.848685,68.584529 C70.9853189,68.584529 71.1190302,68.517308 71.1986724,68.3945567 C71.2366669,68.335373 72.0345505,67.0961692 72.4196097,66.0717802 C72.7359866,66.1923395 73.3636258,66.4648767 74.4099346,67.0508681 C75.1340213,67.4563859 75.5293098,67.7479203 75.7667751,67.9554284 C75.7755431,68.0460306 75.8084229,68.1351715 75.8771052,68.2053151 C76.0203151,68.3521783 76.1233385,68.4873508 76.2329379,68.6305607 C76.3191561,68.7438134 76.4053743,68.8563355 76.5091283,68.9747028 C76.8160066,69.3254209 77.1711087,70.3768444 77.3223558,70.9577212 C77.3705796,71.1447708 77.5400933,71.2689834 77.7249509,71.2689834 C77.7592921,71.2689834 77.7950946,71.2645995 77.8301664,71.2551008 C78.0530185,71.1973785 78.1859991,70.9701424 78.1282767,70.7472903 C78.0829756,70.5741233 77.6716126,69.0375398 77.1360369,68.4259752 C77.0498187,68.3273357 76.9782137,68.2345416 76.9066088,68.1410168 C77.5064828,68.0160734 78.4585362,67.798336 79.2198867,67.5352974 C79.286377,67.5616013 79.3550593,67.5784065 79.4259335,67.5784065 C79.5362636,67.5784065 79.6473243,67.5455267 79.7445024,67.4775751 C79.9140162,67.3584771 80.0506501,67.2605683 80.1704787,67.1714275 C81.2949685,66.7987895 82.9119249,66.5949346 83.7967573,66.8557812 C83.8420584,66.8682025 83.8837062,66.8820851 83.9260846,66.8959676 C83.9618871,66.9412687 84.0035348,66.9843778 84.0546812,67.0179883 C84.1489367,67.0800946 84.2556135,67.1100518 84.3608289,67.1100518 C84.4002847,67.1100518 84.4390098,67.1042065 84.4777349,67.0961692 C84.7078936,67.191886 84.8993272,67.2861415 85.066649,67.3687064 C85.3932552,67.5316441 85.6519097,67.6587794 85.9507507,67.6587794 C86.196984,67.6587794 86.7595943,67.5097243 88.1230107,67.1414703 C89.2650364,66.8338613 90.8293851,66.410077 92.406155,66.052783 C95.2747364,65.4003013 96.6352302,65.4280664 97.4082713,65.5055167 C97.5156787,65.5164766 97.6033582,65.5252446 97.6800778,65.5332819 C97.7370695,65.6019641 97.8137891,65.6538412 97.9073139,65.6757611 C97.9321564,65.6808757 97.9423857,65.686721 98.0212972,65.7437127 C98.0863262,65.7912058 98.1615845,65.8445441 98.2660692,65.9044585 C99.4146709,66.5642468 100.127798,67.908666 100.135104,67.9225486 C100.209632,68.0642972 100.355034,68.1446701 100.504819,68.1446701 C100.569848,68.1446701 100.635608,68.1300568 100.697714,68.0979077 C100.901569,67.9912309 100.97975,67.7391523 100.873073,67.5360281 C100.840924,67.4746524 100.091264,66.0673962 98.8191808,65.268782 C99.8457618,64.7127477 102.235029,63.4107069 103.219962,62.8093716 C103.476424,62.6522791 103.72485,62.4995707 103.959392,62.3548995 C104.661559,61.9223472 105.457251,61.4320726 105.623842,61.3765422 C105.626034,61.3765422 105.627495,61.3758115 105.628956,61.3750809 C105.716636,61.4167287 105.818929,61.4306112 105.91976,61.4028461 C105.924875,61.4013847 106.434147,61.2640202 106.965338,61.3232038 C107.400813,61.3714276 107.972191,61.6797672 108.155588,61.7944812 C108.225001,61.8375903 108.30099,61.8573182 108.376248,61.8573182 C108.515074,61.8573182 108.650977,61.7879053 108.729889,61.6615006 C108.851909,61.4671444 108.791995,61.2092205 108.597639,61.0871998 C108.513612,61.0353228 107.756646,60.5728133 107.057402,60.4953631 C107.023061,60.4909791 106.98945,60.4902484 106.955109,60.4880565 C107.679926,59.8859905 108.970277,58.8966733 110.25332,58.3216418 C112.630166,57.2563357 114.618299,57.7334584 115.362844,57.9884596 C115.852388,58.156512 116.304668,58.4896942 116.669999,58.8813294 C116.881161,59.254698 117.029485,59.6492558 117.093053,59.9999738 C117.175618,60.452254 117.126663,60.807356 116.954958,61.000251 C116.85851,61.1091197 116.409153,61.4539924 115.728906,61.9771469 C114.841881,62.6588551 113.501846,63.6890894 111.963071,64.9509438 C110.530241,66.1273106 109.506583,67.2028459 108.604215,68.1527074 C107.811446,68.9863934 107.126815,69.7060961 106.377155,70.260669 C105.386376,70.9920623 104.652061,71.6153175 104.115754,72.0705203 C103.781111,72.3547481 103.540723,72.5593336 103.358057,72.6886609 C103.233114,72.7785324 103.089173,72.9217423 102.791063,73.2293512 C102.231375,73.8073054 101.465641,74.5978823 100.740824,74.6935991 C100.542814,74.7206337 100.32946,74.7454762 100.106608,74.7710494 L100.052539,74.7776253 C99.2751143,74.8667662 98.3924738,74.9675976 97.6457367,75.1809511 C97.4016953,75.2510947 97.0648599,75.3563101 96.6622648,75.4819841 L96.614041,75.4965974 C95.4405969,75.86339 93.666548,76.4186936 92.0262104,76.7767183 C91.5863515,76.8731657 91.1165355,76.9696132 90.6357595,77.067522 C88.6344745,77.4774237 86.565238,77.901208 85.5561929,78.518618 C84.8306449,78.9613995 83.8610556,79.7212886 83.0054497,80.3927676 C82.4077677,80.8625837 81.8495414,81.2995199 81.5295112,81.5033748 C81.2540514,81.6787338 80.8741068,81.8986632 80.5065835,82.1105554 C79.7985715,82.5204571 79.0079945,82.9778519 78.4731495,83.3789857 C78.3255556,83.4900464 78.1823457,83.6069525 78.0369439,83.7260505 C77.3808089,84.2638182 76.6435703,84.8666148 75.2326607,85.0368592 C74.1001337,85.1720318 73.4447293,85.2195249 72.6848402,85.2735939 L72.654883,85.2757859 C72.2537492,85.3050124 71.8219276,85.3357002 71.2768533,85.3831933 C70.5293855,85.4482223 68.3439736,85.7770204 66.029965,86.1248159 C63.2870576,86.5369096 60.4491639,86.9636165 59.1069367,87.0958665 C57.9013434,87.2142338 55.8394135,87.484579 54.0200635,87.722775 C52.8049716,87.8827901 47.7911647,88.3935233 47.0868059,88.4380937 C41.4475518,88.7968491 14.0316289,100.270444 -4.45632737,109.412495 C-4.86842109,109.61635 -5.03793482,110.116123 -4.83334928,110.528217 C-4.68867809,110.822674 -4.39275972,110.992187 -4.08661209,110.992187 C-3.96239944,110.992187 -3.83672547,110.964422 -3.71762746,110.905969 C16.0972122,101.108514 42.2658939,90.4138054 47.192752,90.1003512 C47.9431425,90.0535888 52.973024,89.5413943 54.2173424,89.3777258 C56.0432683,89.1380685 58.090585,88.8699153 59.2698745,88.75374 C60.6552108,88.6178367 63.513563,88.1882071 66.2783903,87.7724601 C68.4645329,87.4436619 70.725203,87.1039038 71.4215245,87.0432588 C71.9571002,86.9957657 72.3808845,86.9658085 72.7747117,86.9373127 L72.8039382,86.9351207 C73.5850165,86.8795903 74.2594181,86.8313666 75.431401,86.6903487 C77.3245478,86.4638433 78.3423609,85.6294266 79.0861754,85.020054 C79.219156,84.9111852 79.3440993,84.8081618 79.4726959,84.7117143 C79.9278987,84.3712256 80.6739053,83.939404 81.3315016,83.5579981 C81.7231368,83.3322233 82.1191559,83.1027952 82.4245729,82.9091697 C82.8132854,82.661475 83.375165,82.2201548 84.0261854,81.7094216 C84.8532955,81.0605932 85.7826983,80.3321226 86.4249508,79.9397568 C87.1855706,79.4743247 89.2840336,79.0446951 90.9704029,78.700553 C91.4584856,78.5997215 91.9363389,78.5018127 92.3820431,78.4046346 C94.0939856,78.0305353 95.9096823,77.4620798 97.1116223,77.0872499 L97.1591153,77.071906 C97.5449052,76.9513466 97.8685887,76.8505152 98.1031315,76.7832942 C98.7183494,76.6079352 99.5286542,76.5144104 100.243973,76.4318455 L100.298042,76.4260002 C100.531854,76.3989657 100.754706,76.3726618 100.962214,76.3448967 C102.25914,76.1724603 103.257956,75.1414953 103.987158,74.3881822 C104.084336,74.2888121 104.285268,74.0813039 104.346644,74.0294268 C104.565842,73.8737957 104.82815,73.6516742 105.19129,73.3433346 C105.712252,72.9005531 106.421725,72.2992177 107.367203,71.5999736 C108.233769,70.9591825 108.964431,70.1905254 109.810539,69.301309 C110.680758,68.3865194 111.666422,67.3497091 113.019609,66.239102 C114.537926,64.9933222 115.86554,63.9733172 116.743796,63.2981849 C117.739689,62.5331811 118.007112,62.3249423 118.200007,62.1064742 C118.56753,61.6936498 118.957704,60.9417979 118.73266,59.7025941 C118.508346,58.4714276 117.654933,56.8990417 116.25206,56.1610724 C115.587157,55.811085 114.817039,55.6064995 113.95778,55.5509691 C113.883252,54.9788603 113.680859,54.4118661 113.35206,53.8551012 C112.321826,52.1117402 109.522658,51.4621811 108.000687,51.4621811 C106.610236,51.4621811 104.701015,52.0898203 102.706306,53.1960435 C102.167077,52.8898959 101.386729,52.7211128 100.50555,52.7211128 C98.8717885,52.7211128 97.2519095,53.294683 96.0609294,54.2949601 C95.3521867,54.8904501 94.7223555,55.4786335 94.1129829,56.0478197 C93.2391104,56.8632392 92.4857972,57.5661366 91.8618113,57.9475425 C90.5378507,58.756386 89.1890475,60.1037279 88.2720659,61.2004525 C87.8570495,61.0302081 87.3543536,60.8979582 86.7946661,60.8979582 C86.4629452,60.8979582 86.1341471,60.9447206 85.8177701,61.0382454 C84.6289821,61.3875021 83.680582,62.1839244 82.9185009,62.8239849 C82.7014941,63.0066505 82.4969085,63.1790869 82.3361627,63.2959929 C81.8597707,63.6415963 81.4608289,63.8520272 80.9983195,64.0953378 C80.8222298,64.1888626 80.6563694,64.2772728 80.490509,64.3693363 C79.7196599,64.7967739 79.4230109,65.017434 79.048181,65.2958165 C78.9429655,65.3739974 78.8275208,65.4602156 78.6835803,65.563239 C78.2305695,65.7320221 77.529864,65.9219944 76.7078686,66.1010067 C76.3542279,65.8372375 75.9311742,65.5690843 75.4050971,65.2746273 C74.9009399,64.9918609 74.4391611,64.7500115 74.0256061,64.552002 C74.0263368,64.5132768 74.0270674,64.4745517 74.0270674,64.4358266 C74.2440742,64.2758115 74.4450064,64.1238337 74.6349787,63.9791625 C75.3802546,63.4165522 75.9180223,63.0103038 76.5865786,62.676391 L76.7268658,62.6062474 C77.4984455,62.4842267 80.0908365,62.0838236 81.3256563,62.011488 C82.7307206,61.9289232 85.1930536,60.7854361 88.4569235,59.0946828 C88.7345753,58.9507423 88.9471981,58.8404123 89.096984,58.7666153 L89.2979162,58.6657839 C90.6145702,58.0096489 93.0659433,56.7887116 94.4198612,55.5107827 C95.2710831,54.7063231 96.2903575,53.1836222 96.4708312,51.4556051 C97.224875,50.2595104 96.5110176,47.3098254 95.0891481,45.7790872 C93.8119499,44.4032495 91.9699494,43.7368852 90.6883672,43.6798935 C90.3756436,43.6345924 90.05196,43.6104806 89.7275458,43.6104806 C88.735306,43.6104806 87.8592415,43.8201807 87.1556134,43.9875025 C86.8129326,44.0693367 86.5228596,44.1387496 86.320466,44.1606695 C84.7473494,44.3360286 81.8268909,45.4641716 80.7360116,45.9032999 C80.6468708,45.9003772 80.5577299,45.8959933 80.4678584,45.8923399 L80.4203654,45.890148 C80.1478282,45.8777267 79.8730991,45.8645748 79.5530688,45.8645748 C78.7288814,45.8645748 77.5232881,45.9405637 75.49643,46.5294777 C72.9990251,47.2542951 72.1514565,47.7935241 71.4697482,48.226807 L71.4449057,48.2428816 C71.3199624,48.3225238 71.2001337,48.3985127 71.0656918,48.473771 C70.6923232,48.6812792 69.5955986,48.8456783 68.4353064,49.0217679 C67.957453,49.0933729 67.4408746,49.1715538 66.8892243,49.2636173 C64.2208444,49.7078601 61.0030062,50.1762149 56.762971,50.7359025 C51.4817416,51.4336853 44.1911899,54.1904753 41.4614344,55.5115133 C40.2916435,56.0777769 35.7418074,59.5528083 28.9334931,64.790198 C24.9016967,67.8918608 20.3321327,71.406348 19.6343499,71.76145 C10.3717399,76.4734933 -10.4857553,78.628948 -10.6954555,78.6501372 C-11.1528503,78.6968996 -11.4867631,79.1046094 -11.4400007,79.5620042" id="Fill-8" fill-opacity="0.5" fill="#907989" mask="url(#mask-2)"></path>
                    <path d="M78.5047604,51.1915753 C78.5069524,51.198882 78.7780282,51.9397738 79.1104797,52.6054075 C79.6270582,53.6385644 81.7277132,55.885352 81.7489025,55.9072719 C81.9059949,56.0760549 81.897227,56.3390935 81.7299052,56.4969166 C81.6495323,56.5714442 81.5472396,56.6094387 81.4449468,56.6094387 C81.3338861,56.6094387 81.2228254,56.5648682 81.1409911,56.4771887 C81.0511196,56.3822026 78.9358514,54.1193404 78.3652039,52.9773148 C78.0115631,52.270764 77.7331807,51.5086829 77.7214901,51.4765337 C77.6433092,51.2602576 77.7543699,51.0213309 77.970646,50.9424194 C78.1861915,50.8635078 78.4258488,50.9752992 78.5047604,51.1915753" id="Fill-1" fill-opacity="0.5" fill="#907989" mask="url(#mask-2)"></path>
                    <path d="M77.9110775,48.0468364 C78.111279,47.9357757 78.3655496,48.0066499 78.477341,48.2090435 C78.5657512,48.3675973 78.8507096,48.8374133 79.1013269,49.0880306 C79.1729318,49.1589049 79.2481901,49.2290485 79.3278323,49.3035761 C79.6420172,49.5958412 80.0329217,49.9604418 80.4961618,50.655302 C81.0792306,51.5306358 81.3028133,52.2634904 81.3115813,52.2934475 C81.3780716,52.5141077 81.2531283,52.7457277 81.0331988,52.8114873 C80.9930124,52.8239086 80.952826,52.8297539 80.9126395,52.8297539 C80.7343578,52.8297539 80.5692281,52.7143092 80.5144284,52.5345662 C80.5122364,52.5279902 80.3127655,51.8820845 79.802763,51.1178114 C79.3935919,50.5033241 79.0567564,50.1898699 78.7593768,49.9129487 C78.6724279,49.8311145 78.5905937,49.7551256 78.5131435,49.6769447 C78.1288149,49.2933468 77.7642143,48.6401344 77.7488704,48.6130999 C77.637079,48.4121677 77.7101452,48.1578971 77.9110775,48.0468364" id="Fill-3" fill-opacity="0.5" fill="#907989" mask="url(#mask-2)"></path>
                    <path d="M90.5780513,19.2945524 C90.5780513,23.0092412 88.3122665,27.4027155 84.1993666,31.6668626 C80.7608683,35.2310348 77.3055648,37.4113321 76.479916,37.6261469 C75.6542673,37.4113321 72.1989637,35.2310348 68.7604654,31.6668626 C64.6475656,27.4027155 62.3817808,23.0092412 62.3817808,19.2945524 C62.3817808,14.9953335 64.4027936,12.625064 68.3878275,12.2509647 L68.3892888,12.2509647 C71.1884573,11.9828116 73.9905485,13.5522749 75.5154414,16.241844 L76.482108,17.9464799 L77.448044,16.2411133 C78.8589535,13.7495538 81.3622037,12.2217382 83.9531333,12.2217382 C84.1591802,12.2217382 84.365227,12.2312369 84.5712739,12.2509647 C88.5570385,12.625064 90.5780513,14.9953335 90.5780513,19.2945524 M85.5525538,33.46137 C88.8580715,30.0944766 92.7992657,24.90458 92.7992657,19.2945524 C92.7992657,13.8123908 89.9511428,10.5251396 84.7795128,10.039249 C81.6478928,9.74479195 78.5389233,11.1578935 76.4813774,13.7210579 C74.4209088,11.1578935 71.3141313,9.74113864 68.1803193,10.039249 C63.0086893,10.5251396 60.1605664,13.8123908 60.1605664,19.2945524 C60.1605664,24.90458 64.1017606,30.0944766 67.4072783,33.46137 C70.7507904,36.8662578 74.9805963,39.8532066 76.4587268,39.8532066 L76.5018359,39.8532066 C77.9792357,39.8532066 82.2090417,36.8662578 85.5525538,33.46137" id="Fill-5" fill-opacity="0.5" fill="#907989" mask="url(#mask-2)"></path>
                </g>
            </g>
        </g>
    </g>
</svg>