<?xml version="1.0" encoding="utf-8"?>
<!-- Generator: Adobe Illustrator 22.1.0, SVG Export Plug-In . SVG Version: 6.00 Build 0)  -->
<svg version="1.1" id="Layer_1" xmlns="http://www.w3.org/2000/svg" xmlns:xlink="http://www.w3.org/1999/xlink" x="0px" y="0px"
	 viewBox="0 0 281 45" style="enable-background:new 0 0 281 45;" xml:space="preserve">
<style type="text/css">
	.st0{fill:#242424;}
</style>
<path class="st0" d="M5.9,18.7c-0.1,0.4-0.2,0.7-0.3,1c-0.1,0.5-0.2,1.1-0.3,1.6c0,0.3,0,0.5-0.1,0.8l-0.2,7c0,0.1,0,0.3,0,0.4
	c0,0.1-0.1,0.2-0.2,0.3c-0.2,0.2-0.5,0.4-0.8,0.6c-0.3,0.2-0.5,0.4-0.7,0.6c-0.2,0.2-0.5,0.4-0.7,0.5c-0.2,0.2-0.4,0.3-0.5,0.4
	c-0.4,0-0.8,0-1.1,0l0.7-8.7C1.9,22.7,2,22,2.3,21.3c0.3-0.6,0.5-1.1,0.9-1.5c0.2-0.2,0.4-0.4,0.7-0.7c0.3-0.3,0.6-0.5,1-0.7
	c0.2,0,0.3,0.1,0.5,0.1C5.6,18.6,5.8,18.7,5.9,18.7 M3.2,5.7c0.2,0.4,0.4,0.8,0.6,1C4,7,4.3,7.2,4.6,7.3c0.3,0.1,0.6,0.2,1,0.2
	c0.4,0,0.8,0.1,1.3,0.1h9.4c1,0,1.8,0.1,2.4,0.2c0.6,0.1,1.2,0.3,1.5,0.6c0.4,0.3,0.7,0.6,0.8,1c0.2,0.4,0.2,0.9,0.2,1.4
	c0,0.5-0.1,1.1-0.2,1.7c-0.2,0.6-0.3,1.3-0.5,2c0,2.2,0.1,4.3,0.3,6c0.2,1.8,0.4,3.3,0.6,4.6l0.2,1.8c0.1,0.5,0.1,1,0.1,1.3
	c0,0.3,0,0.5-0.1,0.7c-0.1,0.2-0.2,0.4-0.3,0.5c-0.3,0.4-0.6,0.9-0.9,1.3c-0.3,0.4-0.6,0.9-0.8,1.3c-0.4,0-0.8,0-1.3,0
	c-0.1-0.4-0.1-0.8-0.1-1.3c-0.1-1.2-0.2-2.4-0.3-3.6c0-0.5,0-1.1,0-1.6c0-1.3,0-2.5,0-3.4c0-1.4,0-2.8,0.1-4.2c0-0.5,0-0.9,0-1.2
	c0-0.4,0-0.8,0-1.1c0-0.3,0-0.7,0-1.1c0-0.4,0-0.7-0.1-0.9c0-0.2-0.1-0.4-0.3-0.6c-0.2-0.2-0.4-0.3-0.7-0.3
	c-0.3-0.1-0.7-0.1-1.3-0.1H5.3c-0.5,0-1.1,0-1.6-0.1c-0.5,0-0.9-0.1-1.4-0.3c-0.4-0.2-0.7-0.4-1-0.7C1.1,11.2,1,10.8,1,10.3
	C1,10.1,1,9.9,1,9.6c0.1-0.3,0.1-0.6,0.2-1c0.1-0.4,0.2-0.8,0.4-1.3s0.3-1,0.5-1.5c0.2-0.1,0.3-0.1,0.5-0.2C2.8,5.7,3,5.7,3.2,5.7z
	 M40.1,38.2c0,0.2,0,0.3,0,0.4v0.3c0,0.4,0,0.7,0.1,1c0,0.3,0.1,0.6,0.2,0.8c0.1,0.2,0.2,0.4,0.3,0.6c0.1,0.2,0.2,0.3,0.3,0.5
	c0.1,0.2,0.3,0.4,0.4,0.6c0.1,0.2,0.2,0.5,0.2,0.8c0,0.5-0.2,0.9-0.5,1.3c-0.3,0.4-0.8,0.6-1.4,0.6c-0.6,0-1.1-0.2-1.4-0.6
	c-0.3-0.4-0.5-0.8-0.5-1.3c0-0.3,0.1-0.6,0.2-0.8c0.1-0.2,0.2-0.4,0.4-0.6c0.1-0.1,0.2-0.3,0.3-0.5c0.1-0.2,0.2-0.4,0.3-0.6
	c0.1-0.2,0.1-0.5,0.2-0.8c0-0.3,0.1-0.7,0.1-1v-0.3c0-0.1,0-0.2,0-0.4h-3.6l0.2-2.1h8.1l-0.2,2.1C43.4,38.2,40.1,38.2,40.1,38.2z
	 M43.9,12.4c-1.1,0-1.9,0.3-2.3,0.8c-0.4,0.5-0.7,1.4-0.7,2.5c0,0.8,0,1.6,0.1,2.4c0,0.8,0.1,1.6,0.2,2.4c0.1,0.8,0.1,1.6,0.2,2.4
	c0.1,0.8,0.2,1.5,0.3,2.2c0.1,0.6,0.2,1.2,0.3,1.8c0.1,0.6,0.1,1,0.1,1.3c0,0.4-0.1,0.8-0.4,1.1c-0.7,0.9-1.3,1.8-1.9,2.7
	c-0.4,0-0.8,0-1.3,0c-0.1-1.1-0.2-2.2-0.2-3.3c0-1.2-0.1-2.5-0.1-3.9c0-2.3,0-4.7,0.1-7c0-1.1,0.1-2.1,0.1-3c0-0.9,0.1-1.6,0.1-2.2
	h-9.8c-0.5,0-1.1,0-1.6-0.1c-0.5,0-0.9-0.1-1.4-0.3c-0.4-0.2-0.7-0.4-1-0.7c-0.2-0.3-0.4-0.7-0.4-1.3c0-0.1,0-0.4,0.1-0.6
	c0.1-0.3,0.1-0.6,0.2-1c0.1-0.4,0.2-0.8,0.4-1.3c0.1-0.5,0.3-1,0.5-1.5c0.2-0.1,0.3-0.1,0.5-0.2c0.2,0,0.3,0,0.5,0
	c0.2,0.4,0.4,0.8,0.6,1c0.2,0.3,0.5,0.4,0.8,0.6c0.3,0.1,0.6,0.2,1,0.2c0.4,0,0.8,0.1,1.3,0.1h14.6c0.1,0,0.1,0.1,0.1,0.2
	c-0.4,1.5-0.8,3-1.1,4.5C44.1,12.4,44,12.4,43.9,12.4L43.9,12.4z M54.1,32.1c0-0.3-0.1-0.7-0.1-1.3c0-0.6-0.1-1.1-0.1-1.8
	c0-0.6-0.1-1.3-0.1-1.9c0-0.5,0-1.1,0-1.6c0-2.3,0.1-4.6,0.2-7c0.1-0.8,0.1-1.6,0.2-2.2c0-0.6,0.1-1.3,0.1-1.9
	c0-0.2-0.1-0.4-0.2-0.6c-0.1-0.2-0.3-0.3-0.4-0.4c-0.2-0.1-0.4-0.2-0.6-0.2c-0.2-0.1-0.5-0.1-0.7-0.2c-0.5-0.2-1.1-0.3-1.6-0.5
	c-0.4-0.1-0.8-0.3-1.2-0.5c-0.3-0.2-0.6-0.4-0.8-0.7c-0.2-0.3-0.3-0.6-0.3-1c0-0.2,0-0.5,0.2-0.9c0.1-0.4,0.2-0.8,0.4-1.3
	c0.2-0.5,0.3-0.9,0.5-1.4c0.2-0.5,0.4-0.8,0.6-1.2c0.1-0.1,0.3-0.1,0.5-0.1s0.4,0,0.6,0c0.1,0.4,0.2,0.7,0.4,0.9s0.4,0.4,0.7,0.6
	c0.3,0.2,0.6,0.3,1,0.4s0.9,0.3,1.5,0.4c0.5,0.1,0.9,0.3,1.3,0.4c0.3,0.1,0.6,0.2,0.8,0.4C56.8,8.8,57,9,57,9.1
	c0.1,0.2,0.1,0.3,0.1,0.5c0,0.1,0,0.3-0.1,0.6c-0.1,0.9-0.3,1.9-0.4,2.8c-0.1,0.7-0.1,1.7-0.1,2.8c0,1.6,0.1,3.2,0.2,4.8
	c0.1,1.6,0.3,3.1,0.5,4.5c0.1,0.6,0.2,1.2,0.2,1.8c0.1,0.6,0.1,1,0.1,1.3c0,0.3,0,0.5-0.1,0.7c-0.1,0.2-0.2,0.3-0.3,0.5
	c-0.3,0.4-0.7,0.9-1,1.4c-0.3,0.4-0.6,0.9-0.9,1.3C55,32.1,54.5,32.1,54.1,32.1L54.1,32.1z M48.3,19.8c0-0.5,0.2-1,0.5-1.3
	c0.4-0.4,0.8-0.5,1.3-0.5s1,0.2,1.3,0.5c0.4,0.4,0.5,0.8,0.5,1.3c0,0.5-0.2,1-0.5,1.3c-0.4,0.4-0.8,0.5-1.3,0.5s-1-0.2-1.3-0.5
	C48.4,20.8,48.3,20.3,48.3,19.8z M67.4,18.7c-0.1,0.4-0.2,0.7-0.3,1c-0.1,0.5-0.2,1.1-0.3,1.6c0,0.3,0,0.5-0.1,0.8l-0.2,7
	c0,0.1,0,0.3,0,0.4c0,0.1-0.1,0.2-0.2,0.3c-0.2,0.2-0.5,0.4-0.8,0.6c-0.3,0.2-0.5,0.4-0.7,0.6c-0.2,0.2-0.5,0.4-0.7,0.5
	c-0.2,0.2-0.4,0.3-0.5,0.4c-0.4,0-0.8,0-1.1,0l0.7-8.7c0.1-0.7,0.2-1.4,0.5-2.1c0.3-0.6,0.5-1.1,0.9-1.5c0.2-0.2,0.4-0.4,0.7-0.7
	c0.3-0.3,0.6-0.5,1-0.7c0.2,0,0.3,0.1,0.5,0.1C67.1,18.6,67.3,18.7,67.4,18.7L67.4,18.7z M64.6,5.7c0.2,0.4,0.4,0.8,0.6,1
	C65.5,7,65.7,7.2,66,7.3c0.3,0.1,0.6,0.2,1,0.2c0.4,0,0.8,0.1,1.3,0.1h9.4c1,0,1.8,0.1,2.4,0.2c0.6,0.1,1.2,0.3,1.6,0.6
	s0.7,0.6,0.8,1c0.2,0.4,0.2,0.9,0.2,1.4c0,0.5-0.1,1.1-0.2,1.7c-0.2,0.6-0.3,1.3-0.5,2c0,2.2,0.1,4.3,0.3,6c0.2,1.8,0.4,3.3,0.6,4.6
	l0.3,1.8c0.1,0.5,0.1,1,0.1,1.3c0,0.3,0,0.5-0.1,0.7c-0.1,0.2-0.2,0.4-0.3,0.5c-0.3,0.4-0.6,0.9-0.9,1.3c-0.3,0.4-0.6,0.9-0.8,1.3
	c-0.4,0-0.8,0-1.3,0c-0.1-0.4-0.1-0.8-0.1-1.3c-0.1-1.2-0.2-2.4-0.3-3.6c0-0.5,0-1.1,0-1.6c0-1.3,0-2.5,0-3.4c0-1.4,0-2.8,0.1-4.2
	c0-0.5,0-0.9,0-1.2c0-0.4,0-0.8,0-1.1c0-0.3,0-0.7,0-1.1c0-0.4,0-0.7-0.1-0.9c0-0.2-0.1-0.4-0.3-0.6c-0.2-0.2-0.4-0.3-0.7-0.3
	c-0.3-0.1-0.7-0.1-1.3-0.1H66.7c-0.5,0-1.1,0-1.6-0.1c-0.5,0-0.9-0.1-1.4-0.3c-0.4-0.2-0.7-0.4-1-0.7c-0.2-0.3-0.4-0.7-0.4-1.3
	c0-0.1,0-0.4,0.1-0.6c0.1-0.3,0.1-0.6,0.2-1c0.1-0.4,0.2-0.8,0.4-1.3s0.3-1,0.5-1.5c0.2-0.1,0.3-0.1,0.5-0.2
	C64.3,5.7,64.5,5.7,64.6,5.7L64.6,5.7z M88.9,43.1c0-0.5,0.2-1,0.5-1.3c0.4-0.4,0.8-0.5,1.3-0.5c0.5,0,1,0.2,1.3,0.5
	c0.4,0.4,0.5,0.8,0.5,1.3s-0.2,1-0.5,1.3c-0.4,0.4-0.8,0.5-1.3,0.5c-0.5,0-1-0.2-1.3-0.5C89.1,44.1,88.9,43.7,88.9,43.1L88.9,43.1z
	 M88.9,37.3c0-0.5,0.2-1,0.5-1.3c0.4-0.4,0.8-0.5,1.3-0.5c0.5,0,1,0.2,1.3,0.5c0.4,0.4,0.5,0.8,0.5,1.3s-0.2,1-0.5,1.3
	c-0.4,0.4-0.8,0.5-1.3,0.5c-0.5,0-1-0.2-1.3-0.5C89.1,38.3,88.9,37.9,88.9,37.3z M88.6,5.3c0.1,0.4,0.2,0.7,0.3,1
	C89,6.6,89.2,6.8,89.5,7s0.6,0.3,1,0.5C90.9,7.6,91.4,7.8,92,8c0.5,0.2,1,0.3,1.5,0.5C94,8.7,94.4,8.8,94.7,9
	c0.3,0.2,0.5,0.4,0.7,0.7s0.2,0.6,0.2,1c0,0.9-0.2,2.2-0.7,3.9c-0.5,1.7-1.2,3.8-2.3,6.2c-0.5-0.1-1.1-0.3-1.6-0.5
	c0.2-0.5,0.3-1.1,0.4-1.6c0.1-0.5,0.2-1.1,0.3-1.5c0.1-0.5,0.2-0.9,0.2-1.3c0-0.4,0.1-0.7,0.1-1c0-0.2,0-0.4-0.1-0.6
	c-0.1-0.2-0.2-0.3-0.3-0.5c-0.2-0.2-0.4-0.3-0.6-0.4c-0.3-0.1-0.6-0.3-0.9-0.4c-0.6-0.2-1.2-0.4-1.7-0.6c-0.4-0.1-0.9-0.3-1.3-0.6
	c-0.3-0.2-0.6-0.4-0.8-0.7c-0.2-0.3-0.3-0.6-0.3-1c0-0.3,0-0.6,0.1-1c0.1-0.4,0.2-0.8,0.4-1.3c0.1-0.4,0.3-0.9,0.5-1.3
	c0.2-0.4,0.3-0.8,0.5-1.1c0.1-0.1,0.3-0.1,0.5-0.1C88.3,5.3,88.4,5.3,88.6,5.3z M98.9,21.5c-0.1-1.2-0.1-2.3,0-3.5h11.9
	c0,1.2,0,2.3,0,3.5L98.9,21.5L98.9,21.5z M118.4,40.6c-0.4,0-0.8,0-1.3,0c0-0.7-0.1-1.6-0.2-2.5c-0.1-1-0.1-1.9-0.2-2.9
	c0-1-0.1-2.1-0.1-3.1c0-1,0-2.1,0-3.1c0-1.4,0-2.7,0-3.7c0-1,0.1-1.9,0.1-2.7c0.1-0.8,0.1-1.5,0.2-2.1c0.1-0.6,0.3-1.2,0.4-1.8
	c0.2-0.6,0.4-1.2,0.7-1.8c0.3-0.6,0.6-1.4,1-2.3c0.1-0.1,0.1-0.2,0.1-0.3c0-0.1,0-0.1,0-0.2c0-0.2-0.1-0.4-0.3-0.6
	c-0.2-0.1-0.7-0.3-1.4-0.5c-0.5-0.1-1-0.3-1.5-0.4c-0.4-0.1-0.8-0.3-1.1-0.5c-0.3-0.2-0.5-0.4-0.7-0.6c-0.2-0.2-0.2-0.5-0.2-0.9
	c0-0.2,0.1-0.5,0.1-0.9c0.1-0.4,0.2-0.8,0.4-1.3c0.2-0.5,0.3-0.9,0.5-1.4c0.2-0.5,0.4-0.8,0.6-1.2c0.1-0.1,0.3-0.1,0.5-0.1
	c0.2,0,0.4,0,0.6,0c0.1,0.4,0.2,0.7,0.4,0.9c0.1,0.2,0.3,0.4,0.5,0.6c0.2,0.2,0.5,0.3,0.9,0.4c0.4,0.1,0.8,0.3,1.4,0.4
	c0.6,0.2,1.1,0.4,1.5,0.5c0.4,0.2,0.7,0.4,1,0.5c0.2,0.2,0.4,0.4,0.5,0.6c0.1,0.2,0.1,0.4,0.1,0.6c0,0.4-0.1,1-0.3,1.5
	c-0.3,0.7-0.5,1.4-0.8,2c-0.4,0.8-0.7,1.5-1,2.3c-0.3,0.7-0.5,1.4-0.7,2.1c-0.2,0.7-0.3,1.4-0.4,2.1c-0.1,0.7-0.1,1.5-0.1,2.2
	c0,0.8,0,1.7,0.1,2.7c0.1,1,0.1,2.1,0.3,3.2c0.1,1.2,0.2,2.4,0.4,3.7c0.1,1.3,0.3,2.6,0.4,3.9c0,0.2,0.1,0.4,0.1,0.6
	c0,0.2,0,0.4,0,0.5c0,0.3,0,0.5-0.1,0.7c-0.1,0.2-0.2,0.3-0.3,0.5l-1,1.2C119,39.8,118.7,40.2,118.4,40.6L118.4,40.6z M140.7,37.3
	c0,0.5-0.2,1-0.5,1.3c-0.4,0.4-0.8,0.5-1.3,0.5c-0.5,0-1-0.2-1.3-0.5c-0.4-0.4-0.5-0.8-0.5-1.3s0.2-1,0.5-1.3
	c0.4-0.4,0.8-0.5,1.3-0.5c0.5,0,1,0.2,1.3,0.5C140.5,36.4,140.7,36.8,140.7,37.3L140.7,37.3z M137.5,42.9c0,0.5-0.2,1-0.5,1.3
	c-0.4,0.4-0.8,0.5-1.3,0.5c-0.5,0-1-0.2-1.3-0.5c-0.4-0.4-0.5-0.8-0.5-1.3c0-0.5,0.2-1,0.5-1.3c0.4-0.4,0.8-0.5,1.3-0.5
	s1,0.2,1.3,0.5C137.3,41.9,137.5,42.4,137.5,42.9z M134.3,37.3c0,0.5-0.2,1-0.5,1.3c-0.4,0.4-0.8,0.5-1.3,0.5s-1-0.2-1.3-0.5
	c-0.4-0.4-0.5-0.8-0.5-1.3s0.2-1,0.5-1.3c0.4-0.4,0.8-0.5,1.3-0.5s1,0.2,1.3,0.5C134.1,36.4,134.3,36.8,134.3,37.3z M133.2,19.8
	c0-0.5,0.2-1,0.5-1.3c0.4-0.4,0.8-0.5,1.3-0.5c0.5,0,1,0.2,1.3,0.5c0.4,0.4,0.5,0.8,0.5,1.3s-0.2,1-0.5,1.3
	c-0.4,0.4-0.8,0.5-1.3,0.5c-0.5,0-1-0.2-1.3-0.5C133.3,20.8,133.2,20.3,133.2,19.8z M128.9,5.7c0.2,0.4,0.4,0.8,0.6,1
	c0.2,0.2,0.5,0.4,0.8,0.6c0.3,0.1,0.6,0.2,1,0.2c0.4,0,0.8,0.1,1.3,0.1h6.5c1,0,1.8,0.1,2.4,0.3c0.6,0.2,1.2,0.5,1.5,0.9
	c0.4,0.4,0.6,0.8,0.8,1.4c0.2,0.5,0.2,1.1,0.2,1.7c0,0.5,0,1,0,1.5c0,0.5-0.1,0.9-0.1,1.4s-0.1,1-0.1,1.5c0,0.6,0,1.1,0,1.7
	c0,0.2,0,0.5,0,0.9c0,0.4,0,0.9,0,1.4c0,0.5,0.1,1.1,0.1,1.7c0,0.6,0.1,1.2,0.2,1.7c0.1,0.6,0.2,1.1,0.3,1.5c0.1,0.5,0.3,0.8,0.5,1
	c0.2,0.3,0.6,0.5,0.9,0.6c0.4,0.1,0.8,0.1,1.4,0.1c0.1,0,0.1,0,0.1,0.1c-0.2,0.7-0.5,1.5-0.7,2.2c-0.2,0.7-0.4,1.4-0.6,2.2
	c0,0.1,0,0.1-0.1,0.1c0,0-0.1,0-0.1,0h-14.9c-0.5,0-1,0-1.4,0s-0.8,0-1.2,0.1c-0.4,0-0.7,0.1-1,0.2c-0.3,0.1-0.7,0.2-1,0.4
	c-0.2,0-0.3-0.1-0.5-0.1c-0.2-0.1-0.3-0.1-0.4-0.3c0.1-0.5,0.3-1.1,0.5-1.8s0.5-1.3,0.7-2c0.2-0.4,0.5-0.8,1-1.1
	c0.5-0.3,1.2-0.4,2.2-0.4h11.7c-0.1-0.8-0.2-1.5-0.2-2.3c0-0.7-0.1-1.4-0.1-2.2c0-0.6,0-1.1,0-1.8c0-0.6,0.1-1.2,0.1-1.8
	c0-0.6,0.1-1.1,0.1-1.6c0-0.5,0-0.9,0-1.3c0-0.4,0-0.8-0.1-1.2c-0.1-0.4-0.3-0.7-0.5-0.9c-0.3-0.3-0.6-0.5-1.1-0.6
	c-0.4-0.1-1-0.2-1.7-0.2h-7c-0.5,0-1.1,0-1.6-0.1c-0.5,0-0.9-0.1-1.4-0.3c-0.4-0.2-0.7-0.4-1-0.7c-0.2-0.3-0.4-0.7-0.4-1.3
	c0-0.1,0-0.4,0.1-0.6c0.1-0.3,0.1-0.6,0.2-1c0.1-0.4,0.2-0.8,0.4-1.3s0.3-1,0.5-1.5c0.2-0.1,0.3-0.1,0.5-0.2
	C128.6,5.7,128.8,5.7,128.9,5.7z M171.8,14.8c0.3-1.1,0.6-2.2,1-3.3c0.2-0.6,0.4-1.2,0.6-1.8c0.2-0.6,0.4-1.1,0.6-1.5
	c0.2-0.4,0.5-0.7,0.9-0.9c0.3-0.2,0.7-0.5,1.1-0.6c0.7-0.3,1.5-0.5,2.2-0.5c0.9,0,1.7,0.1,2.4,0.4c0.7,0.3,1.3,0.7,1.9,1.2
	c0.5,0.5,1,1.1,1.4,1.7c0.4,0.7,0.7,1.4,0.9,2.1c0.2,0.7,0.4,1.5,0.5,2.3c0.1,0.8,0.2,1.5,0.2,2.3c0,0.8-0.1,1.6-0.2,2.5
	c-0.1,0.9-0.3,1.8-0.5,2.6c-0.2,0.9-0.5,1.8-0.8,2.6c-0.3,0.8-0.7,1.6-1.2,2.4c-0.4,0.7-0.9,1.4-1.5,2c-0.5,0.6-1.2,1-1.9,1.4
	c-0.6,0.3-1.2,0.5-1.9,0.8c-0.7,0.2-1.5,0.5-2.3,0.7c-0.8,0.2-1.6,0.4-2.4,0.6c-0.8,0.2-1.7,0.4-2.5,0.6c-0.3,0-0.5-0.1-0.8-0.2
	c-0.2-0.1-0.5-0.2-0.7-0.3c-0.6-0.9-1.2-2-1.7-3.3c-0.5-1.2-1-2.5-1.3-3.7c-0.4-1.2-0.7-2.3-0.9-3.5c-0.2-1.1-0.3-2-0.3-2.7
	c0-0.4,0-0.7,0.1-1.2c0.1-0.4,0.2-0.8,0.3-1.3c0.1-0.4,0.3-0.8,0.4-1.2l0.4-1c0.1-0.1,0.1-0.3,0.1-0.4c0-0.2-0.1-0.3-0.3-0.5
	c-0.2-0.1-0.5-0.3-1-0.6c-0.4-0.2-0.7-0.4-1.1-0.6c-0.3-0.2-0.6-0.3-0.8-0.5c-0.2-0.2-0.4-0.4-0.5-0.6c-0.1-0.2-0.2-0.5-0.2-0.7
	c0-0.2,0.1-0.6,0.2-0.9c0.1-0.4,0.3-0.8,0.6-1.2c0.2-0.4,0.5-0.8,0.7-1.2c0.3-0.4,0.5-0.8,0.8-1.1c0.1,0,0.3,0,0.5,0
	c0.1,0,0.2,0,0.3,0c0.1,0,0.2,0,0.2,0.1c0,0.2,0.1,0.4,0.1,0.6c0.1,0.2,0.2,0.3,0.4,0.5c0.2,0.2,0.4,0.3,0.8,0.5
	c0.3,0.2,0.8,0.4,1.4,0.7c0.7,0.3,1.2,0.6,1.5,0.9c0.4,0.3,0.5,0.6,0.5,0.9c0,0.2-0.1,0.5-0.2,0.9c-0.2,0.3-0.3,0.7-0.6,1.2
	l-0.5,1.1c-0.2,0.4-0.4,0.9-0.6,1.3c-0.2,0.5-0.3,0.9-0.5,1.4c-0.1,0.5-0.2,1-0.2,1.5c0,0.4,0.1,0.9,0.2,1.5
	c0.1,0.6,0.3,1.2,0.5,1.9c0.4,1.3,0.9,2.6,1.5,3.9c0.3,0.6,0.5,1.1,0.8,1.6c0.3,0.5,0.5,0.8,0.8,1c0.7-0.1,1.5-0.3,2.2-0.4
	c0.8-0.2,1.7-0.4,2.5-0.6c0.8-0.2,1.6-0.5,2.4-0.7c0.7-0.3,1.3-0.5,1.6-0.8c1-0.8,1.7-1.8,2.2-3c0.5-1.2,0.8-2.5,0.8-3.7
	c0-0.9-0.1-1.7-0.3-2.5c-0.2-0.7-0.6-1.4-1-2.1c-0.5-0.6-1.1-1.1-1.7-1.4c-0.7-0.4-1.5-0.5-2.4-0.5c-0.3,0-0.7,0.1-1.1,0.1
	c-0.4,0.1-0.8,0.3-1.2,0.6c-0.4,0.3-0.8,0.7-1.1,1.2c-0.4,0.5-0.7,1.1-1,1.9c-0.2,0-0.4-0.1-0.6-0.2C172.1,15,172,14.9,171.8,14.8
	L171.8,14.8z M197.6,43.1c0-0.5,0.2-1,0.5-1.3c0.4-0.4,0.8-0.5,1.3-0.5c0.5,0,1,0.2,1.3,0.5c0.4,0.4,0.5,0.8,0.5,1.3s-0.2,1-0.5,1.3
	c-0.4,0.4-0.8,0.5-1.3,0.5c-0.5,0-1-0.2-1.3-0.5C197.8,44.1,197.6,43.7,197.6,43.1z M197.6,37.3c0-0.5,0.2-1,0.5-1.3
	c0.4-0.4,0.8-0.5,1.3-0.5c0.5,0,1,0.2,1.3,0.5c0.4,0.4,0.5,0.8,0.5,1.3s-0.2,1-0.5,1.3c-0.4,0.4-0.8,0.5-1.3,0.5
	c-0.5,0-1-0.2-1.3-0.5C197.8,38.3,197.6,37.9,197.6,37.3z M194.3,17.3c-0.2,0.7-0.3,1.5-0.3,2.3c-0.1,0.7-0.1,1.5-0.1,2.3
	c0,1.7,0.1,3.7,0.1,6.1c0.1,2.4,0.3,5,0.6,7.9c0.1,0.4,0.1,0.8,0.1,1.2c0,0.2,0,0.4-0.1,0.6c-0.1,0.2-0.2,0.4-0.3,0.5
	c-0.7,0.8-1.4,1.5-2,2.4c-0.4,0-0.8,0-1.2,0c0-0.2,0-0.5,0-0.7c0-1,0-2,0-3v-2c0-0.9,0-2,0-3.3c0-1.3,0-2.5,0-3.9
	c0-2.5,0.1-4.9,0.2-7.4c0-0.4,0.1-0.7,0.3-1c0.3-0.5,0.6-0.9,0.9-1.2c0.3-0.3,0.6-0.7,1-1.1C193.7,17.1,194,17.2,194.3,17.3
	L194.3,17.3z M191.5,5.7c0.2,0.4,0.4,0.8,0.6,1c0.2,0.2,0.5,0.4,0.8,0.6c0.3,0.1,0.6,0.2,1,0.2s0.8,0.1,1.3,0.1h9.8
	c1.1,0,1.9,0.2,2.7,0.6s1.3,0.9,1.8,1.5c0.4,0.6,0.8,1.4,1,2.2c0.2,0.9,0.3,1.8,0.3,2.7c0,1.3-0.1,2.6-0.4,3.8
	c-0.2,1.2-0.6,2.4-1,3.5c-0.4,1-0.8,2-1.3,3c-0.5,0.9-1,1.6-1.4,2.2c-0.6,0.8-1.6,1.5-2.9,2.3c-1.3,0.7-2.9,1.6-4.8,2.5
	c-0.3,0-0.6-0.1-0.9-0.3c0.3-1.7,0.8-3.4,1.3-5c1.8-0.7,3.3-1.4,4.3-1.9c1.1-0.6,1.8-1.1,2.3-1.6c0.3-0.4,0.6-0.8,0.9-1.3
	c0.3-0.5,0.5-1,0.6-1.6c0.2-0.6,0.3-1.2,0.4-1.7c0.1-0.6,0.1-1.2,0.1-1.8c0-0.6-0.1-1.1-0.2-1.6c-0.1-0.5-0.3-0.9-0.6-1.3
	c-0.3-0.4-0.6-0.7-1-0.9c-0.4-0.2-0.9-0.3-1.5-0.3h-11c-0.5,0-1.1,0-1.6-0.1c-0.5,0-0.9-0.1-1.4-0.3c-0.4-0.2-0.7-0.4-1-0.7
	c-0.2-0.3-0.4-0.7-0.4-1.3c0-0.1,0-0.4,0.1-0.6c0.1-0.3,0.1-0.6,0.2-1c0.1-0.4,0.2-0.8,0.4-1.3c0.1-0.5,0.3-1,0.5-1.5
	c0.2-0.1,0.3-0.1,0.5-0.2C191.2,5.7,191.4,5.7,191.5,5.7L191.5,5.7z M222.7,37.3c0,0.5-0.2,1-0.5,1.3c-0.4,0.4-0.8,0.5-1.3,0.5
	c-0.5,0-1-0.2-1.3-0.5c-0.4-0.4-0.5-0.8-0.5-1.3s0.2-1,0.5-1.3c0.4-0.4,0.8-0.5,1.3-0.5c0.5,0,1,0.2,1.3,0.5
	C222.5,36.4,222.7,36.8,222.7,37.3z M219.6,42.9c0,0.5-0.2,1-0.5,1.3c-0.4,0.4-0.8,0.5-1.3,0.5c-0.5,0-1-0.2-1.3-0.5
	c-0.4-0.4-0.5-0.8-0.5-1.3c0-0.5,0.2-1,0.5-1.3c0.4-0.4,0.8-0.5,1.3-0.5s1,0.2,1.3,0.5C219.4,41.9,219.6,42.4,219.6,42.9L219.6,42.9
	z M216.4,37.3c0,0.5-0.2,1-0.5,1.3c-0.4,0.4-0.8,0.5-1.3,0.5s-1-0.2-1.3-0.5c-0.4-0.4-0.5-0.8-0.5-1.3s0.2-1,0.5-1.3
	c0.4-0.4,0.8-0.5,1.3-0.5s1,0.2,1.3,0.5C216.2,36.4,216.4,36.8,216.4,37.3L216.4,37.3z M215.8,5.3c0.1,0.4,0.2,0.7,0.3,1
	c0.1,0.3,0.3,0.5,0.6,0.7s0.6,0.3,1,0.5c0.4,0.2,0.9,0.3,1.5,0.5c0.5,0.2,1,0.3,1.5,0.5c0.4,0.2,0.8,0.3,1.1,0.5
	c0.3,0.2,0.5,0.4,0.7,0.7c0.2,0.3,0.2,0.6,0.2,1c0,0.9-0.2,2.2-0.7,3.9c-0.5,1.7-1.2,3.8-2.3,6.2c-0.5-0.1-1.1-0.3-1.6-0.5
	c0.2-0.5,0.3-1.1,0.4-1.6c0.1-0.5,0.2-1.1,0.3-1.5c0.1-0.5,0.2-0.9,0.2-1.3c0-0.4,0.1-0.7,0.1-1c0-0.2,0-0.4-0.1-0.6
	c-0.1-0.2-0.2-0.3-0.3-0.5c-0.2-0.2-0.4-0.3-0.6-0.4c-0.3-0.1-0.6-0.3-0.9-0.4c-0.6-0.2-1.2-0.4-1.7-0.6c-0.4-0.1-0.9-0.3-1.3-0.6
	c-0.3-0.2-0.6-0.4-0.8-0.7s-0.3-0.6-0.3-1c0-0.3,0-0.6,0.1-1c0.1-0.4,0.2-0.8,0.4-1.3c0.1-0.4,0.3-0.9,0.5-1.3
	c0.2-0.4,0.3-0.8,0.5-1.1c0.1-0.1,0.3-0.1,0.5-0.1C215.4,5.3,215.6,5.3,215.8,5.3z M226.1,1.9c0-0.5,0.2-1,0.5-1.3
	C227,0.2,227.5,0,228,0c0.5,0,1,0.2,1.3,0.5c0.4,0.4,0.5,0.8,0.5,1.3s-0.2,1-0.5,1.3c-0.4,0.4-0.8,0.5-1.3,0.5c-0.5,0-1-0.2-1.3-0.5
	C226.3,2.8,226.1,2.4,226.1,1.9z M231.1,32.1c0-0.3-0.1-0.7-0.1-1.3c0-0.6-0.1-1.1-0.1-1.8c0-0.6-0.1-1.3-0.1-1.9c0-0.5,0-1.1,0-1.6
	c0-1.6,0-2.9,0.1-4c0-1.1,0.1-2.1,0.2-2.9l0.2-2.2c0-0.6,0.1-1.2,0.1-1.9c0-0.2-0.1-0.4-0.2-0.6c-0.1-0.2-0.3-0.3-0.4-0.4
	c-0.2-0.1-0.4-0.2-0.6-0.2c-0.2-0.1-0.5-0.1-0.7-0.2c-0.5-0.2-1.1-0.3-1.6-0.5c-0.4-0.1-0.8-0.3-1.2-0.5c-0.4-0.2-0.6-0.4-0.8-0.7
	c-0.2-0.3-0.3-0.6-0.3-1c0-0.2,0.1-0.5,0.1-0.9c0.1-0.4,0.2-0.8,0.4-1.3c0.2-0.5,0.3-0.9,0.5-1.4c0.2-0.5,0.4-0.8,0.6-1.2
	c0.1-0.1,0.3-0.1,0.5-0.1s0.4,0,0.6,0c0.1,0.4,0.2,0.7,0.4,0.9c0.2,0.2,0.4,0.4,0.6,0.6c0.3,0.2,0.6,0.3,1,0.4
	c0.4,0.1,0.9,0.3,1.5,0.4c0.5,0.1,0.9,0.3,1.3,0.4c0.3,0.1,0.6,0.2,0.8,0.4c0.2,0.1,0.3,0.3,0.4,0.4c0.1,0.2,0.1,0.3,0.1,0.5
	c0,0.1,0,0.3-0.1,0.6c-0.1,0.9-0.3,1.9-0.4,2.8c-0.1,0.7-0.1,1.7-0.1,2.8c0,1.6,0.1,3.2,0.2,4.8c0.1,1.6,0.3,3.1,0.5,4.5
	c0.1,0.6,0.2,1.2,0.2,1.8c0.1,0.6,0.1,1,0.1,1.3c0,0.3,0,0.5-0.1,0.7c-0.1,0.2-0.2,0.3-0.3,0.5c-0.3,0.5-0.7,0.9-1,1.4
	c-0.3,0.5-0.6,0.9-0.9,1.3C231.9,32.1,231.5,32.1,231.1,32.1L231.1,32.1z M239.4,5.7c0.2,0.4,0.4,0.8,0.6,1c0.2,0.2,0.5,0.4,0.8,0.6
	c0.3,0.1,0.6,0.2,1,0.3c0.4,0,0.8,0.1,1.3,0.1h6.8c1,0,1.8,0.1,2.6,0.3c0.8,0.2,1.5,0.5,2.1,1c0.6,0.5,1.1,1.1,1.4,1.8
	c0.3,0.7,0.5,1.6,0.5,2.7c0,0.4,0,0.9-0.1,1.3c0,0.4-0.1,0.7-0.1,1.2c0,0.4,0,0.9,0,1.6c0,1.3,0.1,2.7,0.2,4
	c0.2,1.3,0.3,2.6,0.5,3.8c0.1,0.6,0.2,1.2,0.3,1.8c0.1,0.5,0.1,1,0.1,1.3c0,0.3,0,0.5-0.1,0.7c-0.1,0.2-0.2,0.4-0.3,0.5
	c-0.7,0.9-1.3,1.8-2,2.7c-0.4,0-0.8,0-1.3,0c0-0.3-0.1-0.7-0.1-1.3c0-0.5-0.1-1.1-0.1-1.8c-0.1-1.2-0.1-2.3-0.1-3.5
	c0-1.4,0-2.6,0-3.5c0-0.9,0-1.6,0.1-2.2c0-0.6,0-1.1,0.1-1.6c0-0.4,0.1-0.9,0.1-1.5c0-1.3-0.3-2.3-1-3c-0.7-0.7-1.9-1.1-3.5-1.1h-8
	c-0.5,0-1.1,0-1.6-0.1c-0.5,0-0.9-0.1-1.3-0.3c-0.4-0.1-0.7-0.4-0.9-0.7c-0.2-0.3-0.4-0.7-0.4-1.3c0-0.1,0-0.4,0.1-0.6
	c0.1-0.3,0.1-0.6,0.2-1c0.3-1,0.6-1.9,0.9-2.8c0.2-0.1,0.3-0.1,0.5-0.2C239,5.7,239.2,5.7,239.4,5.7L239.4,5.7z M268.6,43.1
	c0-0.5,0.2-1,0.5-1.3c0.4-0.4,0.8-0.5,1.3-0.5c0.5,0,1,0.2,1.3,0.5c0.4,0.4,0.5,0.8,0.5,1.3s-0.2,1-0.5,1.3
	c-0.4,0.4-0.8,0.5-1.3,0.5c-0.5,0-1-0.2-1.3-0.5C268.7,44.1,268.6,43.7,268.6,43.1z M268.6,37.3c0-0.5,0.2-1,0.5-1.3
	c0.4-0.4,0.8-0.5,1.3-0.5c0.5,0,1,0.2,1.3,0.5c0.4,0.4,0.5,0.8,0.5,1.3s-0.2,1-0.5,1.3c-0.4,0.4-0.8,0.5-1.3,0.5
	c-0.5,0-1-0.2-1.3-0.5C268.7,38.3,268.6,37.9,268.6,37.3z M271.9,20.1c0-0.5,0.2-1,0.5-1.3c0.4-0.4,0.8-0.5,1.3-0.5
	c0.5,0,1,0.2,1.3,0.5c0.4,0.4,0.5,0.8,0.5,1.3s-0.2,1-0.5,1.3c-0.4,0.4-0.8,0.5-1.3,0.5c-0.5,0-1-0.2-1.3-0.5
	C272.1,21.1,271.9,20.6,271.9,20.1z M269,22.3c-1.4-0.3-2.5-0.5-3.4-0.8c-0.9-0.3-1.5-0.6-2-1c-0.5-0.3-0.8-0.7-1-1.1
	c-0.2-0.5-0.3-0.9-0.3-1.4c0-0.4,0.1-0.8,0.2-1.3s0.4-1,0.6-1.5c0.2-0.5,0.5-1.1,0.9-1.7c0.4-0.6,0.7-1.2,1.1-1.8
	c-0.5-0.2-1-0.5-1.2-0.8c-0.3-0.3-0.4-0.7-0.4-1.2c0-0.2,0-0.5,0.1-0.9c0.1-0.4,0.2-0.8,0.4-1.2c0.1-0.4,0.3-0.8,0.5-1.3
	c0.2-0.4,0.4-0.8,0.6-1.2c0.1-0.1,0.3-0.1,0.5-0.1c0.2,0,0.4,0,0.6,0c0.1,0.3,0.3,0.6,0.4,0.9s0.4,0.5,0.7,0.6
	c0.3,0.2,0.7,0.3,1.2,0.5c0.5,0.1,1.2,0.3,2,0.4c1,0.2,2,0.3,3.2,0.5c1.1,0.2,2.4,0.3,3.8,0.5c0.7,0.1,1.2,0.4,1.7,0.9
	c0.5,0.5,0.8,1.3,1.1,2.2c0.3,1,0.5,2.1,0.6,3.5c0.1,1.4,0.2,2.9,0.2,4.6c0,1.3-0.1,2.7-0.2,4c-0.1,0.7-0.2,1.5-0.3,2.2
	c-0.1,0.7-0.2,1.4-0.4,2.1c-0.1,0.7-0.3,1.3-0.5,1.9c-0.1,0.5-0.3,1-0.5,1.4c-0.1,0.2-0.2,0.2-0.4,0.2h-13.1c-0.6,0-1.1,0-1.5,0
	c-0.4,0-0.8,0-1.2,0.1c-0.4,0-0.7,0.1-1.1,0.2c-0.4,0.1-0.7,0.2-1,0.4c-0.2,0-0.3-0.1-0.5-0.2c-0.1-0.1-0.3-0.2-0.4-0.3
	c0.2-0.5,0.5-1.1,0.8-1.7c0.3-0.6,0.6-1.3,1-2c0.3-0.4,0.6-0.8,1.1-1c0.5-0.3,1.3-0.4,2.3-0.4h10.2c0.6,0,1.1-0.2,1.5-0.5
	c0.4-0.4,0.7-0.8,0.9-1.4c0.2-0.7,0.4-1.3,0.4-2c0.1-0.8,0.1-1.6,0.1-2.4c0-2.1-0.3-3.7-0.8-4.9c-0.5-1.2-1.3-1.8-2.4-2
	c-0.9-0.1-1.8-0.3-2.7-0.4c-1.5-0.2-2.9-0.4-4.4-0.6c-0.5-0.1-0.8-0.1-0.9-0.1c-0.1,0.1-0.2,0.2-0.3,0.4c-0.3,0.4-0.5,0.9-0.6,1.4
	c-0.1,0.3-0.1,0.5-0.1,0.8c0,0.5,0.1,0.9,0.3,1.2c0.2,0.3,0.5,0.5,0.8,0.7c0.4,0.2,0.8,0.3,1.3,0.5c0.5,0.1,1.1,0.3,1.8,0.4
	L269,22.3L269,22.3z"/>
</svg>
