<?xml version="1.0" encoding="utf-8"?>
<!-- Generator: Adobe Illustrator 24.0.3, SVG Export Plug-In . SVG Version: 6.00 Build 0)  -->
<svg version="1.1" id="Layer_1" xmlns="http://www.w3.org/2000/svg" xmlns:xlink="http://www.w3.org/1999/xlink" x="0px" y="0px"
	 viewBox="0 0 281 66.2" style="enable-background:new 0 0 281 66.2;" xml:space="preserve">
<style type="text/css">
	.st0{fill:#242424;}
</style>
<path class="st0" d="M5.8,18.7c-0.1,0.4-0.2,0.7-0.3,1c-0.1,0.5-0.2,1.1-0.3,1.6c0,0.3,0,0.5-0.1,0.8l-0.2,7c0,0.1,0,0.3,0,0.4
	s-0.1,0.2-0.2,0.3c-0.2,0.2-0.5,0.4-0.8,0.6S3.4,30.8,3.2,31s-0.5,0.4-0.7,0.5c-0.2,0.2-0.4,0.3-0.5,0.4c-0.4,0-0.8,0-1.1,0l0.7-8.7
	c0.2-0.5,0.3-1.2,0.6-1.9c0.3-0.6,0.5-1.1,0.9-1.5c0.2-0.2,0.4-0.4,0.7-0.7c0.3-0.3,0.6-0.5,1-0.7c0.2,0,0.3,0.1,0.5,0.1
	C5.5,18.6,5.7,18.7,5.8,18.7 M3.1,5.7c0.2,0.4,0.4,0.8,0.6,1C3.9,7,4.2,7.2,4.5,7.3c0.3,0.1,0.6,0.2,1,0.2s0.8,0.1,1.3,0.1h9.4
	c1,0,1.8,0.1,2.4,0.2s1.2,0.3,1.5,0.6c0.4,0.3,0.7,0.6,0.8,1c0.2,0.4,0.2,0.9,0.2,1.4s-0.1,1.1-0.2,1.7c-0.2,0.6-0.3,1.3-0.5,2
	c0,2.2,0.1,4.3,0.3,6c0.2,1.8,0.4,3.3,0.6,4.6l0.2,1.8c0.1,0.5,0.1,1,0.1,1.3s0,0.5-0.1,0.7s-0.2,0.4-0.3,0.5
	c-0.3,0.4-0.6,0.9-0.9,1.3s-0.6,0.9-0.8,1.3c-0.4,0-0.8,0-1.3,0c-0.1-0.4-0.1-0.8-0.1-1.3c-0.1-1.2-0.2-2.4-0.3-3.6
	c0-0.5,0-1.1,0-1.6c0-1.3,0-2.5,0-3.4c0-1.4,0-2.8,0.1-4.2c0-0.5,0-0.9,0-1.2c0-0.4,0-0.8,0-1.1s0-0.7,0-1.1c0-0.4,0-0.7-0.1-0.9
	c0-0.2-0.1-0.4-0.3-0.6c-0.2-0.2-0.4-0.3-0.7-0.3c-0.3-0.1-0.7-0.1-1.3-0.1H5.2c-0.5,0-1.1,0-1.6-0.1c-0.5,0-0.9-0.1-1.4-0.3
	c-0.4-0.2-0.7-0.4-1-0.7c-0.2-0.3-0.3-0.7-0.3-1.2c0-0.2,0-0.4,0-0.7C1,9.3,1,9,1.1,8.6s0.2-0.8,0.4-1.3s0.3-1,0.5-1.5
	c0.2-0.1,0.3-0.1,0.5-0.2C2.7,5.7,2.9,5.7,3.1,5.7z M40,38.2c0,0.2,0,0.3,0,0.4v0.3c0,0.4,0,0.7,0.1,1c0,0.3,0.1,0.6,0.2,0.8
	c0.1,0.2,0.2,0.4,0.3,0.6c0.1,0.2,0.2,0.3,0.3,0.5s0.3,0.4,0.4,0.6c0.1,0.2,0.2,0.5,0.2,0.8c0,0.5-0.2,0.9-0.5,1.3
	c-0.3,0.4-0.8,0.6-1.4,0.6c-0.6,0-1.1-0.2-1.4-0.6c-0.3-0.4-0.5-0.8-0.5-1.3c0-0.3,0.1-0.6,0.2-0.8c0.1-0.2,0.2-0.4,0.4-0.6
	c0.1-0.1,0.2-0.3,0.3-0.5s0.2-0.4,0.3-0.6c0.1-0.2,0.1-0.5,0.2-0.8c0-0.3,0.1-0.7,0.1-1v-0.3c0-0.1,0-0.2,0-0.4h-3.6l0.2-2.1h8.1
	l-0.2,2.1C43.3,38.2,40,38.2,40,38.2z M43.8,12.4c-1.1,0-1.9,0.3-2.3,0.8c-0.4,0.5-0.7,1.4-0.7,2.5c0,0.8,0,1.6,0.1,2.4
	c0,0.8,0.1,1.6,0.2,2.4c0.1,0.8,0.1,1.6,0.2,2.4c0.1,0.8,0.2,1.5,0.3,2.2c0.1,0.6,0.2,1.2,0.3,1.8c0.1,0.6,0.1,1,0.1,1.3
	c0,0.4-0.1,0.8-0.4,1.1c-0.7,0.9-1.3,1.8-1.9,2.7c-0.4,0-0.8,0-1.3,0c-0.1-1.1-0.2-2.2-0.2-3.3c0-1.2-0.1-2.5-0.1-3.9
	c0-2.3,0-4.7,0.1-7c0-1.1,0.1-2.1,0.1-3s0.1-1.6,0.1-2.2h-9.8c-0.5,0-1.1,0-1.6-0.1c-0.5,0-0.9-0.1-1.4-0.3c-0.4-0.2-0.7-0.4-1-0.7
	c-0.2-0.3-0.4-0.7-0.4-1.3c0-0.1,0-0.4,0.1-0.6c0.1-0.3,0.1-0.6,0.2-1s0.2-0.8,0.4-1.3c0.1-0.5,0.3-1,0.5-1.5
	c0.2-0.1,0.3-0.1,0.5-0.2c0.2,0,0.3,0,0.5,0c0.2,0.4,0.4,0.8,0.6,1c0.2,0.3,0.5,0.4,0.8,0.6c0.3,0.1,0.6,0.2,1,0.2s0.8,0.1,1.3,0.1
	h14.6c0.1,0,0.1,0.1,0.1,0.2c-0.4,1.5-0.8,3-1.1,4.5C44,12.4,43.9,12.4,43.8,12.4L43.8,12.4z M54,32.1c0-0.3-0.1-0.7-0.1-1.3
	c0-0.6-0.1-1.1-0.1-1.8c0-0.6-0.1-1.3-0.1-1.9c0-0.5,0-1.1,0-1.6c0-2.3,0.1-4.6,0.2-7c0.1-0.8,0.1-1.6,0.2-2.2
	c0-0.6,0.1-1.3,0.1-1.9c0-0.2-0.1-0.4-0.2-0.6c-0.1-0.2-0.3-0.3-0.4-0.4c-0.2-0.1-0.4-0.2-0.6-0.2c-0.2-0.1-0.5-0.1-0.7-0.2
	c-0.5-0.2-1.1-0.3-1.6-0.5c-0.4-0.1-0.8-0.3-1.2-0.5c-0.3-0.2-0.6-0.4-0.8-0.7s-0.3-0.6-0.3-1c0-0.2,0-0.5,0.2-0.9
	C48.7,9,48.8,8.6,49,8.1s0.3-0.9,0.5-1.4s0.4-0.8,0.6-1.2c0.1-0.1,0.3-0.1,0.5-0.1s0.4,0,0.6,0c0.1,0.4,0.2,0.7,0.4,0.9
	s0.4,0.4,0.7,0.6s0.6,0.3,1,0.4s0.9,0.3,1.5,0.4c0.5,0.1,0.9,0.3,1.3,0.4c0.3,0.1,0.6,0.2,0.8,0.4c-0.2,0.3,0,0.5,0,0.6
	C57,9.3,57,9.4,57,9.6c0,0.1,0,0.3-0.1,0.6c-0.1,0.9-0.3,1.9-0.4,2.8c-0.1,0.7-0.1,1.7-0.1,2.8c0,1.6,0.1,3.2,0.2,4.8
	c0.1,1.6,0.3,3.1,0.5,4.5c0.1,0.6,0.2,1.2,0.2,1.8c0.1,0.6,0.1,1,0.1,1.3s0,0.5-0.1,0.7s-0.2,0.3-0.3,0.5c-0.3,0.4-0.7,0.9-1,1.4
	c-0.3,0.4-0.6,0.9-0.9,1.3C54.9,32.1,54.4,32.1,54,32.1L54,32.1z M48.2,19.8c0-0.5,0.2-1,0.5-1.3c0.4-0.4,0.8-0.5,1.3-0.5
	s1,0.2,1.3,0.5c0.4,0.4,0.5,0.8,0.5,1.3s-0.2,1-0.5,1.3c-0.4,0.4-0.8,0.5-1.3,0.5s-1-0.2-1.3-0.5C48.3,20.8,48.2,20.3,48.2,19.8z
	 M67.3,18.7c-0.1,0.4-0.2,0.7-0.3,1c-0.1,0.5-0.2,1.1-0.3,1.6c0,0.3,0,0.5-0.1,0.8l-0.2,7c0,0.1,0,0.3,0,0.4s-0.1,0.2-0.2,0.3
	c-0.2,0.2-0.5,0.4-0.8,0.6s-0.5,0.4-0.7,0.6s-0.5,0.4-0.7,0.5c-0.2,0.2-0.4,0.3-0.5,0.4c-0.4,0-0.8,0-1.1,0l0.7-8.7
	c0.1-0.7,0.2-1.4,0.5-2.1c0.3-0.6,0.5-1.1,0.9-1.5c0.2-0.2,0.4-0.4,0.7-0.7c0.3-0.3,0.6-0.5,1-0.7c0.2,0,0.3,0.1,0.5,0.1
	C67,18.6,67.2,18.7,67.3,18.7L67.3,18.7z M64.5,5.7c0.2,0.4,0.4,0.8,0.6,1c0.3,0.3,0.5,0.5,0.8,0.6s0.6,0.2,1,0.2s0.8,0.1,1.3,0.1
	h9.4c1,0,1.8,0.1,2.4,0.2s1.2,0.3,1.6,0.6s0.7,0.6,0.8,1c0.2,0.4,0.2,0.9,0.2,1.4s-0.1,1.1-0.2,1.7c-0.2,0.6-0.3,1.3-0.5,2
	c0,2.2,0.1,4.3,0.3,6c0.2,1.8,0.4,3.3,0.6,4.6l0.3,1.8c0.1,0.5,0.1,1,0.1,1.3s0,0.5-0.1,0.7s-0.2,0.4-0.3,0.5
	c-0.3,0.4-0.6,0.9-0.9,1.3s-0.6,0.9-0.8,1.3c-0.4,0-0.8,0-1.3,0c-0.1-0.4-0.1-0.8-0.1-1.3c-0.1-1.2-0.2-2.4-0.3-3.6
	c0-0.5,0-1.1,0-1.6c0-1.3,0-2.5,0-3.4c0-1.4,0-2.8,0.1-4.2c0-0.5,0-0.9,0-1.2c0-0.4,0-0.8,0-1.1s0-0.7,0-1.1c0-0.4,0-0.7-0.1-0.9
	c0-0.2-0.1-0.4-0.3-0.6c-0.2-0.2-0.4-0.3-0.7-0.3c-0.3-0.1-0.7-0.1-1.3-0.1H66.6c-0.5,0-1.1,0-1.6-0.1c-0.5,0-0.9-0.1-1.4-0.3
	c-0.4-0.2-0.7-0.4-1-0.7c-0.2-0.3-0.4-0.7-0.4-1.3c0-0.1,0-0.4,0.1-0.6c0.1-0.3,0.1-0.6,0.2-1c0.1-0.4,0.2-0.8,0.4-1.3
	s0.3-1,0.5-1.5c0.2-0.1,0.3-0.1,0.5-0.2C64.2,5.7,64.4,5.7,64.5,5.7L64.5,5.7z M88.8,43.1c0-0.5,0.2-1,0.5-1.3
	c0.4-0.4,0.8-0.5,1.3-0.5s1,0.2,1.3,0.5c0.4,0.4,0.5,0.8,0.5,1.3s-0.2,1-0.5,1.3c-0.4,0.4-0.8,0.5-1.3,0.5s-1-0.2-1.3-0.5
	S88.8,43.7,88.8,43.1L88.8,43.1z M88.8,37.3c0-0.5,0.2-1,0.5-1.3c0.4-0.4,0.8-0.5,1.3-0.5s1,0.2,1.3,0.5c0.4,0.4,0.5,0.8,0.5,1.3
	s-0.2,1-0.5,1.3c-0.4,0.4-0.8,0.5-1.3,0.5s-1-0.2-1.3-0.5S88.8,37.9,88.8,37.3z M88.5,5.3c0.1,0.4,0.2,0.7,0.3,1
	c0.1,0.3,0.3,0.5,0.6,0.7s0.6,0.3,1,0.5c0.4,0.1,0.9,0.3,1.5,0.5c0.5,0.2,1,0.3,1.5,0.5s0.9,0.3,1.2,0.5c0.3,0.2,0.5,0.4,0.7,0.7
	s0.2,0.6,0.2,1c0,0.9-0.2,2.2-0.7,3.9s-1.2,3.8-2.3,6.2c-0.5-0.1-1.1-0.3-1.6-0.5c0.2-0.5,0.3-1.1,0.4-1.6s0.2-1.1,0.3-1.5
	c0.1-0.5,0.2-0.9,0.2-1.3s0.1-0.7,0.1-1c0-0.2,0-0.4-0.1-0.6c-0.1-0.2-0.2-0.3-0.3-0.5c-0.2-0.2-0.4-0.3-0.6-0.4
	c-0.3-0.1-0.6-0.3-0.9-0.4c-0.6-0.2-1.2-0.4-1.7-0.6c-0.4-0.1-0.9-0.3-1.3-0.6c-0.3-0.2-0.6-0.4-0.8-0.7c-0.2-0.3-0.3-0.6-0.3-1
	c0-0.3,0-0.6,0.1-1s0.2-0.8,0.4-1.3c0.1-0.4,0.3-0.9,0.5-1.3s0.3-0.8,0.5-1.1c0.1-0.1,0.3-0.1,0.5-0.1C88.2,5.3,88.3,5.3,88.5,5.3z
	 M98.8,21.5c-0.1-1.2-0.1-2.3,0-3.5h11.9c0,1.2,0,2.3,0,3.5H98.8L98.8,21.5z M118.3,40.6c-0.4,0-0.8,0-1.3,0c0-0.7-0.1-1.6-0.2-2.5
	c-0.1-1-0.1-1.9-0.2-2.9c0-1-0.1-2.1-0.1-3.1s0-2.1,0-3.1c0-1.4,0-2.7,0-3.7s0.1-1.9,0.1-2.7c0.1-0.8,0.1-1.5,0.2-2.1
	s0.3-1.2,0.4-1.8c0.2-0.6,0.4-1.2,0.7-1.8c0.3-0.6,0.6-1.4,1-2.3c0.1-0.1,0.1-0.2,0.1-0.3s0-0.1,0-0.2c0-0.2-0.1-0.4-0.3-0.6
	c-0.2-0.1-0.7-0.3-1.4-0.5c-0.5-0.1-1-0.3-1.5-0.4c-0.4-0.1-0.8-0.3-1.1-0.5c-0.3-0.2-0.5-0.4-0.7-0.6c-0.2-0.2-0.2-0.5-0.2-0.9
	c0-0.2,0.1-0.5,0.1-0.9c0.1-0.4,0.2-0.8,0.4-1.3c0.2-0.5,0.3-0.9,0.5-1.4s0.4-0.8,0.6-1.2c0.1-0.1,0.3-0.1,0.5-0.1s0.4,0,0.6,0
	c0.1,0.4,0.2,0.7,0.4,0.9c0.1,0.2,0.3,0.4,0.5,0.6s0.5,0.3,0.9,0.4s0.8,0.3,1.4,0.4c0.6,0.2,1.1,0.4,1.5,0.5c0.4,0.2,0.7,0.4,1,0.5
	c0.2,0.2,0.4,0.4,0.5,0.6c0.1,0.2,0.1,0.4,0.1,0.6c0,0.4-0.1,1-0.3,1.5c-0.3,0.7-0.5,1.4-0.8,2c-0.4,0.8-0.7,1.5-1,2.3
	c-0.3,0.7-0.5,1.4-0.7,2.1c-0.2,0.7-0.3,1.4-0.4,2.1s-0.1,1.5-0.1,2.2c0,0.8,0,1.7,0.1,2.7s0.1,2.1,0.3,3.2c0.1,1.2,0.2,2.4,0.4,3.7
	c0.1,1.3,0.3,2.6,0.4,3.9c0,0.2,0.1,0.4,0.1,0.6c0,0.2,0,0.4,0,0.5c0,0.3,0,0.5-0.1,0.7s-0.2,0.3-0.3,0.5l-1,1.2
	C118.9,39.8,118.6,40.2,118.3,40.6L118.3,40.6z M140.6,37.3c0,0.5-0.2,1-0.5,1.3c-0.4,0.4-0.8,0.5-1.3,0.5s-1-0.2-1.3-0.5
	c-0.4-0.4-0.5-0.8-0.5-1.3s0.2-1,0.5-1.3c0.4-0.4,0.8-0.5,1.3-0.5s1,0.2,1.3,0.5C140.4,36.4,140.6,36.8,140.6,37.3L140.6,37.3z
	 M137.4,42.9c0,0.5-0.2,1-0.5,1.3c-0.4,0.4-0.8,0.5-1.3,0.5s-1-0.2-1.3-0.5c-0.4-0.4-0.5-0.8-0.5-1.3s0.2-1,0.5-1.3
	c0.4-0.4,0.8-0.5,1.3-0.5s1,0.2,1.3,0.5S137.4,42.4,137.4,42.9z M134.2,37.3c0,0.5-0.2,1-0.5,1.3c-0.4,0.4-0.8,0.5-1.3,0.5
	s-1-0.2-1.3-0.5c-0.4-0.4-0.5-0.8-0.5-1.3s0.2-1,0.5-1.3c0.4-0.4,0.8-0.5,1.3-0.5s1,0.2,1.3,0.5C134,36.4,134.2,36.8,134.2,37.3z
	 M133.1,19.8c0-0.5,0.2-1,0.5-1.3c0.4-0.4,0.8-0.5,1.3-0.5s1,0.2,1.3,0.5c0.4,0.4,0.5,0.8,0.5,1.3s-0.2,1-0.5,1.3
	c-0.4,0.4-0.8,0.5-1.3,0.5s-1-0.2-1.3-0.5C133.2,20.8,133.1,20.3,133.1,19.8z M128.8,5.7c0.2,0.4,0.4,0.8,0.6,1
	c0.2,0.2,0.5,0.4,0.8,0.6c0.3,0.1,0.6,0.2,1,0.2s0.8,0.1,1.3,0.1h6.5c1,0,1.8,0.1,2.4,0.3c0.6,0.2,1.2,0.5,1.5,0.9
	c0.4,0.4,0.6,0.8,0.8,1.4c0.2,0.5,0.2,1.1,0.2,1.7c0,0.5,0,1,0,1.5s-0.1,0.9-0.1,1.4s-0.1,1-0.1,1.5c0,0.6,0,1.1,0,1.7
	c0,0.2,0,0.5,0,0.9s0,0.9,0,1.4s0.1,1.1,0.1,1.7s0.1,1.2,0.2,1.7c0.1,0.6,0.2,1.1,0.3,1.5c0.1,0.5,0.3,0.8,0.5,1
	c0.2,0.3,0.6,0.5,0.9,0.6c0.4,0.1,0.8,0.1,1.4,0.1c0.1,0,0.1,0,0.1,0.1c-0.2,0.7-0.5,1.5-0.7,2.2s-0.4,1.4-0.6,2.2
	c0,0.1,0,0.1-0.1,0.1h-0.1h-14.9c-0.5,0-1,0-1.4,0s-0.8,0-1.2,0.1c-0.4,0-0.7,0.1-1,0.2s-0.7,0.2-1,0.4c-0.2,0-0.3-0.1-0.5-0.1
	c-0.2-0.1-0.3-0.1-0.4-0.3c0.1-0.5,0.3-1.1,0.5-1.8s0.5-1.3,0.7-2c0.2-0.4,0.5-0.8,1-1.1c0.5-0.3,1.2-0.4,2.2-0.4h11.7
	c-0.1-0.8-0.2-1.5-0.2-2.3c0-0.7-0.1-1.4-0.1-2.2c0-0.6,0-1.1,0-1.8c0-0.6,0.1-1.2,0.1-1.8c0-0.6,0.1-1.1,0.1-1.6s0-0.9,0-1.3
	c0-0.4,0-0.8-0.1-1.2s-0.3-0.7-0.5-0.9c-0.3-0.3-0.6-0.5-1.1-0.6c-0.4-0.1-1-0.2-1.7-0.2h-7c-0.5,0-1.1,0-1.6-0.1
	c-0.5,0-0.9-0.1-1.4-0.3c-0.4-0.2-0.7-0.4-1-0.7c-0.2-0.3-0.4-0.7-0.4-1.3c0-0.1,0-0.4,0.1-0.6c0.1-0.3,0.1-0.6,0.2-1
	s0.2-0.8,0.4-1.3s0.3-1,0.5-1.5c0.2-0.1,0.3-0.1,0.5-0.2C128.5,5.7,128.7,5.7,128.8,5.7z M171.7,14.8c0.3-1.1,0.6-2.2,1-3.3
	c0.2-0.6,0.4-1.2,0.6-1.8c0.2-0.6,0.4-1.1,0.6-1.5c0.2-0.4,0.5-0.7,0.9-0.9c0.3-0.2,0.7-0.5,1.1-0.6c0.7-0.3,1.5-0.5,2.2-0.5
	c0.9,0,1.7,0.1,2.4,0.4s1.3,0.7,1.9,1.2c0.5,0.5,1,1.1,1.4,1.7c0.4,0.7,0.7,1.4,0.9,2.1c0.2,0.7,0.4,1.5,0.5,2.3s0.2,1.5,0.2,2.3
	s-0.1,1.6-0.2,2.5c-0.1,0.9-0.3,1.8-0.5,2.6c-0.2,0.9-0.5,1.8-0.8,2.6c-0.3,0.8-0.7,1.6-1.2,2.4c-0.4,0.7-0.9,1.4-1.5,2
	c-0.5,0.6-1.2,1-1.9,1.4c-0.6,0.3-1.2,0.5-1.9,0.8c-0.7,0.2-1.5,0.5-2.3,0.7s-1.6,0.4-2.4,0.6c-0.8,0.2-1.7,0.4-2.5,0.6
	c-0.3,0-0.5-0.1-0.8-0.2c-0.2-0.1-0.5-0.2-0.7-0.3c-0.6-0.9-1.2-2-1.7-3.3c-0.5-1.2-1-2.5-1.3-3.7c-0.4-1.2-0.7-2.3-0.9-3.5
	c-0.2-1.1-0.3-2-0.3-2.7c0-0.4,0-0.7,0.1-1.2c0.1-0.4,0.2-0.8,0.3-1.3c0.1-0.4,0.3-0.8,0.4-1.2l0.4-1c0.1-0.1,0.1-0.3,0.1-0.4
	c0-0.2-0.1-0.3-0.3-0.5c-0.2-0.1-0.5-0.3-1-0.6c-0.4-0.2-0.7-0.4-1.1-0.6c-0.3-0.2-0.6-0.3-0.8-0.5s-0.4-0.4-0.5-0.6
	c-0.1-0.2-0.2-0.5-0.2-0.7s0.1-0.6,0.2-0.9c0.1-0.4,0.3-0.8,0.6-1.2c0.2-0.4,0.5-0.8,0.7-1.2c0.3-0.4,0.5-0.8,0.8-1.1
	c0.1,0,0.3,0,0.5,0c0.1,0,0.2,0,0.3,0s0.2,0,0.2,0.1c0,0.2,0.1,0.4,0.1,0.6c0.1,0.2,0.2,0.3,0.4,0.5s0.4,0.3,0.8,0.5
	c0.3,0.2,0.8,0.4,1.4,0.7c0.7,0.3,1.2,0.6,1.5,0.9c0.4,0.3,0.5,0.6,0.5,0.9c0,0.2-0.1,0.5-0.2,0.9c-0.2,0.3-0.3,0.7-0.6,1.2
	l-0.5,1.1c-0.2,0.4-0.4,0.9-0.6,1.3c-0.2,0.5-0.3,0.9-0.5,1.4c-0.1,0.5-0.2,1-0.2,1.5c0,0.4,0.1,0.9,0.2,1.5
	c0.1,0.6,0.3,1.2,0.5,1.9c0.4,1.3,0.9,2.6,1.5,3.9c0.3,0.6,0.5,1.1,0.8,1.6s0.5,0.8,0.8,1c0.7-0.1,1.5-0.3,2.2-0.4
	c0.8-0.2,1.7-0.4,2.5-0.6s1.6-0.5,2.4-0.7c0.7-0.3,1.3-0.5,1.6-0.8c1-0.8,1.7-1.8,2.2-3s0.8-2.5,0.8-3.7c0-0.9-0.1-1.7-0.3-2.5
	c-0.2-0.7-0.6-1.4-1-2.1c-0.5-0.6-1.1-1.1-1.7-1.4c-0.7-0.4-1.5-0.5-2.4-0.5c-0.3,0-0.7,0.1-1.1,0.1c-0.4,0.1-0.8,0.3-1.2,0.6
	s-0.8,0.7-1.1,1.2c-0.4,0.5-0.7,1.1-1,1.9c-0.2,0-0.4-0.1-0.6-0.2C172,15,171.9,14.9,171.7,14.8L171.7,14.8z M197.5,43.1
	c0-0.5,0.2-1,0.5-1.3c0.4-0.4,0.8-0.5,1.3-0.5s1,0.2,1.3,0.5c0.4,0.4,0.5,0.8,0.5,1.3s-0.2,1-0.5,1.3c-0.4,0.4-0.8,0.5-1.3,0.5
	s-1-0.2-1.3-0.5S197.5,43.7,197.5,43.1z M197.5,37.3c0-0.5,0.2-1,0.5-1.3c0.4-0.4,0.8-0.5,1.3-0.5s1,0.2,1.3,0.5
	c0.4,0.4,0.5,0.8,0.5,1.3s-0.2,1-0.5,1.3c-0.4,0.4-0.8,0.5-1.3,0.5s-1-0.2-1.3-0.5S197.5,37.9,197.5,37.3z M194.2,17.3
	c-0.2,0.7-0.3,1.5-0.3,2.3c-0.1,0.7-0.1,1.5-0.1,2.3c0,1.7,0.1,3.7,0.1,6.1c0.1,2.4,0.3,5,0.6,7.9c0.1,0.4,0.1,0.8,0.1,1.2
	c0,0.2,0,0.4-0.1,0.6c-0.1,0.2-0.2,0.4-0.3,0.5c-0.7,0.8-1.4,1.5-2,2.4c-0.4,0-0.8,0-1.2,0c0-0.2,0-0.5,0-0.7c0-1,0-2,0-3v-2
	c0-0.9,0-2,0-3.3s0-2.5,0-3.9c0-2.5,0.1-4.9,0.2-7.4c0-0.4,0.1-0.7,0.3-1c0.3-0.5,0.6-0.9,0.9-1.2c0.3-0.3,0.6-0.7,1-1.1
	C193.6,17.1,193.9,17.2,194.2,17.3L194.2,17.3z M191.4,5.7c0.2,0.4,0.4,0.8,0.6,1c0.2,0.2,0.5,0.4,0.8,0.6c0.3,0.1,0.6,0.2,1,0.2
	s0.8,0.1,1.3,0.1h9.8c1.1,0,1.9,0.2,2.7,0.6c0.8,0.4,1.3,0.9,1.8,1.5c0.4,0.6,0.8,1.4,1,2.2c0.2,0.9,0.3,1.8,0.3,2.7
	c0,1.3-0.1,2.6-0.4,3.8c-0.2,1.2-0.6,2.4-1,3.5c-0.4,1-0.8,2-1.3,3c-0.5,0.9-1,1.6-1.4,2.2c-0.6,0.8-1.6,1.5-2.9,2.3
	c-1.3,0.7-2.9,1.6-4.8,2.5c-0.3,0-0.6-0.1-0.9-0.3c0.3-1.7,0.8-3.4,1.3-5c1.8-0.7,3.3-1.4,4.3-1.9c1.1-0.6,1.8-1.1,2.3-1.6
	c0.3-0.4,0.6-0.8,0.9-1.3c0.3-0.5,0.5-1,0.6-1.6c0.2-0.6,0.3-1.2,0.4-1.7c0.1-0.6,0.1-1.2,0.1-1.8c0-0.6-0.1-1.1-0.2-1.6
	c-0.1-0.5-0.3-0.9-0.6-1.3c-0.3-0.4-0.6-0.7-1-0.9s-0.9-0.3-1.5-0.3h-11c-0.5,0-1.1,0-1.6-0.1c-0.5,0-0.9-0.1-1.4-0.3
	c-0.4-0.2-0.7-0.4-1-0.7c-0.2-0.3-0.4-0.7-0.4-1.3c0-0.1,0-0.4,0.1-0.6c0.1-0.3,0.1-0.6,0.2-1c0.1-0.4,0.2-0.8,0.4-1.3
	c0.1-0.5,0.3-1,0.5-1.5c0.2-0.1,0.3-0.1,0.5-0.2C191.1,5.7,191.3,5.7,191.4,5.7L191.4,5.7z M222.6,37.3c0,0.5-0.2,1-0.5,1.3
	c-0.4,0.4-0.8,0.5-1.3,0.5s-1-0.2-1.3-0.5c-0.4-0.4-0.5-0.8-0.5-1.3s0.2-1,0.5-1.3c0.4-0.4,0.8-0.5,1.3-0.5s1,0.2,1.3,0.5
	C222.4,36.4,222.6,36.8,222.6,37.3z M216.3,37.3c0,0.5-0.2,1-0.5,1.3c-0.4,0.4-0.8,0.5-1.3,0.5s-1-0.2-1.3-0.5
	c-0.4-0.4-0.5-0.8-0.5-1.3s0.2-1,0.5-1.3c0.4-0.4,0.8-0.5,1.3-0.5s1,0.2,1.3,0.5C216.1,36.4,216.3,36.8,216.3,37.3L216.3,37.3z
	 M215.7,5.3c0.1,0.4,0.2,0.7,0.3,1s0.3,0.5,0.6,0.7s0.6,0.3,1,0.5s0.9,0.3,1.5,0.5c0.5,0.2,1,0.3,1.5,0.5c0.4,0.2,0.8,0.3,1.1,0.5
	s0.5,0.4,0.7,0.7s0.2,0.6,0.2,1c0,0.9-0.2,2.2-0.7,3.9s-1.2,3.8-2.3,6.2c-0.5-0.1-1.1-0.3-1.6-0.5c0.2-0.5,0.3-1.1,0.4-1.6
	c0.1-0.5,0.2-1.1,0.3-1.5c0.1-0.5,0.2-0.9,0.2-1.3s0.1-0.7,0.1-1c0-0.2,0-0.4-0.1-0.6c-0.1-0.2-0.2-0.3-0.3-0.5
	c-0.2-0.2-0.4-0.3-0.6-0.4c-0.3-0.1-0.6-0.3-0.9-0.4c-0.6-0.2-1.2-0.4-1.7-0.6c-0.4-0.1-0.9-0.3-1.3-0.6c-0.3-0.2-0.6-0.4-0.8-0.7
	s-0.3-0.6-0.3-1c0-0.3,0-0.6,0.1-1s0.2-0.8,0.4-1.3c0.1-0.4,0.3-0.9,0.5-1.3s0.3-0.8,0.5-1.1c0.1-0.1,0.3-0.1,0.5-0.1
	C215.3,5.3,215.5,5.3,215.7,5.3z M226,1.9c0-0.5,0.2-1,0.5-1.3c0.4-0.4,0.9-0.6,1.4-0.6s1,0.2,1.3,0.5c0.4,0.4,0.5,0.8,0.5,1.3
	s-0.2,1-0.5,1.3c-0.4,0.4-0.8,0.5-1.3,0.5s-1-0.2-1.3-0.5C226.2,2.8,226,2.4,226,1.9z M231,32.1c0-0.3-0.1-0.7-0.1-1.3
	c0-0.6-0.1-1.1-0.1-1.8c0-0.6-0.1-1.3-0.1-1.9c0-0.5,0-1.1,0-1.6c0-1.6,0-2.9,0.1-4c0-1.1,0.1-2.1,0.2-2.9l0.2-2.2
	c0-0.6,0.1-1.2,0.1-1.9c0-0.2-0.1-0.4-0.2-0.6c-0.1-0.2-0.3-0.3-0.4-0.4c-0.2-0.1-0.4-0.2-0.6-0.2c-0.2-0.1-0.5-0.1-0.7-0.2
	c-0.5-0.2-1.1-0.3-1.6-0.5c-0.4-0.1-0.8-0.3-1.2-0.5s-0.6-0.4-0.8-0.7s-0.3-0.6-0.3-1c0-0.2,0.1-0.5,0.1-0.9
	c0.1-0.4,0.2-0.8,0.4-1.3s0.3-0.9,0.5-1.4s0.4-0.8,0.6-1.2c0.1-0.1,0.3-0.1,0.5-0.1s0.4,0,0.6,0c0.1,0.4,0.2,0.7,0.4,0.9
	c0.2,0.2,0.4,0.4,0.6,0.6c0.3,0.2,0.6,0.3,1,0.4s0.9,0.3,1.5,0.4c0.5,0.1,0.9,0.3,1.3,0.4c0.3,0.1,0.6,0.2,0.8,0.4
	c0.2,0.1,0.3,0.3,0.4,0.4c0.1,0.2,0.1,0.3,0.1,0.5c0,0.1,0,0.3-0.1,0.6c-0.1,0.9-0.3,1.9-0.4,2.8c-0.1,0.7-0.1,1.7-0.1,2.8
	c0,1.6,0.1,3.2,0.2,4.8c0.1,1.6,0.3,3.1,0.5,4.5c0.1,0.6,0.2,1.2,0.2,1.8c0.1,0.6,0.1,1,0.1,1.3s0,0.5-0.1,0.7s-0.2,0.3-0.3,0.5
	c-0.3,0.5-0.7,0.9-1,1.4s-0.6,0.9-0.9,1.3C231.8,32.1,231.4,32.1,231,32.1L231,32.1z M239.3,5.7c0.2,0.4,0.4,0.8,0.6,1
	c0.2,0.2,0.5,0.4,0.8,0.6c0.3,0.1,0.6,0.2,1,0.3c0.4,0,0.8,0.1,1.3,0.1h6.8c1,0,1.8,0.1,2.6,0.3s1.5,0.5,2.1,1s1.1,1.1,1.4,1.8
	s0.5,1.6,0.5,2.7c0,0.4,0,0.9-0.1,1.3c0,0.4-0.1,0.7-0.1,1.2c0,0.4,0,0.9,0,1.6c0,1.3,0.1,2.7,0.2,4c0.2,1.3,0.3,2.6,0.5,3.8
	c0.1,0.6,0.2,1.2,0.3,1.8c0.1,0.5,0.1,1,0.1,1.3s0,0.5-0.1,0.7s-0.2,0.4-0.3,0.5c-0.7,0.9-1.3,1.8-2,2.7c-0.4,0-0.8,0-1.3,0
	c0-0.3-0.1-0.7-0.1-1.3c0-0.5-0.1-1.1-0.1-1.8c-0.1-1.2-0.1-2.3-0.1-3.5c0-1.4,0-2.6,0-3.5s0-1.6,0.1-2.2c0-0.6,0-1.1,0.1-1.6
	c0-0.4,0.1-0.9,0.1-1.5c0-1.3-0.3-2.3-1-3s-1.9-1.1-3.5-1.1h-8c-0.5,0-1.1,0-1.6-0.1c-0.5,0-0.9-0.1-1.3-0.3
	c-0.4-0.1-0.7-0.4-0.9-0.7s-0.4-0.7-0.4-1.3c0-0.1,0-0.4,0.1-0.6c0.1-0.3,0.1-0.6,0.2-1c0.3-1,0.6-1.9,0.9-2.8
	c0.2-0.1,0.3-0.1,0.5-0.2C238.9,5.7,239.1,5.7,239.3,5.7L239.3,5.7z M268.5,43.1c0-0.5,0.2-1,0.5-1.3c0.4-0.4,0.8-0.5,1.3-0.5
	s1,0.2,1.3,0.5c0.4,0.4,0.5,0.8,0.5,1.3s-0.2,1-0.5,1.3c-0.4,0.4-0.8,0.5-1.3,0.5s-1-0.2-1.3-0.5C268.6,44.1,268.5,43.7,268.5,43.1z
	 M268.5,37.3c0-0.5,0.2-1,0.5-1.3c0.4-0.4,0.8-0.5,1.3-0.5s1,0.2,1.3,0.5c0.4,0.4,0.5,0.8,0.5,1.3s-0.2,1-0.5,1.3
	c-0.4,0.4-0.8,0.5-1.3,0.5s-1-0.2-1.3-0.5C268.6,38.3,268.5,37.9,268.5,37.3z M271.8,20.1c0-0.5,0.2-1,0.5-1.3
	c0.4-0.4,0.8-0.5,1.3-0.5s1,0.2,1.3,0.5c0.4,0.4,0.5,0.8,0.5,1.3s-0.2,1-0.5,1.3c-0.4,0.4-0.8,0.5-1.3,0.5s-1-0.2-1.3-0.5
	S271.8,20.6,271.8,20.1z M268.9,22.3c-1.4-0.3-2.5-0.5-3.4-0.8s-1.5-0.6-2-1c-0.5-0.3-0.8-0.7-1-1.1c-0.2-0.5-0.3-0.9-0.3-1.4
	c0-0.4,0.1-0.8,0.2-1.3s0.4-1,0.6-1.5s0.5-1.1,0.9-1.7c0.4-0.6,0.7-1.2,1.1-1.8c-0.5-0.2-1-0.5-1.2-0.8c-0.3-0.3-0.4-0.7-0.4-1.2
	c0-0.2,0-0.5,0.1-0.9s0.2-0.8,0.4-1.2c0.1-0.4,0.3-0.8,0.5-1.3c0.2-0.4,0.4-0.8,0.6-1.2c0.1-0.1,0.3-0.1,0.5-0.1s0.4,0,0.6,0
	c0.1,0.3,0.3,0.6,0.4,0.9s0.4,0.5,0.7,0.6c0.3,0.2,0.7,0.3,1.2,0.5c0.5,0.1,1.2,0.3,2,0.4c1,0.2,2,0.3,3.2,0.5
	c1.1,0.2,2.4,0.3,3.8,0.5c0.7,0.1,1.2,0.4,1.7,0.9s0.8,1.3,1.1,2.2c0.3,1,0.5,2.1,0.6,3.5s0.2,2.9,0.2,4.6c0,1.3-0.1,2.7-0.2,4
	c-0.1,0.7-0.2,1.5-0.3,2.2c-0.1,0.7-0.2,1.4-0.4,2.1c-0.1,0.7-0.3,1.3-0.5,1.9c-0.1,0.5-0.3,1-0.5,1.4c-0.1,0.2-0.2,0.2-0.4,0.2
	h-13.1c-0.6,0-1.1,0-1.5,0s-0.8,0-1.2,0.1c-0.4,0-0.7,0.1-1.1,0.2s-0.7,0.2-1,0.4c-0.2,0-0.3-0.1-0.5-0.2c-0.1-0.1-0.3-0.2-0.4-0.3
	c0.2-0.5,0.5-1.1,0.8-1.7s0.6-1.3,1-2c0.3-0.4,0.6-0.8,1.1-1c0.5-0.3,1.3-0.4,2.3-0.4h10.2c0.6,0,1.1-0.2,1.5-0.5
	c0.4-0.4,0.7-0.8,0.9-1.4c0.2-0.7,0.4-1.3,0.4-2c0.1-0.8,0.1-1.6,0.1-2.4c0-2.1-0.3-3.7-0.8-4.9s-1.3-1.8-2.4-2
	c-0.9-0.1-1.8-0.3-2.7-0.4c-1.5-0.2-2.9-0.4-4.4-0.6c-0.5-0.1-0.8-0.1-0.9-0.1c-0.1,0.1-0.2,0.2-0.3,0.4c-0.3,0.4-0.5,0.9-0.6,1.4
	c-0.1,0.3-0.1,0.5-0.1,0.8c0,0.5,0.1,0.9,0.3,1.2c0.2,0.3,0.5,0.5,0.8,0.7c0.4,0.2,0.8,0.3,1.3,0.5c0.5,0.1,1.1,0.3,1.8,0.4
	L268.9,22.3L268.9,22.3z"/>
<path d="M3.4,56.1c-0.2,0-0.4,0-0.5,0c-0.2,0-0.3,0-0.4,0c-0.1,0-0.3,0-0.4-0.1c-0.1,0-0.3-0.1-0.5-0.2c0.1-0.2,0.1-0.3,0.2-0.5
	S1.9,55,2,54.8C2.1,55,2.3,55,2.4,55c0.1,0,0.3,0.1,0.4,0.1c0.1,0,0.3,0,0.4,0c0.1,0,0.3,0,0.5,0h0.2c0.3,0,0.5,0,0.8,0.1
	s0.5,0.2,0.7,0.3C5.7,55.7,5.8,56,6,56.3c0.1,0.3,0.2,0.7,0.2,1.1V61h1.2v1H1.2v-1H5v-3.4c0-0.3,0-0.5-0.1-0.7
	c0-0.2-0.1-0.3-0.2-0.4c-0.1-0.1-0.2-0.2-0.4-0.2c-0.2,0-0.4-0.1-0.7-0.1L3.4,56.1L3.4,56.1z"/>
<path d="M9.1,58.3c0-0.2,0-0.4,0-0.6c0-0.2,0-0.4,0-0.5c0-0.2,0.1-0.3,0.1-0.5s0.1-0.4,0.2-0.6c-0.1,0-0.3,0-0.4-0.1
	c-0.1,0-0.3-0.1-0.5-0.2c0.1-0.2,0.1-0.3,0.2-0.5c0.1-0.2,0.1-0.3,0.2-0.5C9,55,9.2,55,9.3,55s0.3,0.1,0.4,0.1c0.1,0,0.3,0,0.4,0
	c0.1,0,0.3,0,0.5,0h1.6c0.3,0,0.5,0,0.8,0.1s0.5,0.2,0.7,0.3c0.2,0.2,0.4,0.4,0.5,0.7s0.2,0.7,0.2,1.1V62h-1.1v-4.4
	c0-0.3,0-0.5-0.1-0.7c0-0.2-0.1-0.3-0.2-0.4c-0.1-0.1-0.2-0.2-0.4-0.2s-0.4-0.1-0.6-0.1h-1.6c-0.1,0.2-0.2,0.4-0.2,0.5
	c0,0.2-0.1,0.4-0.1,0.5c0,0.2,0,0.3,0,0.5s0,0.3,0,0.5V62h-1V58.3z"/>
<path d="M18,56.1c-0.2,0-0.4,0-0.5,0c-0.2,0-0.3,0-0.4,0s-0.3,0-0.4-0.1c-0.1,0-0.3-0.1-0.5-0.2c0.1-0.2,0.1-0.3,0.2-0.5
	s0.1-0.3,0.2-0.5C16.7,55,16.8,55,17,55c0.1,0,0.3,0.1,0.4,0.1s0.3,0,0.4,0s0.3,0,0.5,0h0.6c0.3,0,0.5,0,0.8,0.1s0.5,0.2,0.7,0.3
	c0.2,0.2,0.4,0.4,0.5,0.7s0.2,0.7,0.2,1.2V62H20v-4.4c0-0.3,0-0.5-0.1-0.7c0-0.2-0.1-0.3-0.2-0.4c-0.1-0.1-0.2-0.2-0.4-0.2
	c-0.2,0-0.4-0.1-0.6-0.1L18,56.1L18,56.1z"/>
<path d="M24.8,56.1c-0.2,0-0.4,0-0.5,0c-0.2,0-0.3,0-0.4,0s-0.3,0-0.4-0.1c-0.1,0-0.3-0.1-0.5-0.2c0.1-0.2,0.1-0.3,0.2-0.5
	s0.1-0.3,0.2-0.5c0.2,0.1,0.3,0.1,0.5,0.1c0.1,0,0.3,0.1,0.4,0.1s0.3,0,0.4,0s0.3,0,0.5,0h1.3c0.3,0,0.5,0,0.8,0.1s0.5,0.2,0.7,0.4
	s0.4,0.4,0.5,0.7s0.2,0.7,0.2,1.2V62h-1.1v-4.4c0-0.3,0-0.5-0.1-0.7c0-0.2-0.1-0.3-0.2-0.4c-0.1-0.1-0.2-0.2-0.4-0.2
	c-0.2,0-0.4-0.1-0.7-0.1L24.8,56.1L24.8,56.1z M23.1,59.9c0-0.2,0-0.4,0-0.5s0-0.3,0-0.4c0-0.1,0-0.3,0.1-0.4c0-0.1,0.1-0.3,0.1-0.5
	c0.2,0,0.4,0.1,0.6,0.1s0.4,0.1,0.6,0.1c0,0.2,0,0.3-0.1,0.4c0,0.1,0,0.2,0,0.4c0,0.1,0,0.3,0,0.4s0,0.3,0,0.5v2h-1.1v-2.1H23.1z"/>
<path d="M35.8,56.1c-0.2,0-0.4,0-0.5,0c-0.2,0-0.3,0-0.4,0c-0.1,0-0.3,0-0.4-0.1c-0.1,0-0.3-0.1-0.5-0.2c0.1-0.2,0.1-0.3,0.2-0.5
	c0.1-0.2,0.1-0.3,0.2-0.5c0.2,0.1,0.3,0.1,0.5,0.1c0.1,0,0.3,0.1,0.4,0.1c0.1,0,0.3,0,0.4,0c0.1,0,0.3,0,0.5,0h0.6
	c0.3,0,0.5,0,0.8,0.1s0.5,0.2,0.7,0.3c0.2,0.2,0.4,0.4,0.5,0.7C39,56.6,39,57,39,57.5V62h-1.1v-4.4c0-0.3,0-0.5-0.1-0.7
	c0-0.2-0.1-0.3-0.2-0.4c-0.1-0.1-0.2-0.2-0.4-0.2s-0.4-0.1-0.6-0.1L35.8,56.1L35.8,56.1z"/>
<path d="M43,55.1V62h-1.1v-5.8h-1.1v-1H43V55.1z"/>
<path d="M47.1,56.1c-0.2,0-0.4,0-0.5,0c-0.2,0-0.3,0-0.4,0c-0.1,0-0.3,0-0.4-0.1c-0.1,0-0.3-0.1-0.5-0.2c0.1-0.2,0.1-0.3,0.2-0.5
	c0.1-0.2,0.1-0.3,0.2-0.5c0,0.2,0.2,0.2,0.3,0.2s0.3,0.1,0.4,0.1c0.1,0,0.3,0,0.4,0c0.1,0,0.3,0,0.5,0h0.2c0.3,0,0.5,0,0.8,0.1
	s0.5,0.2,0.7,0.3c0.2,0.2,0.4,0.4,0.5,0.7s0.2,0.7,0.2,1.1V61H51v1h-6.2v-1h3.9v-3.4c0-0.3,0-0.5-0.1-0.7c0-0.2-0.1-0.3-0.2-0.4
	c-0.1-0.1-0.2-0.2-0.4-0.2s-0.4-0.1-0.7-0.1L47.1,56.1L47.1,56.1z"/>
<path d="M54.9,55.1v2.1c0,0.2,0,0.4,0,0.6c0,0.2,0,0.3,0,0.4c0,0.1,0,0.3-0.1,0.4c0,0.1-0.1,0.3-0.1,0.4l-1.1-0.2
	c0-0.1,0-0.3,0.1-0.4s0-0.2,0-0.3s0-0.3,0-0.4c0-0.2,0-0.3,0-0.6V56h-1.5v-1L54.9,55.1L54.9,55.1z"/>
<path d="M58,58.2c-0.3-0.3-0.5-0.6-0.7-0.9s-0.4-0.5-0.5-0.8c-0.1-0.2-0.2-0.5-0.3-0.7s-0.1-0.4-0.2-0.6c0.2-0.1,0.3-0.1,0.5-0.2
	c0.2-0.1,0.4-0.1,0.5-0.2c0,0.1,0,0.1,0,0.2c0,0.1,0,0.1,0,0.2c0,0.1,0.1,0.3,0.1,0.4c0.1,0.1,0.1,0.3,0.2,0.5
	c0.1,0.2,0.2,0.4,0.3,0.6c0.1,0.2,0.3,0.4,0.5,0.7c0.1,0.1,0.1,0.2,0.2,0.2s0.1,0.1,0.2,0.2c0.1,0.1,0.2,0.2,0.3,0.3
	s0.2,0.3,0.4,0.5c0.1-0.1,0.3-0.2,0.4-0.3c0.1-0.1,0.2-0.2,0.3-0.3s0.2-0.2,0.2-0.4c0.1-0.1,0.1-0.3,0.2-0.5
	c0.1-0.2,0.1-0.3,0.2-0.5c0.1-0.2,0.1-0.3,0.1-0.5L60,55.8l0.3-0.9l1.8,0.5v0.8c-0.1,0.2-0.1,0.4-0.2,0.7c-0.1,0.2-0.2,0.5-0.2,0.7
	c-0.1,0.2-0.2,0.4-0.3,0.6c-0.1,0.2-0.2,0.3-0.3,0.5c-0.1,0.1-0.2,0.3-0.4,0.4c-0.1,0.1-0.3,0.2-0.4,0.3l1.5,1.7c0,0.1,0,0.2,0,0.4
	c0,0.1-0.1,0.3-0.1,0.5h-5.2v-1h3.8L58,58.2z"/>
<path d="M65.1,53.3v1.9h3.8c0,0.1,0.1,0.3,0.1,0.4c0,0.1,0,0.2,0.1,0.3c0,0.1,0,0.2,0,0.2c0,0.1,0,0.1,0,0.2v1.4
	c0,0.5-0.1,1-0.3,1.5c-0.2,0.5-0.5,0.9-0.9,1.4l-1.6,1.8l-0.8-0.7L67,60c0.1-0.2,0.3-0.3,0.4-0.5s0.2-0.3,0.3-0.5
	c0.1-0.2,0.2-0.4,0.2-0.5c0.1-0.2,0.1-0.4,0.1-0.6v-1.5h-4v-2.9h1.1V53.3z"/>
<path d="M75.4,61c-0.1-0.4-0.2-0.8-0.3-1.2C75,59.4,75,59,75,58.6s0.1-0.9,0.2-1.3s0.3-0.8,0.5-1.2c-0.1,0-0.2,0-0.3,0s-0.2,0-0.3,0
	c-0.1,0-0.2,0-0.3-0.1s-0.2-0.1-0.4-0.1c0.1-0.2,0.1-0.3,0.2-0.5s0.1-0.3,0.2-0.5C74.9,55,75,55,75.2,55c0.1,0,0.3,0.1,0.4,0.1
	s0.3,0,0.4,0s0.3,0,0.5,0h1.7c0.3,0,0.5,0,0.8,0.1s0.5,0.2,0.7,0.4s0.4,0.4,0.5,0.7s0.2,0.7,0.2,1.2V62h-1.1v-4.4
	c0-0.3,0-0.5-0.1-0.7c0-0.2-0.1-0.3-0.2-0.4c-0.1-0.1-0.2-0.2-0.4-0.2s-0.4-0.1-0.6-0.1h-1.3c-0.2,0.3-0.4,0.7-0.5,1.1
	s-0.1,0.8-0.1,1.3c0,0.4,0,0.7,0.1,1s0.1,0.7,0.2,1l0.2,0.7c0,0.1,0,0.2,0,0.3s0,0.2,0,0.4H74v-1C74,61,75.4,61,75.4,61z"/>
<path d="M84.4,55.1V62h-1.1v-5.8h-1.1v-1h2.2V55.1z"/>
<path d="M89,55.1v2.1c0,0.2,0,0.4,0,0.6c0,0.2,0,0.3,0,0.4c0,0.1,0,0.3-0.1,0.4c0,0.1-0.1,0.3-0.1,0.4l-1.1-0.2c0-0.1,0-0.3,0.1-0.4
	s0-0.2,0-0.3s0-0.3,0-0.4c0-0.2,0-0.3,0-0.6V56h-1.5v-1L89,55.1L89,55.1z"/>
<path d="M92.5,56.1c-0.2,0-0.4,0-0.5,0c-0.2,0-0.3,0-0.4,0s-0.3,0-0.4-0.1c-0.1,0-0.3-0.1-0.5-0.2c0.1-0.2,0.1-0.3,0.2-0.5
	s0.1-0.3,0.2-0.5c0.2,0.1,0.3,0.1,0.5,0.1c0.1,0,0.3,0.1,0.4,0.1s0.3,0,0.4,0s0.3,0,0.5,0h0.6c0.3,0,0.5,0,0.8,0.1s0.5,0.2,0.7,0.3
	c0.2,0.2,0.4,0.4,0.5,0.7s0.2,0.7,0.2,1.2V62h-1.1v-4.4c0-0.3,0-0.5-0.1-0.7c0-0.2-0.1-0.3-0.2-0.4c-0.1-0.1-0.2-0.2-0.4-0.2
	c-0.2,0-0.4-0.1-0.6-0.1L92.5,56.1L92.5,56.1z"/>
<path d="M99.4,56.1c-0.2,0-0.4,0-0.5,0c-0.2,0-0.3,0-0.4,0s-0.3,0-0.4-0.1c-0.1,0-0.3-0.1-0.5-0.2c0.1-0.2,0.1-0.3,0.2-0.5
	s0.1-0.3,0.2-0.5c0.2,0.1,0.3,0.1,0.5,0.1c0.1,0,0.3,0.1,0.4,0.1s0.3,0,0.4,0s0.3,0,0.5,0h0.2c0.3,0,0.5,0,0.8,0.1s0.5,0.2,0.7,0.3
	c0.2,0.2,0.4,0.4,0.5,0.7s0.2,0.7,0.2,1.1V61h1.2v1h-6.2v-1h3.9v-3.4c0-0.3,0-0.5-0.1-0.7c0-0.2-0.1-0.3-0.2-0.4
	c-0.1-0.1-0.2-0.2-0.4-0.2c-0.2,0-0.4-0.1-0.7-0.1L99.4,56.1L99.4,56.1z"/>
<path d="M108.5,55.9c0-0.2,0.1-0.3,0.1-0.5s0.1-0.3,0.1-0.5l1.9,0.5c0,0.2,0,0.3,0,0.5s0,0.3,0,0.5c0,0.4-0.1,0.7-0.2,1.1
	c-0.1,0.4-0.2,0.7-0.3,1c-0.1,0.3-0.3,0.7-0.5,1s-0.4,0.6-0.7,0.9c-0.3,0.3-0.6,0.6-0.9,0.8s-0.7,0.4-1.1,0.6
	c-0.3,0.1-0.6,0.3-0.9,0.4s-0.7,0.2-1,0.3l-0.3-1c0.3-0.1,0.7-0.2,1.1-0.3s0.7-0.3,1.1-0.4c-0.2-0.6-0.5-1.2-0.7-1.8
	s-0.5-1.2-0.7-1.8c-0.1-0.2-0.1-0.3-0.2-0.4c0-0.1-0.1-0.2-0.2-0.3s-0.2-0.1-0.3-0.2c-0.1-0.1-0.3-0.2-0.5-0.3
	c0.1-0.2,0.2-0.3,0.2-0.5c0.1-0.2,0.2-0.3,0.3-0.5c0.2,0.1,0.4,0.2,0.6,0.3s0.3,0.2,0.4,0.3s0.2,0.2,0.3,0.3
	c0.1,0.1,0.2,0.3,0.2,0.5c0,0.1,0.1,0.2,0.1,0.3s0.1,0.2,0.1,0.4c0.1,0.1,0.1,0.3,0.2,0.5s0.1,0.4,0.2,0.6c0.1,0.2,0.2,0.5,0.3,0.9
	c0.1,0.3,0.3,0.7,0.4,1.1c0.3-0.2,0.5-0.5,0.7-0.7c0.2-0.3,0.4-0.6,0.5-0.9c0.1-0.3,0.3-0.7,0.4-1.1c0.1-0.4,0.2-0.8,0.2-1.2
	L108.5,55.9z"/>
<path d="M116.9,61c-0.1-0.4-0.2-0.8-0.3-1.2c-0.1-0.4-0.1-0.8-0.1-1.1c0-0.4,0.1-0.9,0.2-1.3s0.3-0.8,0.5-1.2c-0.1,0-0.2,0-0.3,0
	s-0.2,0-0.3,0c-0.1,0-0.2,0-0.3-0.1s-0.2-0.1-0.4-0.1c0.1-0.2,0.1-0.3,0.2-0.5s0.1-0.3,0.2-0.5c0.2,0.1,0.3,0.1,0.5,0.1
	c0.1,0,0.3,0.1,0.4,0.1s0.3,0,0.4,0s0.3,0,0.5,0h1.7c0.3,0,0.5,0,0.8,0.1s0.5,0.2,0.7,0.4s0.4,0.4,0.5,0.7s0.2,0.7,0.2,1.2V62h-1.1
	v-4.4c0-0.3,0-0.5-0.1-0.7c0-0.2-0.1-0.3-0.2-0.4c-0.1-0.1-0.2-0.2-0.4-0.2s-0.4-0.1-0.6-0.1h-1.3c-0.2,0.3-0.4,0.7-0.5,1.1
	s-0.1,0.8-0.1,1.3c0,0.4,0,0.7,0.1,1s0.1,0.7,0.2,1l0.2,0.7c0,0.1,0,0.2,0,0.3s0,0.2,0,0.4h-2.6v-1C115.6,61,116.9,61,116.9,61z"/>
<path d="M126,55.1V62h-1.1v-5.8h-1.1v-1h2.2V55.1z"/>
<path d="M129.7,56.1c-0.2,0-0.4,0-0.5,0c-0.2,0-0.3,0-0.4,0c-0.1,0-0.3,0-0.4-0.1c-0.1,0-0.3-0.1-0.5-0.2c0.1-0.2,0.1-0.3,0.2-0.5
	c0.1-0.2,0.1-0.3,0.2-0.5c0.2,0.1,0.3,0.1,0.5,0.1c0.1,0,0.3,0.1,0.4,0.1c0.1,0,0.3,0,0.4,0c0.1,0,0.3,0,0.5,0h0.6
	c0.3,0,0.5,0,0.8,0.1s0.5,0.2,0.7,0.3c0.2,0.2,0.4,0.4,0.5,0.7s0.2,0.7,0.2,1.2V62h-1.1v-4.4c0-0.3,0-0.5-0.1-0.7
	c0-0.2-0.1-0.3-0.2-0.4c-0.1-0.1-0.2-0.2-0.4-0.2s-0.4-0.1-0.6-0.1L129.7,56.1L129.7,56.1z"/>
<path d="M137.1,55.1v2.1c0,0.2,0,0.4,0,0.6c0,0.2,0,0.3,0,0.4c0,0.1,0,0.3-0.1,0.4c0,0.1-0.1,0.3-0.1,0.4l-1.1-0.2
	c0-0.1,0-0.3,0.1-0.4s0-0.2,0-0.3s0-0.3,0-0.4c0-0.2,0-0.3,0-0.6V56h-1.5v-1L137.1,55.1L137.1,55.1z"/>
<path d="M140.2,58.2c-0.3-0.3-0.5-0.6-0.7-0.9s-0.4-0.5-0.5-0.8c-0.1-0.2-0.2-0.5-0.3-0.7s-0.1-0.4-0.2-0.6c0.2-0.1,0.3-0.1,0.5-0.2
	c0.2-0.1,0.4-0.1,0.5-0.2c0,0.1,0,0.1,0,0.2c0,0.1,0,0.1,0,0.2c0,0.1,0.1,0.3,0.1,0.4c0.1,0.1,0.1,0.3,0.2,0.5
	c0.1,0.2,0.2,0.4,0.3,0.6c0.1,0.2,0.3,0.4,0.5,0.7c0.1,0.1,0.1,0.2,0.2,0.2c0.1,0.1,0.1,0.1,0.2,0.2s0.2,0.2,0.3,0.3
	s0.2,0.3,0.4,0.5c0.1-0.1,0.3-0.2,0.4-0.3c0.1-0.1,0.2-0.2,0.3-0.3s0.2-0.2,0.2-0.4s0.1-0.3,0.2-0.5c0.1-0.2,0.1-0.3,0.2-0.5
	c0-0.2,0.1-0.3,0.1-0.5l-0.9-0.3l0.3-0.9l1.8,0.5v0.8c-0.1,0.2-0.1,0.4-0.2,0.7s-0.2,0.5-0.2,0.7c-0.1,0.2-0.2,0.4-0.3,0.6
	c-0.1,0.2-0.2,0.3-0.3,0.5c-0.1,0.1-0.2,0.3-0.4,0.4c-0.1,0.1-0.3,0.2-0.4,0.3l1.5,1.7c0,0.1,0,0.2,0,0.4c0,0.1-0.1,0.3-0.1,0.5
	h-5.2v-1h3.8L140.2,58.2z"/>
<path d="M148.7,55.1v2.1c0,0.2,0,0.4,0,0.6c0,0.2,0,0.3,0,0.4c0,0.1,0,0.3-0.1,0.4c0,0.1-0.1,0.3-0.1,0.4l-1.1-0.2
	c0-0.1,0-0.3,0.1-0.4s0-0.2,0-0.3s0-0.3,0-0.4c0-0.2,0-0.3,0-0.6V56H146v-1L148.7,55.1L148.7,55.1z"/>
<path d="M159,55.1c0.3,0,0.5,0,0.8,0.1s0.5,0.2,0.7,0.3c0.2,0.2,0.4,0.4,0.5,0.7s0.2,0.7,0.2,1.1V62h-1.8v-4.1c0-0.3,0-0.5,0-0.7
	s-0.1-0.3-0.2-0.4s-0.2-0.2-0.4-0.2s-0.4-0.1-0.6-0.1h-1c-0.1,0.3-0.2,0.6-0.3,1c-0.1,0.3-0.1,0.7-0.1,1c0,0.2,0,0.4,0,0.5
	c0,0.2,0,0.3,0,0.5s0.1,0.3,0.1,0.5s0.1,0.3,0.1,0.5l0.1,0.4c0,0.2,0,0.4-0.1,0.5c0,0.2-0.1,0.3-0.1,0.5h-3.2v-1.4h1.5
	c-0.1-0.3-0.2-0.7-0.3-1s-0.1-0.6-0.1-0.9c0-0.2,0-0.5,0-0.7s0.1-0.5,0.2-0.7c0-0.1,0.1-0.2,0.1-0.3s0.1-0.2,0.1-0.3
	c-0.2,0-0.4,0-0.6-0.1c-0.2,0-0.4-0.1-0.6-0.2c0.1-0.2,0.1-0.5,0.2-0.7c0.1-0.2,0.2-0.5,0.2-0.7c0.2,0.1,0.4,0.1,0.6,0.1
	c0.2,0,0.3,0.1,0.5,0.1s0.3,0,0.5,0s0.4,0,0.6,0C156.6,55.1,159,55.1,159,55.1z"/>
<path d="M164.3,54.7c0.4,0.1,0.8,0.2,1.1,0.3s0.6,0.2,0.9,0.2c0.3,0.1,0.5,0.1,0.7,0.2c0.2,0.1,0.4,0.1,0.6,0.2
	c0.2,0.1,0.4,0.2,0.6,0.3c0.2,0.1,0.3,0.3,0.4,0.4c0.1,0.2,0.2,0.3,0.2,0.5s0.1,0.4,0.1,0.6V60c0,0.1,0,0.2,0,0.3s0,0.2,0,0.3
	s-0.1,0.3-0.1,0.5s-0.1,0.4-0.2,0.7h-5.9v-1.4h4.5v-2.7c0-0.2,0-0.3,0-0.4c0-0.1,0-0.2-0.1-0.3c0-0.1-0.1-0.1-0.2-0.2
	c-0.1-0.1-0.2-0.1-0.3-0.2c-0.2-0.1-0.4-0.1-0.6-0.2s-0.4-0.1-0.7-0.2l-0.6,1.3l0.9,0.5l-0.8,1.3l-2.1-1.2L164.3,54.7z"/>
<path d="M173.5,55.1v2.5c0,0.2,0,0.4,0,0.6c0,0.2,0,0.3,0,0.4c0,0.1,0,0.3-0.1,0.4c0,0.1,0,0.3-0.1,0.4l-1.8-0.3
	c0-0.1,0-0.3,0.1-0.4c0-0.1,0-0.2,0-0.3s0-0.3,0-0.4c0-0.2,0-0.3,0-0.6v-1h-1.5V55L173.5,55.1L173.5,55.1z"/>
<path d="M177.3,60.6c0.1,0,0.2,0,0.3,0s0.2,0,0.3,0c0.3,0,0.5,0,0.8-0.1c0.3,0,0.5-0.1,0.8-0.2s0.5-0.3,0.7-0.5s0.4-0.5,0.6-0.8
	c0.2-0.4,0.4-0.9,0.5-1.4s0.1-0.9,0.1-1.4c0-0.2,0-0.4,0-0.6s0-0.4-0.1-0.6c0.2,0,0.4-0.1,0.5-0.1s0.3-0.1,0.4-0.1
	c0.1,0,0.3,0,0.4-0.1s0.3,0,0.5-0.1c0,0.2,0.1,0.4,0.1,0.6c0,0.2,0,0.4,0,0.7c0,0.2,0,0.4,0,0.6c0,0.2,0,0.4-0.1,0.6
	c-0.2,1.6-0.8,2.8-1.8,3.6s-2.3,1.2-3.9,1.2c-0.3,0-0.6,0-0.9,0c-0.3,0-0.6-0.1-1-0.1l-0.3-4c0-0.2,0-0.4,0-0.6c0-0.2,0-0.3,0-0.5
	c0-0.1,0-0.3,0-0.4s0-0.2-0.1-0.3c0-0.1-0.1-0.2-0.1-0.4c0-0.1-0.1-0.3-0.2-0.4c0.3-0.1,0.5-0.2,0.8-0.3s0.5-0.2,0.8-0.3
	c0.1,0.3,0.2,0.5,0.3,0.7s0.1,0.4,0.2,0.6c0,0.2,0.1,0.4,0.1,0.7c0,0.2,0,0.5,0.1,0.8L177.3,60.6z M177.9,57.4
	c0.1-0.2,0.1-0.3,0.2-0.5c0-0.1,0.1-0.2,0.1-0.3s0.1-0.2,0.1-0.3s0-0.2,0-0.3v-0.1v-0.1c0-0.1,0-0.1,0-0.2c0-0.1,0-0.2,0-0.3
	c0.3-0.1,0.6-0.2,0.9-0.2s0.6-0.1,0.9-0.2c0.1,0.2,0.1,0.4,0.1,0.5s0,0.3,0,0.5c0,0.1,0,0.3,0,0.4c0,0.1,0,0.3-0.1,0.4
	c0,0.1-0.1,0.3-0.1,0.5c-0.1,0.2-0.1,0.4-0.2,0.6l-0.4,1.2c-0.2,0-0.3-0.1-0.5-0.1c-0.1,0-0.2-0.1-0.4-0.1c-0.1,0-0.2-0.1-0.3-0.1
	s-0.3-0.1-0.4-0.2L177.9,57.4z"/>
<path d="M189.2,55.1c0.3,0,0.5,0,0.8,0.1s0.5,0.2,0.7,0.3c0.2,0.2,0.4,0.4,0.5,0.7s0.2,0.7,0.2,1.2V62h-1.8v-4.1c0-0.3,0-0.5,0-0.7
	s-0.1-0.3-0.2-0.4s-0.2-0.2-0.4-0.2s-0.4-0.1-0.6-0.1h-1.3c-0.1,0.3-0.1,0.6-0.1,0.8c0,0.3,0,0.5,0,0.8V62h-1.8v-3.8
	c0-0.3,0-0.5,0.1-0.8c0-0.3,0.1-0.6,0.2-0.9c-0.2,0-0.3-0.1-0.5-0.1s-0.3-0.1-0.5-0.2c0.1-0.2,0.1-0.5,0.2-0.7
	c0.1-0.2,0.1-0.5,0.2-0.7c0.2,0.1,0.4,0.1,0.6,0.1s0.3,0.1,0.5,0.1c0.1,0,0.3,0,0.5,0s0.4,0,0.6,0h2.1V55.1z"/>
<path d="M195.4,55.1V62h-1.1v-5.8h-1.1v-1h2.2V55.1z"/>
<path d="M211.8,60.6c0.1,0,0.2,0,0.3,0s0.2,0,0.3,0c0.3,0,0.5,0,0.8-0.1c0.3,0,0.5-0.1,0.8-0.2s0.5-0.3,0.7-0.5s0.4-0.5,0.6-0.8
	c0.2-0.4,0.4-0.9,0.5-1.4s0.1-0.9,0.1-1.4c0-0.2,0-0.4,0-0.6s0-0.4-0.1-0.6c0.2,0,0.4-0.1,0.5-0.1s0.3-0.1,0.4-0.1
	c0.1,0,0.3,0,0.4-0.1s0.3,0,0.5-0.1c0,0.2,0.1,0.4,0.1,0.6c0,0.2,0,0.4,0,0.7c0,0.2,0,0.4,0,0.6c0,0.2,0,0.4-0.1,0.6
	c-0.2,1.6-0.8,2.8-1.8,3.6s-2.3,1.2-3.9,1.2c-0.3,0-0.6,0-0.9,0c-0.3,0-0.6-0.1-1-0.1l-0.3-4c0-0.2,0-0.4,0-0.6c0-0.2,0-0.3,0-0.5
	c0-0.1,0-0.3,0-0.4s0-0.2-0.1-0.3c0-0.1-0.1-0.2-0.1-0.4c0-0.1-0.1-0.3-0.2-0.4c0.3-0.1,0.5-0.2,0.8-0.3s0.5-0.2,0.8-0.3
	c0.1,0.3,0.2,0.5,0.3,0.7s0.1,0.4,0.2,0.6c0,0.2,0.1,0.4,0.1,0.7c0,0.2,0,0.5,0.1,0.8L211.8,60.6z M212.5,57.4
	c0.1-0.2,0.1-0.3,0.2-0.5c0-0.1,0.1-0.2,0.1-0.3s0.1-0.2,0.1-0.3s0-0.2,0-0.3v-0.1v-0.1c0-0.1,0-0.1,0-0.2c0-0.1,0-0.2,0-0.3
	c0.3-0.1,0.6-0.2,0.9-0.2s0.6-0.1,0.9-0.2c0.1,0.2,0.1,0.4,0.1,0.5s0,0.3,0,0.5c0,0.1,0,0.3,0,0.4c0,0.1,0,0.3-0.1,0.4
	c0,0.1-0.1,0.3-0.1,0.5c-0.1,0.2-0.1,0.4-0.2,0.6L214,59c-0.2,0-0.3-0.1-0.5-0.1c-0.1,0-0.2-0.1-0.4-0.1c-0.1,0-0.2-0.1-0.3-0.1
	s-0.3-0.1-0.4-0.2L212.5,57.4z"/>
<path d="M223.2,55.1v2.3c0,0.3,0,0.6,0,0.8s0,0.4,0,0.6c0,0.2,0.1,0.3,0.1,0.5s0.1,0.3,0.2,0.5c0.1,0.2,0.1,0.4,0.2,0.6
	s0.1,0.4,0.2,0.5c0.1,0.2,0.1,0.3,0.1,0.5s0.1,0.3,0.1,0.5h-1.6c0-0.1,0-0.2-0.1-0.3c0-0.1-0.1-0.2-0.1-0.3s-0.1-0.2-0.1-0.3
	s-0.1-0.2-0.1-0.3l-0.1-0.3c-0.1,0.1-0.1,0.1-0.2,0.2c-0.1,0.1-0.1,0.2-0.2,0.2s-0.1,0.2-0.2,0.2c-0.1,0.1-0.1,0.1-0.2,0.2
	c-0.1,0.1-0.2,0.2-0.4,0.3c-0.1,0.1-0.3,0.2-0.5,0.3s-0.4,0.1-0.6,0.2c-0.2,0.1-0.5,0.1-0.7,0.1c-0.1-0.2-0.1-0.4-0.1-0.7
	s-0.1-0.4-0.1-0.7c0.4-0.1,0.7-0.2,1-0.3s0.5-0.3,0.7-0.5l1-1.1v-2.4H220V55h3.2V55.1z"/>
<path d="M229.1,55.1V56c0,0.1,0,0.2,0,0.3s0,0.2,0,0.4c0,0.1,0,0.3,0.1,0.5c0,0.2,0.1,0.5,0.1,0.8s0.1,0.7,0.1,1.1s0.1,0.9,0.1,1.4
	c0,0.1,0,0.1,0,0.2s0,0.1,0,0.2c0,0.1,0,0.2,0,0.3s0,0.2,0,0.3s0,0.2,0,0.3s0,0.2-0.1,0.3H225v-1.4h2.8c0-0.1,0-0.2,0-0.5
	s0-0.4-0.1-0.7c0-0.3-0.1-0.5-0.1-0.8s-0.1-0.6-0.1-0.8c0-0.3-0.1-0.5-0.1-0.7s0-0.3,0-0.4h-1.7v-1.4h3.4V55.1z"/>
<path d="M233.3,56.6c-0.2,0-0.4,0-0.6,0c-0.2,0-0.3,0-0.5,0s-0.3-0.1-0.5-0.1s-0.4-0.1-0.6-0.2c0.1-0.2,0.1-0.5,0.2-0.7
	c0.1-0.2,0.1-0.5,0.2-0.7c0.2,0.1,0.4,0.1,0.6,0.1s0.3,0.1,0.5,0.1c0.1,0,0.3,0,0.5,0s0.4,0,0.6,0h1.4c0.3,0,0.5,0,0.8,0.1
	s0.5,0.2,0.7,0.3c0.2,0.2,0.4,0.4,0.5,0.7s0.2,0.7,0.2,1.1V62h-1.8v-4.1c0-0.3,0-0.5,0-0.7s-0.1-0.3-0.2-0.4
	c-0.1-0.1-0.2-0.2-0.4-0.2s-0.4-0.1-0.6-0.1L233.3,56.6L233.3,56.6z M231.3,60c0-0.2,0-0.4,0-0.5c0-0.2,0-0.3,0-0.5
	c0-0.1,0-0.3,0-0.4c0-0.1,0.1-0.3,0.1-0.5c0.3,0,0.6,0.1,0.9,0.1c0.3,0,0.6,0.1,0.9,0.2c-0.1,0.2-0.1,0.5-0.1,0.7s0,0.5,0,0.9v2
	h-1.8L231.3,60L231.3,60z"/>
<path d="M203.9,56.6c-0.2,0-0.4,0-0.6,0c-0.2,0-0.3,0-0.5,0s-0.3-0.1-0.5-0.1s-0.4-0.1-0.6-0.2c0.1-0.2,0.1-0.5,0.2-0.7
	c0.1-0.2,0.1-0.5,0.2-0.7c0.2,0.1,0.4,0.1,0.6,0.1s0.3,0.1,0.5,0.1c0.1,0,0.3,0,0.5,0s0.4,0,0.6,0h1.4c0.3,0,0.5,0,0.8,0.1
	s0.5,0.2,0.7,0.3c0.2,0.2,0.4,0.4,0.5,0.7s0.2,0.7,0.2,1.1V62h-1.8v-4.1c0-0.3,0-0.5,0-0.7s-0.1-0.3-0.2-0.4
	c-0.1-0.1-0.2-0.2-0.4-0.2s-0.4-0.1-0.6-0.1L203.9,56.6L203.9,56.6z M201.9,60c0-0.2,0-0.4,0-0.5c0-0.2,0-0.3,0-0.5
	c0-0.1,0-0.3,0-0.4c0-0.1,0.1-0.3,0.1-0.5c0.3,0,0.6,0.1,0.9,0.1c0.3,0,0.6,0.1,0.9,0.2c-0.1,0.2-0.1,0.5-0.1,0.7s0,0.5,0,0.9v2
	h-1.8L201.9,60L201.9,60z"/>
<path d="M243.4,60.8c0.2-0.1,0.3-0.2,0.4-0.2s0.2-0.1,0.4-0.1s0.4,0,0.5,0.1s0.2,0.2,0.3,0.3s0.1,0.3,0.1,0.5s0,0.3-0.1,0.5
	c0,0.1-0.1,0.2-0.2,0.4s-0.2,0.3-0.2,0.5c-0.1,0.2-0.2,0.3-0.3,0.5s-0.2,0.3-0.2,0.4h-0.8l0.5-1.7L243.4,60.8z"/>
<path d="M249.3,56.6c-0.2,0-0.4,0-0.6,0c-0.2,0-0.3,0-0.5,0s-0.3-0.1-0.5-0.1s-0.4-0.1-0.6-0.2c0.1-0.2,0.1-0.5,0.2-0.7
	c0.1-0.2,0.2-0.5,0.2-0.7c0.2,0.1,0.4,0.1,0.6,0.1c0.2,0,0.3,0.1,0.5,0.1c0.1,0,0.3,0,0.5,0s0.4,0,0.6,0h0.8c0.3,0,0.5,0,0.8,0.1
	s0.5,0.2,0.7,0.3c0.2,0.2,0.4,0.4,0.5,0.7s0.2,0.7,0.2,1.1V62H251v-4.1c0-0.3,0-0.5,0-0.7s-0.1-0.3-0.2-0.4s-0.2-0.2-0.4-0.2
	s-0.4-0.1-0.6-0.1L249.3,56.6L249.3,56.6z"/>
<path d="M257.4,55.1V62h-1.8v-5.4h-1.1v-1.4L257.4,55.1L257.4,55.1z"/>
<path d="M259,55.6c0.2-0.2,0.5-0.3,0.7-0.4c0.2-0.1,0.5-0.3,0.7-0.4c0.1,0.1,0.2,0.3,0.3,0.4s0.1,0.2,0.2,0.3s0.1,0.2,0.2,0.3
	c0,0.1,0.1,0.2,0.1,0.3c0.4-0.4,0.8-0.6,1.2-0.8c0.4-0.2,0.8-0.3,1.2-0.3c0.3,0,0.5,0,0.8,0.1s0.5,0.2,0.7,0.4s0.4,0.4,0.5,0.6
	c0.1,0.2,0.2,0.5,0.3,0.8c0,0.2,0.1,0.5,0.1,0.8s0,0.6,0,1c0,0.2,0,0.3,0,0.5s0,0.4,0,0.7s0,0.6,0,0.9c0,0.3,0,0.5,0,0.7
	c0,0.1,0,0.2,0,0.3s0,0.2,0,0.3h-3.4v-1.4h1.8v-0.1c0-0.1,0-0.2,0-0.3s0-0.3,0-0.5s0-0.5,0-0.8c0-0.1,0-0.2,0-0.3s0-0.3,0-0.4
	c0-0.1,0-0.3,0-0.4c0-0.1,0-0.2,0-0.3c0-0.4-0.2-0.6-0.3-0.8c-0.2-0.1-0.4-0.2-0.7-0.2c-0.2,0-0.3,0-0.5,0.1s-0.3,0.2-0.5,0.3
	c-0.1,0.1-0.2,0.1-0.3,0.2c-0.1,0.1-0.2,0.2-0.3,0.3c-0.1,0.5-0.1,0.9-0.2,1.3c-0.1,0.4-0.1,0.7-0.1,0.9s-0.1,0.5-0.1,0.7
	s-0.1,0.4-0.1,0.6c0,0.2-0.1,0.4-0.1,0.6c0,0.2-0.1,0.4-0.1,0.7H259l0.2-1.2c0-0.3,0.1-0.5,0.1-0.8s0.1-0.5,0.1-0.8
	c0-0.2,0.1-0.5,0.1-0.8s0.1-0.5,0.1-0.8c0-0.1,0-0.2,0-0.2c0-0.1,0-0.1,0-0.2c0-0.1,0-0.2,0-0.3s0-0.2-0.1-0.3
	c0-0.1-0.1-0.2-0.1-0.3s-0.1-0.2-0.2-0.3L259,55.6z"/>
<path d="M270.6,55.1v2.5c0,0.2,0,0.4,0,0.6c0,0.2,0,0.3,0,0.4c0,0.1,0,0.3-0.1,0.4c0,0.1-0.1,0.3-0.1,0.4l-1.8-0.3
	c0-0.1,0-0.3,0.1-0.4c0-0.1,0-0.2,0-0.3s0-0.3,0-0.4c0-0.2,0-0.3,0-0.6v-1h-1.5V55L270.6,55.1L270.6,55.1z"/>
<path d="M274.4,60.6c0.1,0,0.2,0,0.3,0c0.1,0,0.2,0,0.3,0c0.3,0,0.5,0,0.8-0.1c0.3,0,0.5-0.1,0.8-0.2s0.5-0.3,0.7-0.5
	s0.4-0.5,0.6-0.8c0.2-0.4,0.4-0.9,0.5-1.4s0.1-0.9,0.1-1.4c0-0.2,0-0.4,0-0.6c0-0.2,0-0.4-0.1-0.6c0.2,0,0.4-0.1,0.5-0.1
	s0.3-0.1,0.4-0.1s0.3,0,0.4-0.1s0.3,0,0.5-0.1c0,0.2,0.1,0.4,0.1,0.6c0,0.2,0,0.4,0,0.7c0,0.2,0,0.4,0,0.6c0,0.2,0,0.4-0.1,0.6
	c-0.2,1.6-0.8,2.8-1.8,3.6s-2.3,1.2-3.9,1.2c-0.3,0-0.6,0-0.9,0s-0.6-0.1-1-0.1l-0.3-4c0-0.2,0-0.4,0-0.6s0-0.3,0-0.5
	c0-0.1,0-0.3,0-0.4s0-0.2-0.1-0.3s-0.1-0.2-0.1-0.4c0-0.1-0.1-0.3-0.2-0.4c0.3-0.1,0.5-0.2,0.8-0.3s0.5-0.2,0.8-0.3
	c0.1,0.3,0.2,0.5,0.3,0.7c0.1,0.2,0.1,0.4,0.2,0.6c0,0.2,0.1,0.4,0.1,0.7c0,0.2,0,0.5,0.1,0.8L274.4,60.6z M275,57.4
	c0.1-0.2,0.1-0.3,0.2-0.5c0-0.1,0.1-0.2,0.1-0.3s0.1-0.2,0.1-0.3s0-0.2,0-0.3v-0.1v-0.1c0-0.1,0-0.1,0-0.2c0-0.1,0-0.2,0-0.3
	c0.3-0.1,0.6-0.2,0.9-0.2c0.3-0.1,0.6-0.1,0.9-0.2c0.1,0.2,0.1,0.4,0.1,0.5s0,0.3,0,0.5c0,0.1,0,0.3,0,0.4c0,0.1,0,0.3-0.1,0.4
	c0,0.1-0.1,0.3-0.1,0.5s-0.1,0.4-0.2,0.6l-0.4,1.2c-0.2,0-0.3-0.1-0.5-0.1c-0.1,0-0.2-0.1-0.4-0.1c-0.1,0-0.2-0.1-0.3-0.1
	c-0.1,0-0.3-0.1-0.4-0.2L275,57.4z"/>
</svg>
