<svg xmlns="http://www.w3.org/2000/svg" viewBox="0 0 47.53 10.3"><defs><style>.cls-1{fill:#1d1d1b;}</style></defs><g id="Layer_2" data-name="Layer 2"><g id="Layer_1-2" data-name="Layer 1"><path class="cls-1" d="M45.68,7.79l-.24-.44a4,4,0,0,0-.95-1.27A4.71,4.71,0,0,0,43,5.41a5.77,5.77,0,0,0,2.81-.84,2.08,2.08,0,0,0,1-1.78,2.33,2.33,0,0,0-1.3-2A6.14,6.14,0,0,0,42.22,0,6,6,0,0,0,37.7,1.77l.69.37a4,4,0,0,1,2.73-1,3.86,3.86,0,0,1,2.17.6,1.7,1.7,0,0,1,.91,1.42,1.31,1.31,0,0,1-.69,1.11,3.15,3.15,0,0,1-1.71.44,6.83,6.83,0,0,1-3.58-1.2l-.52-.34A14.29,14.29,0,0,0,30,.86,8.62,8.62,0,0,0,25.2,2.11a4.44,4.44,0,0,0-1.53,1.56,5,5,0,0,0-1.33-1.25,8.76,8.76,0,0,0-4.83-1.25A14.27,14.27,0,0,0,9.83,3.48l-.52.33A6.83,6.83,0,0,1,5.73,5,3.15,3.15,0,0,1,4,4.57a1.31,1.31,0,0,1-.69-1.11A1.71,1.71,0,0,1,4.25,2a3.85,3.85,0,0,1,2.16-.6,3.9,3.9,0,0,1,2.73,1l.69-.38A6,6,0,0,0,5.31.31a6,6,0,0,0-3.22.81,2.32,2.32,0,0,0-1.31,2,2.07,2.07,0,0,0,1,1.78,5.74,5.74,0,0,0,2.81.84A4.68,4.68,0,0,0,3,6.39a4,4,0,0,0-1,1.27l-.24.44C1.27,9.19.66,9.73,0,9.73v.57H1.88c3.85,0,6.27-.94,7.26-2.84a3.69,3.69,0,0,0,1.26,1A3.72,3.72,0,0,0,12,8.78a3.24,3.24,0,0,0,2.17-.71A2.29,2.29,0,0,0,15,6.25a2.85,2.85,0,0,0-.26-1.14L14,5.27a1.91,1.91,0,0,1,.07.48,1.35,1.35,0,0,1-.53,1.07,2,2,0,0,1-1.33.44,2.32,2.32,0,0,1-1.51-.53,1.55,1.55,0,0,1-.64-1.23q0-1.32,1.92-2.4A8.6,8.6,0,0,1,16.23,2a6.55,6.55,0,0,1,3.95,1.15A3.43,3.43,0,0,1,21.75,6a3,3,0,0,1-1.36,2.59,6.91,6.91,0,0,1-3.77,1.1v.57h.24a9.59,9.59,0,0,0,5.28-1.36,4.79,4.79,0,0,0,1.72-1.76,5.1,5.1,0,0,0,1.53,1.45A9.59,9.59,0,0,0,30.67,10h.25V9.42a7,7,0,0,1-3.78-1.1,3.06,3.06,0,0,1-1.36-2.59,3.45,3.45,0,0,1,1.57-2.88A6.51,6.51,0,0,1,31.3,1.7a8.44,8.44,0,0,1,4.26,1.09q1.92,1.08,1.92,2.4a1.57,1.57,0,0,1-.64,1.23,2.27,2.27,0,0,1-1.5.53A2,2,0,0,1,34,6.51a1.33,1.33,0,0,1-.54-1.07A2,2,0,0,1,33.55,5l-.77-.17a2.87,2.87,0,0,0-.25,1.14,2.25,2.25,0,0,0,.85,1.82,3.27,3.27,0,0,0,2.17.72,3.53,3.53,0,0,0,2.84-1.32Q39.89,10,45.66,10h1.87V9.42C46.88,9.42,46.26,8.88,45.68,7.79ZM2.84,9.72A3.9,3.9,0,0,0,4.32,8.19l.18-.3A4.84,4.84,0,0,1,5.93,6.34,14.56,14.56,0,0,1,8.68,5l0,.51C8.7,8.17,6.74,9.58,2.84,9.72Zm36-4.53V4.68A14.72,14.72,0,0,1,41.61,6,5,5,0,0,1,43,7.58l.18.29A3.86,3.86,0,0,0,44.7,9.41Q38.83,9.2,38.84,5.19Z"/></g></g></svg>