<?xml version="1.0" encoding="utf-8"?>
<!-- Generator: Adobe Illustrator 26.5.0, SVG Export Plug-In . SVG Version: 6.00 Build 0)  -->
<svg version="1.1" id="Layer_1" xmlns="http://www.w3.org/2000/svg" xmlns:xlink="http://www.w3.org/1999/xlink" x="0px" y="0px"
	 viewBox="0 0 410 89.5" style="enable-background:new 0 0 410 89.5;" xml:space="preserve">
<style type="text/css">
	.st0{fill:#D9CDD5;fill-opacity:0.5;}
</style>
<path class="st0" d="M388.4,35l-22.2-5.2c-0.1,0-0.1,0-0.2,0l-11.8,5.8c-0.1,0.1-0.2,0.2-0.2,0.3v6.5V58v7c0,0.1,0.1,0.3,0.2,0.3
	l22.2,5.2c0.1,0,0.1,0,0.2,0l11.8-5.8c0.1-0.1,0.2-0.2,0.2-0.3V58V42.4v-7C388.7,35.2,388.6,35.1,388.4,35z M366.2,30.4l21.5,5
	l-1.1,0.5l-20.4-4.8l-10,4.9l-1.1-0.2L366.2,30.4z M386.1,36.2l-9.6,4.7l-20-4.7l9.6-4.7L386.1,36.2z M388.1,42.4V58v6.3l-11.6,5.6
	l-21.9-5.1V58V42.4v-6l21.6,5.1v27.1c0,0.2,0.1,0.3,0.3,0.3c0.2,0,0.3-0.1,0.3-0.3V41.4l11.2-5.5V42.4z"/>
<path class="st0" d="M364.3,35.5c0,0.1,0.1,0.2,0.2,0.3l11.9,2.8c0,0,0,0,0.1,0c0,0,0.1,0,0.1,0l1.5-0.7c0.1-0.1,0.2-0.2,0.2-0.3
	c0-0.1-0.1-0.2-0.2-0.3l-11.9-2.8c-0.1,0-0.1,0-0.2,0l-1.5,0.7C364.4,35.3,364.3,35.4,364.3,35.5z M366.2,35.1l11,2.6l-0.6,0.3
	l-11-2.6L366.2,35.1z"/>
<path class="st0" d="M409.3,15.8c0,0-3.5-2.2-4.4-2.7c-0.3-0.2-0.7-0.4-1.1-0.7c-1-0.6-2.2-1.4-2.9-1.7c-1-0.5-2-1.1-3-1.6
	c-0.5-0.3-1.6-0.8-2.7-1.3c-1-0.5-2.1-1-2.8-1.3L391.5,6c-1.5-0.7-3.1-1.6-3.5-1.8c-0.4-0.2-1.2-0.7-1.8-1.1
	c-0.5-0.4-0.8-0.5-1.2-0.9c-0.5-0.4-1-0.5-1.8-0.4c-0.5,0.1-1,0.4-1.8,1c-0.3,0.2-0.5,0.5-0.8,0.7c-0.2,0.2-0.5,0.5-0.7,0.7
	c-0.3,0.2-1.1,0.6-1.8,1c-0.6,0.3-1.1,0.6-1.4,0.8c-0.8,0.5-1.9,1.6-2.2,1.8c-0.1,0.1-0.3,0.2-0.5,0.4c-0.1,0.1-0.2,0.1-0.3,0.2l0,0
	c-0.6,0.5-1.3,0.9-1.4,1.3c-0.1,0.3-0.2,0.8-0.3,1.2c0,0.1-0.1,0.3-0.1,0.4c-0.1,0.5-0.3,1.2-0.6,1.8c-0.3,0.8-0.6,1.5-0.9,2.1
	c-0.1,0.2-0.1,0.4-0.2,0.7c0,0.1,0,0.2-0.1,0.3c-0.1,0.4-0.1,0.6-0.2,1.1c0,0.1-0.1,0.2-0.1,0.4c-0.6,0.4-1.1,0.9-1.5,1.6
	c-1.4,2.4-0.9,5.9,1.2,7.7c0.8,0.7,1.8,1.2,2.9,1.2c0.1,0,0.1,0,0.2,0c0,0,1.5-0.1,2.1-0.3c0.9-0.3,1.7-1,2.3-2
	c0.6-1.1,0.9-2.4,0.8-3.6c1.1-0.4,1.6-0.8,1.8-0.9c0,0,0,0,0,0c1.1-0.5,2-0.8,2.4-0.8l0,0c0.2,0.1,0.7,0.3,1.2,0.4
	c0.2,0.2,0.6,0.5,1.7,0.9c1.5,0.6,1.9,0.7,2.1,0.8c0.2,0.1,0.3,0.1,0.5,0.1c0.2,0,0.5-0.1,0.7-0.2c0.3-0.2,0.8-0.5,1.1-0.6
	c0.2,0.2,0.7,0.5,1.2,0.8c0.2,0.1,0.3,0.3,0.5,0.5c0,0,0,0,0,0c0.2,0.3,1.5,1.5,2.6,1.6c0.2,0,0.4,0,0.6,0.1c0.1,0,0.2,0,0.3,0
	c0.1,0,0.3,0.1,0.6,0.1c0.6,0.2,1.6,0.5,2.4,0.4c0.7-0.1,1.1-0.3,1.3-0.4c0.1,0,0.4,0,0.9,0.2c0.7,0.3,2.4,1.4,3.8,2.7
	c1.5,1.3,5.4,5.3,5.4,5.3c0.1,0.1,0.1,0.1,0.2,0.1c0.1,0,0.2,0,0.2-0.1c0.1-0.1,0.1-0.3,0-0.4c0,0-3.9-4-5.4-5.3
	c-1.5-1.4-3.2-2.4-4-2.8c-0.5-0.2-0.9-0.3-1.1-0.2c0-0.1,0-0.1,0-0.2c0,0,0-0.1,0-0.2c0-0.2,0-0.5,0-0.5c0-0.1-0.1-0.1-0.2-0.1
	c-0.1,0-0.1,0.1-0.1,0.2c0,0,0,0.4,0,0.5c0,0,0,0,0,0.1c0,0.1-0.1,0.1-0.1,0.3c0,0,0,0,0,0c0,0,0,0,0,0c0,0-0.3,0.2-1,0.3
	c-0.7,0.1-1.6-0.2-2.2-0.3c-0.3-0.1-0.5-0.1-0.7-0.2c-0.1,0-0.2,0-0.3,0c-0.2,0-0.4,0-0.6,0c-0.9-0.1-2-1.1-2.1-1.3
	c-0.1-0.1-0.1-0.3-0.2-0.4c0-0.1,0-0.2,0-0.3c0-0.1,0-0.2,0-0.3c0.4,0,0.8,0.1,1.2,0.1c0.2,0.1,0.5,0.4,0.7,0.6
	c0.7,0.9,1.6,1.1,1.7,1.1c0,0,0,0,0,0c0.1,0,0.1,0,0.1-0.1c0-0.1,0-0.2-0.1-0.2c0,0-0.9-0.2-1.5-1c-0.1-0.1-0.2-0.3-0.4-0.4
	c0.8,0,1.5,0,1.6,0c0.4,0,2.4,0,3.1-0.3c0.6-0.2,1.4-0.7,1.4-0.7c0.1-0.1,0.2-0.3,0.1-0.4c-0.1-0.1-0.3-0.2-0.4-0.1
	c0,0-0.7,0.4-1.3,0.6c-0.5,0.2-2.3,0.3-2.9,0.3c-0.8,0-3,0-3.9-0.2c-0.2,0-0.4-0.1-0.7-0.2c0,0-0.1,0-0.1,0c-0.5-0.2-1-0.3-1.4-0.5
	c0,0,0,0,0,0c0.6-0.2,1.6-0.7,2.1-1.2c0.5-0.5,1-1,1.1-1.1c0.2-0.2,0.3-0.3,0.3-0.3c0.1-0.1,0.1-0.2,0-0.2c-0.1-0.1-0.2-0.1-0.2,0
	c0,0-0.2,0.2-0.3,0.3c-0.1,0.1-0.5,0.6-1.1,1.1c-0.4,0.4-1.4,0.9-1.9,1.1c-0.2,0-0.3,0.1-0.5,0.1c-0.1-0.1-0.2-0.1-0.2-0.1
	c0,0-0.1,0-0.1,0c-0.2,0-0.4,0-0.5-0.1c-0.1,0-0.1,0-0.2,0c0.5-0.2,1.1-0.5,1.6-0.9c0.8-0.7,1.1-1.2,1.1-1.2c0-0.1,0-0.2-0.1-0.2
	c-0.1,0-0.2,0-0.2,0.1c0,0-0.3,0.5-1.1,1.1c-0.6,0.5-1.4,0.9-1.9,1c0,0-0.1,0-0.1,0c-0.1,0-0.1,0-0.2,0c0,0,0,0,0,0
	c-0.2,0-0.4,0-0.8-0.1c-0.2,0-0.4-0.1-0.6-0.1c-0.6-0.1-1.7,0.1-2.7,0.2l-0.2,0c-0.6,0.1-1.7,0.5-2.5,0.9c-0.1,0-0.1,0.1-0.1,0.1
	c0,0,0,0,0,0c0,0-0.5,0.4-1.8,0.9c-0.8,0.3-3,1.1-4.5,0.8c-1.5-0.2-2-1.4-2.1-2.1c0-0.4,0-0.7,0.1-1c0,0.2,0.1,0.6,0.2,1.1
	c0.5,1.8,1.4,1.8,1.4,1.8c0,0,0,0,0,0c0,0,0,0,0,0c0,0,0.2,0,0.6-0.2c0.1-0.1,0.3-0.1,0.4-0.2c0.3-0.1,0.6-0.2,1-0.5
	c0.5-0.3,0.8-0.5,0.8-0.8c0-0.2-0.3-0.9-0.5-1.3c-0.3-0.6-0.5-0.9-0.7-1.1c-0.3-0.1-0.5-0.1-0.5-0.1l-1.9,0.5c0,0,0,0,0,0
	c0,0-0.2,0.1-0.4,0.1c0.1-0.1,0.1-0.1,0.2-0.2c0.6-0.6,1.3-1,1.9-1.2c0.1,0,0.2-0.1,0.3-0.1c0.7-0.3,1.4-0.7,2.7-1.1c0,0,0,0,0,0
	c0,0,0.1,0,0.1,0c0,0.2,0,1,0.2,1.5c0.2,0.5,0.3,0.9,0.3,0.9c0,0.1,0.1,0.1,0.1,0.1c0,0,0,0,0,0c0.1,0,0.1-0.1,0.1-0.2
	c0,0-0.1-0.4-0.3-0.9c-0.2-0.5-0.1-1.4-0.1-1.4c0,0,0-0.1,0-0.1c0.3-0.1,0.5-0.1,0.7-0.2c0,0.1,0,0.1,0,0.2c0.1,0.1,0.5,0.6,0.6,1
	c0.1,0.5,0.2,0.8,0.2,0.9c0,0.1,0.1,0.1,0.1,0.1c0,0,0,0,0.1,0c0.1,0,0.1-0.1,0.1-0.2c0,0-0.1-0.4-0.2-0.8c-0.1-0.5-0.6-1.1-0.7-1.1
	c0,0,0,0,0,0c0.5-0.1,0.8-0.2,1.1-0.2c0.1,0,0.2,0,0.3-0.1c0.8-0.1,2.5-0.9,3.4-1.3c0.7-0.3,1.5-0.8,2.4-1.3
	c0.3-0.2,0.6-0.3,0.9-0.5c1.1-0.7,2.7-2.1,2.8-2.2c0.1-0.1,0.1-0.3,0-0.4c-0.1-0.1-0.3-0.1-0.4,0c0,0-1.6,1.5-2.7,2.1c0,0,0,0-0.1,0
	c0.2-0.2,0.4-0.7,0.6-0.9c0.1-0.1,0.1-0.2,0.1-0.2c0.1-0.2,0.2-1.2,0.2-1.6c0-0.1-0.1-0.2-0.1-0.2c-0.1,0-0.2,0.1-0.2,0.1
	c0,0.6-0.1,1.3-0.2,1.4c0,0-0.1,0.1-0.1,0.2c-0.2,0.3-0.4,0.7-0.6,0.9c-0.2,0.2-0.3,0.4-0.5,0.6c0,0,0,0-0.1,0
	c-0.3,0.2-0.5,0.3-0.8,0.5c0,0,0,0,0,0c0-0.1,0-0.2-0.1-0.2c0,0,0,0,0,0c0-0.3,0.1-0.6,0.2-0.9c0-0.1,0-0.2,0.1-0.2
	c0.1-0.4,0.1-0.8,0.2-1.4c0-0.2,0-0.5,0-0.7c0-0.6,0-1.5,0.1-1.7c0-0.1,0.2-0.4,0.3-0.6c0.1-0.2,0.3-0.5,0.3-0.7
	c0.1-0.4,0-1.1,0-1.2c0-0.1-0.1-0.1-0.2-0.1c-0.1,0-0.1,0.1-0.1,0.2c0,0.2,0.1,0.8,0,1.1c-0.1,0.2-0.2,0.4-0.3,0.6
	c-0.2,0.3-0.3,0.5-0.3,0.7c0,0.2-0.1,0.9-0.1,1.7c0,0.3,0,0.6,0,0.7c0,0.5,0,0.9-0.1,1.3c0,0.1,0,0.2-0.1,0.2
	c-0.1,0.3-0.2,0.6-0.2,0.9c-0.2,0-0.7,0-0.9,0c-0.3,0-0.8-0.2-1-0.4c-0.3-0.2-1-0.8-1.1-0.9c-0.1-0.1-0.2-0.4-0.2-0.5
	c0-0.1-0.1-0.1-0.1-0.1c0,0,0,0,0,0c0.1-0.3,0.3-1,0.4-1.4c0-0.1,0-0.2,0-0.3c0-0.1,0.1-0.8,0.1-1.1c0-0.3,0.2-0.8,0.3-1.1
	c0.1-0.4,0.1-0.6,0.1-0.6c0-0.1-0.1-0.2-0.2-0.2c0,0,0,0,0,0c-0.1,0-0.2,0.1-0.2,0.2c0,0,0,0.2-0.1,0.5C380.2,7.1,380,7.7,380,8
	c-0.1-0.2-0.2-0.4-0.2-0.4c0-0.1-0.1-0.1-0.2-0.1c-0.1,0-0.1,0.1-0.1,0.2c0,0,0.1,0.3,0.2,0.5c0.1,0.2,0.2,0.8,0.1,1.1
	c0,0.3-0.2,1-0.3,1.3c0,0,0,0.1,0,0.1c-0.1,0-0.2,0.1-0.2,0.2c-0.1,0.3-0.2,0.5-0.4,0.8c-0.1,0.2-1,0.9-1.4,1.2
	c-0.2,0.1-0.6,0.3-0.8,0.4c0-0.2-0.1-0.7-0.2-0.9c-0.2-0.3-0.6-0.9-0.9-1.2c-0.1,0-0.2,0-0.2,0c0,0.1,0,0.2,0,0.2
	c0.2,0.2,0.6,0.7,0.8,1.1c0.2,0.3,0.2,0.9,0.2,0.9c-0.1,0-0.2,0.1-0.6,0.5c0-0.3,0-0.6,0-0.7c0-0.1-0.1-0.1-0.2-0.1
	c-0.1,0-0.1,0.1-0.1,0.2c0,0,0,0.5,0,0.9c0,0,0,0.1,0,0.1c0,0-0.1,0.1-0.1,0.1c0,0-0.1,0.1-0.1,0.1c0,0.1-0.1,0.2-0.1,0.3
	c-0.1,0.2-0.1,0.3-0.2,0.6c-0.1,0.3-0.3,0.6-0.4,0.9c0,0.1-0.1,0.1-0.1,0.2c-0.2,0.1-0.4,0.2-0.6,0.3c0,0-0.1-0.1-0.1-0.1
	c-0.4-0.3-0.8-0.6-0.8-0.6c-0.1-0.1-0.2,0-0.2,0c-0.1,0.1,0,0.2,0,0.2c0,0,0.4,0.3,0.8,0.6c0,0,0,0,0,0c-0.1,0.1-0.2,0.1-0.3,0.1
	c-0.1,0-0.2,0.1-0.2,0.1c-0.1,0-0.1,0-0.2,0.1c-0.5,0-1.4,0.1-1.6,0.1c-0.3,0-0.6,0.1-0.8,0.2c0.1-0.4,0.1-0.6,0.2-1
	c0-0.1,0-0.2,0.1-0.3c0.1-0.3,0.1-0.5,0.2-0.6c0.3-0.6,0.6-1.3,0.9-2.1c0.3-0.7,0.5-1.3,0.6-1.9c0-0.1,0.1-0.3,0.1-0.4
	c0.1-0.4,0.2-0.9,0.3-1.1c0.1-0.2,0.5-0.6,1.2-1.1l0,0c0.1-0.1,0.2-0.1,0.3-0.2c0.2-0.1,0.4-0.3,0.6-0.5c0.3-0.3,1.4-1.3,2.1-1.7
	c0.3-0.2,0.8-0.5,1.4-0.8c0.8-0.4,1.6-0.8,1.9-1.1c0.3-0.2,0.5-0.5,0.8-0.7c0.2-0.2,0.5-0.5,0.7-0.7c0.8-0.7,1.3-0.8,1.5-0.9
	c0.6-0.1,1,0,1.3,0.3c0.5,0.4,0.7,0.5,1.2,0.9c0.3,0.2,1.3,0.9,1.9,1.2c0.4,0.2,2.1,1.1,3.5,1.8l0.9,0.4c0.7,0.4,1.8,0.9,2.9,1.4
	c1.1,0.5,2.2,1,2.7,1.3c1,0.5,2,1.1,3,1.6c0.7,0.4,1.9,1.1,2.9,1.7c0.4,0.3,0.8,0.5,1.1,0.7c0.9,0.5,4.3,2.7,4.3,2.7
	c0.1,0.1,0.3,0,0.4-0.1C409.5,16.1,409.4,15.9,409.3,15.8z M390.1,21.9c0.1,0,0.3,0.1,0.5,0.1c0,0.1,0,0.2,0,0.3
	c-0.1,0-0.1-0.1-0.2-0.1c-0.2-0.1-0.4-0.2-0.6-0.3C390,21.9,390,21.9,390.1,21.9z M386.4,21.1c0.1,0,0.3,0,0.3-0.1
	c0.2,0,0.4-0.1,0.5-0.1c0.2,0.1,0.8,0.3,1.4,0.6c-0.3,0.2-0.9,0.5-1.1,0.6c-0.2,0.1-0.4,0.2-0.6,0.1c-0.2-0.1-0.6-0.2-2.1-0.8
	c-0.2-0.1-0.3-0.1-0.4-0.2c0.3,0,0.5,0,0.7,0C385.5,21.2,386,21.1,386.4,21.1z M384.4,20.4c0.2,0,0.4,0.1,0.6,0.1
	c0.3,0.1,0.5,0.1,0.8,0.1c-0.2,0-0.4,0.1-0.6,0.1c-0.6,0-1.4,0-2-0.2c0,0-0.1,0-0.1,0C383.5,20.4,384.1,20.3,384.4,20.4z
	 M381.2,13.4c0,0,0-0.2,0.1-0.3c0.3,0.1,0.7,0.2,0.9,0.2c0.2,0,0.5,0,0.8,0c0,0,0,0,0,0c-0.3,0.2-0.7,0.4-1,0.5
	c-0.4,0.2-0.7,0.3-1.1,0.5c0,0,0-0.1,0.1-0.1C381.1,13.9,381.2,13.6,381.2,13.4z M379.4,12c0.1-0.1,0.1-0.2,0.2-0.3c0,0,0,0,0,0
	c0.2,0.3,1,0.9,1.2,1.1c0,0,0.1,0.1,0.2,0.1c0,0.2-0.1,0.4-0.1,0.4c0,0.1-0.1,0.4-0.2,0.6c0,0.1-0.1,0.1-0.1,0.2
	c-0.1-0.1-0.1-0.1-0.2-0.2c-0.3-0.3-1.2-0.6-1.6-0.8c-0.2-0.1-0.4-0.2-0.5-0.3C378.8,12.7,379.3,12.2,379.4,12z M375.7,14.9
	c0-0.1,0.1-0.1,0.1-0.2c0.3-0.3,0.7-0.7,0.8-0.7c0.3-0.1,0.9-0.4,1.3-0.6c0.1,0,0.2-0.1,0.3-0.2c0.2,0.1,0.4,0.3,0.7,0.4
	c0.4,0.1,1.2,0.5,1.5,0.7c0.1,0.1,0.2,0.1,0.2,0.2c-0.8,0.3-1.4,0.5-1.8,0.6c-0.1,0-0.2,0-0.3,0.1c-0.5,0.1-1,0.2-2.2,0.5
	c0,0,0,0-0.1,0c0,0,0,0,0,0c-0.1-0.1-0.3-0.4-0.5-0.5C375.6,15.1,375.7,15,375.7,14.9z M375.4,15.8c0,0,0.1,0.1,0.1,0.1
	c-0.1,0-0.1,0.1-0.2,0.1C375.3,15.9,375.3,15.9,375.4,15.8z M376.3,25.7c-0.5,0.8-1.2,1.4-2,1.7c-0.1,0-0.2,0.1-0.3,0.1
	c0.6-0.4,1.2-0.9,1.6-1.6c0.5-0.9,0.8-2,0.7-3.1c0.2-0.1,0.5-0.1,0.7-0.2C377,23.6,376.8,24.7,376.3,25.7z M371.6,19.1l1.9-0.5
	c0,0,0.1,0,0.3,0c0.2,0.1,0.4,0.4,0.6,0.9c0.3,0.7,0.4,1.1,0.4,1.3c0,0,0,0.2-0.6,0.5c-0.4,0.2-0.7,0.3-0.9,0.4
	c-0.1,0.1-0.3,0.1-0.4,0.2c-0.3,0.1-0.5,0.2-0.5,0.2c-0.1,0-0.7-0.2-1.1-1.6c-0.2-0.7-0.2-1.1-0.2-1.2
	C371.2,19.2,371.5,19.1,371.6,19.1z M371.2,17.8c0.1,0,0.2,0,0.3,0c-0.2,0.2-0.5,0.4-0.7,0.6c-0.5,0.5-0.7,0.9-0.8,1.3
	c-0.1,0.4-0.1,0.8,0,1.1c0,0.1,0.1,0.3,0.1,0.4c0.3,0.8,1,1.9,2.5,2.1c0.2,0,0.4,0,0.7,0c0.2,0,1-0.1,1.3-0.1c0.5-0.1,1-0.2,1.5-0.4
	c0,1-0.2,2-0.7,2.8c-0.6,1-1.5,1.7-2.6,1.9c-0.8,0.1-1.7-0.1-2.5-0.6c0,0,0,0,0,0c0,0-0.1-0.1-0.1-0.1c0,0,0,0-0.1,0c0,0,0,0,0,0
	c-0.1-0.1-0.2-0.1-0.3-0.2c-1.9-1.7-2.4-4.8-1.1-7c0.1-0.1,0.2-0.3,0.2-0.4C369.5,18.5,370.3,17.9,371.2,17.8z"/>
</svg>
