<?xml version="1.0" encoding="utf-8"?>
<!-- Generator: Adobe Illustrator 25.3.1, SVG Export Plug-In . SVG Version: 6.00 Build 0)  -->
<svg version="1.1" id="Layer_1" xmlns="http://www.w3.org/2000/svg" xmlns:xlink="http://www.w3.org/1999/xlink" x="0px" y="0px"
	 viewBox="0 0 410 727" style="enable-background:new 0 0 410 727;" xml:space="preserve">
<style type="text/css">
	.st0{fill:#D9CDD5;}
	.st1{fill-rule:evenodd;clip-rule:evenodd;fill:#EEECED;}
	.st2{fill-rule:evenodd;clip-rule:evenodd;fill:#907989;fill-opacity:0.5;}
</style>
<rect y="0" class="st0" width="410" height="237.3"/>
<desc>Created with Sketch.</desc>
<g id="Page-1">
	<g id="Home-layout" transform="translate(-100.000000, -1717.000000)">
		<g id="זרקור-על-יצירה" transform="translate(100.000000, 1717.000000)">
			<g id="_x2D_">
				<g id="Rectangle-Copy-2">
				</g>
				<polygon id="Path-2" class="st1" points="0,727 0,186 61,64.4 76.3,42.4 87,43.9 410,186 410,727 				"/>
				<path id="Fill-1" class="st2" d="M29.3,28.8c1.2-3.9,4-8.1,7.6-11.8c1.9-1.9,4-3.6,6-4.9v25.7l5.8,4V9.4c1.4-0.5,2.8-0.7,4-0.7
					c1.7,0,3.1,0.5,4,1.4l26.2,26.3l-1.6,1.7c-0.7,0.1-1.5,0.3-2.2,0.6c-3.4,1.1-7,3.2-10.3,6.1h-4.7L52.9,59.9L30,36.9
					C28.4,35.3,28.1,32.4,29.3,28.8z M64.7,45.9l7.5,0.1L57.8,66.6l-11.6,4.7L64.7,45.9z M73.2,44.7h-2.5c1.5-1.2,3.1-2.2,4.6-3.1
					L73.2,44.7z M56,72l2.1-3.1l1,1c1.3,1.3,3.1,2,5.1,2.1h-5.8H56z M59.6,73.3h14.8l5.9,13.1l-23.1,3.2L59.6,73.3z M75.2,72h-9.5
					c5-0.3,11.3-3.5,16.8-9.1c4-4,6.9-8.5,8.3-12.8c0.7-2,0.9-3.9,0.8-5.6l1.8,0.3l1.7,0.3h0.1l1.3,0.2l-11,15.5l-6.2,8.5l0.1,0.1
					L77.7,72H75.2z M81.1,69.3l5.5-7.8l9.6-13.3l17.6,3.9l-21.4,30L81.1,69.3z M76.4,42.3l10.5,1.5c1,4.1-2,10.6-7.2,15.9
					c-6.6,6.7-14.8,9.4-18.1,6c-0.2-0.2-0.5-0.5-0.6-0.8L76.4,42.3z M60.1,66c0.2,0.2,0.3,0.4,0.5,0.6c1.2,1.2,2.9,1.8,4.9,1.8
					c4.3,0,10-2.8,15-7.8C86,55.2,89,48.5,88.2,44l0.8,0.1c0.2,1.5,0,3.2-0.6,5.2c-1.2,3.9-4,8.1-7.6,11.8
					c-3.7,3.7-7.8,6.4-11.7,7.7c-3.6,1.1-6.5,0.9-8.1-0.7l-1.3-1.3L60.1,66z M78.1,41.3L76.4,41c1.1-0.5,2.1-1,3.1-1.3L78.1,41.3z
					 M95,43.6l-1.3-0.2L80,41.2l8.6-8.8l20.5,3.6L95,43.6z M69.3,19.1L58.5,8.3c-2.2-2.2-5.8-2.7-9.8-1.6V-3.9
					c0-0.5,0.2-0.9,0.5-1.1c0,0,0,0,0.1,0l8.1,1v1.8l0,0c0,0.8,0.6,1.4,1.4,1.4c0.8,0,1.4-0.6,1.4-1.4l0,0v-1.4l6.2,0.9
					c1.6,0.2,2.8,1.6,2.8,3L69.3,19.1L69.3,19.1z M49.1-6.5c-0.3,0.1-0.6,0.3-0.8,0.5c-0.6,0.5-1,1.3-1,2.1v43.4l-3.2-2.2V-5.4
					c0-0.5,0.2-0.9,0.5-1.2c0.5-0.3,1-0.4,1.5-0.4L49.1-6.5z M28.2,38.8l23.2,23.3l-8.8,12.1L57,68.4l-3.4,4.9h4.7l-2.7,17.8
					l26.6-3.7l-6.4-14.1h2.6l0.2-0.3l1.8-2.6l12.2,13.7L116,51.3L96.7,47l2-2.9l-1.6-0.2l15.9-8.5L88.1,31l-3.4,3.5L74.3,24.1V-0.3
					c0-1.4-1.2-3.1-3.1-3.7H71c-1.1-0.3-3.8-1.1-5.2-1.4l0,0l-5.5-0.8v-1.9V-11h-2.8v2.9v1.5L46.3-8.2c-0.9-0.1-1.8,0.1-2.5,0.7
					c-0.6,0.5-1,1.3-1,2.2V9.2c-2.6,1.5-5.3,3.5-7.8,6.1c-4,4-6.9,8.5-8.3,12.8C25.4,32.6,25.8,36.4,28.2,38.8z"/>
			</g>
		</g>
	</g>
</g>
</svg>
