<?xml version="1.0" encoding="UTF-8"?>
<svg width="410px" height="727px" viewBox="0 0 410 727" version="1.1" xmlns="http://www.w3.org/2000/svg" xmlns:xlink="http://www.w3.org/1999/xlink">
    <!-- Generator: Sketch 52.5 (67469) - http://www.bohemiancoding.com/sketch -->
    <title> </title>
    <desc>Created with Sketch.</desc>
    <defs>
        <path d="M3,0 L407,0 C408.656854,3.05988668e-14 410,1.34314575 410,3 L410,725.109375 C410,726.766229 408.656854,728.109375 407,728.109375 L3,728.109375 C1.34314575,728.109375 2.02906125e-16,726.766229 0,725.109375 L0,3 C-2.02906125e-16,1.34314575 1.34314575,3.04359188e-16 3,0 Z" id="path-1"></path>
        <linearGradient x1="50%" y1="57.422299%" x2="50%" y2="91.4014109%" id="linearGradient-3">
            <stop stop-color="#F8F7F7" offset="0%"></stop>
            <stop stop-color="#D9CDD5" offset="100%"></stop>
        </linearGradient>
    </defs>
    <g id="Page-1" stroke="none" stroke-width="1" fill="none" fill-rule="evenodd">
        <g id="Home-layout" transform="translate(-100.000000, -1717.000000)">
            <g id="זרקור-על-יצירה" transform="translate(100.000000, 1717.000000)">
                <g id="-">
                    <mask id="mask-2" fill="white">
                        <use xlink:href="#path-1"></use>
                    </mask>
                    <g id="Rectangle-Copy-2"></g>
                    <polygon id="Path-2" fill="url(#linearGradient-3)" mask="url(#mask-2)" points="-1.390625 726.753433 -1.390625 186.011719 60.9936523 64.4262695 76.3310547 42.371582 86.9609375 43.8701172 411.964844 186.011719 411.964844 725.417969"></polygon>
                    <path d="M29.2808216,28.8267997 C30.5265657,24.9179155 33.2337121,20.736437 36.9032868,17.0517426 C38.8188403,15.1282964 40.8612516,13.5003731 42.8952058,12.198544 L42.8952058,37.9022386 L48.6968379,41.9087812 L48.6968379,9.37579122 C50.126103,8.91637207 51.4733334,8.67434905 52.6793286,8.67434905 C54.345395,8.67434905 55.7408313,9.13291899 56.7083338,10.1035587 L82.8681133,36.3719737 L81.2181156,38.0610397 C80.5001001,38.1926662 79.7567132,38.3760942 78.9854175,38.6232125 C75.5873186,39.7152883 72.0166931,41.8298053 68.7133147,44.677185 L64.0119629,44.644066 L52.8924498,59.9416197 L29.9844598,36.9383925 C28.4012739,35.3486834 28.145021,32.3917564 29.2808216,28.8267997 Z M64.6614751,45.9391015 L72.1503167,45.9926013 L57.8322944,66.6180584 L46.2493272,71.2699957 L64.6614751,45.9391015 Z M73.1710995,44.7086055 L70.7159773,44.6916214 C72.2315057,43.4882999 73.7690228,42.4641604 75.2828598,41.6310916 L73.1710995,44.7086055 Z M56.0266843,71.9782316 L58.1545133,68.8752416 L59.10933,69.8339925 C60.4235773,71.1536549 62.1962043,71.8483034 64.2529928,71.9782316 L58.4987209,71.9782316 L56.0266843,71.9782316 Z M59.6057671,73.269021 L74.4210721,73.269021 L80.3224992,86.373931 L57.1726336,89.5796746 L59.6057671,73.269021 Z M75.2498767,71.9782316 L65.7524526,71.9782316 C70.7447317,71.6665738 77.0233494,68.4370525 82.5501229,62.8858086 C86.5047049,58.9166309 89.4351212,54.3648996 90.8034945,50.0721754 C91.4555438,48.026444 91.7177167,46.1386644 91.6060818,44.4640348 L93.4387548,44.7187959 L95.1428785,44.9956363 L95.2012332,44.9642158 L96.4706573,45.1408501 L85.5405853,60.7806329 L79.387134,69.3100338 L79.495386,69.4306207 L77.7151475,71.9782316 L75.2498767,71.9782316 Z M81.1326979,69.3355099 L86.5867396,61.5304796 L96.1771929,48.2378957 L113.817199,52.1026212 L92.4408064,82.0659211 L81.1326979,69.3355099 Z M76.3552314,42.3435735 L86.8396096,43.801656 C87.8181065,47.8803809 84.879233,54.4379312 79.6391582,59.6995967 C73.0002642,66.3666941 64.8805163,69.060368 61.5407721,65.7077122 C61.2946679,65.4605939 61.0823924,65.1803567 60.8997171,64.8737942 L76.3552314,42.3435735 Z M60.1199642,66.0108778 C60.2772679,66.2248771 60.4447203,66.4320828 60.6316242,66.6197568 C61.8545338,67.8485544 63.5535832,68.4336557 65.5325657,68.4336557 C69.8719497,68.4336557 75.5611013,65.6202442 80.5483061,60.6133397 C85.9735934,55.1656986 88.9640557,48.5461566 88.1876857,43.9884808 L88.96913,44.0971789 C89.1746397,45.5612059 88.9784329,47.3283986 88.355138,49.2858129 C87.109394,53.1938479 84.4022475,57.3761756 80.7318271,61.06087 C77.0630982,64.7464137 72.8979322,67.4638652 69.0050878,68.7155913 C65.4539138,69.8552225 62.5108117,69.5979139 60.9267801,68.0090539 L59.6379044,66.7140184 L60.1199642,66.0108778 Z M78.0745781,41.2795213 L76.4051288,41.0476888 C77.4749634,40.5220317 78.526192,40.0965807 79.5402091,39.7789786 L78.0745781,41.2795213 Z M94.9635861,43.6275693 L93.6155101,43.4407445 L79.9326227,41.2209263 L88.5547277,32.3926056 L109.10147,36.0280463 L94.9635861,43.6275693 Z M69.2647235,19.0609583 L58.5266296,8.27862017 C56.2905487,6.03332585 52.7334546,5.58919236 48.6968379,6.68551421 L48.6968379,-3.90830072 C48.6968379,-4.36432305 48.8735932,-4.76090114 49.2076522,-5.05302718 C49.226258,-5.06916204 49.247401,-5.0827493 49.2668525,-5.09803497 L57.4458008,-3.96264975 L57.4458008,-2.16998095 L57.4458008,-2.13346519 C57.4458008,-1.35134868 58.0767071,-0.717842788 58.8556143,-0.717842788 C59.6353672,-0.717842788 60.2662736,-1.35134868 60.2662736,-2.13346519 L60.2662736,-2.16998095 L60.2662736,-3.57116689 L66.4256449,-2.71686807 C67.9876879,-2.50032115 69.2647235,-1.15603185 69.2647235,0.270630204 L69.2647235,19.0609583 Z M49.1476062,-6.51705419 C48.8600617,-6.39391966 48.5953517,-6.22917416 48.3627789,-6.0253653 C47.7496327,-5.48866862 47.4113451,-4.73712344 47.4113451,-3.90830072 L47.4113451,39.4545828 L44.1806986,37.2237249 L44.1806986,-5.39780384 C44.1806986,-5.87081024 44.3642196,-6.29201523 44.6991243,-6.58329207 C45.0712407,-6.90598944 45.5820549,-7.0393144 46.1368466,-6.95779086 L49.1476062,-6.51705419 Z M28.1670097,38.7633311 L51.3583156,62.0510414 L42.5746783,74.1352087 L56.9442894,68.3657194 L53.5800193,73.269021 L58.305897,73.269021 L55.6469565,91.0938046 L82.2033782,87.4159038 L75.8308857,73.269021 L78.3832655,73.269021 L78.5752437,72.9947283 L80.374088,70.4199429 L92.5507499,84.1286367 L116,51.2593621 L96.7167616,47.0354234 L98.7329556,44.1515279 L97.127781,43.9281874 L112.985858,35.4047308 L88.111571,31.0033086 L84.668649,34.5283527 L74.28914,24.1060769 L74.28914,-0.267764879 C74.28914,-1.69357773 73.1017505,-3.32914386 71.1625169,-3.9745386 L71.0322762,-3.98897506 C69.9150814,-4.33460093 67.2662896,-5.13285231 65.8243387,-5.37912136 L65.8091158,-5.38251817 L60.2662736,-6.19350761 L60.2662736,-8.13139023 L60.2662736,-11 L57.4458008,-11 L57.4458008,-8.13139023 L57.4458008,-6.60706977 L46.3220591,-8.23584228 C45.4078368,-8.37001644 44.5071461,-8.1228982 43.8584797,-7.55987621 C43.2368762,-7.01978272 42.8952058,-6.25210266 42.8952058,-5.39780384 L42.8952058,9.16179192 C40.264174,10.6691283 37.5967763,12.7038201 35.0858367,15.2259548 C31.1312548,19.1959817 28.1999928,23.747713 26.8316195,28.0404372 C25.3710628,32.6244382 25.8455111,36.4331164 28.1670097,38.7633311 Z" id="Fill-1" fill-opacity="0.5" fill="#907989" mask="url(#mask-2)"></path>
                </g>
            </g>
        </g>
    </g>
</svg>