<svg id="Layer_1" data-name="Layer 1" xmlns="http://www.w3.org/2000/svg" viewBox="0 0 200 352"><defs><style>.cls-1{fill:#231f20;opacity:0.12;}</style></defs><title>work side icons</title><path class="cls-1" d="M200,247.66c-1.49,1.4-3.05,2.76-4.75,4.07a77.4,77.4,0,0,1-26.66,13.45,217.61,217.61,0,0,1-24.12,5.59q-9.65,1.53-17.27,2Q81,220.51,95.72,182.41l31.48-77.69q14.22,16.75,53.83,33.51,10,3.9,19,6.66V133.25q-7.2-2.24-14.91-5.17a164.31,164.31,0,0,1-30-14.73q-12.69-8.11-17.77-13.46T132.28,92a5.59,5.59,0,0,0-3.55-5.59,7.53,7.53,0,0,0-6.6,2,19.16,19.16,0,0,0-2,4.57L85.56,178.35a.45.45,0,0,1-.5.51q-14.75-7.62-23.11-15T53.57,153c0-2.71-1.19-4.4-3.55-5.08-3.05-.67-5.26,0-6.6,2a8.08,8.08,0,0,0-1.27,2,8.59,8.59,0,0,1-1.27,2l-33,82.78a49.86,49.86,0,0,0-3.81,28.43,124.63,124.63,0,0,0,7.11,26.92A113.55,113.55,0,0,0,23.36,315a162.43,162.43,0,0,0,12.18,16q4.83,5.32,6.35,6.85a4.38,4.38,0,0,0,3.56,2c2,0,5.15-.16,9.39-.5A170.56,170.56,0,0,0,74.39,336a148.2,148.2,0,0,0,25.14-7.61,90.77,90.77,0,0,0,23.61-14.48,59.3,59.3,0,0,0,17.27-22.85l3.55-8.63a160.15,160.15,0,0,0,21.84-5.08q20.52-5.73,34.2-15.71ZM49.51,218.47q2.54-.51,4.57,2a9.15,9.15,0,0,0,6.09,5.58,11.63,11.63,0,0,0,7.62.51c2-1,3.72-.51,5.08,1.52.67,2,.17,3.56-1.53,4.57a14.49,14.49,0,0,1-6.6,1.53,15.67,15.67,0,0,1-7.11-1.53A15.2,15.2,0,0,1,48,223.54Q46,219.49,49.51,218.47Zm38.08,77.18q-3.56,0-3.55-4.06,1-12.69-13.71-18.79-13.71-6.09-22.85,4.06-2.55,2.55-5.08,0c-2.37-1.34-2.54-3-.51-5.07q11.69-12.69,31-5.59,18.78,7.13,18.79,25.39C91,294.3,89.63,295.65,87.59,295.65Z"/><path class="cls-1" d="M144.47,229.13a34,34,0,0,0,12.19,2.54A27.56,27.56,0,0,0,177,223.54q2-3-.51-5.07-2-2-5.08,0-8.64,10.16-23.86,4.06-14.75-5.58-14.73-19.3c0-2.7-1.19-4.06-3.55-4.06s-3.56,1.19-3.56,3.55a23.38,23.38,0,0,0,4.82,15.49A31.78,31.78,0,0,0,144.47,229.13Z"/><path class="cls-1" d="M182.05,190.54a11.12,11.12,0,0,1,8.12,0,10.77,10.77,0,0,1,6.1,6.09c.33,1.36,1.35,2,3,2a6.87,6.87,0,0,0,.69,0v-9.76a18.92,18.92,0,0,0-7.29-4.94q-7.62-3.54-14.22,0c-1.7,1-2.2,2.72-1.52,5.08Q178.5,191.56,182.05,190.54Z"/><path class="cls-1" d="M129.74,169.72c2.37-1,5.08-.84,8.13.5q5.07,1.53,6.6,5.59c.33,1.36,1.35,2,3.05,2h1q3.56-2.53,2-4.57a16.76,16.76,0,0,0-10.15-10.16,20.55,20.55,0,0,0-14.22,0,5.46,5.46,0,0,0-1.52,5.08C126,170.22,127.71,170.73,129.74,169.72Z"/></svg>