<svg id="Layer_1" data-name="Layer 1" xmlns="http://www.w3.org/2000/svg" viewBox="0 0 200 352"><defs><style>.cls-1{fill:#231f20;opacity:0.12;}</style></defs><title>work side icons</title><path class="cls-1" d="M138.45,235.73,141,246.9c0,1,.84,1.53,2.54,1.53l5.07-1c1.35-.67,1.69-1.52,1-2.54l-2.54-11.17a12.26,12.26,0,0,0,3.56-10.16q-3.06-9.63-12.7-7.61-10.17,3-7.62,12.69A9.78,9.78,0,0,0,138.45,235.73Z"/><path class="cls-1" d="M82.59,99.64l-11.17,25.9q-14.23,1.51-22.86,13.71c0,.34-.08.5-.25.5s-.25.18-.25.51L25.21,192.57v1l-.51,1.53q-3,12.69,6.09,23.86L18.6,246.4c-2,3.38-2,6.52,0,9.39a12.66,12.66,0,0,0,8.13,5.33l2.54,1q10.15,5.08,10.15,16.76a18.06,18.06,0,0,1-5.58,13.2,18,18,0,0,1-13.2,5.58,4.16,4.16,0,0,0-3.05,1,18.5,18.5,0,0,0-3.05,3.55q-1,5.08,4.57,6.1L177,336.28q13.29,2.45,23-4.54V312.31a20.4,20.4,0,0,1-7.47,10q-6.36,4.85-12.95,3.81L37.9,300.73a27.41,27.41,0,0,0,10.66-22.34A31.68,31.68,0,0,0,45,264.17L187.2,289.05q6.59,1.53,10.66,8.13a20.11,20.11,0,0,1,2.14,4.67V106L99.85,89Q89.19,87.45,82.59,99.64ZM172,202.72l9.14,39.11q2,9.64-6.6,11.17l-51.29,12.18q-9.13,2.55-11.17-6.6l-9.65-39.1q-2-8.11,6.6-11.17l51.8-12.19Q168.9,194.1,172,202.72ZM144,148.9q2.53,6.09.51,10.66l-2,5.08q13.2,6.09,16.25,19.29l1.52,5.59-9.14,2L149.62,186a19.9,19.9,0,0,0-11.17-13.21l-3,6.6q-2.55,6.1-9.65,9.65a23.64,23.64,0,0,1-14.22,2.54q0-15.23,13.71-19.3a4.37,4.37,0,0,0,1.53-3c0-2.37-1.53-4.23-4.57-5.59a28.66,28.66,0,0,0-14,10.41,26.77,26.77,0,0,0-5.33,16l-33.51-5.59a98.56,98.56,0,0,0-15.75-1.52q-10.16,0-16.75,3.05l18.28-42.66a24.68,24.68,0,0,1,10.15-8.13,21.56,21.56,0,0,1,12.7-2h1.52l55.35,9.65Q141.49,143.31,144,148.9Z"/></svg>