<svg id="Layer_1" data-name="Layer 1" xmlns="http://www.w3.org/2000/svg" viewBox="0 0 200 352"><defs><style>.cls-1{fill:#231f20;opacity:0.12;}</style></defs><title>work side icons</title><path class="cls-1" d="M157.65,104.21q-28.93,17.27-57.63,45.7T67.26,206.79c-.68,3.38.84,5.42,4.57,6.09s5.92-.84,6.6-4.57q3.06-23.87,31.49-52.81a249.3,249.3,0,0,1,53.83-42.15A121.93,121.93,0,0,1,200,99V87.65l-1.47.31A137.39,137.39,0,0,0,157.65,104.21Z"/><path class="cls-1" d="M200,162.62q-6.36,8.63-10.86,13.7-14.22,17.27-32,17.77-15.24.51-25.9,4.57T118,206.79l-3,3.55,12.69-1a73.23,73.23,0,0,1,12.19,2.53,68.22,68.22,0,0,0,13.2,2.54q-35,31-56.36,21.33-5.09-2-7.62,3.05-2,4.58,3.05,7.11a34.67,34.67,0,0,0,14.72,3q27.42,0,61.45-33.51l8.63-8.63-15.23-.51a42,42,0,0,1-10.16-1q5.07-.49,9.14-1,19.29-.51,36.56-20.82c.88-1,1.79-2,2.74-3.15Z"/><path class="cls-1" d="M23.08,336.79q5.58,4.06,13.71,3a477.21,477.21,0,0,1,76.18,0q8.11.51,13.45-3.3a12.09,12.09,0,0,0,5.33-10.41V299.21q0-6.6-5.58-12.19a20.08,20.08,0,0,0-13.2-6.09,10.71,10.71,0,0,1-7.11-2.54,6.39,6.39,0,0,1-2.54-6.1h.51a8.41,8.41,0,0,0,5.33-1.77,5.32,5.32,0,0,0,2.28-4.32q0-6.6-7.61-6.6H76.91A220,220,0,0,1,103.57,203q17-25.64,34.53-40.37t30-22.35q12.45-7.62,19.05-9.65,5.07-1,4.06-6.6-1.53-5.07-6.6-4.06-7.12,2-20.82,10.41T131,154.48q-19,15.75-37.32,43.42a221.38,221.38,0,0,0-27.93,61.19H45.93c-5.07,0-7.61,2.21-7.61,6.6s2.54,6.6,7.61,6.6h.51a6,6,0,0,1-2.28,5.84,13.76,13.76,0,0,1-7.37,2.8,21.55,21.55,0,0,0-13.45,5.84q-5.85,5.33-5.84,11.93v27.42A12.57,12.57,0,0,0,23.08,336.79Z"/></svg>