<svg id="Layer_1" data-name="Layer 1" xmlns="http://www.w3.org/2000/svg" viewBox="0 0 200 352"><defs><style>.cls-1{fill:#231f20;opacity:0.12;}</style></defs><title>work side icons</title><path class="cls-1" d="M151.16,246.4,138,266.71l28.43,1.52q12.69,0,17.27-4.06a24.77,24.77,0,0,0,8.63-11.68q5.07-10.67,7.62-14.73l.09-.11v-35.5a44.94,44.94,0,0,0-7.71,11.24q-2.55,5.09-1,8.12c.67,1.7,2.54,3.56,5.58,5.59,2,1,2.54,2.37,1.53,4.06l-2,3.05a50.78,50.78,0,0,0-6.09,6.09,48.19,48.19,0,0,1-6.09,6.1c-1,.68-2.88,1-5.59,1h-6.09l2.54-5.58a16.57,16.57,0,0,0,2-7.11,4.62,4.62,0,0,0-2.54-4.07c-2.37-1-3.56-2-3.56-3a6.1,6.1,0,0,1,.51-4.07,44.45,44.45,0,0,0,9.65,0c.67-.67,1.86-2.7,3.55-6.09q4.58-10.66-4.06-13.71L176,202.22q-5.08-1.53-3.55-5.08H171a41.32,41.32,0,0,0-7.11,10.66q-4.56,10.66,4.57,15.24a37.36,37.36,0,0,0-5.07,7.61q-3,7.62,2.54,10.16,4.56,2.55,3,6.09Z"/><path class="cls-1" d="M200,329.6l-95.56-16.68q5.58-6.6,5.59-13.2c0-3.73-.69-6.43-2-8.13l92,15.9V296L96.82,278.39a7.73,7.73,0,0,1-2-1.53,1.47,1.47,0,0,1,.51-1l44.18-101.56q2.53-5.07,6.09-4.07L200,179.29V168.11l-20.4-3.47,11.68-34.53a25.18,25.18,0,0,0-3.56-17.78q-6.09-8.11-12.69-8.63L74,86.43q-8.13-.5-13.2,8.13L16.59,195.61a9.86,9.86,0,0,0,0,7.62c1,2.37,3.21,3.9,6.6,4.57l2.54.51q5.58,4.06,5.59,10.16,0,10.16-10.16,12.18h-.51q-6.09-1-7.11,4.07a8.64,8.64,0,0,0,.51,3.55,13.41,13.41,0,0,0,3.55,2.54L92.76,254l-7.62,17.27q-3,5.09-.5,11.17a13.7,13.7,0,0,0,9.64,6.6l3,.51a13.77,13.77,0,0,1,4.06,10.16q0,9.13-8.63,11.68H91.24q-5.08-1-6.1,4.06t4.57,6.09l108.68,19.3a8.52,8.52,0,0,0,1.61.33ZM50.61,180.89c3,.68,5.41.68,7.11,0q3-1.53,5.59-6.1l22.34-52.3c1-3,.84-5.25-.51-6.6q-.51-1-5.58-2.54l1-2.54,59.93,10.66-9.15,21.33-2.53-.51q2.53-11.16-.51-15.23-3.56-5.07-15.74-6.6-5.08-1-6.61,0a11,11,0,0,0-3,3.55L92.25,149.4q8.64,1.53,13.71-1.52c2-1.35,5.41-5.24,10.16-11.68l2.54.51-15.24,36.56-2.53-.51q2.53-10.15,1-14.22c-1-2.7-4.57-4.57-10.66-5.58l-11.17,25.9c-1,2.37-1.2,3.89-.51,4.57q1,1.51,6.6,2.54,11.16,1.51,17.77-1,8.11-3,17.78-13.2l3,1L111,194.09,50.1,183.43ZM33.35,232.68a19.24,19.24,0,0,0,5.58-14.21,26.28,26.28,0,0,0-1.52-8.13l69.06,12.19-9.14,21.33Z"/></svg>