<svg id="Layer_1" data-name="Layer 1" xmlns="http://www.w3.org/2000/svg" viewBox="0 0 200 352"><defs><style>.cls-1{opacity:0.12;}.cls-2{fill:#231f20;}</style></defs><title>work side icons</title><g class="cls-1"><path class="cls-2" d="M178,110.86q-13.71-2.53-77.7-12.69-12.7-2-40.12-6.61T22.65,85q-5.08-1-6.1,4.57c-1,3.39.33,5.42,4.06,6.1q11.17,2,78.21,12.69,17.25,2.55,46,7.36T176.51,121h1c2.7,0,4.39-1.35,5.08-4.07Q183.62,111.88,178,110.86Z"/><path class="cls-2" d="M0,242.32q12.06-15,16.55-20.25h.51q11.67-12.69,19-17.26t24.63-7.62q21.33-3.56,35-4.57l1.52-.51a3.6,3.6,0,0,0,3.56-2.54l1-1q6.6-10.16,24.38-34.54c.67-.67,2-2.19,4.06-4.57Q141,135.25,145,135.24a4.39,4.39,0,0,1,3.05,1.52q3.54,8.64-3.05,22.34-3,6.1-22.35,37.58-3.56,6.09-8.37,14.22c-3.23,5.42-5.84,9.82-7.88,13.2a61.28,61.28,0,0,0-4.06,7.62q-2,3.56,1,6.6l5.08,4.06q3,3.57,6.6,0a98.19,98.19,0,0,0,8.38-7.11q4.3-4.05,8.63-7.87c2.87-2.54,4.65-4.14,5.33-4.82q5.07-5.07,11.17-5.08a5.54,5.54,0,0,1,4.07,1.52,7.29,7.29,0,0,1,.5,3q-.51,6.09-26.91,39.61-7.12,9.13-10.16,13.2Q104.91,289.63,95,297T66.83,308.4q-25.9,5.09-38.6,22.34-3,5.08,1.52,7.62a4.15,4.15,0,0,0,3,1,6.3,6.3,0,0,0,4.57-2q9.15-13.18,32-18.28,20.31-4.56,32.25-13.45t23.11-24.12q1-1,4.57-5.59c2.36-3,4.23-5.59,5.58-7.62q27.93-35.53,30-45.7a15.35,15.35,0,0,0-3.55-11.17,16.66,16.66,0,0,0-12.19-5.08q-10.17,0-18.28,8.12-2,2-12.19,11.18c1-2,3.13-5.67,6.35-10.92s5.66-9.4,7.36-12.44q21.33-35.55,22.85-38.6,9.65-21.33,2-32.5A13.22,13.22,0,0,0,145,124.06q-9.66,0-23.36,18.79c-.34.34-.94,1-1.78,2a14.54,14.54,0,0,0-1.78,2.54q-6.09,7.13-24.37,34-4.58.51-17.27,2.28T59.21,186q-19.82,3.55-28.69,9.14T9.44,214.45l-.51.51Q7,217.12,0,225.59Z"/><path class="cls-2" d="M26,126.09q12.94,2,21.07,3,7.62,1.53,28.18,4.57T110,139.3h.51q4.56,0,5.58-4.06c.68-3.73-.85-5.92-4.57-6.61Q74.44,122,48.54,119,21.63,114.93,14,113.4c-3-.67-5.25.68-6.6,4.06q-1,5.6,4.57,6.6C12.66,124.06,17.31,124.75,26,126.09Z"/></g></svg>