<svg id="Layer_1" data-name="Layer 1" xmlns="http://www.w3.org/2000/svg" viewBox="0 0 200 352"><defs><style>.cls-1{fill:#231f20;opacity:0.12;}</style></defs><title>work side icons</title><path class="cls-1" d="M188.22,126q-4.07,1.53-6.6,1l-20.82-4.57q-4.58,5.6,1,11.17,16.76,15.24,18.78,17.77l2.54,2.54c1.7,2,2.71,3.3,3.05,3.81s1,1.7,2,3.56a39,39,0,0,1,2.29,4.82,28.47,28.47,0,0,1,1.27,5.59,51.5,51.5,0,0,1,.5,7.11q0,22.84-32.5,37.07l-25.89,9.14q-25.41,9.13-42.66,23.36Q76.5,260.61,72.69,280.17a129.1,129.1,0,0,0-2.28,36.3,33.21,33.21,0,0,1-11.68-7.61q-18.28-19.31-8.63-51.8,1-5.58,7.61-21.33,5.07-12.18,7.62-19.3a170.51,170.51,0,0,0,5.33-19.8A102.27,102.27,0,0,0,73,170.73a116,116,0,0,0-4.57-27.42q-5.59-18.78-17.27-29.71t-18-12.44a46,46,0,0,0-9.91-1.52c-2,0-3.22.68-3.55,2-.68,2-.34,3.39,1,4.06a35.36,35.36,0,0,1,4.57,4.06c2,2,4.23,6,6.61,11.94a37.67,37.67,0,0,1,2,19.55Q31.3,160.59,13,185.46,4.9,196.64,1.09,203.23c-.36.63-.72,1.31-1.09,2v20.5q5.12-16.45,19.12-36.23a35.6,35.6,0,0,1,2.79-4.06,23.43,23.43,0,0,0,2.8-4.32,22,22,0,0,1,2.54-4.06A35.51,35.51,0,0,0,30,172.76l2.28-4.57c1-2,1.86-3.63,2.54-4.82a30,30,0,0,0,2-4.57q1-2.79,1.78-5.33a48.53,48.53,0,0,0,1.27-5.34c.33-1.85.68-3.8,1-5.84q2.53-18.27-7.11-33,19.8,8.64,27.93,36.05,9.14,33.51-3.05,69.06A80.24,80.24,0,0,1,51.11,222a30.88,30.88,0,0,1-5.58,4.06l-1.53,1a39.66,39.66,0,0,0,2.8-14q.24-7.86-2.8-8.88-7.11-2-17.26,14.72a51.69,51.69,0,0,0-5.08,11.94,67.07,67.07,0,0,0-2.54,11.42l-.51,4.57a33.65,33.65,0,0,1-6.09-14.22V219Q6.92,223.55.33,233.7l-.33.51v58.14Q9.62,309.1,27.75,321a134.41,134.41,0,0,0,18.79,9.14q22.35,10.17,38.09,10.16h69.06q9.13,0,11.68-3.81a8.23,8.23,0,0,0,.51-8.38c-1-2-3-3.63-5.84-4.82a24.35,24.35,0,0,1-4.83-2.29c-.68-.33-.84-1.18-.5-2.54a9.72,9.72,0,0,1,1-2.79c.34-.51,1-1.69,2-3.55s1.86-3.47,2.54-4.83a13,13,0,0,0,1.53-5.84,9.86,9.86,0,0,0-.51-3.81l-1-1a9,9,0,0,1,1.27-1,15.35,15.35,0,0,1,3.3-1.27,16.36,16.36,0,0,1,4.57-.76c1.35,0,2.2,1,2.54,3.05a92,92,0,0,1,.76,10.41A103.77,103.77,0,0,0,174,320.54q2,10.15,8.38,15.23t12.44,5.08a30.53,30.53,0,0,0,5.18-.37V328.69c-2.43-2.81-3.65-7.7-3.65-14.76a32.55,32.55,0,0,1,.5-5.84c.34-1.85.59-3.38.77-4.57a15.13,15.13,0,0,1,2.38-5.08V124.14l-2.13-.13A37.45,37.45,0,0,0,188.22,126Z"/><path class="cls-1" d="M158.77,93.54c1.69,0,2.71-.5,3-1.52V89.48a2,2,0,0,0-1.53-2c0-.33-.68-.76-2-1.27s-3.39-1.09-6.09-1.78a36,36,0,0,0-8.64-1,57.57,57.57,0,0,0-18.28,3Q116.12,90,104.43,98.11q-9.14,7.13-15.23,7.11h-1q-7.11,0-9.14-3.55-2-3-.51-5.08.51-3,4.07-3h.5c1,0,1.86.69,2.54,2V97.1l-.5.51c-.69-1.35-1.53-2-2.54-2-2.37,0-3.56,1.19-3.56,3.55a4.8,4.8,0,0,0,4.06,5.08,4.5,4.5,0,0,0,2,.51c2.7,0,4.9-1.35,6.6-4.07A8.6,8.6,0,0,0,92.25,93Q89.7,88,84.63,87.45a4.65,4.65,0,0,0-2-.51q-8.13,0-11.18,7.11-2,5.6,1.53,12.19,5.07,6.6,14.72,6.6h3a1.47,1.47,0,0,0-1,.51Q85.14,120,85.14,125c-2.38.34-4.91,1.7-7.62,4.06a17.48,17.48,0,0,0-4.06,11.17q1,6.62,5.07,10.16a8.17,8.17,0,0,0,1.27,1q.77.52,1.53,1a16.36,16.36,0,0,0,1.77,1,10.68,10.68,0,0,0-1.52,5.58q1,8.13,8.13,11.17a4,4,0,0,0-.51,2.54q1,9.15,10.15,11.68a11.58,11.58,0,0,0,4.57,9.65,13.17,13.17,0,0,0,9.65,4.06l-.5-.5a7,7,0,0,0,3-.51,13.67,13.67,0,0,0,8.38-5.33,12.9,12.9,0,0,0,2.79-9.4,7.29,7.29,0,0,0-.5-3,13,13,0,0,0,8.12-5.07,12.69,12.69,0,0,0,2.54-9.14v-2a5.64,5.64,0,0,0,2.54-.5q11.67-2.54,11.68-15.24,0-3.54-3-8.63a4.12,4.12,0,0,0-3-1,3,3,0,0,0-2,.51,2.36,2.36,0,0,0-1.52,2.54,2.86,2.86,0,0,0,1,2,7.48,7.48,0,0,1,1.52,4.57q0,7.62-7.62,8.63h-.51a7.92,7.92,0,0,1-7.1-4.06c-.34-1-1.36-1.52-3-1.52a2,2,0,0,0-1.52.51,3.23,3.23,0,0,0-1.53,2,2.3,2.3,0,0,0,.51,2.54c.68,1.35,2.36,3,5.08,5.08v.5a6.34,6.34,0,0,1,2,4.57,6.94,6.94,0,0,1-7.11,7.11,9.8,9.8,0,0,1-5.08-2c-.34-.67-1.19-1-2.54-1a3.48,3.48,0,0,0-2.54,1,3.43,3.43,0,0,0-1,2.54,2.89,2.89,0,0,0,1,2,22.91,22.91,0,0,0,6.1,4.06,8.29,8.29,0,0,1,1,3.56,5.5,5.5,0,0,1-1.52,5.08,6.76,6.76,0,0,1-5.59,2.54q-3.55,0-5.07-2a7.27,7.27,0,0,1-2.54-5.07v-2c.33-.68.16-1.69-.51-3.05a9.05,9.05,0,0,0-2.54-1h-1c-4.06,0-6.09-1.85-6.09-5.58a7.63,7.63,0,0,1,1-3.05,4.82,4.82,0,0,0,0-3c-1.36-1.35-2.38-2-3-2q-5.59,0-5.59-5.08a5.48,5.48,0,0,1,1.53-4.06V154h2.54a19.11,19.11,0,0,0,7.1-4.06c.68-.33,1-1.18,1-2.54a2.94,2.94,0,0,0-1-2c-.34-.67-1.18-1-2.53-1a3,3,0,0,0-2,1,7.52,7.52,0,0,1-5.58,2h-.51a7.53,7.53,0,0,1-5.59-2q-2.53-1.51-2.53-5.59c-.69-2,0-4.06,2-6.09a6.48,6.48,0,0,1,4.06-2.54,6.4,6.4,0,0,0,2.54,4.06,3,3,0,0,0,2.54,1.53h1l1-1c2-1.35,2.36-3,1-5.08A7.75,7.75,0,0,1,92.25,125,10.15,10.15,0,0,1,95,117.92a8.93,8.93,0,0,1,6.85-3,9.63,9.63,0,0,1,7.62,3.56l.51.5h1a.45.45,0,0,0,.51.51h1.53l.5-.51h.51l.51-.5c.67,0,1.35-.51,2-1.53a8,8,0,0,1,7.11-4.06h.51q5.58,0,7.61,4.57a3.08,3.08,0,0,0-2,2,3.26,3.26,0,0,0,0,2.54c0,.34.51,1,1.53,2h1.52a3.44,3.44,0,0,0,3-1.52c.67-1,1.35-1.52,2-1.52h1.52a4.6,4.6,0,0,1,2,.5c1.35.69,2,1.53,2,2.54a1.26,1.26,0,0,1,0,2c-.68,1-.68,1.87,0,2.54,0,.69.51,1.36,1.53,2h1.52c1.69,0,2.71-.5,3-1.52q1.51-4.57.51-7.62a11.46,11.46,0,0,0-5.08-6.09,9.12,9.12,0,0,0-5.59-1.52h-1q-3.56-8.64-13.71-8.64h-.51a13.5,13.5,0,0,0-6.1,1.53A18.67,18.67,0,0,1,128.3,96.59a20.59,20.59,0,0,1,10.16-2.54,16.88,16.88,0,0,1,7.61,1.53h1.53c1,0,1.85-.68,2.54-2,.67-.67.67-1.52,0-2.54a49.87,49.87,0,0,1,7.11,2A2,2,0,0,0,158.77,93.54ZM109,109.29a11.59,11.59,0,0,0-6.09-1.53,18.13,18.13,0,0,1,3-2.28,17.51,17.51,0,0,0,2.54-1.78,30.87,30.87,0,0,1,4.06-3A27.43,27.43,0,0,0,109,109.29Z"/></svg>