<svg id="Layer_1" data-name="Layer 1" xmlns="http://www.w3.org/2000/svg" viewBox="0 0 200 352"><defs><style>.cls-1{fill:#231f20;opacity:0.12;}</style></defs><title>work side icons</title><path class="cls-1" d="M28.89,178.86l-6.6,15.23q-3,7.62,3.05,8.63l4.06.51,13.2-30.47-4.06-1Q32.95,170.73,28.89,178.86Z"/><path class="cls-1" d="M57.84,136.71l-4.06-.51q-5.6-1.53-9.65,6.6L37.53,158a6.58,6.58,0,0,0-.51,5.58,4.6,4.6,0,0,0,3.55,3l4.06.51Z"/><path class="cls-1" d="M9.6,238.78l4.57.51,13.2-31-4.57-.51q-6.09-1-9.14,7.11l-6.6,15.24Q3,237.76,9.6,238.78Z"/><path class="cls-1" d="M200,188.89l-8.1,4.69v1a10.41,10.41,0,0,0,.25,1.78c.17.85.43,2,.77,3.3a15.29,15.29,0,0,1,.5,3.55,13.79,13.79,0,0,0,.51,3.05c.34,1.36.68,2.54,1,3.55l-11.17-2c-.34-1.69-.77-3.89-1.27-6.6a52.43,52.43,0,0,0-1.27-5.59,19,19,0,0,0-2-7.61v-1a6.76,6.76,0,0,0-3.05,2.54q-1,1-4.06,6.6l-3.56,9.14-10.16-2,2-5.08a31,31,0,0,1,7.11-11.68l9.64-5.58-.5-2c-.69-.68-1.36-2.88-2-6.61a35.75,35.75,0,0,1-2.53-5.58l12.18,2a58.87,58.87,0,0,0,3.05,7.62l3,10.66c0,1,.84.51,2.54-1.52l.5-1a12,12,0,0,0,2.54-5.08l3.56-8.12.48.1v-61L97.45,93q-10.67-1.53-16.76,10.15L18.74,245.38q-3,5.09-.26,9.14a12,12,0,0,0,7.87,5.08l3,.51Q35,265.7,35,275.85a21.81,21.81,0,0,1-4.07,13.2q-4.07,5.59-9.64,5.59a5.6,5.6,0,0,0-2.54.51,6.13,6.13,0,0,0-4.07,4.06q-1,5.09,4.57,6.09L172.1,332.22q16.86,3.22,27.9-9.54Zm-68-12.06,26.91,4.57-2.54,5.07L130,181.9ZM77.64,181.4c.68,1,2,1.52,4.07,1.52a8.11,8.11,0,0,0,4.57-3.56l7.61-17.77-6.6-1L90.85,153l24.37,4.57q8.63,1,10.66,7.62.51,2.53-2.53,10.15l-8.64,20.82-9.65-1.52,8.13-19.3q2-5.07,1-7.11c-.34-2-2-3.38-5.08-4.06l-5.59-1-7.11,16.25q-3,8.13-10.15,11.18Q78.66,193.08,75.1,188ZM193.93,307.33q-1,6.62-7.11,11.43t-12.69,3.3L34,297.18q9.14-7.62,9.14-21.33a37.92,37.92,0,0,0-2.54-13.71l140.67,24.37c4.39.69,7.87,3.3,10.41,7.87S195,303.27,193.93,307.33Z"/><path class="cls-1" d="M73.07,100.65l-4.06-.5q-6.09-1-9.65,7.1L52.76,122q-3.55,7.62,2.54,8.63l4.57.51Z"/></svg>