<svg id="Layer_1" data-name="Layer 1" xmlns="http://www.w3.org/2000/svg" viewBox="0 0 200 352"><defs><style>.cls-1{fill:#231f20;opacity:0.12;}</style></defs><title>work side icons</title><path class="cls-1" d="M127.29,256q1-3.54-3.05-4.57L46.55,230.65c-2.71-.67-4.4.34-5.08,3-.68,2.37.33,3.9,3.05,4.57l77.69,20.82a1.47,1.47,0,0,0,1,.51C125.26,259.6,126.61,258.42,127.29,256Z"/><path class="cls-1" d="M169.44,303.27q1-20.82,8.63-37.07-4.06-1-32.5-8.63a82.15,82.15,0,0,0-9.14,37.07Q162.83,301.75,169.44,303.27Z"/><path class="cls-1" d="M200,234c-1.14,2.76-2.27,5.52-3.39,8.31q-22.61,56.37-14,82.27-13.71-3.56-64.49-18.28-4.58-1-35-9.9T35.89,283q-3.06,0-5.59-6.6-6.6-19.31,10.16-75.16A456.11,456.11,0,0,1,86.16,97.1L200,127.53V116.25L85.14,85.42q-3.56-1-6.09,2.54Q52.13,131.13,31.57,193.33T20.14,280.42q3,10.66,12.19,12.69,16.76,4.58,48,13.46t34.28,9.9q77.19,23.4,85.4,23.94Z"/><path class="cls-1" d="M181.12,243.35c2.36,0,3.55-1,3.55-3,.68-2.7-.17-4.39-2.53-5.08L134.91,223c-2.37-.68-3.9.34-4.57,3-.68,2.38.33,3.9,3,4.57l46.71,12.7Z"/><path class="cls-1" d="M123.48,119.19q-21.58-5.84-35.8-9.4-28.94,47.24-41.13,96,14.21,3.55,35.55,9.4t35.54,9.39q14.22-52.81,41.64-95.47Q145.06,125,123.48,119.19Z"/><path class="cls-1" d="M120.18,281.43,42.49,260.61q-4.08-1-5.08,3.05c-.68,2.37.33,3.9,3.05,4.57l77.69,20.82a1.45,1.45,0,0,0,1,.51,4,4,0,0,0,4.06-3.05C123.9,283.81,122.89,282.12,120.18,281.43Z"/><path class="cls-1" d="M171,137.72c-2.37-.67-3.89.34-4.57,3.05s.17,4.4,2.54,5.08L200,154.11v-8.66Z"/><path class="cls-1" d="M200,176.77l-43.26-11.62c-2.71-.68-4.4.34-5.07,3s.33,4.41,3,5.08L200,185.44Z"/><path class="cls-1" d="M190.77,214.4a4,4,0,0,0,4.06-3q1-4.06-3.05-5.08l-47.22-12.7c-2.72-.67-4.41.34-5.08,3s.33,4.4,3.05,5.08l47.22,12.69Z"/></svg>