<svg id="Layer_1" data-name="Layer 1" xmlns="http://www.w3.org/2000/svg" viewBox="0 0 200 352"><defs><style>.cls-1{fill:#231f20;opacity:0.12;}</style></defs><title>work side icons</title><path class="cls-1" d="M126.77,146.86c-2.72-.67-4.41.51-5.08,3.56s.33,4.57,3,4.57L200,168.37V160Z"/><path class="cls-1" d="M106,194.6q-1,4.07,3,5.08l91,16.18v-8.4l-89-15.91C108.31,190.88,106.62,191.89,106,194.6Z"/><path class="cls-1" d="M119.66,169.72c-2.72-.68-4.4.34-5.08,3s.51,4.41,3.56,5.08L200,192v-8.39Z"/><path class="cls-1" d="M119.66,241.83l-59.42-71.1L16.07,274.83a1.49,1.49,0,0,1-.51,1,8.67,8.67,0,0,0-.51,3.55v2.54l101.05-39.1A8.25,8.25,0,0,1,119.66,241.83Z"/><path class="cls-1" d="M158.76,250a29.29,29.29,0,0,1,5.59,5.08L200,298.15V233.73Z"/><path class="cls-1" d="M106,93a3.59,3.59,0,0,0-2.54,3.55A388.38,388.38,0,0,1,90.71,154l-27.42,8.64,24.38,30a338.61,338.61,0,0,0,25.39-88.87L200,118.94V108.08L110,92Q108,91,106,93Z"/><path class="cls-1" d="M200,309.41,158.76,259.6a32.54,32.54,0,0,0-18.28-11.93,35.75,35.75,0,0,0-21.84,1.26l-98.51,38.6a7.66,7.66,0,0,0,3,1h.51L200,319.86Z"/></svg>