<svg id="Layer_1" data-name="Layer 1" xmlns="http://www.w3.org/2000/svg" viewBox="0 0 200 352"><defs><style>.cls-1{fill:#231f20;opacity:0.12;}</style></defs><title>work side icons</title><path class="cls-1" d="M200,304.55,83.6,319q-5.07-3.54-8.12-16.5A80.37,80.37,0,0,1,74,275.34Q76.5,254,83.1,252L108,250v11.17a5.6,5.6,0,0,0,.51,2.54c0,.68.51,1.19,1.52,1.52.68.69,1.18,1,1.52,1a3.4,3.4,0,0,0,2.54-1L126.77,251l12.69,19.29a2,2,0,0,0,2,1.53H143c.33,0,.84-.34,1.52-1a4,4,0,0,0,.51-2.54V247.92L158.76,251h3.56a21.81,21.81,0,0,0,8.63-1.53q2.53-1.51,23.87-10.66l5.18-.67v-126L119.66,96.08h-3L23.18,134.17c-2.38,1.36-3.39,3.22-3.05,5.58.67,3.05,2.2,4.58,4.57,4.58l6.09,1.52Q40.44,158,37.9,186.47l-1,.51a22.8,22.8,0,0,0-3.3,2.29q-2.3,1.78-5.34,7.36a46.73,46.73,0,0,0-4.57,13.2l-6.09,3.56c-2.37,1-3.22,2.88-2.54,5.58q0,3,4.06,4.07l3.05.5q-1,23.37,5.59,33l47.73,71.1a4.58,4.58,0,0,0,4.06,2.53h.51l120-14.74ZM82.08,241.83,77,234.72l23.87,5.07Zm79.73-70.08a3,3,0,0,1,2,1h.51l1,1a1.47,1.47,0,0,0,1,.51l.51.5q6.59,6.61,8.12,21.33a6.48,6.48,0,0,0,.26,1.53,7.59,7.59,0,0,1,.25,1.52q0,13.71-2,21.33-4.58,21.84-13.21,19.8l-15.74-2.54v-26.4q0-9.65,1-12.19l13.2,2.54h1a3.59,3.59,0,0,0,3.55-2.54c0-2.71-1-4.06-3.05-4.06L47.55,172.25a67.8,67.8,0,0,0-5.08-24.37ZM47,190c0-1,.08-2.71.26-5.08s.25-4.23.25-5.59L109,192.06c-.69,2-1,6.09-1,12.19v26.4L38.92,216.43Q44.5,207.81,47,190Zm16.25,84.3q-.51,6.09-.51,16.25L36.89,251q-3.57-5.59-4.57-24.89l29.45,5.59L72.43,246.9Q65.83,256.05,63.29,274.33Z"/></svg>