<?xml version="1.0" encoding="utf-8"?>
<!-- Generator: Adobe Illustrator 23.0.4, SVG Export Plug-In . SVG Version: 6.00 Build 0)  -->
<svg version="1.1" id="Layer_1" xmlns="http://www.w3.org/2000/svg" xmlns:xlink="http://www.w3.org/1999/xlink" x="0px" y="0px"
	 viewBox="0 0 200 352" style="enable-background:new 0 0 200 352;" xml:space="preserve">
<style type="text/css">
	.st0{opacity:0.12;}
</style>
<path class="st0" d="M200,306L86.1,320.2c-3.4-2.4-6.1-7.9-8.2-16.6s-2.5-17.8-1.5-27.3c1.7-14.3,4.8-22.1,9.2-23.4l25-2v11.2
	c0,1,0.2,1.9,0.5,2.5c0,0.7,0.5,1.2,1.5,1.5c0.7,0.7,1.2,1,1.5,1c1,0,1.9-0.3,2.5-1l12.7-14.3l12.7,19.4c0.3,1,1,1.5,2,1.5h1.5
	c0.3,0,0.8-0.3,1.5-1c0.3-0.3,0.5-1.2,0.5-2.5v-20.4l13.8,3.1h3.6c3.4,0,6.3-0.5,8.7-1.5c1.7-1,9.7-4.6,24-10.7l2.3-0.3V111.9
	l-77.8-15.6h-3.1l-93.8,38.2c-2.4,1.4-3.4,3.2-3.1,5.6c0.7,3.1,2.2,4.6,4.6,4.6l6.1,1.5c6.5,8.2,8.8,21.8,7.1,40.8l-1,0.5
	c-0.7,0.3-1.8,1.1-3.3,2.3c-1.5,1.2-3.3,3.7-5.4,7.4c-2,3.7-3.6,8.2-4.6,13.3l-6.1,3.6c-2.4,1-3.2,2.9-2.5,5.6c0,2,1.4,3.4,4.1,4.1
	l3.1,0.5C23.7,240,25.6,251,30,257.5l47.9,71.4c1,1.7,2.4,2.5,4.1,2.5h0.5L200,316.9V306z M84.5,242.7l-5.1-7.1l24,5.1L84.5,242.7z
	 M164.6,172.3c0.7,0,1.4,0.3,2,1h0.5l1,1c0.3,0.3,0.7,0.5,1,0.5l0.5,0.5c4.4,4.4,7.1,11.6,8.2,21.4c0,0.3,0.1,0.9,0.3,1.5
	c0.2,0.7,0.3,1.2,0.3,1.5c0,9.2-0.7,16.3-2,21.4c-3.1,14.6-7.5,21.2-13.3,19.9l-15.8-2.5v-26.5c0-6.5,0.3-10.5,1-12.2l13.3,2.5h1
	c1.7,0,2.9-0.8,3.6-2.5c0-2.7-1-4.1-3.1-4.1L49.9,172.8c-0.3-9.2-2-17.3-5.1-24.5L164.6,172.3z M49.3,190.7c0-1,0.1-2.7,0.3-5.1
	c0.2-2.4,0.3-4.2,0.3-5.6l61.7,12.7c-0.7,2-1,6.1-1,12.2v26.5l-69.3-14.3C44.9,211.4,47.6,202.6,49.3,190.7z M65.7,275.3
	c-0.3,4.1-0.5,9.5-0.5,16.3l-26-39.8c-2.4-3.7-3.9-12.1-4.6-25l29.6,5.6l10.7,15.3C70.4,253.9,67.4,263.1,65.7,275.3z"/>
</svg>
