<?xml version="1.0" encoding="utf-8"?>
<!-- Generator: Adobe Illustrator 26.0.3, SVG Export Plug-In . SVG Version: 6.00 Build 0)  -->
<svg version="1.1" id="Layer_1" xmlns="http://www.w3.org/2000/svg" xmlns:xlink="http://www.w3.org/1999/xlink" x="0px" y="0px"
	 viewBox="0 0 410 726" style="enable-background:new 0 0 410 726;" xml:space="preserve">
<style type="text/css">
	.st0{fill:#D9CDD5;}
	.st1{fill-rule:evenodd;clip-rule:evenodd;fill:#EEECED;}
	.st2{fill-rule:evenodd;clip-rule:evenodd;fill:#907989;fill-opacity:0.5;}
	.st3{fill-rule:evenodd;clip-rule:evenodd;fill:#B0C4D4;}
	.st4{fill:#907989;fill-opacity:0.5;}
	.st5{fill:#B0C4D4;}
</style>
<g>
	<path class="st4" d="M55.7,40.6c-0.2,0-0.3,0.1-0.3,0.3c0,0.1-0.1,1.8,0.4,3.3c0.5,1.7,1.8,3.3,1.9,3.3c0.1,0.1,0.2,0.1,0.2,0.1
		s0.2,0,0.2-0.1c0.2-0.1,0.2-0.3,0-0.4c0,0-1.3-1.6-1.7-3.1c-0.5-1.4-0.4-3-0.4-3.1C56,40.7,55.8,40.6,55.7,40.6z"/>
	<path class="st4" d="M61,48C61,48,61.1,48,61,48c0.2,0,0.3-0.1,0.3-0.2c0-0.1,0.3-1.6,0.2-2.4C61.5,44.6,61,43,61,43
		c-0.1-0.2-0.2-0.2-0.4-0.2s-0.2,0.2-0.2,0.4c0,0,0.5,1.6,0.6,2.2c0.1,0.6-0.2,1.8-0.2,2.2C60.8,47.7,60.9,47.9,61,48z"/>
	<path class="st4" d="M116.1,36.2c-2.1-0.4-6-1.4-8.7-2.4c-4.5-1.5-11.4-5.3-12.2-5.7c-1.1-0.6-3.7-2.3-5.9-3.8
		c-1.7-1.2-3.3-2.1-3.9-2.5c-0.3-0.2-0.7-0.4-1.2-0.7l30-23l0.2-0.2c0.1-0.2,0.9-1.4-0.6-3.3c-1.6-2.1-3-1.4-3.2-1.4h-0.1L79.2,17.3
		l0,0c-0.7-0.6-1.6-1.3-2.3-1.8c-0.5-0.3-0.8-0.6-1-0.8c-0.1-0.1-0.2-0.2-0.3-0.2c-0.7-0.6-1.9-1.6-3.7-1.6c-1.7,0-3.3,0.9-4.7,1.6
		c-0.2,0.1-0.4,0.2-0.6,0.3c-1.1,0.6-1.8,0.8-3.1,1.1L63,16c-0.5,0.1-1.1,0.2-1.7,0.3c-1.9,0.3-4.4,0.8-6.3,1.5
		c-2.7,1-4.1,1.7-4.9,2c-0.2,0.1-0.4,0.2-0.6,0.2c-0.9,0.3-2.1,0.8-2.9,1.7c-0.8,0.7-1,1.1-1.2,1.7c-0.1,0.2-0.1,0.3-0.2,0.4
		c-0.3,0.5-0.7,1.5-1.1,2.5c-0.2,0.4-0.3,0.8-0.4,1c-0.2,0.6-0.8,1.4-1.2,2.2c-0.2,0.4-0.5,0.8-0.6,1.1c-0.2,0.5-0.5,1-0.6,1.4
		c-0.2,0.6-0.5,1.1-0.7,1.6c-0.5,0.8-0.8,2.1-1,3.1c-0.1,0.2-0.1,0.5-0.2,0.6c-0.1,0.4-0.1,1-0.1,2c0,0.5,0,1.2,0,1.4
		c-0.1,0.4-0.2,0.7-0.2,0.8c-0.2,0.3-0.6,1.2-0.7,1.9c-0.2,0.7-0.8,2.1-0.6,3.3c0.1,0.6,0.4,1.3,0.9,1.7l-6.5,5l-4.7,6.1
		c-0.1,0.2-0.4,0.7-0.2,1.3c0.2,0.4,0.6,0.6,1,0.6c0.2,0,0.2,0,0.4-0.1l7-2.9l5.6-4.2l0,0L41,54.5c-0.3,1.1-0.6,2.3-0.2,3.2
		c0.7,1.5,1.9,2.3,3.3,2.5c0.2,0,0.3,0,0.5,0c0.4,0,0.8-0.1,1.1-0.2c0,0.2,0,0.4,0,0.5c0,0.1,0,0.2,0.1,0.3c0.1,0.4,0.1,0.8,0.3,1.2
		c0.3,0.7,1.3,1.5,2.5,1.7c0.2,0,0.4,0.1,0.6,0.1c0.8,0,1.6-0.2,2.3-0.6c0.3,0.3,0.8,0.6,1.4,0.8c1.2,0.2,2.9,0.2,3.9-0.3
		c1-0.4,2.1-1.1,2.9-2.1l0.6-0.6c0.4-0.2,1.3-0.6,2.1-1.1c0.2-0.2,0.6-0.5,0.9-0.6c0.7-0.6,1-0.8,1.3-1c0.2-0.2,0.3-0.3,0.4-0.5
		c0.4-0.1,0.9-0.2,1.3-0.4c1.2-0.6,1.7-0.9,2.1-1.1l0.2-0.2c0.1-0.1,0.2-0.2,0.2-0.2c0.1-0.1,0.1-0.1,0.2-0.2
		c0.2,0.1,0.3,0.2,0.5,0.2c1,0.5,2.3,1,3.3,0.9c0.2,0,0.2,0,0.4-0.1c0.2,0.3,0.4,0.6,0.7,0.9c0.4,0.2,0.8,0.5,1.3,0.7
		c0.3,0.2,0.6,0.3,0.8,0.4l0.1,0.1c0.2,0.1,0.3,0.2,0.6,0.2c0.6,0.3,1.7,0.8,2.4,1.3c1,0.7,3.2,2,4.8,2.5c1.5,0.6,4.1,0.7,5.6,0.8
		h0.6c0.8,0.1,3.3,0.2,5.6,0.2c1.5,0.1,2.9,0.2,3.6,0.2c0,0,0,0,0.1,0c0.5,0,0.8-0.3,0.9-0.8c0-0.5-0.3-0.9-0.8-0.9
		c-0.6,0-2.1-0.1-3.6-0.2c-2.2-0.1-4.8-0.2-5.6-0.2h-0.6c-1.4-0.1-3.9-0.2-5.2-0.7c-1.4-0.6-3.6-1.7-4.4-2.4c-0.8-0.6-2-1.1-2.8-1.4
		c-0.2-0.1-0.3-0.2-0.5-0.2c-0.2-0.2-0.6-0.3-0.9-0.5c-0.4-0.2-0.8-0.4-1-0.6c-0.2-0.2-0.2-0.5-0.3-0.6v-0.3
		c0.1-0.8,0.2-1.7,0.3-2.3c0.2-0.9,0.7-2,0.7-2.1c0-0.1,0-0.1,0-0.2c1.4,0.9,4.5,2.5,7.5,3.6c2.1,0.8,4.6,1.7,6.8,2.2
		c0.1,0,0.2,0,0.2,0c0.4,0,0.7-0.2,0.8-0.6c0.2-0.5-0.2-1-0.6-1c-2.1-0.6-4.5-1.4-6.7-2.2c-3.9-1.4-8-4-8.1-4l-0.2-0.1h-0.2
		c0,0-0.7-0.2-1.3-0.4h-0.1c-0.4-0.1-1.4-0.5-1.8-0.7l-0.2-0.1l-4.8-0.2l-0.2,0.1c0,0-0.8,0.4-1.8,0.6C64.4,48,64.1,48,64,48l0,0
		l-0.5-0.1l-0.3,0.3c0,0-0.6,0.6-1,1c-0.6,0.4-3.3,1.7-5.2,2.3c-2.5,0.7-4.9,1.1-5.6,1.1c-0.2,0-0.4,0-0.6,0
		c0.1-0.1,0.2-0.1,0.3-0.2c1-0.4,2.1-1,2.7-1.4c0.9-0.6,1.7-1.6,1.7-2.2c0-0.4-0.3-0.9-0.7-1.5c-0.2-0.3-0.4-0.6-0.6-1
		c-0.1-0.2-0.2-0.3-0.3-0.6c-0.5-0.9-1-1.8-1.6-2h-0.1c0,0-1-0.1-2.1,0.1c-0.5,0.1-1.2,0.4-1.8,0.7c0.8-0.9,1.7-1.7,2.8-2.4l0.9-0.5
		c2.1-1.3,4.4-2.7,6.1-3.3c1.3-0.5,2.4-0.6,3.4-0.6c0.4,0,0.9-0.1,1.3-0.2c-0.1,0.2-0.1,0.3,0.1,0.4c0,0,1.2,1.1,1.7,2.7
		c0.3,0.9,0.2,2.2,0.2,2.3c0,0.2,0.1,0.3,0.3,0.3l0,0c0.2,0,0.3-0.2,0.3-0.3c0-0.1,0.1-1.5-0.2-2.5c-0.6-1.8-1.8-2.9-1.9-3
		c0.4-0.1,0.9-0.1,1.4-0.2c1-0.1,2.3-0.2,3.8-0.6c0.2,0,0.3,0,0.3,0c0.2,0,0.3-0.1,0.5-0.2c0.4-0.1,0.7-0.2,1.1-0.2
		c3.5-0.8,6.1-2.3,6.3-2.4c0.4-0.2,0.6-0.7,0.3-1.2c-0.2-0.4-0.7-0.6-1.2-0.3c0,0-2.5,1.4-5.8,2.2c-0.6,0.2-1.1,0.2-1.7,0.3
		c-0.2,0-0.2,0-0.3-0.1h-0.2c-0.2,0-0.8-0.2-1.4-0.4l16.8-12.9c0.7,0.5,1.4,0.9,1.7,1.1c0.6,0.3,2.1,1.4,3.7,2.5
		c2.3,1.5,4.8,3.3,6,3.9c0.8,0.5,7.8,4.4,12.5,5.9c2.7,1,6.8,2.1,9,2.4c0.5,0.1,0.9-0.2,1-0.7C116.8,36.6,116.6,36.2,116.1,36.2z
		 M42.1,51.3l-7.3,5.6l-4.8,2l3.3-4.2l12.5-9.6c-0.6,0.9-1,1.8-1.1,2.6c-0.1,0.6,0,1.1,0.1,1.7l-1.9,1.4
		C42.5,50.9,42.2,51,42.1,51.3z M44.4,58.4c-1.2-0.1-1.7-1-2-1.5c-0.1-0.2,0-0.9,0.3-2l0.1-0.3c0.1-0.4,0.5-1.5,0.8-2.3l1.7-1.4
		c0.3,0.6,0.8,1.2,1.4,1.7c1,1,2,1.3,2.8,1.4c-0.1,0.2-0.2,0.2-0.2,0.4L49,54.9c-0.5,0.7-1.2,1.7-1.5,2.1
		C47.1,57.5,45.7,58.6,44.4,58.4z M69.6,54.3c0-0.1,0-0.2,0-0.2C69.6,54.1,69.6,54.1,69.6,54.3L69.6,54.3z M55.8,56.2
		c0-0.2,0.1-0.3,0.1-0.4c0.2-0.1,0.3-0.2,0.5-0.4c0.2-0.2,0.3-0.4,0.6-0.6c0.2-0.2,0.4-0.5,0.6-0.6l0.1-0.1c0.2-0.3,0.7-1,0.9-1.2
		c1.9-0.7,4.1-1.7,4.7-2.2c0.4-0.3,0.8-0.6,1-0.9c0.3,0,0.7-0.1,1.4-0.2c0.9-0.2,1.6-0.5,2-0.6l4,0.2c0.4,0.2,1.4,0.6,1.9,0.8
		c0.5,0.2,1.1,0.3,1.4,0.4c0.1,0.1,0.2,0.2,0.3,0.2c-0.1,0-0.2,0.1-0.2,0.2s-0.5,1.2-0.7,2.1c-0.1,0.5-0.2,1.2-0.3,1.8l-0.6,0.2
		c0,0-0.3,0.2-0.8,0.2c-0.4,0.1-1.4-0.2-2.3-0.7c-0.4-0.2-0.6-0.3-0.6-0.4c0-0.2,0-0.5,0-0.8c-0.1-1-0.4-2.1-0.6-2.6
		c-0.1-0.2-0.2-0.2-0.4-0.2s-0.2,0.2-0.2,0.4c0.2,0.5,0.6,1.6,0.6,2.5c0.1,0.3,0,0.6,0,1L68,54.1c0,0.2-0.3,0.4-0.4,0.6
		c-0.1,0.1-0.2,0.2-0.2,0.2c-0.2,0.1-0.6,0.4-1.7,0.9c-0.2,0.1-0.7,0.2-1,0.2h-0.3L64,56.3c0,0-0.4,0.5-0.6,0.6l-0.1,0.1
		c-0.1,0.1-0.6,0.5-1,0.7c-0.3,0.2-0.6,0.5-0.9,0.6c-0.3,0.2-0.7,0.5-1,0.6l0,0c0.1-0.3,0.2-1,0.3-2.1c0.1-1.3-1.2-2.1-1.3-2.1
		c-0.2-0.1-0.3-0.1-0.4,0.1c-0.1,0.2-0.1,0.3,0.1,0.4c0,0,1,0.7,1,1.7C60.1,58,60,58.6,59.9,59c0,0.2-0.1,0.3-0.2,0.5l0,0l-0.2,0.1
		l-1,1l0,0c-0.4,0.6-1.2,1.1-2.4,1.6c-0.5,0.2-1.7,0.4-2.7,0.2c-0.2-0.1-0.4-0.2-0.6-0.2c0.8-1,1.9-2.9,2.1-3.2
		C55.4,58.1,55.7,56.7,55.8,56.2z M50.7,55.5c0.2-0.4,0.5-0.8,0.6-1.1c0.9,0,2.2-0.2,3.4-0.6v0.1c-0.2,0.3-0.3,0.6-0.4,0.7v0.3
		c0,0.1,0,0.1,0,0.2c0,0.1,0,0.1,0,0.2v0.1c-0.1,0.2-0.1,0.4-0.2,0.6v0.2c0,0.2-0.3,1.4-0.6,1.9c-0.3,0.6-1.8,2.9-2.3,3.3
		c-0.6,0.5-1.5,0.8-2.2,0.6c-0.7-0.2-1.2-0.6-1.4-0.9c-0.1-0.2-0.1-0.4-0.2-0.6c0-0.2,0-0.2-0.1-0.4c0-0.2,0-0.6,0.1-1
		c0.7-0.5,1.1-0.9,1.2-1c0.5-0.5,1.1-1.6,1.7-2.3L50.7,55.5z M50.2,44.6c0.6-0.1,1-0.1,1.4-0.1c0.2,0,0.5,0,0.6,0
		c0.4,0.2,0.9,1,1.2,1.7c0.1,0.2,0.2,0.4,0.3,0.6c0.2,0.3,0.4,0.6,0.6,1c0.3,0.5,0.6,1,0.6,1.2c0,0.3-0.6,1.2-1.4,1.7
		c-0.5,0.4-1.7,1-2.6,1.3c-0.5,0.2-0.8,0.3-0.9,0.4c-0.5,0.2-1-0.2-1.4-0.5c-0.5-0.4-1.2-1.4-1.7-2.5c-0.2-0.6-0.3-1.5-0.2-2.2
		c0.2-0.3,0.3-0.7,0.6-1.1C47.8,45.5,49.3,44.7,50.2,44.6z M48.2,38.4c-0.2-0.7-0.5-1.8-1-2.5c-0.6-0.9-1.2-1.4-1.3-1.4
		c-0.2-0.1-0.3-0.1-0.4,0c-0.1,0.2-0.1,0.3,0,0.4c0,0,0.6,0.5,1.1,1.3c0.5,0.6,0.8,2,1,2.5V39c0,0.4-0.1,1.6-0.3,2.2v0.1
		c0,0.1-0.1,0.2-0.1,0.2l-7.4,5.6c-0.3-0.2-0.5-0.6-0.6-0.9c-0.2-0.8,0.3-2,0.5-2.5v-0.1c0.1-0.5,0.5-1.4,0.6-1.7l0.1-0.2
		c0,0,0.1-0.3,0.2-0.8c0.2-0.4,0.1-1,0.1-1.9c0-0.5,0-1.3,0-1.5c0.1-0.2,0.1-0.4,0.2-0.6c0.2-0.7,0.4-2,0.8-2.5
		c0.3-0.6,0.6-1.2,0.9-1.8c0.2-0.5,0.4-1,0.6-1.3c0.2-0.3,0.4-0.6,0.6-1c0.5-0.8,1-1.7,1.4-2.5c0.2-0.3,0.2-0.7,0.4-1.1
		c0.3-0.8,0.7-1.8,1-2.2c0.2-0.3,0.2-0.6,0.3-0.7c0.1-0.3,0.2-0.5,0.7-1l0.1-0.1c0.6-0.6,1.6-1,2.4-1.4c0.3-0.1,0.6-0.2,0.8-0.3
		c0.7-0.3,2.1-1,4.8-2c1.7-0.7,4.1-1.1,5.9-1.4c0.7-0.2,1.4-0.2,1.8-0.3l0.4-0.1c1.4-0.3,2.2-0.6,3.5-1.3c0.2-0.1,0.4-0.2,0.6-0.3
		c1.2-0.6,2.5-1.4,3.9-1.4c1.2,0,2,0.7,2.6,1.2c0.2,0.1,0.2,0.2,0.3,0.2c0.2,0.2,0.6,0.5,1.1,0.9c0.6,0.4,1.4,1,2,1.5l-15.3,12
		c-0.2-0.5-0.2-1-0.2-1V29l-0.1-0.2c-0.2-0.2-0.4-0.5-0.6-0.6c0.2-0.4,0.5-0.8,0.7-1.2c0.4-0.6,0.6-1.4,0.7-2.1
		c0.1-0.5,0.1-1.5,0.1-1.6c0-0.2-0.2-0.3-0.3-0.3c-0.2,0-0.3,0.2-0.3,0.3c0,0,0,1-0.1,1.4c-0.1,0.4-0.2,1.3-0.6,1.9
		c-0.3,0.6-0.8,1.3-1,1.6l-0.1,0.1c-0.3,0.3-1.1,1-1.8,1.5c-1,0.7-1.9,1.2-3.1,1.5c-0.7,0.2-1.5,0.3-2,0.4c0.2-0.5,0.4-1.2,0.3-2.1
		c-0.2-1.4-0.6-3.3-1.1-3.7L52.2,25c-0.1-0.2-0.3-0.2-0.4-0.1c-0.2,0.1-0.2,0.3-0.1,0.4l0.8,1.1c0.3,0.3,0.8,1.8,1,3.4
		c0.1,1-0.2,1.7-0.4,2.1L52.6,32c0.1-0.3,0.1-0.7,0-1c-0.1-0.7-0.3-1.2-0.3-1.2c-0.1-0.2-0.2-0.2-0.4-0.2c-0.2,0.1-0.2,0.2-0.2,0.4
		c0,0,0.2,0.5,0.3,1c0.1,0.3,0,0.8-0.1,1.1h-0.1l-0.1,0.5c0,0-0.2,0.7-0.5,1.4c-0.2,0.3-0.5,0.7-0.7,1.1c-0.3,0.4-0.6,0.9-0.9,1.4
		C49.3,37.4,48.5,38.1,48.2,38.4z M54.6,34.7c-0.1-0.2-0.2-0.2-0.4-0.2c-0.2,0.1-0.2,0.2-0.2,0.4c0,0,0.2,0.6,0.5,1.2l-5.3,4.1
		c0-0.2,0.1-0.4,0.1-0.6c0.5-0.4,1.3-1.2,1.8-2.1c0.3-0.5,0.6-0.9,0.9-1.3c0.3-0.5,0.6-0.9,0.9-1.3c0.2-0.5,0.4-1,0.6-1.4
		c0.4,0,1.7-0.2,2.9-0.5c1.4-0.4,2.4-1,3.6-1.8c0.3-0.3,0.7-0.6,1-0.8c0.1,0.2,0.1,0.3,0.2,0.5c0,0,0,0.1,0.1,0.1l-6,4.6
		C54.9,35.2,54.7,34.7,54.6,34.7z M61.7,36.2C61.6,36.2,61.6,36.2,61.7,36.2c-0.2,0-0.3,0.1-0.5,0.1c-1.1,0.1-2.3,0.2-3.8,0.7
		c-0.6,0.2-1.2,0.5-1.8,0.8c0-0.1,0-0.2,0-0.2l56-43c0.2,0,0.6,0.2,1,0.9c0.6,0.7,0.6,1.1,0.6,1.3L61.7,36.2z"/>
</g>
</svg>
