<svg xmlns="http://www.w3.org/2000/svg" width="124" height="51" viewBox="0 0 124 51">
    <g fill="none" fill-rule="evenodd" transform="translate(0 .46)">
        <rect width="96" height="22" fill="#FFF" rx="4"/>
        <path fill="#242424" fill-rule="nonzero" d="M17.023 15.54V7.423l-.68-.344-2.796 1.25.476 1.078 1.641-.695v6.828h1.36zm3.32 2.07c.631.037 1.22.008 1.766-.086.547-.093 1.067-.257 1.559-.492.492-.234.926-.57 1.3-1.008.376-.437.67-.96.884-1.57.328-.953.507-2.01.539-3.172.02-.86-.085-1.597-.317-2.215-.232-.617-.614-1.102-1.148-1.457-.534-.354-1.202-.53-2.004-.53-.578 0-1.094.1-1.547.3-.453.2-.815.471-1.086.812-.27.342-.475.722-.613 1.141-.138.42-.207.863-.207 1.332 0 1.073.27 1.914.812 2.523.542.568 1.276.852 2.203.852.365 0 .757-.066 1.176-.2.42-.132.796-.31 1.13-.534-.21 1.166-.678 2.013-1.407 2.539-.73.526-1.742.76-3.04.703v1.062zm2.415-4.695c-.594 0-1.057-.17-1.39-.508-.36-.37-.54-.96-.54-1.773 0-.745.181-1.336.543-1.774.362-.437.879-.656 1.55-.656.386 0 .718.072.997.215.279.143.497.345.656.605.16.26.275.553.348.875.073.323.11.683.11 1.079 0 .38-.032.724-.095 1.03-.328.266-.688.484-1.082.653-.393.17-.759.254-1.097.254zm8.281 4.695v-.578c0-1.146.052-2.052.156-2.719.13-.843.42-1.708.867-2.593.428-.865 1.146-2.034 2.157-3.508l-.383-1.125c-.36.094-.721.164-1.086.21-.385.048-.878.071-1.477.071h-3.476V8.54h4.672c-.86 1.333-1.453 2.354-1.782 3.063-.437.937-.714 1.815-.832 2.632-.117.818-.175 1.943-.175 3.375h1.36zm8.68-1.867c.593 0 1.146-.113 1.656-.34.51-.226.95-.535 1.32-.925.37-.391.66-.85.871-1.375.211-.526.317-1.089.317-1.688 0-.594-.106-1.154-.317-1.68-.21-.526-.5-.984-.87-1.375-.37-.39-.81-.699-1.321-.925-.51-.227-1.063-.34-1.656-.34-.6 0-1.153.113-1.66.34-.508.226-.948.535-1.32.925-.373.391-.665.85-.876 1.375-.21.526-.316 1.086-.316 1.68 0 .599.105 1.162.316 1.688.211.526.503.984.875 1.375.373.39.813.699 1.32.925.508.227 1.062.34 1.66.34zm0-1.234c-.407 0-.782-.08-1.125-.238-.344-.16-.64-.378-.89-.657-.25-.278-.446-.607-.587-.984-.14-.378-.21-.783-.21-1.215 0-.432.07-.836.21-1.21.14-.376.336-.703.586-.981.25-.279.547-.498.89-.657.344-.158.72-.238 1.126-.238.406 0 .781.08 1.125.238.343.16.64.378.886.657.248.278.442.605.583.98.14.375.21.779.21 1.211 0 .432-.07.837-.21 1.215-.141.377-.335.706-.583.984-.247.279-.542.498-.886.657-.344.158-.719.238-1.125.238zm12.367-2.75v-1.156H46.18v1.156h5.906zm5.773 3.781V7.423l-.68-.344-2.796 1.25.476 1.078 1.641-.695v6.828h1.36zm3.32 2.07c.63.037 1.22.008 1.766-.086.547-.093 1.067-.257 1.559-.492.492-.234.926-.57 1.3-1.008.376-.437.67-.96.883-1.57.329-.953.508-2.01.54-3.172.02-.86-.085-1.597-.317-2.215-.232-.617-.614-1.102-1.148-1.457-.534-.354-1.202-.53-2.004-.53-.578 0-1.094.1-1.547.3-.453.2-.815.471-1.086.812-.27.342-.475.722-.613 1.141-.138.42-.207.863-.207 1.332 0 1.073.27 1.914.812 2.523.542.568 1.276.852 2.203.852.365 0 .757-.066 1.176-.2.42-.132.796-.31 1.129-.534-.208 1.166-.677 2.013-1.406 2.539-.73.526-1.742.76-3.04.703v1.062zm2.415-4.695c-.594 0-1.058-.17-1.39-.508-.36-.37-.54-.96-.54-1.773 0-.745.181-1.336.543-1.774.362-.437.879-.656 1.55-.656.386 0 .718.072.997.215.279.143.497.345.656.605.159.26.275.553.348.875.073.323.11.683.11 1.079 0 .38-.032.724-.095 1.03-.328.266-.688.484-1.082.653-.393.17-.759.254-1.097.254zm8.281 4.695v-.578c0-1.146.052-2.052.156-2.719.13-.843.42-1.708.867-2.593.428-.865 1.146-2.034 2.157-3.508l-.383-1.125c-.36.094-.721.164-1.086.21-.385.048-.878.071-1.477.071h-3.476V8.54h4.672c-.86 1.333-1.453 2.354-1.782 3.063-.437.937-.714 1.815-.832 2.632-.117.818-.175 1.943-.175 3.375h1.359zm5.375 0c.63.037 1.219.008 1.766-.086.546-.093 1.066-.257 1.558-.492.492-.234.926-.57 1.301-1.008.375-.437.67-.96.883-1.57.328-.953.508-2.01.539-3.172.02-.86-.085-1.597-.317-2.215-.231-.617-.614-1.102-1.148-1.457-.534-.354-1.202-.53-2.004-.53-.578 0-1.094.1-1.547.3-.453.2-.815.471-1.086.812-.27.342-.475.722-.613 1.141-.138.42-.207.863-.207 1.332 0 1.073.27 1.914.813 2.523.541.568 1.276.852 2.203.852.364 0 .756-.066 1.175-.2.42-.132.796-.31 1.13-.534-.209 1.166-.678 2.013-1.407 2.539-.73.526-1.742.76-3.039.703v1.062zm2.414-4.695c-.594 0-1.057-.17-1.39-.508-.36-.37-.54-.96-.54-1.773 0-.745.181-1.336.543-1.774.362-.437.88-.656 1.551-.656.386 0 .718.072.996.215.279.143.498.345.656.605.16.26.275.553.348.875.073.323.11.683.11 1.079 0 .38-.032.724-.094 1.03-.328.266-.69.484-1.082.653-.394.17-.76.254-1.098.254z"/>
        <path fill="#FFF" fill-rule="nonzero" d="M110.605 4.047l-.092 6.33c5.72 2.3 10.194 6.996 12.144 12.997 3.548 10.92-2.332 22.639-13.15 26.35l-.333.112-.618-1.902c9.98-3.243 15.442-13.962 12.199-23.942-1.683-5.178-5.439-9.28-10.273-11.455l-.08 5.508-13.898-7.202 14.1-6.796z"/>
    </g>
</svg>
